<?xml version="1.0" encoding="UTF-8" standalone="no"?>
<!DOCTYPE svg PUBLIC "-//W3C//DTD SVG 1.1//EN"
 "http://www.w3.org/Graphics/SVG/1.1/DTD/svg11.dtd">
<!-- Generated by graphviz version 2.43.0 (0)
 -->
<!-- Title: Level 2: Basic numerical algorithms Pages: 1 -->
<svg width="311pt" height="161pt"
 viewBox="0.00 0.00 311.00 160.50" xmlns="http://www.w3.org/2000/svg" xmlns:xlink="http://www.w3.org/1999/xlink">
<g id="graph0" class="graph" transform="scale(1 1) rotate(0) translate(4 156.5)">
<title>Level 2: Basic numerical algorithms</title>
<!-- Node5 -->
<g id="Node000005" class="node">
<title>Node5</title>
<g id="a_Node000005"><a xlink:href="group__exp__int.html" target="_top" xlink:title=" ">
<polygon fill="white" stroke="#666666" points="303,-152.5 172,-152.5 172,-133.5 303,-133.5 303,-152.5"/>
<text text-anchor="middle" x="237.5" y="-140.5" font-family="Helvetica,sans-Serif" font-size="10.00">Exponential integrators</text>
</a>
</g>
</g>
<!-- Node4 -->
<g id="Node000004" class="node">
<title>Node4</title>
<g id="a_Node000004"><a xlink:href="group__matrixfunctionapproximation.html" target="_top" xlink:title=" ">
<polygon fill="white" stroke="#666666" points="286,-115.5 189,-115.5 189,-96.5 286,-96.5 286,-115.5"/>
<text text-anchor="middle" x="237.5" y="-103.5" font-family="Helvetica,sans-Serif" font-size="10.00">Matrix&#45;functions</text>
</a>
</g>
</g>
<!-- Node2 -->
<g id="Node000002" class="node">
<title>Node2</title>
<g id="a_Node000002"><a xlink:href="group__matrixinvert.html" target="_top" xlink:title=" ">
<polygon fill="white" stroke="#666666" points="302.5,-78 172.5,-78 172.5,-48 302.5,-48 302.5,-78"/>
<text text-anchor="start" x="180.5" y="-66" font-family="Helvetica,sans-Serif" font-size="10.00">Inversion of tridiagonal</text>
<text text-anchor="middle" x="237.5" y="-55" font-family="Helvetica,sans-Serif" font-size="10.00"> matrices</text>
</a>
</g>
</g>
<!-- Node1 -->
<g id="Node000001" class="node">
<title>Node1</title>
<g id="a_Node000001"><a xlink:title=" ">
<polygon fill="#999999" stroke="#666666" points="136,-99 0,-99 0,-69 136,-69 136,-99"/>
<text text-anchor="start" x="8" y="-87" font-family="Helvetica,sans-Serif" font-size="10.00">Level 2: Basic numerical</text>
<text text-anchor="middle" x="68" y="-76" font-family="Helvetica,sans-Serif" font-size="10.00"> algorithms</text>
</a>
</g>
</g>
<!-- Node1&#45;&gt;Node5 -->
<g id="edge4" class="edge">
<title>Node1&#45;&gt;Node5</title>
<path fill="none" stroke="black" d="M114.01,-103.12C131.9,-110.41 152.77,-118.51 172,-125 180.92,-128.01 190.66,-130.92 199.79,-133.49"/>
<polygon fill="black" stroke="black" points="114.98,-99.74 104.4,-99.18 112.32,-106.22 114.98,-99.74"/>
</g>
<!-- Node1&#45;&gt;Node4 -->
<g id="edge3" class="edge">
<title>Node1&#45;&gt;Node4</title>
<path fill="none" stroke="black" d="M146.18,-94.14C160.75,-96.05 175.58,-98 188.9,-99.75"/>
<polygon fill="black" stroke="black" points="146.53,-90.65 136.16,-92.82 145.62,-97.59 146.53,-90.65"/>
</g>
<!-- Node1&#45;&gt;Node2 -->
<g id="edge1" class="edge">
<title>Node1&#45;&gt;Node2</title>
<path fill="none" stroke="black" d="M146.31,-74.31C155.01,-73.22 163.81,-72.11 172.31,-71.05"/>
<polygon fill="black" stroke="black" points="145.65,-70.86 136.16,-75.58 146.52,-77.81 145.65,-70.86"/>
</g>
<!-- Node3 -->
<g id="Node000003" class="node">
<title>Node3</title>
<g id="a_Node000003"><a xlink:href="group__tridiagfunction.html" target="_top" xlink:title=" ">
<polygon fill="white" stroke="#666666" points="290,-30 185,-30 185,0 290,0 290,-30"/>
<text text-anchor="start" x="193" y="-18" font-family="Helvetica,sans-Serif" font-size="10.00">Tridiagonal Matrix</text>
<text text-anchor="middle" x="237.5" y="-7" font-family="Helvetica,sans-Serif" font-size="10.00">&#45;functions</text>
</a>
</g>
</g>
<!-- Node1&#45;&gt;Node3 -->
<g id="edge2" class="edge">
<title>Node1&#45;&gt;Node3</title>
<path fill="none" stroke="black" d="M111.52,-64.79C130,-56.6 151.97,-47.09 172,-39 179.42,-36 187.38,-32.93 195.08,-30.02"/>
<polygon fill="black" stroke="black" points="109.91,-61.67 102.2,-68.94 112.76,-68.07 109.91,-61.67"/>
</g>
</g>
</svg>
