<?xml version="1.0" encoding="UTF-8" standalone="no"?>
<!DOCTYPE svg PUBLIC "-//W3C//DTD SVG 1.1//EN"
 "http://www.w3.org/Graphics/SVG/1.1/DTD/svg11.dtd">
<!-- Generated by graphviz version 2.43.0 (0)
 -->
<!-- Title: accumulate.h Pages: 1 -->
<svg width="526pt" height="82pt"
 viewBox="0.00 0.00 525.50 82.00" xmlns="http://www.w3.org/2000/svg" xmlns:xlink="http://www.w3.org/1999/xlink">
<g id="graph0" class="graph" transform="scale(1 1) rotate(0) translate(4 78)">
<title>accumulate.h</title>
<!-- Node1 -->
<g id="Node000001" class="node">
<title>Node1</title>
<g id="a_Node000001"><a xlink:title="Primitives for accumulation into superaccumulator.">
<polygon fill="#999999" stroke="#666666" points="285.5,-74 202.5,-74 202.5,-55 285.5,-55 285.5,-74"/>
<text text-anchor="middle" x="244" y="-62" font-family="Helvetica,sans-Serif" font-size="10.00">accumulate.h</text>
</a>
</g>
</g>
<!-- Node2 -->
<g id="Node000002" class="node">
<title>Node2</title>
<g id="a_Node000002"><a xlink:href="exdot__omp_8h.html" target="_top" xlink:title="OpenMP version of exdot.">
<polygon fill="white" stroke="#666666" points="80,-19 0,-19 0,0 80,0 80,-19"/>
<text text-anchor="middle" x="40" y="-7" font-family="Helvetica,sans-Serif" font-size="10.00">exdot_omp.h</text>
</a>
</g>
</g>
<!-- Node1&#45;&gt;Node2 -->
<g id="edge1_Node000001_Node000002" class="edge">
<title>Node1&#45;&gt;Node2</title>
<g id="a_edge1_Node000001_Node000002"><a xlink:title=" ">
<path fill="none" stroke="#63b8ff" d="M201.42,-52.44C163.23,-42.52 107.98,-28.16 73.03,-19.08"/>
<polygon fill="#63b8ff" stroke="#63b8ff" points="200.67,-55.86 211.22,-54.98 202.43,-49.08 200.67,-55.86"/>
</a>
</g>
</g>
<!-- Node3 -->
<g id="Node000003" class="node">
<title>Node3</title>
<g id="a_Node000003"><a xlink:href="exdot__serial_8h.html" target="_top" xlink:title="Serial version of exdot.">
<polygon fill="white" stroke="#666666" points="184,-19 98,-19 98,0 184,0 184,-19"/>
<text text-anchor="middle" x="141" y="-7" font-family="Helvetica,sans-Serif" font-size="10.00">exdot_serial.h</text>
</a>
</g>
</g>
<!-- Node1&#45;&gt;Node3 -->
<g id="edge2_Node000001_Node000003" class="edge">
<title>Node1&#45;&gt;Node3</title>
<g id="a_edge2_Node000001_Node000003"><a xlink:title=" ">
<path fill="none" stroke="#63b8ff" d="M218.48,-50.37C199.56,-40.63 174.3,-27.64 157.85,-19.17"/>
<polygon fill="#63b8ff" stroke="#63b8ff" points="216.96,-53.52 227.45,-54.98 220.16,-47.3 216.96,-53.52"/>
</a>
</g>
</g>
<!-- Node4 -->
<g id="Node000004" class="node">
<title>Node4</title>
<g id="a_Node000004"><a xlink:href="fpedot__omp_8h.html" target="_top" xlink:title="OpenMP version of fpedot.">
<polygon fill="white" stroke="#666666" points="286,-19 202,-19 202,0 286,0 286,-19"/>
<text text-anchor="middle" x="244" y="-7" font-family="Helvetica,sans-Serif" font-size="10.00">fpedot_omp.h</text>
</a>
</g>
</g>
<!-- Node1&#45;&gt;Node4 -->
<g id="edge3_Node000001_Node000004" class="edge">
<title>Node1&#45;&gt;Node4</title>
<g id="a_edge3_Node000001_Node000004"><a xlink:title=" ">
<path fill="none" stroke="#63b8ff" d="M244,-44.66C244,-35.93 244,-25.99 244,-19.09"/>
<polygon fill="#63b8ff" stroke="#63b8ff" points="240.5,-44.75 244,-54.75 247.5,-44.75 240.5,-44.75"/>
</a>
</g>
</g>
<!-- Node5 -->
<g id="Node000005" class="node">
<title>Node5</title>
<g id="a_Node000005"><a xlink:href="fpedot__serial_8h.html" target="_top" xlink:title="Serial version of fpedot.">
<polygon fill="white" stroke="#666666" points="392.5,-19 303.5,-19 303.5,0 392.5,0 392.5,-19"/>
<text text-anchor="middle" x="348" y="-7" font-family="Helvetica,sans-Serif" font-size="10.00">fpedot_serial.h</text>
</a>
</g>
</g>
<!-- Node1&#45;&gt;Node5 -->
<g id="edge4_Node000001_Node000005" class="edge">
<title>Node1&#45;&gt;Node5</title>
<g id="a_edge4_Node000001_Node000005"><a xlink:title=" ">
<path fill="none" stroke="#63b8ff" d="M269.77,-50.37C288.87,-40.63 314.37,-27.64 330.99,-19.17"/>
<polygon fill="#63b8ff" stroke="#63b8ff" points="268.03,-47.33 260.71,-54.98 271.21,-53.56 268.03,-47.33"/>
</a>
</g>
</g>
<!-- Node6 -->
<g id="Node000006" class="node">
<title>Node6</title>
<g id="a_Node000006"><a xlink:href="mpi__accumulate_8h.html" target="_top" xlink:title="Primitives for an MPI Reduction.">
<polygon fill="white" stroke="#666666" points="517.5,-19 410.5,-19 410.5,0 517.5,0 517.5,-19"/>
<text text-anchor="middle" x="464" y="-7" font-family="Helvetica,sans-Serif" font-size="10.00">mpi_accumulate.h</text>
</a>
</g>
</g>
<!-- Node1&#45;&gt;Node6 -->
<g id="edge5_Node000001_Node000006" class="edge">
<title>Node1&#45;&gt;Node6</title>
<g id="a_edge5_Node000001_Node000006"><a xlink:title=" ">
<path fill="none" stroke="#63b8ff" d="M289.13,-52.63C330.34,-42.7 390.45,-28.22 428.38,-19.08"/>
<polygon fill="#63b8ff" stroke="#63b8ff" points="288.25,-49.24 279.35,-54.98 289.89,-56.05 288.25,-49.24"/>
</a>
</g>
</g>
</g>
</svg>
