<?xml version="1.0" encoding="UTF-8" standalone="no"?>
<!DOCTYPE svg PUBLIC "-//W3C//DTD SVG 1.1//EN"
 "http://www.w3.org/Graphics/SVG/1.1/DTD/svg11.dtd">
<!-- Generated by graphviz version 2.43.0 (0)
 -->
<!-- Title: fpedot_omp.h Pages: 1 -->
<svg width="541pt" height="137pt"
 viewBox="0.00 0.00 540.50 137.00" xmlns="http://www.w3.org/2000/svg" xmlns:xlink="http://www.w3.org/1999/xlink">
<g id="graph0" class="graph" transform="scale(1 1) rotate(0) translate(4 133)">
<title>fpedot_omp.h</title>
<!-- Node1 -->
<g id="Node000001" class="node">
<title>Node1</title>
<g id="a_Node000001"><a xlink:title="OpenMP version of fpedot.">
<polygon fill="#999999" stroke="#666666" points="268,-129 184,-129 184,-110 268,-110 268,-129"/>
<text text-anchor="middle" x="226" y="-117" font-family="Helvetica,sans-Serif" font-size="10.00">fpedot_omp.h</text>
</a>
</g>
</g>
<!-- Node2 -->
<g id="Node000002" class="node">
<title>Node2</title>
<g id="a_Node000002"><a xlink:title=" ">
<polygon fill="#e0e0e0" stroke="#999999" points="52,-74 0,-74 0,-55 52,-55 52,-74"/>
<text text-anchor="middle" x="26" y="-62" font-family="Helvetica,sans-Serif" font-size="10.00">cassert</text>
</a>
</g>
</g>
<!-- Node1&#45;&gt;Node2 -->
<g id="edge1_Node000001_Node000002" class="edge">
<title>Node1&#45;&gt;Node2</title>
<g id="a_edge1_Node000001_Node000002"><a xlink:title=" ">
<path fill="none" stroke="#63b8ff" d="M193.87,-109.98C157.83,-100.44 99.54,-84.99 62,-75.04"/>
<polygon fill="#63b8ff" stroke="#63b8ff" points="62.56,-71.57 52,-72.39 60.77,-78.34 62.56,-71.57"/>
</a>
</g>
</g>
<!-- Node3 -->
<g id="Node000003" class="node">
<title>Node3</title>
<g id="a_Node000003"><a xlink:title=" ">
<polygon fill="#e0e0e0" stroke="#999999" points="119.5,-74 70.5,-74 70.5,-55 119.5,-55 119.5,-74"/>
<text text-anchor="middle" x="95" y="-62" font-family="Helvetica,sans-Serif" font-size="10.00">cstdlib</text>
</a>
</g>
</g>
<!-- Node1&#45;&gt;Node3 -->
<g id="edge2_Node000001_Node000003" class="edge">
<title>Node1&#45;&gt;Node3</title>
<g id="a_edge2_Node000001_Node000003"><a xlink:title=" ">
<path fill="none" stroke="#63b8ff" d="M204.95,-109.98C183.59,-101.34 150.3,-87.87 125.94,-78.02"/>
<polygon fill="#63b8ff" stroke="#63b8ff" points="127.01,-74.68 116.43,-74.17 124.39,-81.17 127.01,-74.68"/>
</a>
</g>
</g>
<!-- Node4 -->
<g id="Node000004" class="node">
<title>Node4</title>
<g id="a_Node000004"><a xlink:title=" ">
<polygon fill="#e0e0e0" stroke="#999999" points="184,-74 138,-74 138,-55 184,-55 184,-74"/>
<text text-anchor="middle" x="161" y="-62" font-family="Helvetica,sans-Serif" font-size="10.00">cstdio</text>
</a>
</g>
</g>
<!-- Node1&#45;&gt;Node4 -->
<g id="edge3_Node000001_Node000004" class="edge">
<title>Node1&#45;&gt;Node4</title>
<g id="a_edge3_Node000001_Node000004"><a xlink:title=" ">
<path fill="none" stroke="#63b8ff" d="M215.56,-109.98C205.85,-102.07 191.18,-90.11 179.5,-80.58"/>
<polygon fill="#63b8ff" stroke="#63b8ff" points="181.6,-77.78 171.63,-74.17 177.17,-83.2 181.6,-77.78"/>
</a>
</g>
</g>
<!-- Node5 -->
<g id="Node000005" class="node">
<title>Node5</title>
<g id="a_Node000005"><a xlink:title=" ">
<polygon fill="#e0e0e0" stroke="#999999" points="249.5,-74 202.5,-74 202.5,-55 249.5,-55 249.5,-74"/>
<text text-anchor="middle" x="226" y="-62" font-family="Helvetica,sans-Serif" font-size="10.00">cmath</text>
</a>
</g>
</g>
<!-- Node1&#45;&gt;Node5 -->
<g id="edge4_Node000001_Node000005" class="edge">
<title>Node1&#45;&gt;Node5</title>
<g id="a_edge4_Node000001_Node000005"><a xlink:title=" ">
<path fill="none" stroke="#63b8ff" d="M226,-109.75C226,-102.8 226,-92.85 226,-84.13"/>
<polygon fill="#63b8ff" stroke="#63b8ff" points="229.5,-84.09 226,-74.09 222.5,-84.09 229.5,-84.09"/>
</a>
</g>
</g>
<!-- Node6 -->
<g id="Node000006" class="node">
<title>Node6</title>
<g id="a_Node000006"><a xlink:title=" ">
<polygon fill="#e0e0e0" stroke="#999999" points="328,-74 268,-74 268,-55 328,-55 328,-74"/>
<text text-anchor="middle" x="298" y="-62" font-family="Helvetica,sans-Serif" font-size="10.00">iostream</text>
</a>
</g>
</g>
<!-- Node1&#45;&gt;Node6 -->
<g id="edge5_Node000001_Node000006" class="edge">
<title>Node1&#45;&gt;Node6</title>
<g id="a_edge5_Node000001_Node000006"><a xlink:title=" ">
<path fill="none" stroke="#63b8ff" d="M237.57,-109.98C248.42,-102 264.88,-89.88 277.88,-80.31"/>
<polygon fill="#63b8ff" stroke="#63b8ff" points="280.24,-82.92 286.22,-74.17 276.09,-77.28 280.24,-82.92"/>
</a>
</g>
</g>
<!-- Node7 -->
<g id="Node000007" class="node">
<title>Node7</title>
<g id="a_Node000007"><a xlink:title=" ">
<polygon fill="#e0e0e0" stroke="#999999" points="393.5,-74 346.5,-74 346.5,-55 393.5,-55 393.5,-74"/>
<text text-anchor="middle" x="370" y="-62" font-family="Helvetica,sans-Serif" font-size="10.00">omp.h</text>
</a>
</g>
</g>
<!-- Node1&#45;&gt;Node7 -->
<g id="edge6_Node000001_Node000007" class="edge">
<title>Node1&#45;&gt;Node7</title>
<g id="a_edge6_Node000001_Node000007"><a xlink:title=" ">
<path fill="none" stroke="#63b8ff" d="M249.14,-109.98C272.82,-101.27 309.87,-87.63 336.71,-77.75"/>
<polygon fill="#63b8ff" stroke="#63b8ff" points="338.27,-80.91 346.44,-74.17 335.85,-74.34 338.27,-80.91"/>
</a>
</g>
</g>
<!-- Node8 -->
<g id="Node000008" class="node">
<title>Node8</title>
<g id="a_Node000008"><a xlink:href="accumulate_8h.html" target="_top" xlink:title="Primitives for accumulation into superaccumulator.">
<polygon fill="white" stroke="#666666" points="494.5,-74 411.5,-74 411.5,-55 494.5,-55 494.5,-74"/>
<text text-anchor="middle" x="453" y="-62" font-family="Helvetica,sans-Serif" font-size="10.00">accumulate.h</text>
</a>
</g>
</g>
<!-- Node1&#45;&gt;Node8 -->
<g id="edge7_Node000001_Node000008" class="edge">
<title>Node1&#45;&gt;Node8</title>
<g id="a_edge7_Node000001_Node000008"><a xlink:title=" ">
<path fill="none" stroke="#63b8ff" d="M262.47,-109.98C301.57,-100.86 363.77,-86.33 406.39,-76.38"/>
<polygon fill="#63b8ff" stroke="#63b8ff" points="407.3,-79.76 416.24,-74.08 405.71,-72.95 407.3,-79.76"/>
</a>
</g>
</g>
<!-- Node9 -->
<g id="Node000009" class="node">
<title>Node9</title>
<g id="a_Node000009"><a xlink:title=" ">
<polygon fill="#e0e0e0" stroke="#999999" points="439,-19 383,-19 383,0 439,0 439,-19"/>
<text text-anchor="middle" x="411" y="-7" font-family="Helvetica,sans-Serif" font-size="10.00">config.h</text>
</a>
</g>
</g>
<!-- Node8&#45;&gt;Node9 -->
<g id="edge8_Node000008_Node000009" class="edge">
<title>Node8&#45;&gt;Node9</title>
<g id="a_edge8_Node000008_Node000009"><a xlink:title=" ">
<path fill="none" stroke="#63b8ff" d="M446.06,-54.75C440.13,-47.26 431.43,-36.28 424.18,-27.13"/>
<polygon fill="#63b8ff" stroke="#63b8ff" points="426.76,-24.75 417.81,-19.09 421.27,-29.1 426.76,-24.75"/>
</a>
</g>
</g>
<!-- Node10 -->
<g id="Node000010" class="node">
<title>Node10</title>
<g id="a_Node000010"><a xlink:title=" ">
<polygon fill="#e0e0e0" stroke="#999999" points="532.5,-19 457.5,-19 457.5,0 532.5,0 532.5,-19"/>
<text text-anchor="middle" x="495" y="-7" font-family="Helvetica,sans-Serif" font-size="10.00">mylibm.hpp</text>
</a>
</g>
</g>
<!-- Node8&#45;&gt;Node10 -->
<g id="edge9_Node000008_Node000010" class="edge">
<title>Node8&#45;&gt;Node10</title>
<g id="a_edge9_Node000008_Node000010"><a xlink:title=" ">
<path fill="none" stroke="#63b8ff" d="M459.94,-54.75C465.87,-47.26 474.57,-36.28 481.82,-27.13"/>
<polygon fill="#63b8ff" stroke="#63b8ff" points="484.73,-29.1 488.19,-19.09 479.24,-24.75 484.73,-29.1"/>
</a>
</g>
</g>
</g>
</svg>
