<?xml version="1.0" encoding="UTF-8" standalone="no"?>
<!DOCTYPE svg PUBLIC "-//W3C//DTD SVG 1.1//EN"
 "http://www.w3.org/Graphics/SVG/1.1/DTD/svg11.dtd">
<!-- Generated by graphviz version 2.43.0 (0)
 -->
<!-- Title: easy_dims.h Pages: 1 -->
<svg width="1325pt" height="192pt"
 viewBox="0.00 0.00 1324.73 192.00" xmlns="http://www.w3.org/2000/svg" xmlns:xlink="http://www.w3.org/1999/xlink">
<g id="graph0" class="graph" transform="scale(1 1) rotate(0) translate(4 188)">
<title>easy_dims.h</title>
<!-- Node1 -->
<g id="Node000001" class="node">
<title>Node1</title>
<g id="a_Node000001"><a xlink:title=" ">
<polygon fill="#999999" stroke="#666666" points="552.23,-184 474.23,-184 474.23,-165 552.23,-165 552.23,-184"/>
<text text-anchor="middle" x="513.23" y="-172" font-family="Helvetica,sans-Serif" font-size="10.00">easy_dims.h</text>
</a>
</g>
</g>
<!-- Node2 -->
<g id="Node000002" class="node">
<title>Node2</title>
<g id="a_Node000002"><a xlink:title=" ">
<polygon fill="#e0e0e0" stroke="#999999" points="718.23,-19 662.23,-19 662.23,0 718.23,0 718.23,-19"/>
<text text-anchor="middle" x="690.23" y="-7" font-family="Helvetica,sans-Serif" font-size="10.00">netcdf.h</text>
</a>
</g>
</g>
<!-- Node1&#45;&gt;Node2 -->
<g id="edge1_Node000001_Node000002" class="edge">
<title>Node1&#45;&gt;Node2</title>
<g id="a_edge1_Node000001_Node000002"><a xlink:title=" ">
<path fill="none" stroke="#63b8ff" d="M474.11,-173.05C360.36,-171.34 35.81,-163.46 4.23,-129 -1.47,-122.77 -1.29,-116.39 4.23,-110 89.44,-11.54 520.74,-8.44 652.17,-9.84"/>
<polygon fill="#63b8ff" stroke="#63b8ff" points="652.13,-13.34 662.17,-9.96 652.21,-6.34 652.13,-13.34"/>
</a>
</g>
</g>
<!-- Node3 -->
<g id="Node000003" class="node">
<title>Node3</title>
<g id="a_Node000003"><a xlink:title=" ">
<polygon fill="#e0e0e0" stroke="#999999" points="127.23,-129 13.23,-129 13.23,-110 127.23,-110 127.23,-129"/>
<text text-anchor="middle" x="70.23" y="-117" font-family="Helvetica,sans-Serif" font-size="10.00">thrust/host_vector.h</text>
</a>
</g>
</g>
<!-- Node1&#45;&gt;Node3 -->
<g id="edge2_Node000001_Node000003" class="edge">
<title>Node1&#45;&gt;Node3</title>
<g id="a_edge2_Node000001_Node000003"><a xlink:title=" ">
<path fill="none" stroke="#63b8ff" d="M474.14,-169.02C407.39,-161.35 266.9,-145.07 137.55,-129.15"/>
<polygon fill="#63b8ff" stroke="#63b8ff" points="137.82,-125.66 127.47,-127.91 136.96,-132.61 137.82,-125.66"/>
</a>
</g>
</g>
<!-- Node4 -->
<g id="Node000004" class="node">
<title>Node4</title>
<g id="a_Node000004"><a xlink:title=" ">
<polygon fill="#e0e0e0" stroke="#999999" points="244.73,-129 145.73,-129 145.73,-110 244.73,-110 244.73,-129"/>
<text text-anchor="middle" x="195.23" y="-117" font-family="Helvetica,sans-Serif" font-size="10.00">dg/runge_kutta.h</text>
</a>
</g>
</g>
<!-- Node1&#45;&gt;Node4 -->
<g id="edge3_Node000001_Node000004" class="edge">
<title>Node1&#45;&gt;Node4</title>
<g id="a_edge3_Node000001_Node000004"><a xlink:title=" ">
<path fill="none" stroke="#63b8ff" d="M473.92,-166.95C419.03,-157.8 318.96,-141.12 254.86,-130.44"/>
<polygon fill="#63b8ff" stroke="#63b8ff" points="255.34,-126.97 244.9,-128.78 254.19,-133.87 255.34,-126.97"/>
</a>
</g>
</g>
<!-- Node5 -->
<g id="Node000005" class="node">
<title>Node5</title>
<g id="a_Node000005"><a xlink:title=" ">
<polygon fill="#e0e0e0" stroke="#999999" points="367.73,-129 262.73,-129 262.73,-110 367.73,-110 367.73,-129"/>
<text text-anchor="middle" x="315.23" y="-117" font-family="Helvetica,sans-Serif" font-size="10.00">dg/topology/grid.h</text>
</a>
</g>
</g>
<!-- Node1&#45;&gt;Node5 -->
<g id="edge4_Node000001_Node000005" class="edge">
<title>Node1&#45;&gt;Node5</title>
<g id="a_edge4_Node000001_Node000005"><a xlink:title=" ">
<path fill="none" stroke="#63b8ff" d="M481.42,-164.98C447.75,-155.97 394.44,-141.7 357.31,-131.76"/>
<polygon fill="#63b8ff" stroke="#63b8ff" points="357.86,-128.29 347.3,-129.08 356.05,-135.05 357.86,-128.29"/>
</a>
</g>
</g>
<!-- Node6 -->
<g id="Node000006" class="node">
<title>Node6</title>
<g id="a_Node000006"><a xlink:title=" ">
<polygon fill="#e0e0e0" stroke="#999999" points="498.23,-129 386.23,-129 386.23,-110 498.23,-110 498.23,-129"/>
<text text-anchor="middle" x="442.23" y="-117" font-family="Helvetica,sans-Serif" font-size="10.00">dg/topology/gridX.h</text>
</a>
</g>
</g>
<!-- Node1&#45;&gt;Node6 -->
<g id="edge5_Node000001_Node000006" class="edge">
<title>Node1&#45;&gt;Node6</title>
<g id="a_edge5_Node000001_Node000006"><a xlink:title=" ">
<path fill="none" stroke="#63b8ff" d="M501.83,-164.98C491.13,-157 474.89,-144.88 462.07,-135.31"/>
<polygon fill="#63b8ff" stroke="#63b8ff" points="463.96,-132.35 453.85,-129.17 459.77,-137.96 463.96,-132.35"/>
</a>
</g>
</g>
<!-- Node7 -->
<g id="Node000007" class="node">
<title>Node7</title>
<g id="a_Node000007"><a xlink:title=" ">
<polygon fill="#e0e0e0" stroke="#999999" points="654.23,-129 516.23,-129 516.23,-110 654.23,-110 654.23,-129"/>
<text text-anchor="middle" x="585.23" y="-117" font-family="Helvetica,sans-Serif" font-size="10.00">dg/topology/evaluation.h</text>
</a>
</g>
</g>
<!-- Node1&#45;&gt;Node7 -->
<g id="edge6_Node000001_Node000007" class="edge">
<title>Node1&#45;&gt;Node7</title>
<g id="a_edge6_Node000001_Node000007"><a xlink:title=" ">
<path fill="none" stroke="#63b8ff" d="M524.8,-164.98C535.65,-157 552.11,-144.88 565.12,-135.31"/>
<polygon fill="#63b8ff" stroke="#63b8ff" points="567.48,-137.92 573.46,-129.17 563.33,-132.28 567.48,-137.92"/>
</a>
</g>
</g>
<!-- Node8 -->
<g id="Node000008" class="node">
<title>Node8</title>
<g id="a_Node000008"><a xlink:title=" ">
<polygon fill="#e0e0e0" stroke="#999999" points="801.73,-129 672.73,-129 672.73,-110 801.73,-110 801.73,-129"/>
<text text-anchor="middle" x="737.23" y="-117" font-family="Helvetica,sans-Serif" font-size="10.00">dg/topology/mpi_grid.h</text>
</a>
</g>
</g>
<!-- Node1&#45;&gt;Node8 -->
<g id="edge7_Node000001_Node000008" class="edge">
<title>Node1&#45;&gt;Node8</title>
<g id="a_edge7_Node000001_Node000008"><a xlink:title=" ">
<path fill="none" stroke="#63b8ff" d="M549.22,-164.98C587.73,-155.87 648.92,-141.4 690.97,-131.45"/>
<polygon fill="#63b8ff" stroke="#63b8ff" points="692.04,-134.79 700.96,-129.08 690.43,-127.98 692.04,-134.79"/>
</a>
</g>
</g>
<!-- Node9 -->
<g id="Node000009" class="node">
<title>Node9</title>
<g id="a_Node000009"><a xlink:title=" ">
<polygon fill="#e0e0e0" stroke="#999999" points="982.23,-129 820.23,-129 820.23,-110 982.23,-110 982.23,-129"/>
<text text-anchor="middle" x="901.23" y="-117" font-family="Helvetica,sans-Serif" font-size="10.00">dg/topology/mpi_evaluation.h</text>
</a>
</g>
</g>
<!-- Node1&#45;&gt;Node9 -->
<g id="edge8_Node000001_Node000009" class="edge">
<title>Node1&#45;&gt;Node9</title>
<g id="a_edge8_Node000001_Node000009"><a xlink:title=" ">
<path fill="none" stroke="#63b8ff" d="M552.57,-168.13C617.24,-159.29 746.96,-141.57 828.65,-130.41"/>
<polygon fill="#63b8ff" stroke="#63b8ff" points="829.42,-133.84 838.86,-129.02 828.48,-126.91 829.42,-133.84"/>
</a>
</g>
</g>
<!-- Node10 -->
<g id="Node000010" class="node">
<title>Node10</title>
<g id="a_Node000010"><a xlink:href="nc__error_8h.html" target="_top" xlink:title=" ">
<polygon fill="white" stroke="#666666" points="1316.73,-74 1251.73,-74 1251.73,-55 1316.73,-55 1316.73,-74"/>
<text text-anchor="middle" x="1284.23" y="-62" font-family="Helvetica,sans-Serif" font-size="10.00">nc_error.h</text>
</a>
</g>
</g>
<!-- Node1&#45;&gt;Node10 -->
<g id="edge9_Node000001_Node000010" class="edge">
<title>Node1&#45;&gt;Node10</title>
<g id="a_edge9_Node000001_Node000010"><a xlink:title=" ">
<path fill="none" stroke="#63b8ff" d="M552.28,-173.48C645.06,-172.76 885.73,-167.06 1082.23,-129 1144.32,-116.98 1214.18,-92.44 1253.33,-77.63"/>
<polygon fill="#63b8ff" stroke="#63b8ff" points="1254.74,-80.84 1262.83,-74 1252.24,-74.3 1254.74,-80.84"/>
</a>
</g>
</g>
<!-- Node12 -->
<g id="Node000012" class="node">
<title>Node12</title>
<g id="a_Node000012"><a xlink:href="easy__atts_8h.html" target="_top" xlink:title=" ">
<polygon fill="white" stroke="#666666" points="1073.73,-129 1000.73,-129 1000.73,-110 1073.73,-110 1073.73,-129"/>
<text text-anchor="middle" x="1037.23" y="-117" font-family="Helvetica,sans-Serif" font-size="10.00">easy_atts.h</text>
</a>
</g>
</g>
<!-- Node1&#45;&gt;Node12 -->
<g id="edge12_Node000001_Node000012" class="edge">
<title>Node1&#45;&gt;Node12</title>
<g id="a_edge12_Node000001_Node000012"><a xlink:title=" ">
<path fill="none" stroke="#63b8ff" d="M552.41,-171.05C632.6,-165.78 821.45,-152.04 990.54,-128.96"/>
<polygon fill="#63b8ff" stroke="#63b8ff" points="991.2,-132.41 1000.62,-127.57 990.24,-125.47 991.2,-132.41"/>
</a>
</g>
</g>
<!-- Node10&#45;&gt;Node2 -->
<g id="edge11_Node000010_Node000002" class="edge">
<title>Node10&#45;&gt;Node2</title>
<g id="a_edge11_Node000010_Node000002"><a xlink:title=" ">
<path fill="none" stroke="#63b8ff" d="M1251.62,-56.36C1248.79,-55.85 1245.97,-55.39 1243.23,-55 1050.87,-27.43 818.23,-15.68 728.28,-11.93"/>
<polygon fill="#63b8ff" stroke="#63b8ff" points="728.41,-8.44 718.28,-11.53 728.13,-15.43 728.41,-8.44"/>
</a>
</g>
</g>
<!-- Node11 -->
<g id="Node000011" class="node">
<title>Node11</title>
<g id="a_Node000011"><a xlink:title=" ">
<polygon fill="#e0e0e0" stroke="#999999" points="1316.73,-19 1251.73,-19 1251.73,0 1316.73,0 1316.73,-19"/>
<text text-anchor="middle" x="1284.23" y="-7" font-family="Helvetica,sans-Serif" font-size="10.00">exception</text>
</a>
</g>
</g>
<!-- Node10&#45;&gt;Node11 -->
<g id="edge10_Node000010_Node000011" class="edge">
<title>Node10&#45;&gt;Node11</title>
<g id="a_edge10_Node000010_Node000011"><a xlink:title=" ">
<path fill="none" stroke="#63b8ff" d="M1284.23,-54.75C1284.23,-47.8 1284.23,-37.85 1284.23,-29.13"/>
<polygon fill="#63b8ff" stroke="#63b8ff" points="1287.73,-29.09 1284.23,-19.09 1280.73,-29.09 1287.73,-29.09"/>
</a>
</g>
</g>
<!-- Node12&#45;&gt;Node2 -->
<g id="edge21_Node000012_Node000002" class="edge">
<title>Node12&#45;&gt;Node2</title>
<g id="a_edge21_Node000012_Node000002"><a xlink:title=" ">
<path fill="none" stroke="#63b8ff" d="M1000.61,-111.54C997.44,-111 994.28,-110.48 991.23,-110 928.81,-100.26 757.41,-114.87 709.23,-74 696.36,-63.07 692,-43.81 690.63,-29.35"/>
<polygon fill="#63b8ff" stroke="#63b8ff" points="694.1,-28.83 690.06,-19.04 687.11,-29.22 694.1,-28.83"/>
</a>
</g>
</g>
<!-- Node12&#45;&gt;Node10 -->
<g id="edge22_Node000012_Node000010" class="edge">
<title>Node12&#45;&gt;Node10</title>
<g id="a_edge22_Node000012_Node000010"><a xlink:title=" ">
<path fill="none" stroke="#63b8ff" d="M1073.95,-110.62C1118.77,-101 1194.43,-84.77 1241.73,-74.62"/>
<polygon fill="#63b8ff" stroke="#63b8ff" points="1242.62,-78.01 1251.66,-72.49 1241.15,-71.17 1242.62,-78.01"/>
</a>
</g>
</g>
<!-- Node13 -->
<g id="Node000013" class="node">
<title>Node13</title>
<g id="a_Node000013"><a xlink:title=" ">
<polygon fill="#e0e0e0" stroke="#999999" points="1233.73,-74 1182.73,-74 1182.73,-55 1233.73,-55 1233.73,-74"/>
<text text-anchor="middle" x="1208.23" y="-62" font-family="Helvetica,sans-Serif" font-size="10.00">variant</text>
</a>
</g>
</g>
<!-- Node12&#45;&gt;Node13 -->
<g id="edge13_Node000012_Node000013" class="edge">
<title>Node12&#45;&gt;Node13</title>
<g id="a_edge13_Node000012_Node000013"><a xlink:title=" ">
<path fill="none" stroke="#63b8ff" d="M1064.71,-109.98C1094.01,-100.9 1140.54,-86.48 1172.63,-76.53"/>
<polygon fill="#63b8ff" stroke="#63b8ff" points="1173.99,-79.78 1182.51,-73.47 1171.92,-73.09 1173.99,-79.78"/>
</a>
</g>
</g>
<!-- Node14 -->
<g id="Node000014" class="node">
<title>Node14</title>
<g id="a_Node000014"><a xlink:title=" ">
<polygon fill="#e0e0e0" stroke="#999999" points="765.73,-74 718.73,-74 718.73,-55 765.73,-55 765.73,-74"/>
<text text-anchor="middle" x="742.23" y="-62" font-family="Helvetica,sans-Serif" font-size="10.00">vector</text>
</a>
</g>
</g>
<!-- Node12&#45;&gt;Node14 -->
<g id="edge14_Node000012_Node000014" class="edge">
<title>Node12&#45;&gt;Node14</title>
<g id="a_edge14_Node000012_Node000014"><a xlink:title=" ">
<path fill="none" stroke="#63b8ff" d="M1000.59,-111.67C997.42,-111.1 994.27,-110.53 991.23,-110 898.47,-93.7 872.13,-94.11 775.83,-73.96"/>
<polygon fill="#63b8ff" stroke="#63b8ff" points="776.48,-70.52 765.97,-71.88 775.03,-77.37 776.48,-70.52"/>
</a>
</g>
</g>
<!-- Node15 -->
<g id="Node000015" class="node">
<title>Node15</title>
<g id="a_Node000015"><a xlink:title=" ">
<polygon fill="#e0e0e0" stroke="#999999" points="822.23,-74 784.23,-74 784.23,-55 822.23,-55 822.23,-74"/>
<text text-anchor="middle" x="803.23" y="-62" font-family="Helvetica,sans-Serif" font-size="10.00">map</text>
</a>
</g>
</g>
<!-- Node12&#45;&gt;Node15 -->
<g id="edge15_Node000012_Node000015" class="edge">
<title>Node12&#45;&gt;Node15</title>
<g id="a_edge15_Node000012_Node000015"><a xlink:title=" ">
<path fill="none" stroke="#63b8ff" d="M1000.55,-111.52C961.21,-103.83 896.71,-90.62 832.36,-74.13"/>
<polygon fill="#63b8ff" stroke="#63b8ff" points="833.01,-70.68 822.46,-71.56 831.26,-77.46 833.01,-70.68"/>
</a>
</g>
</g>
<!-- Node16 -->
<g id="Node000016" class="node">
<title>Node16</title>
<g id="a_Node000016"><a xlink:title=" ">
<polygon fill="#e0e0e0" stroke="#999999" points="884.23,-74 840.23,-74 840.23,-55 884.23,-55 884.23,-74"/>
<text text-anchor="middle" x="862.23" y="-62" font-family="Helvetica,sans-Serif" font-size="10.00">string</text>
</a>
</g>
</g>
<!-- Node12&#45;&gt;Node16 -->
<g id="edge16_Node000012_Node000016" class="edge">
<title>Node12&#45;&gt;Node16</title>
<g id="a_edge16_Node000012_Node000016"><a xlink:title=" ">
<path fill="none" stroke="#63b8ff" d="M1009.12,-109.98C977.68,-100.46 926.89,-85.08 894.03,-75.13"/>
<polygon fill="#63b8ff" stroke="#63b8ff" points="895.04,-71.78 884.45,-72.23 893.01,-78.48 895.04,-71.78"/>
</a>
</g>
</g>
<!-- Node17 -->
<g id="Node000017" class="node">
<title>Node17</title>
<g id="a_Node000017"><a xlink:title=" ">
<polygon fill="#e0e0e0" stroke="#999999" points="954.23,-74 902.23,-74 902.23,-55 954.23,-55 954.23,-74"/>
<text text-anchor="middle" x="928.23" y="-62" font-family="Helvetica,sans-Serif" font-size="10.00">cassert</text>
</a>
</g>
</g>
<!-- Node12&#45;&gt;Node17 -->
<g id="edge17_Node000012_Node000017" class="edge">
<title>Node12&#45;&gt;Node17</title>
<g id="a_edge17_Node000012_Node000017"><a xlink:title=" ">
<path fill="none" stroke="#63b8ff" d="M1019.72,-109.98C1002.27,-101.5 975.22,-88.35 955.06,-78.54"/>
<polygon fill="#63b8ff" stroke="#63b8ff" points="956.59,-75.4 946.07,-74.17 953.53,-81.69 956.59,-75.4"/>
</a>
</g>
</g>
<!-- Node18 -->
<g id="Node000018" class="node">
<title>Node18</title>
<g id="a_Node000018"><a xlink:title=" ">
<polygon fill="#e0e0e0" stroke="#999999" points="1028.23,-74 972.23,-74 972.23,-55 1028.23,-55 1028.23,-74"/>
<text text-anchor="middle" x="1000.23" y="-62" font-family="Helvetica,sans-Serif" font-size="10.00">sstream</text>
</a>
</g>
</g>
<!-- Node12&#45;&gt;Node18 -->
<g id="edge18_Node000012_Node000018" class="edge">
<title>Node12&#45;&gt;Node18</title>
<g id="a_edge18_Node000012_Node000018"><a xlink:title=" ">
<path fill="none" stroke="#63b8ff" d="M1031.12,-109.75C1025.95,-102.34 1018.39,-91.5 1012.04,-82.41"/>
<polygon fill="#63b8ff" stroke="#63b8ff" points="1014.82,-80.29 1006.23,-74.09 1009.08,-84.29 1014.82,-80.29"/>
</a>
</g>
</g>
<!-- Node19 -->
<g id="Node000019" class="node">
<title>Node19</title>
<g id="a_Node000019"><a xlink:title=" ">
<polygon fill="#e0e0e0" stroke="#999999" points="1102.23,-74 1046.23,-74 1046.23,-55 1102.23,-55 1102.23,-74"/>
<text text-anchor="middle" x="1074.23" y="-62" font-family="Helvetica,sans-Serif" font-size="10.00">iomanip</text>
</a>
</g>
</g>
<!-- Node12&#45;&gt;Node19 -->
<g id="edge19_Node000012_Node000019" class="edge">
<title>Node12&#45;&gt;Node19</title>
<g id="a_edge19_Node000012_Node000019"><a xlink:title=" ">
<path fill="none" stroke="#63b8ff" d="M1043.34,-109.75C1048.52,-102.34 1056.08,-91.5 1062.43,-82.41"/>
<polygon fill="#63b8ff" stroke="#63b8ff" points="1065.38,-84.29 1068.24,-74.09 1059.64,-80.29 1065.38,-84.29"/>
</a>
</g>
</g>
<!-- Node20 -->
<g id="Node000020" class="node">
<title>Node20</title>
<g id="a_Node000020"><a xlink:title=" ">
<polygon fill="#e0e0e0" stroke="#999999" points="1164.23,-74 1120.23,-74 1120.23,-55 1164.23,-55 1164.23,-74"/>
<text text-anchor="middle" x="1142.23" y="-62" font-family="Helvetica,sans-Serif" font-size="10.00">ctime</text>
</a>
</g>
</g>
<!-- Node12&#45;&gt;Node20 -->
<g id="edge20_Node000012_Node000020" class="edge">
<title>Node12&#45;&gt;Node20</title>
<g id="a_edge20_Node000012_Node000020"><a xlink:title=" ">
<path fill="none" stroke="#63b8ff" d="M1054.1,-109.98C1070.84,-101.54 1096.73,-88.47 1116.13,-78.68"/>
<polygon fill="#63b8ff" stroke="#63b8ff" points="1117.71,-81.8 1125.06,-74.17 1114.55,-75.55 1117.71,-81.8"/>
</a>
</g>
</g>
</g>
</svg>
