<?xml version="1.0" encoding="UTF-8" standalone="no"?>
<!DOCTYPE svg PUBLIC "-//W3C//DTD SVG 1.1//EN"
 "http://www.w3.org/Graphics/SVG/1.1/DTD/svg11.dtd">
<!-- Generated by graphviz version 2.43.0 (0)
 -->
<!-- Title: easy_dims.h Pages: 1 -->
<svg width="87pt" height="137pt"
 viewBox="0.00 0.00 87.00 137.00" xmlns="http://www.w3.org/2000/svg" xmlns:xlink="http://www.w3.org/1999/xlink">
<g id="graph0" class="graph" transform="scale(1 1) rotate(0) translate(4 133)">
<title>easy_dims.h</title>
<!-- Node1 -->
<g id="Node000001" class="node">
<title>Node1</title>
<g id="a_Node000001"><a xlink:title=" ">
<polygon fill="#999999" stroke="#666666" points="78.5,-129 0.5,-129 0.5,-110 78.5,-110 78.5,-129"/>
<text text-anchor="middle" x="39.5" y="-117" font-family="Helvetica,sans-Serif" font-size="10.00">easy_dims.h</text>
</a>
</g>
</g>
<!-- Node2 -->
<g id="Node000002" class="node">
<title>Node2</title>
<g id="a_Node000002"><a xlink:href="nc__utilities_8h.html" target="_top" xlink:title=" ">
<polygon fill="white" stroke="#666666" points="79,-74 0,-74 0,-55 79,-55 79,-74"/>
<text text-anchor="middle" x="39.5" y="-62" font-family="Helvetica,sans-Serif" font-size="10.00">nc_utilities.h</text>
</a>
</g>
</g>
<!-- Node1&#45;&gt;Node2 -->
<g id="edge1_Node000001_Node000002" class="edge">
<title>Node1&#45;&gt;Node2</title>
<g id="a_edge1_Node000001_Node000002"><a xlink:title=" ">
<path fill="none" stroke="#63b8ff" d="M39.5,-99.66C39.5,-90.93 39.5,-80.99 39.5,-74.09"/>
<polygon fill="#63b8ff" stroke="#63b8ff" points="36,-99.75 39.5,-109.75 43,-99.75 36,-99.75"/>
</a>
</g>
</g>
<!-- Node3 -->
<g id="Node000003" class="node">
<title>Node3</title>
<g id="a_Node000003"><a xlink:href="file_8h.html" target="_top" xlink:title=" ">
<polygon fill="white" stroke="#666666" points="60,-19 19,-19 19,0 60,0 60,-19"/>
<text text-anchor="middle" x="39.5" y="-7" font-family="Helvetica,sans-Serif" font-size="10.00">file.h</text>
</a>
</g>
</g>
<!-- Node2&#45;&gt;Node3 -->
<g id="edge2_Node000002_Node000003" class="edge">
<title>Node2&#45;&gt;Node3</title>
<g id="a_edge2_Node000002_Node000003"><a xlink:title=" ">
<path fill="none" stroke="#63b8ff" d="M39.5,-44.66C39.5,-35.93 39.5,-25.99 39.5,-19.09"/>
<polygon fill="#63b8ff" stroke="#63b8ff" points="36,-44.75 39.5,-54.75 43,-44.75 36,-44.75"/>
</a>
</g>
</g>
</g>
</svg>
