<?xml version="1.0" encoding="UTF-8" standalone="no"?>
<!DOCTYPE svg PUBLIC "-//W3C//DTD SVG 1.1//EN"
 "http://www.w3.org/Graphics/SVG/1.1/DTD/svg11.dtd">
<!-- Generated by graphviz version 2.43.0 (0)
 -->
<!-- Title: easy_output.h Pages: 1 -->
<svg width="819pt" height="137pt"
 viewBox="0.00 0.00 818.50 137.00" xmlns="http://www.w3.org/2000/svg" xmlns:xlink="http://www.w3.org/1999/xlink">
<g id="graph0" class="graph" transform="scale(1 1) rotate(0) translate(4 133)">
<title>easy_output.h</title>
<!-- Node1 -->
<g id="Node000001" class="node">
<title>Node1</title>
<g id="a_Node000001"><a xlink:title=" ">
<polygon fill="#999999" stroke="#666666" points="424.5,-129 338.5,-129 338.5,-110 424.5,-110 424.5,-129"/>
<text text-anchor="middle" x="381.5" y="-117" font-family="Helvetica,sans-Serif" font-size="10.00">easy_output.h</text>
</a>
</g>
</g>
<!-- Node2 -->
<g id="Node000002" class="node">
<title>Node2</title>
<g id="a_Node000002"><a xlink:title=" ">
<polygon fill="#e0e0e0" stroke="#999999" points="65,-19 0,-19 0,0 65,0 65,-19"/>
<text text-anchor="middle" x="32.5" y="-7" font-family="Helvetica,sans-Serif" font-size="10.00">exception</text>
</a>
</g>
</g>
<!-- Node1&#45;&gt;Node2 -->
<g id="edge1_Node000001_Node000002" class="edge">
<title>Node1&#45;&gt;Node2</title>
<g id="a_edge1_Node000001_Node000002"><a xlink:title=" ">
<path fill="none" stroke="#63b8ff" d="M338.19,-116.33C246.87,-111.3 41.26,-97.48 20.5,-74 9.5,-61.56 15.23,-42.26 22.03,-28.21"/>
<polygon fill="#63b8ff" stroke="#63b8ff" points="25.29,-29.54 26.94,-19.07 19.12,-26.22 25.29,-29.54"/>
</a>
</g>
</g>
<!-- Node3 -->
<g id="Node000003" class="node">
<title>Node3</title>
<g id="a_Node000003"><a xlink:title=" ">
<polygon fill="#e0e0e0" stroke="#999999" points="720.5,-19 664.5,-19 664.5,0 720.5,0 720.5,-19"/>
<text text-anchor="middle" x="692.5" y="-7" font-family="Helvetica,sans-Serif" font-size="10.00">netcdf.h</text>
</a>
</g>
</g>
<!-- Node1&#45;&gt;Node3 -->
<g id="edge2_Node000001_Node000003" class="edge">
<title>Node1&#45;&gt;Node3</title>
<g id="a_edge2_Node000001_Node000003"><a xlink:title=" ">
<path fill="none" stroke="#63b8ff" d="M424.66,-117.44C496.7,-114.8 637.12,-105.63 673.5,-74 686.11,-63.04 690.53,-44.09 691.99,-29.73"/>
<polygon fill="#63b8ff" stroke="#63b8ff" points="695.5,-29.64 692.63,-19.45 688.51,-29.21 695.5,-29.64"/>
</a>
</g>
</g>
<!-- Node4 -->
<g id="Node000004" class="node">
<title>Node4</title>
<g id="a_Node000004"><a xlink:title=" ">
<polygon fill="#e0e0e0" stroke="#999999" points="218,-74 113,-74 113,-55 218,-55 218,-74"/>
<text text-anchor="middle" x="165.5" y="-62" font-family="Helvetica,sans-Serif" font-size="10.00">dg/topology/grid.h</text>
</a>
</g>
</g>
<!-- Node1&#45;&gt;Node4 -->
<g id="edge3_Node000001_Node000004" class="edge">
<title>Node1&#45;&gt;Node4</title>
<g id="a_edge3_Node000001_Node000004"><a xlink:title=" ">
<path fill="none" stroke="#63b8ff" d="M346.8,-109.98C309.75,-100.89 250.91,-86.46 210.37,-76.51"/>
<polygon fill="#63b8ff" stroke="#63b8ff" points="211.02,-73.07 200.48,-74.08 209.35,-79.86 211.02,-73.07"/>
</a>
</g>
</g>
<!-- Node5 -->
<g id="Node000005" class="node">
<title>Node5</title>
<g id="a_Node000005"><a xlink:title=" ">
<polygon fill="#e0e0e0" stroke="#999999" points="375,-74 236,-74 236,-55 375,-55 375,-74"/>
<text text-anchor="middle" x="305.5" y="-62" font-family="Helvetica,sans-Serif" font-size="10.00">dg/backend/mpi_vector.h</text>
</a>
</g>
</g>
<!-- Node1&#45;&gt;Node5 -->
<g id="edge4_Node000001_Node000005" class="edge">
<title>Node1&#45;&gt;Node5</title>
<g id="a_edge4_Node000001_Node000005"><a xlink:title=" ">
<path fill="none" stroke="#63b8ff" d="M369.29,-109.98C357.72,-101.92 340.12,-89.65 326.34,-80.03"/>
<polygon fill="#63b8ff" stroke="#63b8ff" points="328.14,-77.02 317.93,-74.17 324.13,-82.76 328.14,-77.02"/>
</a>
</g>
</g>
<!-- Node6 -->
<g id="Node000006" class="node">
<title>Node6</title>
<g id="a_Node000006"><a xlink:title=" ">
<polygon fill="#e0e0e0" stroke="#999999" points="522,-74 393,-74 393,-55 522,-55 522,-74"/>
<text text-anchor="middle" x="457.5" y="-62" font-family="Helvetica,sans-Serif" font-size="10.00">dg/topology/mpi_grid.h</text>
</a>
</g>
</g>
<!-- Node1&#45;&gt;Node6 -->
<g id="edge5_Node000001_Node000006" class="edge">
<title>Node1&#45;&gt;Node6</title>
<g id="a_edge5_Node000001_Node000006"><a xlink:title=" ">
<path fill="none" stroke="#63b8ff" d="M393.71,-109.98C405.28,-101.92 422.88,-89.65 436.66,-80.03"/>
<polygon fill="#63b8ff" stroke="#63b8ff" points="438.87,-82.76 445.07,-74.17 434.86,-77.02 438.87,-82.76"/>
</a>
</g>
</g>
<!-- Node7 -->
<g id="Node000007" class="node">
<title>Node7</title>
<g id="a_Node000007"><a xlink:title=" ">
<polygon fill="#e0e0e0" stroke="#999999" points="664.5,-74 540.5,-74 540.5,-55 664.5,-55 664.5,-74"/>
<text text-anchor="middle" x="602.5" y="-62" font-family="Helvetica,sans-Serif" font-size="10.00">dg/backend/mpi_init.h</text>
</a>
</g>
</g>
<!-- Node1&#45;&gt;Node7 -->
<g id="edge6_Node000001_Node000007" class="edge">
<title>Node1&#45;&gt;Node7</title>
<g id="a_edge6_Node000001_Node000007"><a xlink:title=" ">
<path fill="none" stroke="#63b8ff" d="M417.01,-109.98C454.99,-100.87 515.37,-86.4 556.86,-76.45"/>
<polygon fill="#63b8ff" stroke="#63b8ff" points="557.81,-79.82 566.71,-74.08 556.17,-73.01 557.81,-79.82"/>
</a>
</g>
</g>
<!-- Node8 -->
<g id="Node000008" class="node">
<title>Node8</title>
<g id="a_Node000008"><a xlink:href="nc__error_8h.html" target="_top" xlink:title=" ">
<polygon fill="white" stroke="#666666" points="95,-74 30,-74 30,-55 95,-55 95,-74"/>
<text text-anchor="middle" x="62.5" y="-62" font-family="Helvetica,sans-Serif" font-size="10.00">nc_error.h</text>
</a>
</g>
</g>
<!-- Node1&#45;&gt;Node8 -->
<g id="edge7_Node000001_Node000008" class="edge">
<title>Node1&#45;&gt;Node8</title>
<g id="a_edge7_Node000001_Node000008"><a xlink:title=" ">
<path fill="none" stroke="#63b8ff" d="M338.06,-112.17C285.24,-104.34 193.15,-90.25 105.04,-74.22"/>
<polygon fill="#63b8ff" stroke="#63b8ff" points="105.61,-70.77 95.15,-72.41 104.35,-77.65 105.61,-70.77"/>
</a>
</g>
</g>
<!-- Node9 -->
<g id="Node000009" class="node">
<title>Node9</title>
<g id="a_Node000009"><a xlink:href="nc__hyperslab_8h.html" target="_top" xlink:title=" ">
<polygon fill="white" stroke="#666666" points="810.5,-74 720.5,-74 720.5,-55 810.5,-55 810.5,-74"/>
<text text-anchor="middle" x="765.5" y="-62" font-family="Helvetica,sans-Serif" font-size="10.00">nc_hyperslab.h</text>
</a>
</g>
</g>
<!-- Node1&#45;&gt;Node9 -->
<g id="edge10_Node000001_Node000009" class="edge">
<title>Node1&#45;&gt;Node9</title>
<g id="a_edge10_Node000001_Node000009"><a xlink:title=" ">
<path fill="none" stroke="#63b8ff" d="M424.62,-112.69C486.88,-104.29 605.55,-88.18 706.5,-74 707.77,-73.82 709.05,-73.64 710.35,-73.46"/>
<polygon fill="#63b8ff" stroke="#63b8ff" points="711,-76.9 720.41,-72.03 710.01,-69.97 711,-76.9"/>
</a>
</g>
</g>
<!-- Node8&#45;&gt;Node2 -->
<g id="edge8_Node000008_Node000002" class="edge">
<title>Node8&#45;&gt;Node2</title>
<g id="a_edge8_Node000008_Node000002"><a xlink:title=" ">
<path fill="none" stroke="#63b8ff" d="M57.55,-54.75C53.44,-47.49 47.47,-36.95 42.4,-27.98"/>
<polygon fill="#63b8ff" stroke="#63b8ff" points="45.33,-26.07 37.36,-19.09 39.24,-29.52 45.33,-26.07"/>
</a>
</g>
</g>
<!-- Node8&#45;&gt;Node3 -->
<g id="edge9_Node000008_Node000003" class="edge">
<title>Node8&#45;&gt;Node3</title>
<g id="a_edge9_Node000008_Node000003"><a xlink:title=" ">
<path fill="none" stroke="#63b8ff" d="M95.11,-56.34C97.94,-55.84 100.76,-55.39 103.5,-55 310.06,-25.91 560.23,-14.95 654.29,-11.68"/>
<polygon fill="#63b8ff" stroke="#63b8ff" points="654.59,-15.17 664.46,-11.33 654.35,-8.18 654.59,-15.17"/>
</a>
</g>
</g>
<!-- Node9&#45;&gt;Node3 -->
<g id="edge12_Node000009_Node000003" class="edge">
<title>Node9&#45;&gt;Node3</title>
<g id="a_edge12_Node000009_Node000003"><a xlink:title=" ">
<path fill="none" stroke="#63b8ff" d="M753.77,-54.98C742.77,-47 726.08,-34.88 712.9,-25.31"/>
<polygon fill="#63b8ff" stroke="#63b8ff" points="714.59,-22.21 704.44,-19.17 710.48,-27.88 714.59,-22.21"/>
</a>
</g>
</g>
<!-- Node10 -->
<g id="Node000010" class="node">
<title>Node10</title>
<g id="a_Node000010"><a xlink:title=" ">
<polygon fill="#e0e0e0" stroke="#999999" points="789,-19 742,-19 742,0 789,0 789,-19"/>
<text text-anchor="middle" x="765.5" y="-7" font-family="Helvetica,sans-Serif" font-size="10.00">vector</text>
</a>
</g>
</g>
<!-- Node9&#45;&gt;Node10 -->
<g id="edge11_Node000009_Node000010" class="edge">
<title>Node9&#45;&gt;Node10</title>
<g id="a_edge11_Node000009_Node000010"><a xlink:title=" ">
<path fill="none" stroke="#63b8ff" d="M765.5,-54.75C765.5,-47.8 765.5,-37.85 765.5,-29.13"/>
<polygon fill="#63b8ff" stroke="#63b8ff" points="769,-29.09 765.5,-19.09 762,-29.09 769,-29.09"/>
</a>
</g>
</g>
</g>
</svg>
