<?xml version="1.0" encoding="UTF-8" standalone="no"?>
<!DOCTYPE svg PUBLIC "-//W3C//DTD SVG 1.1//EN"
 "http://www.w3.org/Graphics/SVG/1.1/DTD/svg11.dtd">
<!-- Generated by graphviz version 2.43.0 (0)
 -->
<!-- Title: easy_input.h Pages: 1 -->
<svg width="170pt" height="247pt"
 viewBox="0.00 0.00 170.02 247.00" xmlns="http://www.w3.org/2000/svg" xmlns:xlink="http://www.w3.org/1999/xlink">
<g id="graph0" class="graph" transform="scale(1 1) rotate(0) translate(4 243)">
<title>easy_input.h</title>
<!-- Node1 -->
<g id="Node000001" class="node">
<title>Node1</title>
<g id="a_Node000001"><a xlink:title=" ">
<polygon fill="#999999" stroke="#666666" points="146.02,-239 67.02,-239 67.02,-220 146.02,-220 146.02,-239"/>
<text text-anchor="middle" x="106.52" y="-227" font-family="Helvetica,sans-Serif" font-size="10.00">easy_input.h</text>
</a>
</g>
</g>
<!-- Node2 -->
<g id="Node000002" class="node">
<title>Node2</title>
<g id="a_Node000002"><a xlink:href="nc__file_8h.html" target="_top" xlink:title=" ">
<polygon fill="white" stroke="#666666" points="107.52,-184 49.52,-184 49.52,-165 107.52,-165 107.52,-184"/>
<text text-anchor="middle" x="78.52" y="-172" font-family="Helvetica,sans-Serif" font-size="10.00">nc_file.h</text>
</a>
</g>
</g>
<!-- Node1&#45;&gt;Node2 -->
<g id="edge1_Node000001_Node000002" class="edge">
<title>Node1&#45;&gt;Node2</title>
<g id="a_edge1_Node000001_Node000002"><a xlink:title=" ">
<path fill="none" stroke="#63b8ff" d="M97.18,-210.82C92.43,-201.82 86.87,-191.29 83.06,-184.09"/>
<polygon fill="#63b8ff" stroke="#63b8ff" points="94.14,-212.54 101.9,-219.75 100.32,-209.27 94.14,-212.54"/>
</a>
</g>
</g>
<!-- Node4 -->
<g id="Node000004" class="node">
<title>Node4</title>
<g id="a_Node000004"><a xlink:href="nc__utilities_8h.html" target="_top" xlink:title=" ">
<polygon fill="white" stroke="#666666" points="162.02,-74 83.02,-74 83.02,-55 162.02,-55 162.02,-74"/>
<text text-anchor="middle" x="122.52" y="-62" font-family="Helvetica,sans-Serif" font-size="10.00">nc_utilities.h</text>
</a>
</g>
</g>
<!-- Node1&#45;&gt;Node4 -->
<g id="edge9_Node000001_Node000004" class="edge">
<title>Node1&#45;&gt;Node4</title>
<g id="a_edge9_Node000001_Node000004"><a xlink:title=" ">
<path fill="none" stroke="#63b8ff" d="M111.33,-210C113.23,-202.04 115.25,-192.62 116.52,-184 122.55,-143.24 122.82,-93.84 122.65,-74.18"/>
<polygon fill="#63b8ff" stroke="#63b8ff" points="107.93,-209.16 108.91,-219.71 114.72,-210.85 107.93,-209.16"/>
</a>
</g>
</g>
<!-- Node3 -->
<g id="Node000003" class="node">
<title>Node3</title>
<g id="a_Node000003"><a xlink:href="nc__mpi__file_8h.html" target="_top" xlink:title=" ">
<polygon fill="white" stroke="#666666" points="94.52,-129 12.52,-129 12.52,-110 94.52,-110 94.52,-129"/>
<text text-anchor="middle" x="53.52" y="-117" font-family="Helvetica,sans-Serif" font-size="10.00">nc_mpi_file.h</text>
</a>
</g>
</g>
<!-- Node2&#45;&gt;Node3 -->
<g id="edge2_Node000002_Node000003" class="edge">
<title>Node2&#45;&gt;Node3</title>
<g id="a_edge2_Node000002_Node000003"><a xlink:title=" ">
<path fill="none" stroke="#63b8ff" d="M70.05,-155.53C65.83,-146.6 60.94,-136.22 57.58,-129.09"/>
<polygon fill="#63b8ff" stroke="#63b8ff" points="66.96,-157.2 74.4,-164.75 73.3,-154.21 66.96,-157.2"/>
</a>
</g>
</g>
<!-- Node2&#45;&gt;Node4 -->
<g id="edge7_Node000002_Node000004" class="edge">
<title>Node2&#45;&gt;Node4</title>
<g id="a_edge7_Node000002_Node000004"><a xlink:title=" ">
<path fill="none" stroke="#63b8ff" d="M89.46,-156.14C94.21,-148.1 99.59,-138.28 103.52,-129 111.53,-110.14 117.59,-86.81 120.54,-74.34"/>
<polygon fill="#63b8ff" stroke="#63b8ff" points="86.32,-154.57 84.1,-164.93 92.29,-158.21 86.32,-154.57"/>
</a>
</g>
</g>
<!-- Node6 -->
<g id="Node000006" class="node">
<title>Node6</title>
<g id="a_Node000006"><a xlink:href="probes_8h.html" target="_top" xlink:title=" ">
<polygon fill="white" stroke="#666666" points="65.02,-74 6.02,-74 6.02,-55 65.02,-55 65.02,-74"/>
<text text-anchor="middle" x="35.52" y="-62" font-family="Helvetica,sans-Serif" font-size="10.00">probes.h</text>
</a>
</g>
</g>
<!-- Node2&#45;&gt;Node6 -->
<g id="edge8_Node000002_Node000006" class="edge">
<title>Node2&#45;&gt;Node6</title>
<g id="a_edge8_Node000002_Node000006"><a xlink:title=" ">
<path fill="none" stroke="#63b8ff" d="M41.5,-160.85C26.98,-153.86 11.82,-143.57 3.52,-129 -7.35,-109.9 12.37,-86.66 25.39,-74.27"/>
<polygon fill="#63b8ff" stroke="#63b8ff" points="40.31,-164.15 50.88,-164.98 43.13,-157.75 40.31,-164.15"/>
</a>
</g>
</g>
<!-- Node3&#45;&gt;Node4 -->
<g id="edge3_Node000003_Node000004" class="edge">
<title>Node3&#45;&gt;Node4</title>
<g id="a_edge3_Node000003_Node000004"><a xlink:title=" ">
<path fill="none" stroke="#63b8ff" d="M72.56,-103.88C84.98,-94.34 100.77,-82.21 111.24,-74.17"/>
<polygon fill="#63b8ff" stroke="#63b8ff" points="70.41,-101.12 64.61,-109.98 74.67,-106.67 70.41,-101.12"/>
</a>
</g>
</g>
<!-- Node3&#45;&gt;Node6 -->
<g id="edge5_Node000003_Node000006" class="edge">
<title>Node3&#45;&gt;Node6</title>
<g id="a_edge5_Node000003_Node000006"><a xlink:title=" ">
<path fill="none" stroke="#63b8ff" d="M47.32,-100.24C44.31,-91.37 40.84,-81.14 38.44,-74.09"/>
<polygon fill="#63b8ff" stroke="#63b8ff" points="44.02,-101.4 50.55,-109.75 50.65,-99.15 44.02,-101.4"/>
</a>
</g>
</g>
<!-- Node5 -->
<g id="Node000005" class="node">
<title>Node5</title>
<g id="a_Node000005"><a xlink:href="file_8h.html" target="_top" xlink:title=" ">
<polygon fill="white" stroke="#666666" points="99.02,-19 58.02,-19 58.02,0 99.02,0 99.02,-19"/>
<text text-anchor="middle" x="78.52" y="-7" font-family="Helvetica,sans-Serif" font-size="10.00">file.h</text>
</a>
</g>
</g>
<!-- Node4&#45;&gt;Node5 -->
<g id="edge4_Node000004_Node000005" class="edge">
<title>Node4&#45;&gt;Node5</title>
<g id="a_edge4_Node000004_Node000005"><a xlink:title=" ">
<path fill="none" stroke="#63b8ff" d="M108.79,-46.96C101.12,-37.72 91.89,-26.6 85.66,-19.09"/>
<polygon fill="#63b8ff" stroke="#63b8ff" points="106.18,-49.29 115.26,-54.75 111.56,-44.82 106.18,-49.29"/>
</a>
</g>
</g>
<!-- Node6&#45;&gt;Node5 -->
<g id="edge6_Node000006_Node000005" class="edge">
<title>Node6&#45;&gt;Node5</title>
<g id="a_edge6_Node000006_Node000005"><a xlink:title=" ">
<path fill="none" stroke="#63b8ff" d="M48.95,-46.96C56.44,-37.72 65.46,-26.6 71.56,-19.09"/>
<polygon fill="#63b8ff" stroke="#63b8ff" points="46.21,-44.78 42.63,-54.75 51.64,-49.19 46.21,-44.78"/>
</a>
</g>
</g>
</g>
</svg>
