<?xml version="1.0" encoding="UTF-8" standalone="no"?>
<!DOCTYPE svg PUBLIC "-//W3C//DTD SVG 1.1//EN"
 "http://www.w3.org/Graphics/SVG/1.1/DTD/svg11.dtd">
<!-- Generated by graphviz version 2.43.0 (0)
 -->
<!-- Title: easy_atts.h Pages: 1 -->
<svg width="237pt" height="247pt"
 viewBox="0.00 0.00 236.73 247.00" xmlns="http://www.w3.org/2000/svg" xmlns:xlink="http://www.w3.org/1999/xlink">
<g id="graph0" class="graph" transform="scale(1 1) rotate(0) translate(4 243)">
<title>easy_atts.h</title>
<!-- Node1 -->
<g id="Node000001" class="node">
<title>Node1</title>
<g id="a_Node000001"><a xlink:title=" ">
<polygon fill="#999999" stroke="#666666" points="142.5,-239 69.5,-239 69.5,-220 142.5,-220 142.5,-239"/>
<text text-anchor="middle" x="106" y="-227" font-family="Helvetica,sans-Serif" font-size="10.00">easy_atts.h</text>
</a>
</g>
</g>
<!-- Node2 -->
<g id="Node000002" class="node">
<title>Node2</title>
<g id="a_Node000002"><a xlink:href="easy__dims_8h.html" target="_top" xlink:title=" ">
<polygon fill="white" stroke="#666666" points="78,-129 0,-129 0,-110 78,-110 78,-129"/>
<text text-anchor="middle" x="39" y="-117" font-family="Helvetica,sans-Serif" font-size="10.00">easy_dims.h</text>
</a>
</g>
</g>
<!-- Node1&#45;&gt;Node2 -->
<g id="edge1_Node000001_Node000002" class="edge">
<title>Node1&#45;&gt;Node2</title>
<g id="a_edge1_Node000001_Node000002"><a xlink:title=" ">
<path fill="none" stroke="#63b8ff" d="M95.19,-211.07C80.65,-187.64 55.37,-146.89 44.37,-129.16"/>
<polygon fill="#63b8ff" stroke="#63b8ff" points="92.27,-213.01 100.52,-219.66 98.22,-209.32 92.27,-213.01"/>
</a>
</g>
</g>
<!-- Node5 -->
<g id="Node000005" class="node">
<title>Node5</title>
<g id="a_Node000005"><a xlink:href="nc__file_8h.html" target="_top" xlink:title=" ">
<polygon fill="white" stroke="#666666" points="169,-184 111,-184 111,-165 169,-165 169,-184"/>
<text text-anchor="middle" x="140" y="-172" font-family="Helvetica,sans-Serif" font-size="10.00">nc_file.h</text>
</a>
</g>
</g>
<!-- Node1&#45;&gt;Node5 -->
<g id="edge4_Node000001_Node000005" class="edge">
<title>Node1&#45;&gt;Node5</title>
<g id="a_edge4_Node000001_Node000005"><a xlink:title=" ">
<path fill="none" stroke="#63b8ff" d="M117.16,-211.1C122.97,-202.04 129.82,-191.37 134.49,-184.09"/>
<polygon fill="#63b8ff" stroke="#63b8ff" points="114.07,-209.44 111.61,-219.75 119.96,-213.22 114.07,-209.44"/>
</a>
</g>
</g>
<!-- Node3 -->
<g id="Node000003" class="node">
<title>Node3</title>
<g id="a_Node000003"><a xlink:href="nc__utilities_8h.html" target="_top" xlink:title=" ">
<polygon fill="white" stroke="#666666" points="145.5,-74 66.5,-74 66.5,-55 145.5,-55 145.5,-74"/>
<text text-anchor="middle" x="106" y="-62" font-family="Helvetica,sans-Serif" font-size="10.00">nc_utilities.h</text>
</a>
</g>
</g>
<!-- Node2&#45;&gt;Node3 -->
<g id="edge2_Node000002_Node000003" class="edge">
<title>Node2&#45;&gt;Node3</title>
<g id="a_edge2_Node000002_Node000003"><a xlink:title=" ">
<path fill="none" stroke="#63b8ff" d="M57.83,-103.6C69.84,-94.11 84.97,-82.13 95.04,-74.17"/>
<polygon fill="#63b8ff" stroke="#63b8ff" points="55.44,-101.04 49.76,-109.98 59.78,-106.53 55.44,-101.04"/>
</a>
</g>
</g>
<!-- Node4 -->
<g id="Node000004" class="node">
<title>Node4</title>
<g id="a_Node000004"><a xlink:href="file_8h.html" target="_top" xlink:title=" ">
<polygon fill="white" stroke="#666666" points="169.5,-19 128.5,-19 128.5,0 169.5,0 169.5,-19"/>
<text text-anchor="middle" x="149" y="-7" font-family="Helvetica,sans-Serif" font-size="10.00">file.h</text>
</a>
</g>
</g>
<!-- Node3&#45;&gt;Node4 -->
<g id="edge3_Node000003_Node000004" class="edge">
<title>Node3&#45;&gt;Node4</title>
<g id="a_edge3_Node000003_Node000004"><a xlink:title=" ">
<path fill="none" stroke="#63b8ff" d="M119.42,-46.96C126.91,-37.72 135.94,-26.6 142.03,-19.09"/>
<polygon fill="#63b8ff" stroke="#63b8ff" points="116.68,-44.78 113.1,-54.75 122.12,-49.19 116.68,-44.78"/>
</a>
</g>
</g>
<!-- Node5&#45;&gt;Node3 -->
<g id="edge9_Node000005_Node000003" class="edge">
<title>Node5&#45;&gt;Node3</title>
<g id="a_edge9_Node000005_Node000003"><a xlink:title=" ">
<path fill="none" stroke="#63b8ff" d="M133.78,-155.5C131.02,-147.42 127.78,-137.75 125,-129 118.79,-109.48 112.03,-86.41 108.49,-74.16"/>
<polygon fill="#63b8ff" stroke="#63b8ff" points="130.48,-156.68 137.04,-165 137.1,-154.4 130.48,-156.68"/>
</a>
</g>
</g>
<!-- Node6 -->
<g id="Node000006" class="node">
<title>Node6</title>
<g id="a_Node000006"><a xlink:href="nc__mpi__file_8h.html" target="_top" xlink:title=" ">
<polygon fill="white" stroke="#666666" points="216,-129 134,-129 134,-110 216,-110 216,-129"/>
<text text-anchor="middle" x="175" y="-117" font-family="Helvetica,sans-Serif" font-size="10.00">nc_mpi_file.h</text>
</a>
</g>
</g>
<!-- Node5&#45;&gt;Node6 -->
<g id="edge5_Node000005_Node000006" class="edge">
<title>Node5&#45;&gt;Node6</title>
<g id="a_edge5_Node000005_Node000006"><a xlink:title=" ">
<path fill="none" stroke="#63b8ff" d="M151.3,-156.39C157.32,-147.27 164.47,-136.45 169.33,-129.09"/>
<polygon fill="#63b8ff" stroke="#63b8ff" points="148.37,-154.47 145.78,-164.75 154.21,-158.33 148.37,-154.47"/>
</a>
</g>
</g>
<!-- Node7 -->
<g id="Node000007" class="node">
<title>Node7</title>
<g id="a_Node000007"><a xlink:href="probes_8h.html" target="_top" xlink:title=" ">
<polygon fill="white" stroke="#666666" points="222.5,-74 163.5,-74 163.5,-55 222.5,-55 222.5,-74"/>
<text text-anchor="middle" x="193" y="-62" font-family="Helvetica,sans-Serif" font-size="10.00">probes.h</text>
</a>
</g>
</g>
<!-- Node5&#45;&gt;Node7 -->
<g id="edge10_Node000005_Node000007" class="edge">
<title>Node5&#45;&gt;Node7</title>
<g id="a_edge10_Node000005_Node000007"><a xlink:title=" ">
<path fill="none" stroke="#63b8ff" d="M178.54,-163.33C195.93,-156.61 214.81,-145.83 225,-129 236.38,-110.2 216.46,-86.84 203.27,-74.36"/>
<polygon fill="#63b8ff" stroke="#63b8ff" points="177.37,-160.03 169.1,-166.66 179.7,-166.63 177.37,-160.03"/>
</a>
</g>
</g>
<!-- Node6&#45;&gt;Node3 -->
<g id="edge6_Node000006_Node000003" class="edge">
<title>Node6&#45;&gt;Node3</title>
<g id="a_edge6_Node000006_Node000003"><a xlink:title=" ">
<path fill="none" stroke="#63b8ff" d="M155.96,-103.88C143.54,-94.34 127.76,-82.21 117.29,-74.17"/>
<polygon fill="#63b8ff" stroke="#63b8ff" points="153.85,-106.67 163.91,-109.98 158.12,-101.12 153.85,-106.67"/>
</a>
</g>
</g>
<!-- Node6&#45;&gt;Node7 -->
<g id="edge7_Node000006_Node000007" class="edge">
<title>Node6&#45;&gt;Node7</title>
<g id="a_edge7_Node000006_Node000007"><a xlink:title=" ">
<path fill="none" stroke="#63b8ff" d="M181.2,-100.24C184.21,-91.37 187.69,-81.14 190.08,-74.09"/>
<polygon fill="#63b8ff" stroke="#63b8ff" points="177.87,-99.15 177.97,-109.75 184.5,-101.4 177.87,-99.15"/>
</a>
</g>
</g>
<!-- Node7&#45;&gt;Node4 -->
<g id="edge8_Node000007_Node000004" class="edge">
<title>Node7&#45;&gt;Node4</title>
<g id="a_edge8_Node000007_Node000004"><a xlink:title=" ">
<path fill="none" stroke="#63b8ff" d="M179.27,-46.96C171.6,-37.72 162.37,-26.6 156.13,-19.09"/>
<polygon fill="#63b8ff" stroke="#63b8ff" points="176.65,-49.29 185.73,-54.75 182.04,-44.82 176.65,-49.29"/>
</a>
</g>
</g>
</g>
</svg>
