<?xml version="1.0" encoding="UTF-8" standalone="no"?>
<!DOCTYPE svg PUBLIC "-//W3C//DTD SVG 1.1//EN"
 "http://www.w3.org/Graphics/SVG/1.1/DTD/svg11.dtd">
<!-- Generated by graphviz version 2.43.0 (0)
 -->
<!-- Title: dg::file::parse_probes Pages: 1 -->
<svg width="520pt" height="137pt"
 viewBox="0.00 0.00 520.00 136.50" xmlns="http://www.w3.org/2000/svg" xmlns:xlink="http://www.w3.org/1999/xlink">
<g id="graph0" class="graph" transform="scale(1 1) rotate(0) translate(4 132.5)">
<title>dg::file::parse_probes</title>
<!-- Node1 -->
<g id="Node000001" class="node">
<title>Node1</title>
<g id="a_Node000001"><a xlink:title="Parse probe field in json file for use with Probes class.">
<polygon fill="#999999" stroke="#666666" points="122,-67.5 0,-67.5 0,-48.5 122,-48.5 122,-67.5"/>
<text text-anchor="middle" x="61" y="-55.5" font-family="Helvetica,sans-Serif" font-size="10.00">dg::file::parse_probes</text>
</a>
</g>
</g>
<!-- Node2 -->
<g id="Node000002" class="node">
<title>Node2</title>
<g id="a_Node000002"><a xlink:href="structdg_1_1file_1_1_wrapped_json_value.html#a0ff59b522e3ff4e1a3316769c845cd24" target="_top" xlink:title="Wrap the corresponding JsonType function with error handling.">
<polygon fill="white" stroke="#666666" points="306,-116 158,-116 158,-86 306,-86 306,-116"/>
<text text-anchor="start" x="166" y="-104" font-family="Helvetica,sans-Serif" font-size="10.00">dg::file::WrappedJsonValue</text>
<text text-anchor="middle" x="232" y="-93" font-family="Helvetica,sans-Serif" font-size="10.00">::asString</text>
</a>
</g>
</g>
<!-- Node1&#45;&gt;Node2 -->
<g id="edge1_Node000001_Node000002" class="edge">
<title>Node1&#45;&gt;Node2</title>
<g id="a_edge1_Node000001_Node000002"><a xlink:title=" ">
<path fill="none" stroke="#63b8ff" d="M99.51,-67.54C117.97,-72.24 140.83,-78.06 162.29,-83.52"/>
<polygon fill="#63b8ff" stroke="#63b8ff" points="161.47,-86.92 172.02,-85.99 163.19,-80.14 161.47,-86.92"/>
</a>
</g>
</g>
<!-- Node4 -->
<g id="Node000004" class="node">
<title>Node4</title>
<g id="a_Node000004"><a xlink:href="group__json.html#ga59353dcb1883ab0de24b7d7716f91187" target="_top" xlink:title="Convenience wrapper to open a file and parse it into a JsonType.">
<polygon fill="white" stroke="#666666" points="281,-67.5 183,-67.5 183,-48.5 281,-48.5 281,-67.5"/>
<text text-anchor="middle" x="232" y="-55.5" font-family="Helvetica,sans-Serif" font-size="10.00">dg::file::file2Json</text>
</a>
</g>
</g>
<!-- Node1&#45;&gt;Node4 -->
<g id="edge4_Node000001_Node000004" class="edge">
<title>Node1&#45;&gt;Node4</title>
<g id="a_edge4_Node000001_Node000004"><a xlink:title=" ">
<path fill="none" stroke="#63b8ff" d="M122.06,-58C138.4,-58 156.08,-58 172.35,-58"/>
<polygon fill="#63b8ff" stroke="#63b8ff" points="172.8,-61.5 182.8,-58 172.8,-54.5 172.8,-61.5"/>
</a>
</g>
</g>
<!-- Node5 -->
<g id="Node000005" class="node">
<title>Node5</title>
<g id="a_Node000005"><a xlink:href="structdg_1_1file_1_1_wrapped_json_value.html#a3d66b45a68c5be6b18641870b6980da3" target="_top" xlink:title="Return true if key is a Member of the json value.">
<polygon fill="white" stroke="#666666" points="306,-30 158,-30 158,0 306,0 306,-30"/>
<text text-anchor="start" x="166" y="-18" font-family="Helvetica,sans-Serif" font-size="10.00">dg::file::WrappedJsonValue</text>
<text text-anchor="middle" x="232" y="-7" font-family="Helvetica,sans-Serif" font-size="10.00">::isMember</text>
</a>
</g>
</g>
<!-- Node1&#45;&gt;Node5 -->
<g id="edge5_Node000001_Node000005" class="edge">
<title>Node1&#45;&gt;Node5</title>
<g id="a_edge5_Node000001_Node000005"><a xlink:title=" ">
<path fill="none" stroke="#63b8ff" d="M99.51,-48.46C117.97,-43.76 140.83,-37.94 162.29,-32.48"/>
<polygon fill="#63b8ff" stroke="#63b8ff" points="163.19,-35.86 172.02,-30.01 161.47,-29.08 163.19,-35.86"/>
</a>
</g>
</g>
<!-- Node3 -->
<g id="Node000003" class="node">
<title>Node3</title>
<g id="a_Node000003"><a xlink:href="structdg_1_1file_1_1_wrapped_json_value.html#a756188a06ea1498a98d629859d1f45d8" target="_top" xlink:title="Wrap the corresponding JsonType function with error handling.">
<polygon fill="white" stroke="#666666" points="512,-110.5 342,-110.5 342,-91.5 512,-91.5 512,-110.5"/>
<text text-anchor="middle" x="427" y="-98.5" font-family="Helvetica,sans-Serif" font-size="10.00">dg::file::WrappedJsonValue::get</text>
</a>
</g>
</g>
<!-- Node2&#45;&gt;Node3 -->
<g id="edge2_Node000002_Node000003" class="edge">
<title>Node2&#45;&gt;Node3</title>
<g id="a_edge2_Node000002_Node000003"><a xlink:title=" ">
<path fill="none" stroke="#63b8ff" d="M306.24,-101C314.59,-101 323.2,-101 331.77,-101"/>
<polygon fill="#63b8ff" stroke="#63b8ff" points="331.82,-104.5 341.82,-101 331.82,-97.5 331.82,-104.5"/>
</a>
</g>
</g>
<!-- Node3&#45;&gt;Node3 -->
<g id="edge3_Node000003_Node000003" class="edge">
<title>Node3&#45;&gt;Node3</title>
<g id="a_edge3_Node000003_Node000003"><a xlink:title=" ">
<path fill="none" stroke="#63b8ff" d="M397.1,-110.58C382.55,-119.23 392.52,-128.5 427,-128.5 450.71,-128.5 462.82,-124.12 463.36,-118.57"/>
<polygon fill="#63b8ff" stroke="#63b8ff" points="465.91,-116.16 456.9,-110.58 460.46,-120.56 465.91,-116.16"/>
</a>
</g>
</g>
</g>
</svg>
