<?xml version="1.0" encoding="UTF-8" standalone="no"?>
<!DOCTYPE svg PUBLIC "-//W3C//DTD SVG 1.1//EN"
 "http://www.w3.org/Graphics/SVG/1.1/DTD/svg11.dtd">
<!-- Generated by graphviz version 2.43.0 (0)
 -->
<!-- Title: dg::file::put_vara Pages: 1 -->
<svg width="262pt" height="86pt"
 viewBox="0.00 0.00 262.00 86.00" xmlns="http://www.w3.org/2000/svg" xmlns:xlink="http://www.w3.org/1999/xlink">
<g id="graph0" class="graph" transform="scale(1 1) rotate(0) translate(4 82)">
<title>dg::file::put_vara</title>
<!-- Node1 -->
<g id="Node000001" class="node">
<title>Node1</title>
<g id="a_Node000001"><a xlink:title="DEPRECATED Write an array to NetCDF file.">
<polygon fill="#999999" stroke="#666666" points="99,-48.5 0,-48.5 0,-29.5 99,-29.5 99,-48.5"/>
<text text-anchor="middle" x="49.5" y="-36.5" font-family="Helvetica,sans-Serif" font-size="10.00">dg::file::put_vara</text>
</a>
</g>
</g>
<!-- Node2 -->
<g id="Node000002" class="node">
<title>Node2</title>
<g id="a_Node000002"><a xlink:href="structdg_1_1file_1_1_nc_hyperslab.html#a124f8ade60022bf87d97f8f371094a0b" target="_top" xlink:title=" ">
<polygon fill="white" stroke="#666666" points="254,-78 135,-78 135,-48 254,-48 254,-78"/>
<text text-anchor="start" x="143" y="-66" font-family="Helvetica,sans-Serif" font-size="10.00">dg::file::NcHyperslab</text>
<text text-anchor="middle" x="194.5" y="-55" font-family="Helvetica,sans-Serif" font-size="10.00">::countp</text>
</a>
</g>
</g>
<!-- Node1&#45;&gt;Node2 -->
<g id="edge1_Node000001_Node000002" class="edge">
<title>Node1&#45;&gt;Node2</title>
<g id="a_edge1_Node000001_Node000002"><a xlink:title=" ">
<path fill="none" stroke="#63b8ff" d="M99.31,-47.19C107.51,-48.57 116.16,-50.02 124.75,-51.46"/>
<polygon fill="#63b8ff" stroke="#63b8ff" points="124.34,-54.94 134.78,-53.14 125.5,-48.04 124.34,-54.94"/>
</a>
</g>
</g>
<!-- Node3 -->
<g id="Node000003" class="node">
<title>Node3</title>
<g id="a_Node000003"><a xlink:href="structdg_1_1file_1_1_nc_hyperslab.html#a5e0d5fb46ee1d14e37347223ffe75a2d" target="_top" xlink:title=" ">
<polygon fill="white" stroke="#666666" points="254,-30 135,-30 135,0 254,0 254,-30"/>
<text text-anchor="start" x="143" y="-18" font-family="Helvetica,sans-Serif" font-size="10.00">dg::file::NcHyperslab</text>
<text text-anchor="middle" x="194.5" y="-7" font-family="Helvetica,sans-Serif" font-size="10.00">::startp</text>
</a>
</g>
</g>
<!-- Node1&#45;&gt;Node3 -->
<g id="edge2_Node000001_Node000003" class="edge">
<title>Node1&#45;&gt;Node3</title>
<g id="a_edge2_Node000001_Node000003"><a xlink:title=" ">
<path fill="none" stroke="#63b8ff" d="M99.31,-30.81C107.51,-29.43 116.16,-27.98 124.75,-26.54"/>
<polygon fill="#63b8ff" stroke="#63b8ff" points="125.5,-29.96 134.78,-24.86 124.34,-23.06 125.5,-29.96"/>
</a>
</g>
</g>
</g>
</svg>
