<?xml version="1.0" encoding="UTF-8" standalone="no"?>
<!DOCTYPE svg PUBLIC "-//W3C//DTD SVG 1.1//EN"
 "http://www.w3.org/Graphics/SVG/1.1/DTD/svg11.dtd">
<!-- Generated by graphviz version 2.43.0 (0)
 -->
<!-- Title: dg::file::define_time Pages: 1 -->
<svg width="471pt" height="27pt"
 viewBox="0.00 0.00 471.00 27.00" xmlns="http://www.w3.org/2000/svg" xmlns:xlink="http://www.w3.org/1999/xlink">
<g id="graph0" class="graph" transform="scale(1 1) rotate(0) translate(4 23)">
<title>dg::file::define_time</title>
<!-- Node1 -->
<g id="Node000001" class="node">
<title>Node1</title>
<g id="a_Node000001"><a xlink:title="DEPRECATED An alias for &#160;define_real_time&lt;double&gt;">
<polygon fill="#999999" stroke="#666666" points="115,-19 0,-19 0,0 115,0 115,-19"/>
<text text-anchor="middle" x="57.5" y="-7" font-family="Helvetica,sans-Serif" font-size="10.00">dg::file::define_time</text>
</a>
</g>
</g>
<!-- Node2 -->
<g id="Node000002" class="node">
<title>Node2</title>
<g id="a_Node000002"><a xlink:href="group__legacy.html#ga9a8124a7e611f88c559d73e7f8e6ed90" target="_top" xlink:title="DEPRECATED Define an unlimited time dimension and coordinate variable.">
<polygon fill="white" stroke="#666666" points="290,-19 151,-19 151,0 290,0 290,-19"/>
<text text-anchor="middle" x="220.5" y="-7" font-family="Helvetica,sans-Serif" font-size="10.00">dg::file::define_real_time</text>
</a>
</g>
</g>
<!-- Node1&#45;&gt;Node2 -->
<g id="edge1_Node000001_Node000002" class="edge">
<title>Node1&#45;&gt;Node2</title>
<g id="a_edge1_Node000001_Node000002"><a xlink:title=" ">
<path fill="none" stroke="#63b8ff" d="M115.26,-9.5C123.53,-9.5 132.16,-9.5 140.76,-9.5"/>
<polygon fill="#63b8ff" stroke="#63b8ff" points="140.82,-13 150.82,-9.5 140.82,-6 140.82,-13"/>
</a>
</g>
</g>
<!-- Node3 -->
<g id="Node000003" class="node">
<title>Node3</title>
<g id="a_Node000003"><a xlink:href="group__legacy.html#ga78d87c9a7c5160ec417eb30c9770fe07" target="_top" xlink:title="DEPRECATED Check if an unlimited dimension exists as if define_real_time was called.">
<polygon fill="white" stroke="#666666" points="463,-19 326,-19 326,0 463,0 463,-19"/>
<text text-anchor="middle" x="394.5" y="-7" font-family="Helvetica,sans-Serif" font-size="10.00">dg::file::check_real_time</text>
</a>
</g>
</g>
<!-- Node2&#45;&gt;Node3 -->
<g id="edge2_Node000002_Node000003" class="edge">
<title>Node2&#45;&gt;Node3</title>
<g id="a_edge2_Node000002_Node000003"><a xlink:title=" ">
<path fill="none" stroke="#63b8ff" d="M290.47,-9.5C298.77,-9.5 307.3,-9.5 315.72,-9.5"/>
<polygon fill="#63b8ff" stroke="#63b8ff" points="315.92,-13 325.92,-9.5 315.92,-6 315.92,-13"/>
</a>
</g>
</g>
</g>
</svg>
