<?xml version="1.0" encoding="UTF-8" standalone="no"?>
<!DOCTYPE svg PUBLIC "-//W3C//DTD SVG 1.1//EN"
 "http://www.w3.org/Graphics/SVG/1.1/DTD/svg11.dtd">
<!-- Generated by graphviz version 2.43.0 (0)
 -->
<!-- Title: A high level C++ interface to NetCDF&#45;4 Pages: 1 -->
<svg width="320pt" height="76pt"
 viewBox="0.00 0.00 320.00 75.50" xmlns="http://www.w3.org/2000/svg" xmlns:xlink="http://www.w3.org/1999/xlink">
<g id="graph0" class="graph" transform="scale(1 1) rotate(0) translate(4 71.5)">
<title>A high level C++ interface to NetCDF&#45;4</title>
<!-- Node1 -->
<g id="Node000001" class="node">
<title>Node1</title>
<g id="a_Node000001"><a xlink:title="#include &quot;dg/file/nc_utilities.h&quot; (link &#45;lnetcdf &#45;lhdf5[_serial] &#45;lhdf5[_serial]_hl)">
<polygon fill="#999999" stroke="#666666" points="147,-51 0,-51 0,-21 147,-21 147,-51"/>
<text text-anchor="start" x="8" y="-39" font-family="Helvetica,sans-Serif" font-size="10.00">A high level C++ interface</text>
<text text-anchor="middle" x="73.5" y="-28" font-family="Helvetica,sans-Serif" font-size="10.00"> to NetCDF&#45;4</text>
</a>
</g>
</g>
<!-- Node2 -->
<g id="Node000002" class="node">
<title>Node2</title>
<g id="a_Node000002"><a xlink:href="group__ncfile.html" target="_top" xlink:title=" ">
<polygon fill="white" stroke="#666666" points="295,-67.5 200,-67.5 200,-48.5 295,-48.5 295,-67.5"/>
<text text-anchor="middle" x="247.5" y="-55.5" font-family="Helvetica,sans-Serif" font-size="10.00">The NcFile class</text>
</a>
</g>
</g>
<!-- Node1&#45;&gt;Node2 -->
<g id="edge1" class="edge">
<title>Node1&#45;&gt;Node2</title>
<path fill="none" stroke="black" d="M157.49,-46.62C172.07,-48.48 186.76,-50.36 199.89,-52.04"/>
<polygon fill="black" stroke="black" points="157.81,-43.13 147.44,-45.33 156.92,-50.07 157.81,-43.13"/>
</g>
<!-- Node3 -->
<g id="Node000003" class="node">
<title>Node3</title>
<g id="a_Node000003"><a xlink:href="group__probes.html" target="_top" xlink:title=" ">
<polygon fill="white" stroke="#666666" points="312,-30 183,-30 183,0 312,0 312,-30"/>
<text text-anchor="start" x="191" y="-18" font-family="Helvetica,sans-Serif" font-size="10.00">The Probes diagnostics</text>
<text text-anchor="middle" x="247.5" y="-7" font-family="Helvetica,sans-Serif" font-size="10.00"> module</text>
</a>
</g>
</g>
<!-- Node1&#45;&gt;Node3 -->
<g id="edge2" class="edge">
<title>Node1&#45;&gt;Node3</title>
<path fill="none" stroke="black" d="M157.47,-25.87C166.04,-24.82 174.65,-23.77 182.97,-22.76"/>
<polygon fill="black" stroke="black" points="156.95,-22.41 147.44,-27.09 157.79,-29.36 156.95,-22.41"/>
</g>
</g>
</svg>
