<?xml version="1.0" encoding="UTF-8" standalone="no"?>
<!DOCTYPE svg PUBLIC "-//W3C//DTD SVG 1.1//EN"
 "http://www.w3.org/Graphics/SVG/1.1/DTD/svg11.dtd">
<!-- Generated by graphviz version 2.43.0 (0)
 -->
<!-- Title: Json utilities Pages: 1 -->
<svg width="250pt" height="76pt"
 viewBox="0.00 0.00 250.00 75.50" xmlns="http://www.w3.org/2000/svg" xmlns:xlink="http://www.w3.org/1999/xlink">
<g id="graph0" class="graph" transform="scale(1 1) rotate(0) translate(4 71.5)">
<title>Json utilities</title>
<!-- Node3 -->
<g id="Node000003" class="node">
<title>Node3</title>
<g id="a_Node000003"><a xlink:href="group__json.html" target="_top" xlink:title=" ">
<polygon fill="white" stroke="#666666" points="223,-67.5 132,-67.5 132,-48.5 223,-48.5 223,-67.5"/>
<text text-anchor="middle" x="177.5" y="-55.5" font-family="Helvetica,sans-Serif" font-size="10.00">Convert to Json</text>
</a>
</g>
</g>
<!-- Node1 -->
<g id="Node000001" class="node">
<title>Node1</title>
<g id="a_Node000001"><a xlink:title="#include &quot;dg/file/json_utilities.h&quot; (link &#45;ljsoncpp )">
<polygon fill="#999999" stroke="#666666" points="77,-45.5 0,-45.5 0,-26.5 77,-26.5 77,-45.5"/>
<text text-anchor="middle" x="38.5" y="-33.5" font-family="Helvetica,sans-Serif" font-size="10.00">Json utilities</text>
</a>
</g>
</g>
<!-- Node1&#45;&gt;Node3 -->
<g id="edge2" class="edge">
<title>Node1&#45;&gt;Node3</title>
<path fill="none" stroke="black" d="M87.45,-43.7C101.77,-46 117.41,-48.51 131.53,-50.78"/>
<polygon fill="black" stroke="black" points="87.73,-40.2 77.3,-42.07 86.62,-47.11 87.73,-40.2"/>
</g>
<!-- Node2 -->
<g id="Node000002" class="node">
<title>Node2</title>
<g id="a_Node000002"><a xlink:href="group__wrapper.html" target="_top" xlink:title=" ">
<polygon fill="white" stroke="#666666" points="242,-30 113,-30 113,0 242,0 242,-30"/>
<text text-anchor="start" x="121" y="-18" font-family="Helvetica,sans-Serif" font-size="10.00">The WrappedJsonValue</text>
<text text-anchor="middle" x="177.5" y="-7" font-family="Helvetica,sans-Serif" font-size="10.00"> class</text>
</a>
</g>
</g>
<!-- Node1&#45;&gt;Node2 -->
<g id="edge1" class="edge">
<title>Node1&#45;&gt;Node2</title>
<path fill="none" stroke="black" d="M87.42,-28.66C95.62,-27.4 104.25,-26.07 112.79,-24.77"/>
<polygon fill="black" stroke="black" points="86.65,-25.23 77.3,-30.21 87.71,-32.15 86.65,-25.23"/>
</g>
</g>
</svg>
