<?xml version="1.0" encoding="UTF-8" standalone="no"?>
<!DOCTYPE svg PUBLIC "-//W3C//DTD SVG 1.1//EN"
 "http://www.w3.org/Graphics/SVG/1.1/DTD/svg11.dtd">
<!-- Generated by graphviz version 2.43.0 (0)
 -->
<!-- Title: json_wrapper.h Pages: 1 -->
<svg width="131pt" height="192pt"
 viewBox="0.00 0.00 130.50 192.00" xmlns="http://www.w3.org/2000/svg" xmlns:xlink="http://www.w3.org/1999/xlink">
<g id="graph0" class="graph" transform="scale(1 1) rotate(0) translate(4 188)">
<title>json_wrapper.h</title>
<!-- Node1 -->
<g id="Node000001" class="node">
<title>Node1</title>
<g id="a_Node000001"><a xlink:title=" ">
<polygon fill="#999999" stroke="#666666" points="122.5,-184 31.5,-184 31.5,-165 122.5,-165 122.5,-184"/>
<text text-anchor="middle" x="77" y="-172" font-family="Helvetica,sans-Serif" font-size="10.00">json_wrapper.h</text>
</a>
</g>
</g>
<!-- Node2 -->
<g id="Node000002" class="node">
<title>Node2</title>
<g id="a_Node000002"><a xlink:href="json__probes_8h.html" target="_top" xlink:title=" ">
<polygon fill="white" stroke="#666666" points="84,-129 0,-129 0,-110 84,-110 84,-129"/>
<text text-anchor="middle" x="42" y="-117" font-family="Helvetica,sans-Serif" font-size="10.00">json_probes.h</text>
</a>
</g>
</g>
<!-- Node1&#45;&gt;Node2 -->
<g id="edge1_Node000001_Node000002" class="edge">
<title>Node1&#45;&gt;Node2</title>
<g id="a_edge1_Node000001_Node000002"><a xlink:title=" ">
<path fill="none" stroke="#63b8ff" d="M65.7,-156.39C59.68,-147.27 52.53,-136.45 47.67,-129.09"/>
<polygon fill="#63b8ff" stroke="#63b8ff" points="62.79,-158.33 71.22,-164.75 68.63,-154.47 62.79,-158.33"/>
</a>
</g>
</g>
<!-- Node3 -->
<g id="Node000003" class="node">
<title>Node3</title>
<g id="a_Node000003"><a xlink:href="json__utilities_8h.html" target="_top" xlink:title=" ">
<polygon fill="white" stroke="#666666" points="121,-74 33,-74 33,-55 121,-55 121,-74"/>
<text text-anchor="middle" x="77" y="-62" font-family="Helvetica,sans-Serif" font-size="10.00">json_utilities.h</text>
</a>
</g>
</g>
<!-- Node1&#45;&gt;Node3 -->
<g id="edge4_Node000001_Node000003" class="edge">
<title>Node1&#45;&gt;Node3</title>
<g id="a_edge4_Node000001_Node000003"><a xlink:title=" ">
<path fill="none" stroke="#63b8ff" d="M85.66,-155.61C90.76,-142.97 95.71,-125.57 93,-110 90.74,-97.06 85.06,-82.91 81.11,-74.12"/>
<polygon fill="#63b8ff" stroke="#63b8ff" points="82.37,-154.4 81.52,-164.96 88.77,-157.24 82.37,-154.4"/>
</a>
</g>
</g>
<!-- Node2&#45;&gt;Node3 -->
<g id="edge2_Node000002_Node000003" class="edge">
<title>Node2&#45;&gt;Node3</title>
<g id="a_edge2_Node000002_Node000003"><a xlink:title=" ">
<path fill="none" stroke="#63b8ff" d="M53.3,-101.39C59.32,-92.27 66.47,-81.45 71.33,-74.09"/>
<polygon fill="#63b8ff" stroke="#63b8ff" points="50.37,-99.47 47.78,-109.75 56.21,-103.33 50.37,-99.47"/>
</a>
</g>
</g>
<!-- Node4 -->
<g id="Node000004" class="node">
<title>Node4</title>
<g id="a_Node000004"><a xlink:href="file_8h.html" target="_top" xlink:title=" ">
<polygon fill="white" stroke="#666666" points="97.5,-19 56.5,-19 56.5,0 97.5,0 97.5,-19"/>
<text text-anchor="middle" x="77" y="-7" font-family="Helvetica,sans-Serif" font-size="10.00">file.h</text>
</a>
</g>
</g>
<!-- Node3&#45;&gt;Node4 -->
<g id="edge3_Node000003_Node000004" class="edge">
<title>Node3&#45;&gt;Node4</title>
<g id="a_edge3_Node000003_Node000004"><a xlink:title=" ">
<path fill="none" stroke="#63b8ff" d="M77,-44.66C77,-35.93 77,-25.99 77,-19.09"/>
<polygon fill="#63b8ff" stroke="#63b8ff" points="73.5,-44.75 77,-54.75 80.5,-44.75 73.5,-44.75"/>
</a>
</g>
</g>
</g>
</svg>
