<?xml version="1.0" encoding="UTF-8" standalone="no"?>
<!DOCTYPE svg PUBLIC "-//W3C//DTD SVG 1.1//EN"
 "http://www.w3.org/Graphics/SVG/1.1/DTD/svg11.dtd">
<!-- Generated by graphviz version 2.43.0 (0)
 -->
<!-- Title: nc_hyperslab.h Pages: 1 -->
<svg width="250pt" height="302pt"
 viewBox="0.00 0.00 249.52 302.00" xmlns="http://www.w3.org/2000/svg" xmlns:xlink="http://www.w3.org/1999/xlink">
<g id="graph0" class="graph" transform="scale(1 1) rotate(0) translate(4 298)">
<title>nc_hyperslab.h</title>
<!-- Node1 -->
<g id="Node000001" class="node">
<title>Node1</title>
<g id="a_Node000001"><a xlink:title=" ">
<polygon fill="#999999" stroke="#666666" points="138,-294 48,-294 48,-275 138,-275 138,-294"/>
<text text-anchor="middle" x="93" y="-282" font-family="Helvetica,sans-Serif" font-size="10.00">nc_hyperslab.h</text>
</a>
</g>
</g>
<!-- Node2 -->
<g id="Node000002" class="node">
<title>Node2</title>
<g id="a_Node000002"><a xlink:href="easy__input_8h.html" target="_top" xlink:title=" ">
<polygon fill="white" stroke="#666666" points="183.5,-239 104.5,-239 104.5,-220 183.5,-220 183.5,-239"/>
<text text-anchor="middle" x="144" y="-227" font-family="Helvetica,sans-Serif" font-size="10.00">easy_input.h</text>
</a>
</g>
</g>
<!-- Node1&#45;&gt;Node2 -->
<g id="edge1_Node000001_Node000002" class="edge">
<title>Node1&#45;&gt;Node2</title>
<g id="a_edge1_Node000001_Node000002"><a xlink:title=" ">
<path fill="none" stroke="#63b8ff" d="M108.38,-267.52C117.37,-258.18 128.36,-246.75 135.74,-239.09"/>
<polygon fill="#63b8ff" stroke="#63b8ff" points="105.83,-265.12 101.42,-274.75 110.88,-269.97 105.83,-265.12"/>
</a>
</g>
</g>
<!-- Node8 -->
<g id="Node000008" class="node">
<title>Node8</title>
<g id="a_Node000008"><a xlink:href="easy__output_8h.html" target="_top" xlink:title=" ">
<polygon fill="white" stroke="#666666" points="86,-239 0,-239 0,-220 86,-220 86,-239"/>
<text text-anchor="middle" x="43" y="-227" font-family="Helvetica,sans-Serif" font-size="10.00">easy_output.h</text>
</a>
</g>
</g>
<!-- Node1&#45;&gt;Node8 -->
<g id="edge11_Node000001_Node000008" class="edge">
<title>Node1&#45;&gt;Node8</title>
<g id="a_edge11_Node000001_Node000008"><a xlink:title=" ">
<path fill="none" stroke="#63b8ff" d="M77.66,-267.24C68.9,-257.95 58.26,-246.68 51.1,-239.09"/>
<polygon fill="#63b8ff" stroke="#63b8ff" points="75.34,-269.88 84.74,-274.75 80.43,-265.07 75.34,-269.88"/>
</a>
</g>
</g>
<!-- Node3 -->
<g id="Node000003" class="node">
<title>Node3</title>
<g id="a_Node000003"><a xlink:href="nc__file_8h.html" target="_top" xlink:title=" ">
<polygon fill="white" stroke="#666666" points="173,-184 115,-184 115,-165 173,-165 173,-184"/>
<text text-anchor="middle" x="144" y="-172" font-family="Helvetica,sans-Serif" font-size="10.00">nc_file.h</text>
</a>
</g>
</g>
<!-- Node2&#45;&gt;Node3 -->
<g id="edge2_Node000002_Node000003" class="edge">
<title>Node2&#45;&gt;Node3</title>
<g id="a_edge2_Node000002_Node000003"><a xlink:title=" ">
<path fill="none" stroke="#63b8ff" d="M144,-209.66C144,-200.93 144,-190.99 144,-184.09"/>
<polygon fill="#63b8ff" stroke="#63b8ff" points="140.5,-209.75 144,-219.75 147.5,-209.75 140.5,-209.75"/>
</a>
</g>
</g>
<!-- Node5 -->
<g id="Node000005" class="node">
<title>Node5</title>
<g id="a_Node000005"><a xlink:href="nc__utilities_8h.html" target="_top" xlink:title=" ">
<polygon fill="white" stroke="#666666" points="149.5,-74 70.5,-74 70.5,-55 149.5,-55 149.5,-74"/>
<text text-anchor="middle" x="110" y="-62" font-family="Helvetica,sans-Serif" font-size="10.00">nc_utilities.h</text>
</a>
</g>
</g>
<!-- Node2&#45;&gt;Node5 -->
<g id="edge10_Node000002_Node000005" class="edge">
<title>Node2&#45;&gt;Node5</title>
<g id="a_edge10_Node000002_Node000005"><a xlink:title=" ">
<path fill="none" stroke="#63b8ff" d="M125.9,-212.95C118.19,-205.14 110.06,-195.01 106,-184 91.68,-145.18 102.31,-94.27 107.54,-74.18"/>
<polygon fill="#63b8ff" stroke="#63b8ff" points="123.61,-215.61 133.29,-219.93 128.42,-210.52 123.61,-215.61"/>
</a>
</g>
</g>
<!-- Node4 -->
<g id="Node000004" class="node">
<title>Node4</title>
<g id="a_Node000004"><a xlink:href="nc__mpi__file_8h.html" target="_top" xlink:title=" ">
<polygon fill="white" stroke="#666666" points="229,-129 147,-129 147,-110 229,-110 229,-129"/>
<text text-anchor="middle" x="188" y="-117" font-family="Helvetica,sans-Serif" font-size="10.00">nc_mpi_file.h</text>
</a>
</g>
</g>
<!-- Node3&#45;&gt;Node4 -->
<g id="edge3_Node000003_Node000004" class="edge">
<title>Node3&#45;&gt;Node4</title>
<g id="a_edge3_Node000003_Node000004"><a xlink:title=" ">
<path fill="none" stroke="#63b8ff" d="M157.73,-156.96C165.4,-147.72 174.63,-136.6 180.87,-129.09"/>
<polygon fill="#63b8ff" stroke="#63b8ff" points="154.96,-154.82 151.27,-164.75 160.35,-159.29 154.96,-154.82"/>
</a>
</g>
</g>
<!-- Node3&#45;&gt;Node5 -->
<g id="edge8_Node000003_Node000005" class="edge">
<title>Node3&#45;&gt;Node5</title>
<g id="a_edge8_Node000003_Node000005"><a xlink:title=" ">
<path fill="none" stroke="#63b8ff" d="M138.11,-154.8C130.68,-131.2 118.21,-91.58 112.73,-74.16"/>
<polygon fill="#63b8ff" stroke="#63b8ff" points="134.88,-156.17 141.22,-164.66 141.55,-154.07 134.88,-156.17"/>
</a>
</g>
</g>
<!-- Node7 -->
<g id="Node000007" class="node">
<title>Node7</title>
<g id="a_Node000007"><a xlink:href="probes_8h.html" target="_top" xlink:title=" ">
<polygon fill="white" stroke="#666666" points="226.5,-74 167.5,-74 167.5,-55 226.5,-55 226.5,-74"/>
<text text-anchor="middle" x="197" y="-62" font-family="Helvetica,sans-Serif" font-size="10.00">probes.h</text>
</a>
</g>
</g>
<!-- Node3&#45;&gt;Node7 -->
<g id="edge9_Node000003_Node000007" class="edge">
<title>Node3&#45;&gt;Node7</title>
<g id="a_edge9_Node000003_Node000007"><a xlink:title=" ">
<path fill="none" stroke="#63b8ff" d="M183.22,-165.43C203.27,-159.11 225.94,-148.05 238,-129 250.49,-109.26 225.79,-86.27 209.58,-74.1"/>
<polygon fill="#63b8ff" stroke="#63b8ff" points="182,-162.14 173.34,-168.25 183.92,-168.87 182,-162.14"/>
</a>
</g>
</g>
<!-- Node4&#45;&gt;Node5 -->
<g id="edge4_Node000004_Node000005" class="edge">
<title>Node4&#45;&gt;Node5</title>
<g id="a_edge4_Node000004_Node000005"><a xlink:title=" ">
<path fill="none" stroke="#63b8ff" d="M166.88,-104.15C152.79,-94.57 134.71,-82.29 122.76,-74.17"/>
<polygon fill="#63b8ff" stroke="#63b8ff" points="165.23,-107.26 175.47,-109.98 169.16,-101.47 165.23,-107.26"/>
</a>
</g>
</g>
<!-- Node4&#45;&gt;Node7 -->
<g id="edge6_Node000004_Node000007" class="edge">
<title>Node4&#45;&gt;Node7</title>
<g id="a_edge6_Node000004_Node000007"><a xlink:title=" ">
<path fill="none" stroke="#63b8ff" d="M191.2,-99.66C192.68,-90.93 194.37,-80.99 195.54,-74.09"/>
<polygon fill="#63b8ff" stroke="#63b8ff" points="187.71,-99.3 189.49,-109.75 194.61,-100.48 187.71,-99.3"/>
</a>
</g>
</g>
<!-- Node6 -->
<g id="Node000006" class="node">
<title>Node6</title>
<g id="a_Node000006"><a xlink:href="file_8h.html" target="_top" xlink:title=" ">
<polygon fill="white" stroke="#666666" points="173.5,-19 132.5,-19 132.5,0 173.5,0 173.5,-19"/>
<text text-anchor="middle" x="153" y="-7" font-family="Helvetica,sans-Serif" font-size="10.00">file.h</text>
</a>
</g>
</g>
<!-- Node5&#45;&gt;Node6 -->
<g id="edge5_Node000005_Node000006" class="edge">
<title>Node5&#45;&gt;Node6</title>
<g id="a_edge5_Node000005_Node000006"><a xlink:title=" ">
<path fill="none" stroke="#63b8ff" d="M123.42,-46.96C130.91,-37.72 139.94,-26.6 146.03,-19.09"/>
<polygon fill="#63b8ff" stroke="#63b8ff" points="120.68,-44.78 117.1,-54.75 126.12,-49.19 120.68,-44.78"/>
</a>
</g>
</g>
<!-- Node7&#45;&gt;Node6 -->
<g id="edge7_Node000007_Node000006" class="edge">
<title>Node7&#45;&gt;Node6</title>
<g id="a_edge7_Node000007_Node000006"><a xlink:title=" ">
<path fill="none" stroke="#63b8ff" d="M183.27,-46.96C175.6,-37.72 166.37,-26.6 160.13,-19.09"/>
<polygon fill="#63b8ff" stroke="#63b8ff" points="180.65,-49.29 189.73,-54.75 186.04,-44.82 180.65,-49.29"/>
</a>
</g>
</g>
<!-- Node8&#45;&gt;Node3 -->
<g id="edge12_Node000008_Node000003" class="edge">
<title>Node8&#45;&gt;Node3</title>
<g id="a_edge12_Node000008_Node000003"><a xlink:title=" ">
<path fill="none" stroke="#63b8ff" d="M68.28,-215.23C86.8,-205.51 111.42,-192.6 127.48,-184.17"/>
<polygon fill="#63b8ff" stroke="#63b8ff" points="66.46,-212.24 59.23,-219.98 69.71,-218.44 66.46,-212.24"/>
</a>
</g>
</g>
<!-- Node8&#45;&gt;Node5 -->
<g id="edge13_Node000008_Node000005" class="edge">
<title>Node8&#45;&gt;Node5</title>
<g id="a_edge13_Node000008_Node000005"><a xlink:title=" ">
<path fill="none" stroke="#63b8ff" d="M50.49,-210.28C64.86,-175.32 95.81,-100.01 106.38,-74.31"/>
<polygon fill="#63b8ff" stroke="#63b8ff" points="47.17,-209.16 46.6,-219.74 53.64,-211.82 47.17,-209.16"/>
</a>
</g>
</g>
</g>
</svg>
