<?xml version="1.0" encoding="UTF-8" standalone="no"?>
<!DOCTYPE svg PUBLIC "-//W3C//DTD SVG 1.1//EN"
 "http://www.w3.org/Graphics/SVG/1.1/DTD/svg11.dtd">
<!-- Generated by graphviz version 2.43.0 (0)
 -->
<!-- Title: nc_mpi_file.h Pages: 1 -->
<svg width="1501pt" height="247pt"
 viewBox="0.00 0.00 1501.16 247.00" xmlns="http://www.w3.org/2000/svg" xmlns:xlink="http://www.w3.org/1999/xlink">
<g id="graph0" class="graph" transform="scale(1 1) rotate(0) translate(4 243)">
<title>nc_mpi_file.h</title>
<!-- Node1 -->
<g id="Node000001" class="node">
<title>Node1</title>
<g id="a_Node000001"><a xlink:title=" ">
<polygon fill="#999999" stroke="#666666" points="477,-239 395,-239 395,-220 477,-220 477,-239"/>
<text text-anchor="middle" x="436" y="-227" font-family="Helvetica,sans-Serif" font-size="10.00">nc_mpi_file.h</text>
</a>
</g>
</g>
<!-- Node2 -->
<g id="Node000002" class="node">
<title>Node2</title>
<g id="a_Node000002"><a xlink:href="nc__file_8h.html" target="_top" xlink:title=" ">
<polygon fill="white" stroke="#666666" points="404,-184 346,-184 346,-165 404,-165 404,-184"/>
<text text-anchor="middle" x="375" y="-172" font-family="Helvetica,sans-Serif" font-size="10.00">nc_file.h</text>
</a>
</g>
</g>
<!-- Node1&#45;&gt;Node2 -->
<g id="edge1_Node000001_Node000002" class="edge">
<title>Node1&#45;&gt;Node2</title>
<g id="a_edge1_Node000001_Node000002"><a xlink:title=" ">
<path fill="none" stroke="#63b8ff" d="M426.2,-219.98C417.18,-212.15 403.59,-200.34 392.68,-190.86"/>
<polygon fill="#63b8ff" stroke="#63b8ff" points="394.82,-188.09 384.98,-184.17 390.23,-193.37 394.82,-188.09"/>
</a>
</g>
</g>
<!-- Node27 -->
<g id="Node000027" class="node">
<title>Node27</title>
<g id="a_Node000027"><a xlink:title=" ">
<polygon fill="#e0e0e0" stroke="#999999" points="574,-184 422,-184 422,-165 574,-165 574,-184"/>
<text text-anchor="middle" x="498" y="-172" font-family="Helvetica,sans-Serif" font-size="10.00">dg/backend/mpi_datatype.h</text>
</a>
</g>
</g>
<!-- Node1&#45;&gt;Node27 -->
<g id="edge40_Node000001_Node000027" class="edge">
<title>Node1&#45;&gt;Node27</title>
<g id="a_edge40_Node000001_Node000027"><a xlink:title=" ">
<path fill="none" stroke="#63b8ff" d="M445.96,-219.98C455.13,-212.15 468.94,-200.34 480.03,-190.86"/>
<polygon fill="#63b8ff" stroke="#63b8ff" points="482.53,-193.33 487.86,-184.17 477.98,-188.01 482.53,-193.33"/>
</a>
</g>
</g>
<!-- Node3 -->
<g id="Node000003" class="node">
<title>Node3</title>
<g id="a_Node000003"><a xlink:title=" ">
<polygon fill="#e0e0e0" stroke="#999999" points="68,-129 0,-129 0,-110 68,-110 68,-129"/>
<text text-anchor="middle" x="34" y="-117" font-family="Helvetica,sans-Serif" font-size="10.00">filesystem</text>
</a>
</g>
</g>
<!-- Node2&#45;&gt;Node3 -->
<g id="edge2_Node000002_Node000003" class="edge">
<title>Node2&#45;&gt;Node3</title>
<g id="a_edge2_Node000002_Node000003"><a xlink:title=" ">
<path fill="none" stroke="#63b8ff" d="M345.74,-169.59C293.93,-162.58 182.44,-147.04 78.29,-129.16"/>
<polygon fill="#63b8ff" stroke="#63b8ff" points="78.69,-125.67 68.24,-127.42 77.5,-132.57 78.69,-125.67"/>
</a>
</g>
</g>
<!-- Node4 -->
<g id="Node000004" class="node">
<title>Node4</title>
<g id="a_Node000004"><a xlink:title=" ">
<polygon fill="#e0e0e0" stroke="#999999" points="151.5,-129 86.5,-129 86.5,-110 151.5,-110 151.5,-129"/>
<text text-anchor="middle" x="119" y="-117" font-family="Helvetica,sans-Serif" font-size="10.00">functional</text>
</a>
</g>
</g>
<!-- Node2&#45;&gt;Node4 -->
<g id="edge3_Node000002_Node000004" class="edge">
<title>Node2&#45;&gt;Node4</title>
<g id="a_edge3_Node000002_Node000004"><a xlink:title=" ">
<path fill="none" stroke="#63b8ff" d="M345.63,-167.42C300.45,-158.07 213.65,-140.09 161.57,-129.31"/>
<polygon fill="#63b8ff" stroke="#63b8ff" points="162.14,-125.86 151.64,-127.26 160.72,-132.71 162.14,-125.86"/>
</a>
</g>
</g>
<!-- Node5 -->
<g id="Node000005" class="node">
<title>Node5</title>
<g id="a_Node000005"><a xlink:title=" ">
<polygon fill="#e0e0e0" stroke="#999999" points="202,-129 170,-129 170,-110 202,-110 202,-129"/>
<text text-anchor="middle" x="186" y="-117" font-family="Helvetica,sans-Serif" font-size="10.00">list</text>
</a>
</g>
</g>
<!-- Node2&#45;&gt;Node5 -->
<g id="edge4_Node000002_Node000005" class="edge">
<title>Node2&#45;&gt;Node5</title>
<g id="a_edge4_Node000002_Node000005"><a xlink:title=" ">
<path fill="none" stroke="#63b8ff" d="M345.81,-166.17C314.82,-158.26 264.21,-144.98 211.88,-129.13"/>
<polygon fill="#63b8ff" stroke="#63b8ff" points="212.68,-125.71 202.09,-126.14 210.63,-132.4 212.68,-125.71"/>
</a>
</g>
</g>
<!-- Node6 -->
<g id="Node000006" class="node">
<title>Node6</title>
<g id="a_Node000006"><a xlink:title=" ">
<polygon fill="#e0e0e0" stroke="#999999" points="290,-129 220,-129 220,-110 290,-110 290,-129"/>
<text text-anchor="middle" x="255" y="-117" font-family="Helvetica,sans-Serif" font-size="10.00">../dg/blas.h</text>
</a>
</g>
</g>
<!-- Node2&#45;&gt;Node6 -->
<g id="edge5_Node000002_Node000006" class="edge">
<title>Node2&#45;&gt;Node6</title>
<g id="a_edge5_Node000002_Node000006"><a xlink:title=" ">
<path fill="none" stroke="#63b8ff" d="M355.72,-164.98C336.33,-156.42 306.19,-143.11 283.93,-133.28"/>
<polygon fill="#63b8ff" stroke="#63b8ff" points="285.19,-130.01 274.63,-129.17 282.36,-136.41 285.19,-130.01"/>
</a>
</g>
</g>
<!-- Node7 -->
<g id="Node000007" class="node">
<title>Node7</title>
<g id="a_Node000007"><a xlink:title=" ">
<polygon fill="#e0e0e0" stroke="#999999" points="441.5,-129 308.5,-129 308.5,-110 441.5,-110 441.5,-129"/>
<text text-anchor="middle" x="375" y="-117" font-family="Helvetica,sans-Serif" font-size="10.00">../dg/backend/memory.h</text>
</a>
</g>
</g>
<!-- Node2&#45;&gt;Node7 -->
<g id="edge6_Node000002_Node000007" class="edge">
<title>Node2&#45;&gt;Node7</title>
<g id="a_edge6_Node000002_Node000007"><a xlink:title=" ">
<path fill="none" stroke="#63b8ff" d="M375,-164.75C375,-157.8 375,-147.85 375,-139.13"/>
<polygon fill="#63b8ff" stroke="#63b8ff" points="378.5,-139.09 375,-129.09 371.5,-139.09 378.5,-139.09"/>
</a>
</g>
</g>
<!-- Node8 -->
<g id="Node000008" class="node">
<title>Node8</title>
<g id="a_Node000008"><a xlink:href="nc__error_8h.html" target="_top" xlink:title=" ">
<polygon fill="white" stroke="#666666" points="973.5,-74 908.5,-74 908.5,-55 973.5,-55 973.5,-74"/>
<text text-anchor="middle" x="941" y="-62" font-family="Helvetica,sans-Serif" font-size="10.00">nc_error.h</text>
</a>
</g>
</g>
<!-- Node2&#45;&gt;Node8 -->
<g id="edge7_Node000002_Node000008" class="edge">
<title>Node2&#45;&gt;Node8</title>
<g id="a_edge7_Node000002_Node000008"><a xlink:title=" ">
<path fill="none" stroke="#63b8ff" d="M404,-166.79C407.03,-166.16 410.08,-165.55 413,-165 518.59,-145.26 546.37,-148.54 652,-129 739.97,-112.73 842.01,-89.21 898.25,-75.83"/>
<polygon fill="#63b8ff" stroke="#63b8ff" points="899.29,-79.18 908.21,-73.46 897.67,-72.37 899.29,-79.18"/>
</a>
</g>
</g>
<!-- Node11 -->
<g id="Node000011" class="node">
<title>Node11</title>
<g id="a_Node000011"><a xlink:href="easy__atts_8h.html" target="_top" xlink:title=" ">
<polygon fill="white" stroke="#666666" points="1214.5,-129 1141.5,-129 1141.5,-110 1214.5,-110 1214.5,-129"/>
<text text-anchor="middle" x="1178" y="-117" font-family="Helvetica,sans-Serif" font-size="10.00">easy_atts.h</text>
</a>
</g>
</g>
<!-- Node2&#45;&gt;Node11 -->
<g id="edge10_Node000002_Node000011" class="edge">
<title>Node2&#45;&gt;Node11</title>
<g id="a_edge10_Node000002_Node000011"><a xlink:title=" ">
<path fill="none" stroke="#63b8ff" d="M404.37,-166.44C407.28,-165.89 410.19,-165.39 413,-165 682.85,-127.22 1010.59,-121.41 1130.85,-120.6"/>
<polygon fill="#63b8ff" stroke="#63b8ff" points="1131.19,-124.09 1141.17,-120.53 1131.15,-117.09 1131.19,-124.09"/>
</a>
</g>
</g>
<!-- Node20 -->
<g id="Node000020" class="node">
<title>Node20</title>
<g id="a_Node000020"><a xlink:href="easy__output_8h.html" target="_top" xlink:title=" ">
<polygon fill="white" stroke="#666666" points="643,-129 557,-129 557,-110 643,-110 643,-129"/>
<text text-anchor="middle" x="600" y="-117" font-family="Helvetica,sans-Serif" font-size="10.00">easy_output.h</text>
</a>
</g>
</g>
<!-- Node2&#45;&gt;Node20 -->
<g id="edge21_Node000002_Node000020" class="edge">
<title>Node2&#45;&gt;Node20</title>
<g id="a_edge21_Node000002_Node000020"><a xlink:title=" ">
<path fill="none" stroke="#63b8ff" d="M404.41,-166.57C442.51,-157.6 509.33,-141.86 554.12,-131.31"/>
<polygon fill="#63b8ff" stroke="#63b8ff" points="554.95,-134.71 563.88,-129.01 553.34,-127.89 554.95,-134.71"/>
</a>
</g>
</g>
<!-- Node26 -->
<g id="Node000026" class="node">
<title>Node26</title>
<g id="a_Node000026"><a xlink:href="easy__input_8h.html" target="_top" xlink:title=" ">
<polygon fill="white" stroke="#666666" points="538.5,-129 459.5,-129 459.5,-110 538.5,-110 538.5,-129"/>
<text text-anchor="middle" x="499" y="-117" font-family="Helvetica,sans-Serif" font-size="10.00">easy_input.h</text>
</a>
</g>
</g>
<!-- Node2&#45;&gt;Node26 -->
<g id="edge32_Node000002_Node000026" class="edge">
<title>Node2&#45;&gt;Node26</title>
<g id="a_edge32_Node000002_Node000026"><a xlink:title=" ">
<path fill="none" stroke="#63b8ff" d="M394.92,-164.98C415.05,-156.38 446.38,-142.99 469.41,-133.15"/>
<polygon fill="#63b8ff" stroke="#63b8ff" points="470.9,-136.32 478.71,-129.17 468.14,-129.88 470.9,-136.32"/>
</a>
</g>
</g>
<!-- Node9 -->
<g id="Node000009" class="node">
<title>Node9</title>
<g id="a_Node000009"><a xlink:title=" ">
<polygon fill="#e0e0e0" stroke="#999999" points="624.5,-19 559.5,-19 559.5,0 624.5,0 624.5,-19"/>
<text text-anchor="middle" x="592" y="-7" font-family="Helvetica,sans-Serif" font-size="10.00">exception</text>
</a>
</g>
</g>
<!-- Node8&#45;&gt;Node9 -->
<g id="edge8_Node000008_Node000009" class="edge">
<title>Node8&#45;&gt;Node9</title>
<g id="a_edge8_Node000008_Node000009"><a xlink:title=" ">
<path fill="none" stroke="#63b8ff" d="M908.47,-56.73C905.28,-56.12 902.08,-55.53 899,-55 805.14,-38.71 694.42,-23.69 634.95,-15.96"/>
<polygon fill="#63b8ff" stroke="#63b8ff" points="635.17,-12.46 624.81,-14.64 634.28,-19.4 635.17,-12.46"/>
</a>
</g>
</g>
<!-- Node10 -->
<g id="Node000010" class="node">
<title>Node10</title>
<g id="a_Node000010"><a xlink:title=" ">
<polygon fill="#e0e0e0" stroke="#999999" points="766,-19 710,-19 710,0 766,0 766,-19"/>
<text text-anchor="middle" x="738" y="-7" font-family="Helvetica,sans-Serif" font-size="10.00">netcdf.h</text>
</a>
</g>
</g>
<!-- Node8&#45;&gt;Node10 -->
<g id="edge9_Node000008_Node000010" class="edge">
<title>Node8&#45;&gt;Node10</title>
<g id="a_edge9_Node000008_Node000010"><a xlink:title=" ">
<path fill="none" stroke="#63b8ff" d="M908.38,-54.98C872.27,-45.56 814.13,-30.38 775.99,-20.42"/>
<polygon fill="#63b8ff" stroke="#63b8ff" points="776.84,-17.02 766.28,-17.88 775.07,-23.8 776.84,-17.02"/>
</a>
</g>
</g>
<!-- Node11&#45;&gt;Node8 -->
<g id="edge20_Node000011_Node000008" class="edge">
<title>Node11&#45;&gt;Node8</title>
<g id="a_edge20_Node000011_Node000008"><a xlink:title=" ">
<path fill="none" stroke="#63b8ff" d="M1141.49,-110.33C1098.97,-100.83 1028.82,-85.14 983.78,-75.07"/>
<polygon fill="#63b8ff" stroke="#63b8ff" points="984.26,-71.59 973.74,-72.82 982.73,-78.42 984.26,-71.59"/>
</a>
</g>
</g>
<!-- Node11&#45;&gt;Node10 -->
<g id="edge19_Node000011_Node000010" class="edge">
<title>Node11&#45;&gt;Node10</title>
<g id="a_edge19_Node000011_Node000010"><a xlink:title=" ">
<path fill="none" stroke="#63b8ff" d="M1141.47,-110.01C1109.48,-102.12 1061.98,-89.3 1022,-74 1003.99,-67.11 1001.32,-61 983,-55 912,-31.75 825.21,-19.61 776.3,-14.18"/>
<polygon fill="#63b8ff" stroke="#63b8ff" points="776.49,-10.68 766.17,-13.09 775.74,-17.64 776.49,-10.68"/>
</a>
</g>
</g>
<!-- Node12 -->
<g id="Node000012" class="node">
<title>Node12</title>
<g id="a_Node000012"><a xlink:title=" ">
<polygon fill="#e0e0e0" stroke="#999999" points="1081.5,-74 1030.5,-74 1030.5,-55 1081.5,-55 1081.5,-74"/>
<text text-anchor="middle" x="1056" y="-62" font-family="Helvetica,sans-Serif" font-size="10.00">variant</text>
</a>
</g>
</g>
<!-- Node11&#45;&gt;Node12 -->
<g id="edge11_Node000011_Node000012" class="edge">
<title>Node11&#45;&gt;Node12</title>
<g id="a_edge11_Node000011_Node000012"><a xlink:title=" ">
<path fill="none" stroke="#63b8ff" d="M1158.4,-109.98C1138.68,-101.42 1108.05,-88.11 1085.42,-78.28"/>
<polygon fill="#63b8ff" stroke="#63b8ff" points="1086.52,-74.94 1075.96,-74.17 1083.74,-81.37 1086.52,-74.94"/>
</a>
</g>
</g>
<!-- Node13 -->
<g id="Node000013" class="node">
<title>Node13</title>
<g id="a_Node000013"><a xlink:title=" ">
<polygon fill="#e0e0e0" stroke="#999999" points="1181.5,-19 1134.5,-19 1134.5,0 1181.5,0 1181.5,-19"/>
<text text-anchor="middle" x="1158" y="-7" font-family="Helvetica,sans-Serif" font-size="10.00">vector</text>
</a>
</g>
</g>
<!-- Node11&#45;&gt;Node13 -->
<g id="edge12_Node000011_Node000013" class="edge">
<title>Node11&#45;&gt;Node13</title>
<g id="a_edge12_Node000011_Node000013"><a xlink:title=" ">
<path fill="none" stroke="#63b8ff" d="M1214.62,-118.97C1289.03,-119.05 1453.85,-114.54 1489,-74 1494.53,-67.62 1494.56,-61.36 1489,-55 1450.63,-11.13 1268.39,-8.72 1191.91,-9.71"/>
<polygon fill="#63b8ff" stroke="#63b8ff" points="1191.79,-6.21 1181.84,-9.86 1191.9,-13.21 1191.79,-6.21"/>
</a>
</g>
</g>
<!-- Node14 -->
<g id="Node000014" class="node">
<title>Node14</title>
<g id="a_Node000014"><a xlink:title=" ">
<polygon fill="#e0e0e0" stroke="#999999" points="1138,-74 1100,-74 1100,-55 1138,-55 1138,-74"/>
<text text-anchor="middle" x="1119" y="-62" font-family="Helvetica,sans-Serif" font-size="10.00">map</text>
</a>
</g>
</g>
<!-- Node11&#45;&gt;Node14 -->
<g id="edge13_Node000011_Node000014" class="edge">
<title>Node11&#45;&gt;Node14</title>
<g id="a_edge13_Node000011_Node000014"><a xlink:title=" ">
<path fill="none" stroke="#63b8ff" d="M1168.52,-109.98C1159.8,-102.15 1146.66,-90.34 1136.1,-80.86"/>
<polygon fill="#63b8ff" stroke="#63b8ff" points="1138.43,-78.25 1128.65,-74.17 1133.75,-83.46 1138.43,-78.25"/>
</a>
</g>
</g>
<!-- Node15 -->
<g id="Node000015" class="node">
<title>Node15</title>
<g id="a_Node000015"><a xlink:title=" ">
<polygon fill="#e0e0e0" stroke="#999999" points="1200,-74 1156,-74 1156,-55 1200,-55 1200,-74"/>
<text text-anchor="middle" x="1178" y="-62" font-family="Helvetica,sans-Serif" font-size="10.00">string</text>
</a>
</g>
</g>
<!-- Node11&#45;&gt;Node15 -->
<g id="edge14_Node000011_Node000015" class="edge">
<title>Node11&#45;&gt;Node15</title>
<g id="a_edge14_Node000011_Node000015"><a xlink:title=" ">
<path fill="none" stroke="#63b8ff" d="M1178,-109.75C1178,-102.8 1178,-92.85 1178,-84.13"/>
<polygon fill="#63b8ff" stroke="#63b8ff" points="1181.5,-84.09 1178,-74.09 1174.5,-84.09 1181.5,-84.09"/>
</a>
</g>
</g>
<!-- Node16 -->
<g id="Node000016" class="node">
<title>Node16</title>
<g id="a_Node000016"><a xlink:title=" ">
<polygon fill="#e0e0e0" stroke="#999999" points="1270,-74 1218,-74 1218,-55 1270,-55 1270,-74"/>
<text text-anchor="middle" x="1244" y="-62" font-family="Helvetica,sans-Serif" font-size="10.00">cassert</text>
</a>
</g>
</g>
<!-- Node11&#45;&gt;Node16 -->
<g id="edge15_Node000011_Node000016" class="edge">
<title>Node11&#45;&gt;Node16</title>
<g id="a_edge15_Node000011_Node000016"><a xlink:title=" ">
<path fill="none" stroke="#63b8ff" d="M1188.6,-109.98C1198.46,-102.07 1213.35,-90.11 1225.22,-80.58"/>
<polygon fill="#63b8ff" stroke="#63b8ff" points="1227.6,-83.16 1233.2,-74.17 1223.21,-77.7 1227.6,-83.16"/>
</a>
</g>
</g>
<!-- Node17 -->
<g id="Node000017" class="node">
<title>Node17</title>
<g id="a_Node000017"><a xlink:title=" ">
<polygon fill="#e0e0e0" stroke="#999999" points="1344,-74 1288,-74 1288,-55 1344,-55 1344,-74"/>
<text text-anchor="middle" x="1316" y="-62" font-family="Helvetica,sans-Serif" font-size="10.00">sstream</text>
</a>
</g>
</g>
<!-- Node11&#45;&gt;Node17 -->
<g id="edge16_Node000011_Node000017" class="edge">
<title>Node11&#45;&gt;Node17</title>
<g id="a_edge16_Node000011_Node000017"><a xlink:title=" ">
<path fill="none" stroke="#63b8ff" d="M1200.17,-109.98C1222.77,-101.3 1258.06,-87.75 1283.75,-77.88"/>
<polygon fill="#63b8ff" stroke="#63b8ff" points="1285.34,-81.02 1293.42,-74.17 1282.83,-74.49 1285.34,-81.02"/>
</a>
</g>
</g>
<!-- Node18 -->
<g id="Node000018" class="node">
<title>Node18</title>
<g id="a_Node000018"><a xlink:title=" ">
<polygon fill="#e0e0e0" stroke="#999999" points="1418,-74 1362,-74 1362,-55 1418,-55 1418,-74"/>
<text text-anchor="middle" x="1390" y="-62" font-family="Helvetica,sans-Serif" font-size="10.00">iomanip</text>
</a>
</g>
</g>
<!-- Node11&#45;&gt;Node18 -->
<g id="edge17_Node000011_Node000018" class="edge">
<title>Node11&#45;&gt;Node18</title>
<g id="a_edge17_Node000011_Node000018"><a xlink:title=" ">
<path fill="none" stroke="#63b8ff" d="M1212.06,-109.98C1250.29,-100.43 1312.14,-84.97 1351.93,-75.02"/>
<polygon fill="#63b8ff" stroke="#63b8ff" points="1352.94,-78.37 1361.79,-72.55 1351.24,-71.58 1352.94,-78.37"/>
</a>
</g>
</g>
<!-- Node19 -->
<g id="Node000019" class="node">
<title>Node19</title>
<g id="a_Node000019"><a xlink:title=" ">
<polygon fill="#e0e0e0" stroke="#999999" points="1480,-74 1436,-74 1436,-55 1480,-55 1480,-74"/>
<text text-anchor="middle" x="1458" y="-62" font-family="Helvetica,sans-Serif" font-size="10.00">ctime</text>
</a>
</g>
</g>
<!-- Node11&#45;&gt;Node19 -->
<g id="edge18_Node000011_Node000019" class="edge">
<title>Node11&#45;&gt;Node19</title>
<g id="a_edge18_Node000011_Node000019"><a xlink:title=" ">
<path fill="none" stroke="#63b8ff" d="M1214.91,-112.98C1261.81,-105.73 1345.4,-92.02 1425.91,-74.08"/>
<polygon fill="#63b8ff" stroke="#63b8ff" points="1426.72,-77.48 1435.71,-71.87 1425.19,-70.66 1426.72,-77.48"/>
</a>
</g>
</g>
<!-- Node20&#45;&gt;Node8 -->
<g id="edge28_Node000020_Node000008" class="edge">
<title>Node20&#45;&gt;Node8</title>
<g id="a_edge28_Node000020_Node000008"><a xlink:title=" ">
<path fill="none" stroke="#63b8ff" d="M643.19,-112.79C699.49,-105.19 801.24,-90.91 898.47,-74.01"/>
<polygon fill="#63b8ff" stroke="#63b8ff" points="899.23,-77.43 908.47,-72.26 898.02,-70.53 899.23,-77.43"/>
</a>
</g>
</g>
<!-- Node20&#45;&gt;Node9 -->
<g id="edge22_Node000020_Node000009" class="edge">
<title>Node20&#45;&gt;Node9</title>
<g id="a_edge22_Node000020_Node000009"><a xlink:title=" ">
<path fill="none" stroke="#63b8ff" d="M599.35,-109.66C598.05,-92.17 595.13,-52.8 593.39,-29.27"/>
<polygon fill="#63b8ff" stroke="#63b8ff" points="596.87,-28.87 592.64,-19.16 589.89,-29.39 596.87,-28.87"/>
</a>
</g>
</g>
<!-- Node20&#45;&gt;Node10 -->
<g id="edge23_Node000020_Node000010" class="edge">
<title>Node20&#45;&gt;Node10</title>
<g id="a_edge23_Node000020_Node000010"><a xlink:title=" ">
<path fill="none" stroke="#63b8ff" d="M643,-112.19C668.33,-106.35 699.19,-95.19 719,-74 730.41,-61.8 734.99,-43.01 736.82,-29.03"/>
<polygon fill="#63b8ff" stroke="#63b8ff" points="740.3,-29.36 737.77,-19.07 733.33,-28.69 740.3,-29.36"/>
</a>
</g>
</g>
<!-- Node21 -->
<g id="Node000021" class="node">
<title>Node21</title>
<g id="a_Node000021"><a xlink:title=" ">
<polygon fill="#e0e0e0" stroke="#999999" points="416.5,-74 311.5,-74 311.5,-55 416.5,-55 416.5,-74"/>
<text text-anchor="middle" x="364" y="-62" font-family="Helvetica,sans-Serif" font-size="10.00">dg/topology/grid.h</text>
</a>
</g>
</g>
<!-- Node20&#45;&gt;Node21 -->
<g id="edge24_Node000020_Node000021" class="edge">
<title>Node20&#45;&gt;Node21</title>
<g id="a_edge24_Node000020_Node000021"><a xlink:title=" ">
<path fill="none" stroke="#63b8ff" d="M562.08,-109.98C521.35,-100.84 456.5,-86.27 412.18,-76.32"/>
<polygon fill="#63b8ff" stroke="#63b8ff" points="412.74,-72.86 402.21,-74.08 411.2,-79.69 412.74,-72.86"/>
</a>
</g>
</g>
<!-- Node22 -->
<g id="Node000022" class="node">
<title>Node22</title>
<g id="a_Node000022"><a xlink:title=" ">
<polygon fill="#e0e0e0" stroke="#999999" points="293.5,-74 154.5,-74 154.5,-55 293.5,-55 293.5,-74"/>
<text text-anchor="middle" x="224" y="-62" font-family="Helvetica,sans-Serif" font-size="10.00">dg/backend/mpi_vector.h</text>
</a>
</g>
</g>
<!-- Node20&#45;&gt;Node22 -->
<g id="edge25_Node000020_Node000022" class="edge">
<title>Node20&#45;&gt;Node22</title>
<g id="a_edge25_Node000020_Node000022"><a xlink:title=" ">
<path fill="none" stroke="#63b8ff" d="M556.88,-111.37C553.88,-110.89 550.89,-110.44 548,-110 463.13,-97.24 365.52,-84.03 299.81,-75.35"/>
<polygon fill="#63b8ff" stroke="#63b8ff" points="299.91,-71.84 289.54,-74 299,-78.78 299.91,-71.84"/>
</a>
</g>
</g>
<!-- Node23 -->
<g id="Node000023" class="node">
<title>Node23</title>
<g id="a_Node000023"><a xlink:title=" ">
<polygon fill="#e0e0e0" stroke="#999999" points="563.5,-74 434.5,-74 434.5,-55 563.5,-55 563.5,-74"/>
<text text-anchor="middle" x="499" y="-62" font-family="Helvetica,sans-Serif" font-size="10.00">dg/topology/mpi_grid.h</text>
</a>
</g>
</g>
<!-- Node20&#45;&gt;Node23 -->
<g id="edge26_Node000020_Node000023" class="edge">
<title>Node20&#45;&gt;Node23</title>
<g id="a_edge26_Node000020_Node000023"><a xlink:title=" ">
<path fill="none" stroke="#63b8ff" d="M583.77,-109.98C567.82,-101.61 543.22,-88.7 524.62,-78.95"/>
<polygon fill="#63b8ff" stroke="#63b8ff" points="526,-75.72 515.52,-74.17 522.75,-81.92 526,-75.72"/>
</a>
</g>
</g>
<!-- Node24 -->
<g id="Node000024" class="node">
<title>Node24</title>
<g id="a_Node000024"><a xlink:title=" ">
<polygon fill="#e0e0e0" stroke="#999999" points="890,-74 766,-74 766,-55 890,-55 890,-74"/>
<text text-anchor="middle" x="828" y="-62" font-family="Helvetica,sans-Serif" font-size="10.00">dg/backend/mpi_init.h</text>
</a>
</g>
</g>
<!-- Node20&#45;&gt;Node24 -->
<g id="edge27_Node000020_Node000024" class="edge">
<title>Node20&#45;&gt;Node24</title>
<g id="a_edge27_Node000020_Node000024"><a xlink:title=" ">
<path fill="none" stroke="#63b8ff" d="M636.63,-109.98C675.91,-100.86 738.37,-86.33 781.19,-76.38"/>
<polygon fill="#63b8ff" stroke="#63b8ff" points="782.13,-79.76 791.08,-74.08 780.55,-72.94 782.13,-79.76"/>
</a>
</g>
</g>
<!-- Node25 -->
<g id="Node000025" class="node">
<title>Node25</title>
<g id="a_Node000025"><a xlink:href="nc__hyperslab_8h.html" target="_top" xlink:title=" ">
<polygon fill="white" stroke="#666666" points="710,-74 620,-74 620,-55 710,-55 710,-74"/>
<text text-anchor="middle" x="665" y="-62" font-family="Helvetica,sans-Serif" font-size="10.00">nc_hyperslab.h</text>
</a>
</g>
</g>
<!-- Node20&#45;&gt;Node25 -->
<g id="edge29_Node000020_Node000025" class="edge">
<title>Node20&#45;&gt;Node25</title>
<g id="a_edge29_Node000020_Node000025"><a xlink:title=" ">
<path fill="none" stroke="#63b8ff" d="M610.44,-109.98C620.15,-102.07 634.82,-90.11 646.5,-80.58"/>
<polygon fill="#63b8ff" stroke="#63b8ff" points="648.83,-83.2 654.37,-74.17 644.4,-77.78 648.83,-83.2"/>
</a>
</g>
</g>
<!-- Node25&#45;&gt;Node10 -->
<g id="edge31_Node000025_Node000010" class="edge">
<title>Node25&#45;&gt;Node10</title>
<g id="a_edge31_Node000025_Node000010"><a xlink:title=" ">
<path fill="none" stroke="#63b8ff" d="M676.73,-54.98C687.73,-47 704.42,-34.88 717.6,-25.31"/>
<polygon fill="#63b8ff" stroke="#63b8ff" points="720.02,-27.88 726.06,-19.17 715.91,-22.21 720.02,-27.88"/>
</a>
</g>
</g>
<!-- Node25&#45;&gt;Node13 -->
<g id="edge30_Node000025_Node000013" class="edge">
<title>Node25&#45;&gt;Node13</title>
<g id="a_edge30_Node000025_Node000013"><a xlink:title=" ">
<path fill="none" stroke="#63b8ff" d="M710.06,-58.66C807.83,-48.14 1037.63,-23.44 1124.21,-14.13"/>
<polygon fill="#63b8ff" stroke="#63b8ff" points="1124.7,-17.6 1134.27,-13.05 1123.95,-10.64 1124.7,-17.6"/>
</a>
</g>
</g>
<!-- Node26&#45;&gt;Node8 -->
<g id="edge38_Node000026_Node000008" class="edge">
<title>Node26&#45;&gt;Node8</title>
<g id="a_edge38_Node000026_Node000008"><a xlink:title=" ">
<path fill="none" stroke="#63b8ff" d="M538.54,-111.4C541.74,-110.9 544.92,-110.42 548,-110 700.16,-89.02 742.25,-97.23 898.53,-73.91"/>
<polygon fill="#63b8ff" stroke="#63b8ff" points="899.13,-77.36 908.5,-72.4 898.09,-70.44 899.13,-77.36"/>
</a>
</g>
</g>
<!-- Node26&#45;&gt;Node9 -->
<g id="edge33_Node000026_Node000009" class="edge">
<title>Node26&#45;&gt;Node9</title>
<g id="a_edge33_Node000026_Node000009"><a xlink:title=" ">
<path fill="none" stroke="#63b8ff" d="M459.48,-111.28C456.62,-110.82 453.77,-110.39 451,-110 375.43,-99.31 60.59,-111.4 112,-55 141.15,-23.02 436.51,-13.67 548.9,-11.25"/>
<polygon fill="#63b8ff" stroke="#63b8ff" points="549.27,-14.75 559.19,-11.04 549.12,-7.75 549.27,-14.75"/>
</a>
</g>
</g>
<!-- Node26&#45;&gt;Node10 -->
<g id="edge34_Node000026_Node000010" class="edge">
<title>Node26&#45;&gt;Node10</title>
<g id="a_edge34_Node000026_Node000010"><a xlink:title=" ">
<path fill="none" stroke="#63b8ff" d="M459.48,-111.31C456.61,-110.85 453.76,-110.41 451,-110 382.87,-99.95 99.13,-105.46 146,-55 183,-15.17 579.79,-23.21 634,-19 655.74,-17.31 680.03,-15.33 699.66,-13.71"/>
<polygon fill="#63b8ff" stroke="#63b8ff" points="700.08,-17.18 709.75,-12.87 699.5,-10.21 700.08,-17.18"/>
</a>
</g>
</g>
<!-- Node26&#45;&gt;Node21 -->
<g id="edge35_Node000026_Node000021" class="edge">
<title>Node26&#45;&gt;Node21</title>
<g id="a_edge35_Node000026_Node000021"><a xlink:title=" ">
<path fill="none" stroke="#63b8ff" d="M477.31,-109.98C455.2,-101.3 420.68,-87.75 395.55,-77.88"/>
<polygon fill="#63b8ff" stroke="#63b8ff" points="396.67,-74.57 386.08,-74.17 394.11,-81.08 396.67,-74.57"/>
</a>
</g>
</g>
<!-- Node26&#45;&gt;Node22 -->
<g id="edge36_Node000026_Node000022" class="edge">
<title>Node26&#45;&gt;Node22</title>
<g id="a_edge36_Node000026_Node000022"><a xlink:title=" ">
<path fill="none" stroke="#63b8ff" d="M459.31,-110.85C411.66,-101.67 331.51,-86.22 278.2,-75.94"/>
<polygon fill="#63b8ff" stroke="#63b8ff" points="278.72,-72.48 268.24,-74.03 277.39,-79.35 278.72,-72.48"/>
</a>
</g>
</g>
<!-- Node26&#45;&gt;Node23 -->
<g id="edge37_Node000026_Node000023" class="edge">
<title>Node26&#45;&gt;Node23</title>
<g id="a_edge37_Node000026_Node000023"><a xlink:title=" ">
<path fill="none" stroke="#63b8ff" d="M499,-109.75C499,-102.8 499,-92.85 499,-84.13"/>
<polygon fill="#63b8ff" stroke="#63b8ff" points="502.5,-84.09 499,-74.09 495.5,-84.09 502.5,-84.09"/>
</a>
</g>
</g>
<!-- Node26&#45;&gt;Node25 -->
<g id="edge39_Node000026_Node000025" class="edge">
<title>Node26&#45;&gt;Node25</title>
<g id="a_edge39_Node000026_Node000025"><a xlink:title=" ">
<path fill="none" stroke="#63b8ff" d="M525.67,-109.98C553.54,-101.09 597.45,-87.07 628.52,-77.15"/>
<polygon fill="#63b8ff" stroke="#63b8ff" points="629.66,-80.46 638.12,-74.08 627.53,-73.79 629.66,-80.46"/>
</a>
</g>
</g>
</g>
</svg>
