<?xml version="1.0" encoding="UTF-8" standalone="no"?>
<!DOCTYPE svg PUBLIC "-//W3C//DTD SVG 1.1//EN"
 "http://www.w3.org/Graphics/SVG/1.1/DTD/svg11.dtd">
<!-- Generated by graphviz version 2.43.0 (0)
 -->
<!-- Title: nc_error.h Pages: 1 -->
<svg width="376pt" height="302pt"
 viewBox="0.00 0.00 375.71 302.00" xmlns="http://www.w3.org/2000/svg" xmlns:xlink="http://www.w3.org/1999/xlink">
<g id="graph0" class="graph" transform="scale(1 1) rotate(0) translate(4 298)">
<title>nc_error.h</title>
<!-- Node1 -->
<g id="Node000001" class="node">
<title>Node1</title>
<g id="a_Node000001"><a xlink:title=" ">
<polygon fill="#999999" stroke="#666666" points="260,-294 195,-294 195,-275 260,-275 260,-294"/>
<text text-anchor="middle" x="227.5" y="-282" font-family="Helvetica,sans-Serif" font-size="10.00">nc_error.h</text>
</a>
</g>
</g>
<!-- Node2 -->
<g id="Node000002" class="node">
<title>Node2</title>
<g id="a_Node000002"><a xlink:href="easy__atts_8h.html" target="_top" xlink:title=" ">
<polygon fill="white" stroke="#666666" points="313,-239 240,-239 240,-220 313,-220 313,-239"/>
<text text-anchor="middle" x="276.5" y="-227" font-family="Helvetica,sans-Serif" font-size="10.00">easy_atts.h</text>
</a>
</g>
</g>
<!-- Node1&#45;&gt;Node2 -->
<g id="edge1_Node000001_Node000002" class="edge">
<title>Node1&#45;&gt;Node2</title>
<g id="a_edge1_Node000001_Node000002"><a xlink:title=" ">
<path fill="none" stroke="#63b8ff" d="M242.53,-267.24C251.12,-257.95 261.54,-246.68 268.56,-239.09"/>
<polygon fill="#63b8ff" stroke="#63b8ff" points="239.81,-265.03 235.59,-274.75 244.95,-269.78 239.81,-265.03"/>
</a>
</g>
</g>
<!-- Node3 -->
<g id="Node000003" class="node">
<title>Node3</title>
<g id="a_Node000003"><a xlink:href="easy__dims_8h.html" target="_top" xlink:title=" ">
<polygon fill="white" stroke="#666666" points="351.5,-184 273.5,-184 273.5,-165 351.5,-165 351.5,-184"/>
<text text-anchor="middle" x="312.5" y="-172" font-family="Helvetica,sans-Serif" font-size="10.00">easy_dims.h</text>
</a>
</g>
</g>
<!-- Node1&#45;&gt;Node3 -->
<g id="edge12_Node000001_Node000003" class="edge">
<title>Node1&#45;&gt;Node3</title>
<g id="a_edge12_Node000001_Node000003"><a xlink:title=" ">
<path fill="none" stroke="#63b8ff" d="M269.62,-274.49C288.92,-268.03 310.02,-257.14 321.5,-239 332.34,-221.88 323.22,-197.01 317.04,-184.06"/>
<polygon fill="#63b8ff" stroke="#63b8ff" points="268.6,-271.14 260.04,-277.4 270.63,-277.84 268.6,-271.14"/>
</a>
</g>
</g>
<!-- Node4 -->
<g id="Node000004" class="node">
<title>Node4</title>
<g id="a_Node000004"><a xlink:href="nc__utilities_8h.html" target="_top" xlink:title=" ">
<polygon fill="white" stroke="#666666" points="256,-74 177,-74 177,-55 256,-55 256,-74"/>
<text text-anchor="middle" x="216.5" y="-62" font-family="Helvetica,sans-Serif" font-size="10.00">nc_utilities.h</text>
</a>
</g>
</g>
<!-- Node1&#45;&gt;Node4 -->
<g id="edge20_Node000001_Node000004" class="edge">
<title>Node1&#45;&gt;Node4</title>
<g id="a_edge20_Node000001_Node000004"><a xlink:title=" ">
<path fill="none" stroke="#63b8ff" d="M269.83,-275.09C292.7,-268.63 319.96,-257.55 338.5,-239 362.75,-214.73 376.29,-195.46 360.5,-165 335.53,-116.85 275.37,-87.47 241.24,-74.1"/>
<polygon fill="#63b8ff" stroke="#63b8ff" points="268.79,-271.75 260.01,-277.67 270.57,-278.52 268.79,-271.75"/>
</a>
</g>
</g>
<!-- Node6 -->
<g id="Node000006" class="node">
<title>Node6</title>
<g id="a_Node000006"><a xlink:href="nc__file_8h.html" target="_top" xlink:title=" ">
<polygon fill="white" stroke="#666666" points="167.5,-184 109.5,-184 109.5,-165 167.5,-165 167.5,-184"/>
<text text-anchor="middle" x="138.5" y="-172" font-family="Helvetica,sans-Serif" font-size="10.00">nc_file.h</text>
</a>
</g>
</g>
<!-- Node1&#45;&gt;Node6 -->
<g id="edge19_Node000001_Node000006" class="edge">
<title>Node1&#45;&gt;Node6</title>
<g id="a_edge19_Node000001_Node000006"><a xlink:title=" ">
<path fill="none" stroke="#63b8ff" d="M184.7,-276C163.37,-269.87 139.42,-258.81 126.5,-239 115.35,-221.9 126.12,-197.02 133.28,-184.06"/>
<polygon fill="#63b8ff" stroke="#63b8ff" points="184.03,-279.44 194.59,-278.56 185.78,-272.66 184.03,-279.44"/>
</a>
</g>
</g>
<!-- Node9 -->
<g id="Node000009" class="node">
<title>Node9</title>
<g id="a_Node000009"><a xlink:href="easy__input_8h.html" target="_top" xlink:title=" ">
<polygon fill="white" stroke="#666666" points="79,-239 0,-239 0,-220 79,-220 79,-239"/>
<text text-anchor="middle" x="39.5" y="-227" font-family="Helvetica,sans-Serif" font-size="10.00">easy_input.h</text>
</a>
</g>
</g>
<!-- Node1&#45;&gt;Node9 -->
<g id="edge13_Node000001_Node000009" class="edge">
<title>Node1&#45;&gt;Node9</title>
<g id="a_edge13_Node000001_Node000009"><a xlink:title=" ">
<path fill="none" stroke="#63b8ff" d="M187.36,-272.18C152.2,-262.27 101.87,-248.08 69.94,-239.08"/>
<polygon fill="#63b8ff" stroke="#63b8ff" points="186.72,-275.64 197.29,-274.98 188.62,-268.9 186.72,-275.64"/>
</a>
</g>
</g>
<!-- Node10 -->
<g id="Node000010" class="node">
<title>Node10</title>
<g id="a_Node000010"><a xlink:href="easy__output_8h.html" target="_top" xlink:title=" ">
<polygon fill="white" stroke="#666666" points="221.5,-239 135.5,-239 135.5,-220 221.5,-220 221.5,-239"/>
<text text-anchor="middle" x="178.5" y="-227" font-family="Helvetica,sans-Serif" font-size="10.00">easy_output.h</text>
</a>
</g>
</g>
<!-- Node1&#45;&gt;Node10 -->
<g id="edge16_Node000001_Node000010" class="edge">
<title>Node1&#45;&gt;Node10</title>
<g id="a_edge16_Node000001_Node000010"><a xlink:title=" ">
<path fill="none" stroke="#63b8ff" d="M212.47,-267.24C203.88,-257.95 193.46,-246.68 186.44,-239.09"/>
<polygon fill="#63b8ff" stroke="#63b8ff" points="210.05,-269.78 219.41,-274.75 215.19,-265.03 210.05,-269.78"/>
</a>
</g>
</g>
<!-- Node2&#45;&gt;Node3 -->
<g id="edge2_Node000002_Node000003" class="edge">
<title>Node2&#45;&gt;Node3</title>
<g id="a_edge2_Node000002_Node000003"><a xlink:title=" ">
<path fill="none" stroke="#63b8ff" d="M288.12,-211.39C294.32,-202.27 301.67,-191.45 306.67,-184.09"/>
<polygon fill="#63b8ff" stroke="#63b8ff" points="285.17,-209.51 282.44,-219.75 290.96,-213.44 285.17,-209.51"/>
</a>
</g>
</g>
<!-- Node2&#45;&gt;Node6 -->
<g id="edge5_Node000002_Node000006" class="edge">
<title>Node2&#45;&gt;Node6</title>
<g id="a_edge5_Node000002_Node000006"><a xlink:title=" ">
<path fill="none" stroke="#63b8ff" d="M244.71,-216.29C219.13,-206.47 183.83,-192.91 161.08,-184.17"/>
<polygon fill="#63b8ff" stroke="#63b8ff" points="243.74,-219.67 254.33,-219.98 246.25,-213.13 243.74,-219.67"/>
</a>
</g>
</g>
<!-- Node3&#45;&gt;Node4 -->
<g id="edge3_Node000003_Node000004" class="edge">
<title>Node3&#45;&gt;Node4</title>
<g id="a_edge3_Node000003_Node000004"><a xlink:title=" ">
<path fill="none" stroke="#63b8ff" d="M299.01,-156.67C288.49,-143.71 273.38,-125.45 259.5,-110 248.01,-97.21 234.09,-83.03 225.26,-74.19"/>
<polygon fill="#63b8ff" stroke="#63b8ff" points="296.49,-159.12 305.49,-164.7 301.94,-154.72 296.49,-159.12"/>
</a>
</g>
</g>
<!-- Node5 -->
<g id="Node000005" class="node">
<title>Node5</title>
<g id="a_Node000005"><a xlink:href="file_8h.html" target="_top" xlink:title=" ">
<polygon fill="white" stroke="#666666" points="193,-19 152,-19 152,0 193,0 193,-19"/>
<text text-anchor="middle" x="172.5" y="-7" font-family="Helvetica,sans-Serif" font-size="10.00">file.h</text>
</a>
</g>
</g>
<!-- Node4&#45;&gt;Node5 -->
<g id="edge4_Node000004_Node000005" class="edge">
<title>Node4&#45;&gt;Node5</title>
<g id="a_edge4_Node000004_Node000005"><a xlink:title=" ">
<path fill="none" stroke="#63b8ff" d="M202.77,-46.96C195.1,-37.72 185.87,-26.6 179.63,-19.09"/>
<polygon fill="#63b8ff" stroke="#63b8ff" points="200.15,-49.29 209.23,-54.75 205.54,-44.82 200.15,-49.29"/>
</a>
</g>
</g>
<!-- Node6&#45;&gt;Node4 -->
<g id="edge10_Node000006_Node000004" class="edge">
<title>Node6&#45;&gt;Node4</title>
<g id="a_edge10_Node000006_Node000004"><a xlink:title=" ">
<path fill="none" stroke="#63b8ff" d="M159.11,-158.53C168.96,-150.6 180.35,-140.19 188.5,-129 201.27,-111.47 209.92,-87.2 213.94,-74.33"/>
<polygon fill="#63b8ff" stroke="#63b8ff" points="156.74,-155.94 150.97,-164.83 161.02,-161.48 156.74,-155.94"/>
</a>
</g>
</g>
<!-- Node7 -->
<g id="Node000007" class="node">
<title>Node7</title>
<g id="a_Node000007"><a xlink:href="nc__mpi__file_8h.html" target="_top" xlink:title=" ">
<polygon fill="white" stroke="#666666" points="179.5,-129 97.5,-129 97.5,-110 179.5,-110 179.5,-129"/>
<text text-anchor="middle" x="138.5" y="-117" font-family="Helvetica,sans-Serif" font-size="10.00">nc_mpi_file.h</text>
</a>
</g>
</g>
<!-- Node6&#45;&gt;Node7 -->
<g id="edge6_Node000006_Node000007" class="edge">
<title>Node6&#45;&gt;Node7</title>
<g id="a_edge6_Node000006_Node000007"><a xlink:title=" ">
<path fill="none" stroke="#63b8ff" d="M138.5,-154.66C138.5,-145.93 138.5,-135.99 138.5,-129.09"/>
<polygon fill="#63b8ff" stroke="#63b8ff" points="135,-154.75 138.5,-164.75 142,-154.75 135,-154.75"/>
</a>
</g>
</g>
<!-- Node8 -->
<g id="Node000008" class="node">
<title>Node8</title>
<g id="a_Node000008"><a xlink:href="probes_8h.html" target="_top" xlink:title=" ">
<polygon fill="white" stroke="#666666" points="159,-74 100,-74 100,-55 159,-55 159,-74"/>
<text text-anchor="middle" x="129.5" y="-62" font-family="Helvetica,sans-Serif" font-size="10.00">probes.h</text>
</a>
</g>
</g>
<!-- Node6&#45;&gt;Node8 -->
<g id="edge11_Node000006_Node000008" class="edge">
<title>Node6&#45;&gt;Node8</title>
<g id="a_edge11_Node000006_Node000008"><a xlink:title=" ">
<path fill="none" stroke="#63b8ff" d="M114.85,-159.09C104.73,-151.52 94,-141.26 88.5,-129 79.05,-107.93 101.97,-85.82 117.22,-74.05"/>
<polygon fill="#63b8ff" stroke="#63b8ff" points="112.86,-161.97 123.07,-164.8 116.85,-156.22 112.86,-161.97"/>
</a>
</g>
</g>
<!-- Node7&#45;&gt;Node4 -->
<g id="edge7_Node000007_Node000004" class="edge">
<title>Node7&#45;&gt;Node4</title>
<g id="a_edge7_Node000007_Node000004"><a xlink:title=" ">
<path fill="none" stroke="#63b8ff" d="M159.62,-104.15C173.71,-94.57 191.79,-82.29 203.74,-74.17"/>
<polygon fill="#63b8ff" stroke="#63b8ff" points="157.34,-101.47 151.03,-109.98 161.27,-107.26 157.34,-101.47"/>
</a>
</g>
</g>
<!-- Node7&#45;&gt;Node8 -->
<g id="edge8_Node000007_Node000008" class="edge">
<title>Node7&#45;&gt;Node8</title>
<g id="a_edge8_Node000007_Node000008"><a xlink:title=" ">
<path fill="none" stroke="#63b8ff" d="M135.3,-99.66C133.82,-90.93 132.13,-80.99 130.96,-74.09"/>
<polygon fill="#63b8ff" stroke="#63b8ff" points="131.89,-100.48 137.01,-109.75 138.79,-99.3 131.89,-100.48"/>
</a>
</g>
</g>
<!-- Node8&#45;&gt;Node5 -->
<g id="edge9_Node000008_Node000005" class="edge">
<title>Node8&#45;&gt;Node5</title>
<g id="a_edge9_Node000008_Node000005"><a xlink:title=" ">
<path fill="none" stroke="#63b8ff" d="M142.92,-46.96C150.41,-37.72 159.44,-26.6 165.53,-19.09"/>
<polygon fill="#63b8ff" stroke="#63b8ff" points="140.18,-44.78 136.6,-54.75 145.62,-49.19 140.18,-44.78"/>
</a>
</g>
</g>
<!-- Node9&#45;&gt;Node4 -->
<g id="edge15_Node000009_Node000004" class="edge">
<title>Node9&#45;&gt;Node4</title>
<g id="a_edge15_Node000009_Node000004"><a xlink:title=" ">
<path fill="none" stroke="#63b8ff" d="M42.3,-210.03C47.17,-184.17 59.59,-137.29 88.5,-110 102.23,-97.04 149.06,-82.84 182.08,-74.05"/>
<polygon fill="#63b8ff" stroke="#63b8ff" points="38.83,-209.55 40.61,-219.99 45.73,-210.72 38.83,-209.55"/>
</a>
</g>
</g>
<!-- Node9&#45;&gt;Node6 -->
<g id="edge14_Node000009_Node000006" class="edge">
<title>Node9&#45;&gt;Node6</title>
<g id="a_edge14_Node000009_Node000006"><a xlink:title=" ">
<path fill="none" stroke="#63b8ff" d="M64.28,-215.23C82.44,-205.51 106.56,-192.6 122.3,-184.17"/>
<polygon fill="#63b8ff" stroke="#63b8ff" points="62.57,-212.18 55.41,-219.98 65.87,-218.35 62.57,-212.18"/>
</a>
</g>
</g>
<!-- Node10&#45;&gt;Node4 -->
<g id="edge18_Node000010_Node000004" class="edge">
<title>Node10&#45;&gt;Node4</title>
<g id="a_edge18_Node000010_Node000004"><a xlink:title=" ">
<path fill="none" stroke="#63b8ff" d="M185,-210.29C191.81,-190.51 202.37,-157.89 208.5,-129 212.61,-109.65 214.87,-86.51 215.87,-74.2"/>
<polygon fill="#63b8ff" stroke="#63b8ff" points="181.65,-209.25 181.65,-219.84 188.26,-211.56 181.65,-209.25"/>
</a>
</g>
</g>
<!-- Node10&#45;&gt;Node6 -->
<g id="edge17_Node000010_Node000006" class="edge">
<title>Node10&#45;&gt;Node6</title>
<g id="a_edge17_Node000010_Node000006"><a xlink:title=" ">
<path fill="none" stroke="#63b8ff" d="M165.8,-211.67C158.87,-202.5 150.59,-191.52 144.98,-184.09"/>
<polygon fill="#63b8ff" stroke="#63b8ff" points="163.08,-213.87 171.89,-219.75 168.66,-209.66 163.08,-213.87"/>
</a>
</g>
</g>
</g>
</svg>
