<?xml version="1.0" encoding="UTF-8" standalone="no"?>
<!DOCTYPE svg PUBLIC "-//W3C//DTD SVG 1.1//EN"
 "http://www.w3.org/Graphics/SVG/1.1/DTD/svg11.dtd">
<!-- Generated by graphviz version 2.43.0 (0)
 -->
<!-- Title: nc_utilities.h Pages: 1 -->
<svg width="1859pt" height="302pt"
 viewBox="0.00 0.00 1859.00 302.00" xmlns="http://www.w3.org/2000/svg" xmlns:xlink="http://www.w3.org/1999/xlink">
<g id="graph0" class="graph" transform="scale(1 1) rotate(0) translate(4 298)">
<title>nc_utilities.h</title>
<!-- Node1 -->
<g id="Node000001" class="node">
<title>Node1</title>
<g id="a_Node000001"><a xlink:title=" ">
<polygon fill="#999999" stroke="#666666" points="1190.5,-294 1111.5,-294 1111.5,-275 1190.5,-275 1190.5,-294"/>
<text text-anchor="middle" x="1151" y="-282" font-family="Helvetica,sans-Serif" font-size="10.00">nc_utilities.h</text>
</a>
</g>
</g>
<!-- Node2 -->
<g id="Node000002" class="node">
<title>Node2</title>
<g id="a_Node000002"><a xlink:title=" ">
<polygon fill="#e0e0e0" stroke="#999999" points="1016,-19 960,-19 960,0 1016,0 1016,-19"/>
<text text-anchor="middle" x="988" y="-7" font-family="Helvetica,sans-Serif" font-size="10.00">netcdf.h</text>
</a>
</g>
</g>
<!-- Node1&#45;&gt;Node2 -->
<g id="edge1_Node000001_Node000002" class="edge">
<title>Node1&#45;&gt;Node2</title>
<g id="a_edge1_Node000001_Node000002"><a xlink:title=" ">
<path fill="none" stroke="#63b8ff" d="M1111.38,-281.9C908.99,-273.5 0,-232.58 0,-175.5 0,-175.5 0,-175.5 0,-118.5 0,-21.17 767.49,-11.51 949.59,-10.59"/>
<polygon fill="#63b8ff" stroke="#63b8ff" points="949.78,-14.09 959.76,-10.54 949.74,-7.09 949.78,-14.09"/>
</a>
</g>
</g>
<!-- Node3 -->
<g id="Node000003" class="node">
<title>Node3</title>
<g id="a_Node000003"><a xlink:href="nc__error_8h.html" target="_top" xlink:title=" ">
<polygon fill="white" stroke="#666666" points="1020.5,-74 955.5,-74 955.5,-55 1020.5,-55 1020.5,-74"/>
<text text-anchor="middle" x="988" y="-62" font-family="Helvetica,sans-Serif" font-size="10.00">nc_error.h</text>
</a>
</g>
</g>
<!-- Node1&#45;&gt;Node3 -->
<g id="edge2_Node000001_Node000003" class="edge">
<title>Node1&#45;&gt;Node3</title>
<g id="a_edge2_Node000001_Node000003"><a xlink:title=" ">
<path fill="none" stroke="#63b8ff" d="M1144.61,-274.95C1120.32,-242.47 1033.46,-126.29 1000.66,-82.43"/>
<polygon fill="#63b8ff" stroke="#63b8ff" points="1003.31,-80.14 994.52,-74.22 997.71,-84.33 1003.31,-80.14"/>
</a>
</g>
</g>
<!-- Node5 -->
<g id="Node000005" class="node">
<title>Node5</title>
<g id="a_Node000005"><a xlink:href="easy__dims_8h.html" target="_top" xlink:title=" ">
<polygon fill="white" stroke="#666666" points="753,-184 675,-184 675,-165 753,-165 753,-184"/>
<text text-anchor="middle" x="714" y="-172" font-family="Helvetica,sans-Serif" font-size="10.00">easy_dims.h</text>
</a>
</g>
</g>
<!-- Node1&#45;&gt;Node5 -->
<g id="edge5_Node000001_Node000005" class="edge">
<title>Node1&#45;&gt;Node5</title>
<g id="a_edge5_Node000001_Node000005"><a xlink:title=" ">
<path fill="none" stroke="#63b8ff" d="M1116.34,-274.94C1037.7,-255.5 845.8,-208.07 758.52,-186.5"/>
<polygon fill="#63b8ff" stroke="#63b8ff" points="759.21,-183.07 748.66,-184.07 757.53,-189.86 759.21,-183.07"/>
</a>
</g>
</g>
<!-- Node22 -->
<g id="Node000022" class="node">
<title>Node22</title>
<g id="a_Node000022"><a xlink:href="easy__output_8h.html" target="_top" xlink:title=" ">
<polygon fill="white" stroke="#666666" points="1335,-129 1249,-129 1249,-110 1335,-110 1335,-129"/>
<text text-anchor="middle" x="1292" y="-117" font-family="Helvetica,sans-Serif" font-size="10.00">easy_output.h</text>
</a>
</g>
</g>
<!-- Node1&#45;&gt;Node22 -->
<g id="edge26_Node000001_Node000022" class="edge">
<title>Node1&#45;&gt;Node22</title>
<g id="a_edge26_Node000001_Node000022"><a xlink:title=" ">
<path fill="none" stroke="#63b8ff" d="M1158.58,-274.74C1181.15,-248.65 1248.17,-171.17 1277.72,-137"/>
<polygon fill="#63b8ff" stroke="#63b8ff" points="1280.49,-139.16 1284.38,-129.31 1275.19,-134.58 1280.49,-139.16"/>
</a>
</g>
</g>
<!-- Node26 -->
<g id="Node000026" class="node">
<title>Node26</title>
<g id="a_Node000026"><a xlink:href="easy__input_8h.html" target="_top" xlink:title=" ">
<polygon fill="white" stroke="#666666" points="1192.5,-129 1113.5,-129 1113.5,-110 1192.5,-110 1192.5,-129"/>
<text text-anchor="middle" x="1153" y="-117" font-family="Helvetica,sans-Serif" font-size="10.00">easy_input.h</text>
</a>
</g>
</g>
<!-- Node1&#45;&gt;Node26 -->
<g id="edge37_Node000001_Node000026" class="edge">
<title>Node1&#45;&gt;Node26</title>
<g id="a_edge37_Node000001_Node000026"><a xlink:title=" ">
<path fill="none" stroke="#63b8ff" d="M1151.11,-274.74C1151.42,-249.31 1152.33,-175.08 1152.76,-139.69"/>
<polygon fill="#63b8ff" stroke="#63b8ff" points="1156.27,-139.35 1152.89,-129.31 1149.27,-139.26 1156.27,-139.35"/>
</a>
</g>
</g>
<!-- Node27 -->
<g id="Node000027" class="node">
<title>Node27</title>
<g id="a_Node000027"><a xlink:href="nc__mpi__file_8h.html" target="_top" xlink:title=" ">
<polygon fill="white" stroke="#666666" points="1337,-239 1255,-239 1255,-220 1337,-220 1337,-239"/>
<text text-anchor="middle" x="1296" y="-227" font-family="Helvetica,sans-Serif" font-size="10.00">nc_mpi_file.h</text>
</a>
</g>
</g>
<!-- Node1&#45;&gt;Node27 -->
<g id="edge45_Node000001_Node000027" class="edge">
<title>Node1&#45;&gt;Node27</title>
<g id="a_edge45_Node000001_Node000027"><a xlink:title=" ">
<path fill="none" stroke="#63b8ff" d="M1174.3,-274.98C1198.25,-266.23 1235.78,-252.51 1262.83,-242.62"/>
<polygon fill="#63b8ff" stroke="#63b8ff" points="1264.09,-245.89 1272.28,-239.17 1261.69,-239.32 1264.09,-245.89"/>
</a>
</g>
</g>
<!-- Node28 -->
<g id="Node000028" class="node">
<title>Node28</title>
<g id="a_Node000028"><a xlink:href="nc__file_8h.html" target="_top" xlink:title=" ">
<polygon fill="white" stroke="#666666" points="1324,-184 1266,-184 1266,-165 1324,-165 1324,-184"/>
<text text-anchor="middle" x="1295" y="-172" font-family="Helvetica,sans-Serif" font-size="10.00">nc_file.h</text>
</a>
</g>
</g>
<!-- Node1&#45;&gt;Node28 -->
<g id="edge57_Node000001_Node000028" class="edge">
<title>Node1&#45;&gt;Node28</title>
<g id="a_edge57_Node000001_Node000028"><a xlink:title=" ">
<path fill="none" stroke="#63b8ff" d="M1162.78,-274.66C1187.48,-256.14 1244.9,-213.08 1275.3,-190.28"/>
<polygon fill="#63b8ff" stroke="#63b8ff" points="1277.56,-192.96 1283.46,-184.16 1273.36,-187.36 1277.56,-192.96"/>
</a>
</g>
</g>
<!-- Node3&#45;&gt;Node2 -->
<g id="edge4_Node000003_Node000002" class="edge">
<title>Node3&#45;&gt;Node2</title>
<g id="a_edge4_Node000003_Node000002"><a xlink:title=" ">
<path fill="none" stroke="#63b8ff" d="M988,-54.75C988,-47.8 988,-37.85 988,-29.13"/>
<polygon fill="#63b8ff" stroke="#63b8ff" points="991.5,-29.09 988,-19.09 984.5,-29.09 991.5,-29.09"/>
</a>
</g>
</g>
<!-- Node4 -->
<g id="Node000004" class="node">
<title>Node4</title>
<g id="a_Node000004"><a xlink:title=" ">
<polygon fill="#e0e0e0" stroke="#999999" points="1350.5,-19 1285.5,-19 1285.5,0 1350.5,0 1350.5,-19"/>
<text text-anchor="middle" x="1318" y="-7" font-family="Helvetica,sans-Serif" font-size="10.00">exception</text>
</a>
</g>
</g>
<!-- Node3&#45;&gt;Node4 -->
<g id="edge3_Node000003_Node000004" class="edge">
<title>Node3&#45;&gt;Node4</title>
<g id="a_edge3_Node000003_Node000004"><a xlink:title=" ">
<path fill="none" stroke="#63b8ff" d="M1020.64,-56.57C1023.47,-56.02 1026.28,-55.49 1029,-55 1116.24,-39.25 1218.94,-24.28 1275.41,-16.36"/>
<polygon fill="#63b8ff" stroke="#63b8ff" points="1275.98,-19.81 1285.4,-14.96 1275.01,-12.88 1275.98,-19.81"/>
</a>
</g>
</g>
<!-- Node5&#45;&gt;Node2 -->
<g id="edge6_Node000005_Node000002" class="edge">
<title>Node5&#45;&gt;Node2</title>
<g id="a_edge6_Node000005_Node000002"><a xlink:title=" ">
<path fill="none" stroke="#63b8ff" d="M703.72,-164.79C686.8,-150.93 651.51,-124 617,-110 537.12,-77.59 372.52,-118.34 431,-55 466.09,-16.99 829.43,-11.43 949.63,-10.63"/>
<polygon fill="#63b8ff" stroke="#63b8ff" points="949.85,-14.13 959.83,-10.57 949.81,-7.13 949.85,-14.13"/>
</a>
</g>
</g>
<!-- Node5&#45;&gt;Node3 -->
<g id="edge14_Node000005_Node000003" class="edge">
<title>Node5&#45;&gt;Node3</title>
<g id="a_edge14_Node000005_Node000003"><a xlink:title=" ">
<path fill="none" stroke="#63b8ff" d="M748.93,-164.97C779.51,-157.06 824.89,-144.23 863,-129 899.52,-114.41 939.73,-92.95 964.42,-79.09"/>
<polygon fill="#63b8ff" stroke="#63b8ff" points="966.42,-81.99 973.39,-74.01 962.97,-75.9 966.42,-81.99"/>
</a>
</g>
</g>
<!-- Node6 -->
<g id="Node000006" class="node">
<title>Node6</title>
<g id="a_Node000006"><a xlink:title=" ">
<polygon fill="#e0e0e0" stroke="#999999" points="608,-129 494,-129 494,-110 608,-110 608,-129"/>
<text text-anchor="middle" x="551" y="-117" font-family="Helvetica,sans-Serif" font-size="10.00">thrust/host_vector.h</text>
</a>
</g>
</g>
<!-- Node5&#45;&gt;Node6 -->
<g id="edge7_Node000005_Node000006" class="edge">
<title>Node5&#45;&gt;Node6</title>
<g id="a_edge7_Node000005_Node000006"><a xlink:title=" ">
<path fill="none" stroke="#63b8ff" d="M687.81,-164.98C660.56,-156.13 617.7,-142.19 587.22,-132.28"/>
<polygon fill="#63b8ff" stroke="#63b8ff" points="587.99,-128.85 577.39,-129.08 585.82,-135.5 587.99,-128.85"/>
</a>
</g>
</g>
<!-- Node7 -->
<g id="Node000007" class="node">
<title>Node7</title>
<g id="a_Node000007"><a xlink:title=" ">
<polygon fill="#e0e0e0" stroke="#999999" points="763.5,-129 664.5,-129 664.5,-110 763.5,-110 763.5,-129"/>
<text text-anchor="middle" x="714" y="-117" font-family="Helvetica,sans-Serif" font-size="10.00">dg/runge_kutta.h</text>
</a>
</g>
</g>
<!-- Node5&#45;&gt;Node7 -->
<g id="edge8_Node000005_Node000007" class="edge">
<title>Node5&#45;&gt;Node7</title>
<g id="a_edge8_Node000005_Node000007"><a xlink:title=" ">
<path fill="none" stroke="#63b8ff" d="M714,-164.75C714,-157.8 714,-147.85 714,-139.13"/>
<polygon fill="#63b8ff" stroke="#63b8ff" points="717.5,-139.09 714,-129.09 710.5,-139.09 717.5,-139.09"/>
</a>
</g>
</g>
<!-- Node8 -->
<g id="Node000008" class="node">
<title>Node8</title>
<g id="a_Node000008"><a xlink:title=" ">
<polygon fill="#e0e0e0" stroke="#999999" points="1143.5,-74 1038.5,-74 1038.5,-55 1143.5,-55 1143.5,-74"/>
<text text-anchor="middle" x="1091" y="-62" font-family="Helvetica,sans-Serif" font-size="10.00">dg/topology/grid.h</text>
</a>
</g>
</g>
<!-- Node5&#45;&gt;Node8 -->
<g id="edge9_Node000005_Node000008" class="edge">
<title>Node5&#45;&gt;Node8</title>
<g id="a_edge9_Node000005_Node000008"><a xlink:title=" ">
<path fill="none" stroke="#63b8ff" d="M753.23,-165.06C790.84,-156.74 849.12,-143.22 899,-129 955.25,-112.96 1019.61,-90.9 1057.7,-77.45"/>
<polygon fill="#63b8ff" stroke="#63b8ff" points="1059,-80.71 1067.25,-74.06 1056.66,-74.11 1059,-80.71"/>
</a>
</g>
</g>
<!-- Node9 -->
<g id="Node000009" class="node">
<title>Node9</title>
<g id="a_Node000009"><a xlink:title=" ">
<polygon fill="#e0e0e0" stroke="#999999" points="140,-129 28,-129 28,-110 140,-110 140,-129"/>
<text text-anchor="middle" x="84" y="-117" font-family="Helvetica,sans-Serif" font-size="10.00">dg/topology/gridX.h</text>
</a>
</g>
</g>
<!-- Node5&#45;&gt;Node9 -->
<g id="edge10_Node000005_Node000009" class="edge">
<title>Node5&#45;&gt;Node9</title>
<g id="a_edge10_Node000005_Node000009"><a xlink:title=" ">
<path fill="none" stroke="#63b8ff" d="M674.89,-171.12C584.48,-165.45 353.78,-150.15 150.32,-129.09"/>
<polygon fill="#63b8ff" stroke="#63b8ff" points="150.66,-125.6 140.35,-128.05 149.93,-132.57 150.66,-125.6"/>
</a>
</g>
</g>
<!-- Node10 -->
<g id="Node000010" class="node">
<title>Node10</title>
<g id="a_Node000010"><a xlink:title=" ">
<polygon fill="#e0e0e0" stroke="#999999" points="296,-129 158,-129 158,-110 296,-110 296,-129"/>
<text text-anchor="middle" x="227" y="-117" font-family="Helvetica,sans-Serif" font-size="10.00">dg/topology/evaluation.h</text>
</a>
</g>
</g>
<!-- Node5&#45;&gt;Node10 -->
<g id="edge11_Node000005_Node000010" class="edge">
<title>Node5&#45;&gt;Node10</title>
<g id="a_edge11_Node000005_Node000010"><a xlink:title=" ">
<path fill="none" stroke="#63b8ff" d="M674.8,-169.24C603.67,-161.5 448.31,-144.6 306.51,-129.16"/>
<polygon fill="#63b8ff" stroke="#63b8ff" points="306.64,-125.66 296.32,-128.05 305.88,-132.62 306.64,-125.66"/>
</a>
</g>
</g>
<!-- Node11 -->
<g id="Node000011" class="node">
<title>Node11</title>
<g id="a_Node000011"><a xlink:title=" ">
<polygon fill="#e0e0e0" stroke="#999999" points="1632.5,-74 1503.5,-74 1503.5,-55 1632.5,-55 1632.5,-74"/>
<text text-anchor="middle" x="1568" y="-62" font-family="Helvetica,sans-Serif" font-size="10.00">dg/topology/mpi_grid.h</text>
</a>
</g>
</g>
<!-- Node5&#45;&gt;Node11 -->
<g id="edge12_Node000005_Node000011" class="edge">
<title>Node5&#45;&gt;Node11</title>
<g id="a_edge12_Node000005_Node000011"><a xlink:title=" ">
<path fill="none" stroke="#63b8ff" d="M753.3,-171.8C853.73,-167.15 1117.82,-152.96 1202,-129 1220.16,-123.83 1221.96,-115.57 1240,-110 1263.66,-102.7 1404.14,-85.06 1493.41,-74.31"/>
<polygon fill="#63b8ff" stroke="#63b8ff" points="1493.99,-77.77 1503.5,-73.1 1493.15,-70.82 1493.99,-77.77"/>
</a>
</g>
</g>
<!-- Node12 -->
<g id="Node000012" class="node">
<title>Node12</title>
<g id="a_Node000012"><a xlink:title=" ">
<polygon fill="#e0e0e0" stroke="#999999" points="476,-129 314,-129 314,-110 476,-110 476,-129"/>
<text text-anchor="middle" x="395" y="-117" font-family="Helvetica,sans-Serif" font-size="10.00">dg/topology/mpi_evaluation.h</text>
</a>
</g>
</g>
<!-- Node5&#45;&gt;Node12 -->
<g id="edge13_Node000005_Node000012" class="edge">
<title>Node5&#45;&gt;Node12</title>
<g id="a_edge13_Node000005_Node000012"><a xlink:title=" ">
<path fill="none" stroke="#63b8ff" d="M674.88,-167C620.32,-157.94 520.82,-141.41 456.34,-130.69"/>
<polygon fill="#63b8ff" stroke="#63b8ff" points="456.75,-127.21 446.31,-129.02 455.6,-134.12 456.75,-127.21"/>
</a>
</g>
</g>
<!-- Node13 -->
<g id="Node000013" class="node">
<title>Node13</title>
<g id="a_Node000013"><a xlink:href="easy__atts_8h.html" target="_top" xlink:title=" ">
<polygon fill="white" stroke="#666666" points="854.5,-129 781.5,-129 781.5,-110 854.5,-110 854.5,-129"/>
<text text-anchor="middle" x="818" y="-117" font-family="Helvetica,sans-Serif" font-size="10.00">easy_atts.h</text>
</a>
</g>
</g>
<!-- Node5&#45;&gt;Node13 -->
<g id="edge15_Node000005_Node000013" class="edge">
<title>Node5&#45;&gt;Node13</title>
<g id="a_edge15_Node000005_Node000013"><a xlink:title=" ">
<path fill="none" stroke="#63b8ff" d="M730.71,-164.98C747.21,-156.57 772.7,-143.59 791.88,-133.81"/>
<polygon fill="#63b8ff" stroke="#63b8ff" points="793.67,-136.83 800.99,-129.17 790.49,-130.59 793.67,-136.83"/>
</a>
</g>
</g>
<!-- Node13&#45;&gt;Node2 -->
<g id="edge24_Node000013_Node000002" class="edge">
<title>Node13&#45;&gt;Node2</title>
<g id="a_edge24_Node000013_Node000002"><a xlink:title=" ">
<path fill="none" stroke="#63b8ff" d="M781.38,-111.48C778.21,-110.95 775.05,-110.45 772,-110 698.01,-99.17 389.31,-109.98 440,-55 474.47,-17.62 831.17,-11.64 949.84,-10.68"/>
<polygon fill="#63b8ff" stroke="#63b8ff" points="949.95,-14.18 959.92,-10.61 949.9,-7.18 949.95,-14.18"/>
</a>
</g>
</g>
<!-- Node13&#45;&gt;Node3 -->
<g id="edge25_Node000013_Node000003" class="edge">
<title>Node13&#45;&gt;Node3</title>
<g id="a_edge25_Node000013_Node000003"><a xlink:title=" ">
<path fill="none" stroke="#63b8ff" d="M845.31,-109.98C873.85,-101.09 918.83,-87.07 950.64,-77.15"/>
<polygon fill="#63b8ff" stroke="#63b8ff" points="951.97,-80.4 960.47,-74.08 949.88,-73.72 951.97,-80.4"/>
</a>
</g>
</g>
<!-- Node14 -->
<g id="Node000014" class="node">
<title>Node14</title>
<g id="a_Node000014"><a xlink:title=" ">
<polygon fill="#e0e0e0" stroke="#999999" points="780.5,-74 729.5,-74 729.5,-55 780.5,-55 780.5,-74"/>
<text text-anchor="middle" x="755" y="-62" font-family="Helvetica,sans-Serif" font-size="10.00">variant</text>
</a>
</g>
</g>
<!-- Node13&#45;&gt;Node14 -->
<g id="edge16_Node000013_Node000014" class="edge">
<title>Node13&#45;&gt;Node14</title>
<g id="a_edge16_Node000013_Node000014"><a xlink:title=" ">
<path fill="none" stroke="#63b8ff" d="M807.88,-109.98C798.56,-102.15 784.53,-90.34 773.26,-80.86"/>
<polygon fill="#63b8ff" stroke="#63b8ff" points="775.21,-77.93 765.31,-74.17 770.71,-83.29 775.21,-77.93"/>
</a>
</g>
</g>
<!-- Node15 -->
<g id="Node000015" class="node">
<title>Node15</title>
<g id="a_Node000015"><a xlink:title=" ">
<polygon fill="#e0e0e0" stroke="#999999" points="1174.5,-19 1127.5,-19 1127.5,0 1174.5,0 1174.5,-19"/>
<text text-anchor="middle" x="1151" y="-7" font-family="Helvetica,sans-Serif" font-size="10.00">vector</text>
</a>
</g>
</g>
<!-- Node13&#45;&gt;Node15 -->
<g id="edge17_Node000013_Node000015" class="edge">
<title>Node13&#45;&gt;Node15</title>
<g id="a_edge17_Node000013_Node000015"><a xlink:title=" ">
<path fill="none" stroke="#63b8ff" d="M835.26,-109.99C853.39,-101.05 882.72,-86.57 908,-74 924.91,-65.59 928.19,-61.27 946,-55 1004.62,-34.35 1076.18,-21.46 1117.38,-15.16"/>
<polygon fill="#63b8ff" stroke="#63b8ff" points="1118.04,-18.59 1127.42,-13.66 1117.01,-11.67 1118.04,-18.59"/>
</a>
</g>
</g>
<!-- Node16 -->
<g id="Node000016" class="node">
<title>Node16</title>
<g id="a_Node000016"><a xlink:title=" ">
<polygon fill="#e0e0e0" stroke="#999999" points="837,-74 799,-74 799,-55 837,-55 837,-74"/>
<text text-anchor="middle" x="818" y="-62" font-family="Helvetica,sans-Serif" font-size="10.00">map</text>
</a>
</g>
</g>
<!-- Node13&#45;&gt;Node16 -->
<g id="edge18_Node000013_Node000016" class="edge">
<title>Node13&#45;&gt;Node16</title>
<g id="a_edge18_Node000013_Node000016"><a xlink:title=" ">
<path fill="none" stroke="#63b8ff" d="M818,-109.75C818,-102.8 818,-92.85 818,-84.13"/>
<polygon fill="#63b8ff" stroke="#63b8ff" points="821.5,-84.09 818,-74.09 814.5,-84.09 821.5,-84.09"/>
</a>
</g>
</g>
<!-- Node17 -->
<g id="Node000017" class="node">
<title>Node17</title>
<g id="a_Node000017"><a xlink:title=" ">
<polygon fill="#e0e0e0" stroke="#999999" points="899,-74 855,-74 855,-55 899,-55 899,-74"/>
<text text-anchor="middle" x="877" y="-62" font-family="Helvetica,sans-Serif" font-size="10.00">string</text>
</a>
</g>
</g>
<!-- Node13&#45;&gt;Node17 -->
<g id="edge19_Node000013_Node000017" class="edge">
<title>Node13&#45;&gt;Node17</title>
<g id="a_edge19_Node000013_Node000017"><a xlink:title=" ">
<path fill="none" stroke="#63b8ff" d="M827.48,-109.98C836.2,-102.15 849.34,-90.34 859.9,-80.86"/>
<polygon fill="#63b8ff" stroke="#63b8ff" points="862.25,-83.46 867.35,-74.17 857.57,-78.25 862.25,-83.46"/>
</a>
</g>
</g>
<!-- Node18 -->
<g id="Node000018" class="node">
<title>Node18</title>
<g id="a_Node000018"><a xlink:title=" ">
<polygon fill="#e0e0e0" stroke="#999999" points="501,-74 449,-74 449,-55 501,-55 501,-74"/>
<text text-anchor="middle" x="475" y="-62" font-family="Helvetica,sans-Serif" font-size="10.00">cassert</text>
</a>
</g>
</g>
<!-- Node13&#45;&gt;Node18 -->
<g id="edge20_Node000013_Node000018" class="edge">
<title>Node13&#45;&gt;Node18</title>
<g id="a_edge20_Node000013_Node000018"><a xlink:title=" ">
<path fill="none" stroke="#63b8ff" d="M781.37,-111.57C778.2,-111.02 775.05,-110.49 772,-110 659.13,-91.83 627.21,-95.66 511.29,-74.08"/>
<polygon fill="#63b8ff" stroke="#63b8ff" points="511.79,-70.61 501.31,-72.19 510.49,-77.49 511.79,-70.61"/>
</a>
</g>
</g>
<!-- Node19 -->
<g id="Node000019" class="node">
<title>Node19</title>
<g id="a_Node000019"><a xlink:title=" ">
<polygon fill="#e0e0e0" stroke="#999999" points="575,-74 519,-74 519,-55 575,-55 575,-74"/>
<text text-anchor="middle" x="547" y="-62" font-family="Helvetica,sans-Serif" font-size="10.00">sstream</text>
</a>
</g>
</g>
<!-- Node13&#45;&gt;Node19 -->
<g id="edge21_Node000013_Node000019" class="edge">
<title>Node13&#45;&gt;Node19</title>
<g id="a_edge21_Node000013_Node000019"><a xlink:title=" ">
<path fill="none" stroke="#63b8ff" d="M781.26,-111.69C728.98,-101.97 634.75,-84.34 585.14,-74.16"/>
<polygon fill="#63b8ff" stroke="#63b8ff" points="585.76,-70.72 575.26,-72.11 584.34,-77.57 585.76,-70.72"/>
</a>
</g>
</g>
<!-- Node20 -->
<g id="Node000020" class="node">
<title>Node20</title>
<g id="a_Node000020"><a xlink:title=" ">
<polygon fill="#e0e0e0" stroke="#999999" points="649,-74 593,-74 593,-55 649,-55 649,-74"/>
<text text-anchor="middle" x="621" y="-62" font-family="Helvetica,sans-Serif" font-size="10.00">iomanip</text>
</a>
</g>
</g>
<!-- Node13&#45;&gt;Node20 -->
<g id="edge22_Node000013_Node000020" class="edge">
<title>Node13&#45;&gt;Node20</title>
<g id="a_edge22_Node000013_Node000020"><a xlink:title=" ">
<path fill="none" stroke="#63b8ff" d="M786.35,-109.98C751.65,-100.65 696,-85.68 658.98,-75.72"/>
<polygon fill="#63b8ff" stroke="#63b8ff" points="659.63,-72.27 649.06,-73.05 657.81,-79.03 659.63,-72.27"/>
</a>
</g>
</g>
<!-- Node21 -->
<g id="Node000021" class="node">
<title>Node21</title>
<g id="a_Node000021"><a xlink:title=" ">
<polygon fill="#e0e0e0" stroke="#999999" points="711,-74 667,-74 667,-55 711,-55 711,-74"/>
<text text-anchor="middle" x="689" y="-62" font-family="Helvetica,sans-Serif" font-size="10.00">ctime</text>
</a>
</g>
</g>
<!-- Node13&#45;&gt;Node21 -->
<g id="edge23_Node000013_Node000021" class="edge">
<title>Node13&#45;&gt;Node21</title>
<g id="a_edge23_Node000013_Node000021"><a xlink:title=" ">
<path fill="none" stroke="#63b8ff" d="M797.27,-109.98C776.24,-101.34 743.45,-87.87 719.46,-78.02"/>
<polygon fill="#63b8ff" stroke="#63b8ff" points="720.68,-74.73 710.1,-74.17 718.02,-81.21 720.68,-74.73"/>
</a>
</g>
</g>
<!-- Node22&#45;&gt;Node2 -->
<g id="edge28_Node000022_Node000002" class="edge">
<title>Node22&#45;&gt;Node2</title>
<g id="a_edge28_Node000022_Node000002"><a xlink:title=" ">
<path fill="none" stroke="#63b8ff" d="M1335.11,-111.31C1338.12,-110.85 1341.1,-110.41 1344,-110 1410.67,-100.53 1687.97,-104.21 1642,-55 1640.67,-53.58 1166,-22.22 1026.26,-13.02"/>
<polygon fill="#63b8ff" stroke="#63b8ff" points="1026.25,-9.51 1016.04,-12.34 1025.79,-16.49 1026.25,-9.51"/>
</a>
</g>
</g>
<!-- Node22&#45;&gt;Node3 -->
<g id="edge33_Node000022_Node000003" class="edge">
<title>Node22&#45;&gt;Node3</title>
<g id="a_edge33_Node000022_Node000003"><a xlink:title=" ">
<path fill="none" stroke="#63b8ff" d="M1248.63,-111.66C1198.46,-103.64 1113.13,-89.66 1030.69,-74.27"/>
<polygon fill="#63b8ff" stroke="#63b8ff" points="1031.13,-70.79 1020.65,-72.38 1029.83,-77.67 1031.13,-70.79"/>
</a>
</g>
</g>
<!-- Node22&#45;&gt;Node4 -->
<g id="edge27_Node000022_Node000004" class="edge">
<title>Node22&#45;&gt;Node4</title>
<g id="a_edge27_Node000022_Node000004"><a xlink:title=" ">
<path fill="none" stroke="#63b8ff" d="M1335.1,-111.27C1338.11,-110.82 1341.1,-110.39 1344,-110 1417.31,-100.03 1625.59,-129.07 1675,-74 1717.98,-26.09 1464.54,-14.2 1360.78,-11.36"/>
<polygon fill="#63b8ff" stroke="#63b8ff" points="1360.73,-7.86 1350.64,-11.1 1360.55,-14.85 1360.73,-7.86"/>
</a>
</g>
</g>
<!-- Node22&#45;&gt;Node8 -->
<g id="edge29_Node000022_Node000008" class="edge">
<title>Node22&#45;&gt;Node8</title>
<g id="a_edge29_Node000022_Node000008"><a xlink:title=" ">
<path fill="none" stroke="#63b8ff" d="M1259.71,-109.98C1225.38,-100.93 1170.94,-86.58 1133.23,-76.64"/>
<polygon fill="#63b8ff" stroke="#63b8ff" points="1134.11,-73.25 1123.55,-74.08 1132.32,-80.02 1134.11,-73.25"/>
</a>
</g>
</g>
<!-- Node22&#45;&gt;Node11 -->
<g id="edge31_Node000022_Node000011" class="edge">
<title>Node22&#45;&gt;Node11</title>
<g id="a_edge31_Node000022_Node000011"><a xlink:title=" ">
<path fill="none" stroke="#63b8ff" d="M1335.12,-110.22C1383.17,-100.99 1460.94,-86.06 1513.24,-76.01"/>
<polygon fill="#63b8ff" stroke="#63b8ff" points="1514.19,-79.4 1523.35,-74.07 1512.87,-72.52 1514.19,-79.4"/>
</a>
</g>
</g>
<!-- Node23 -->
<g id="Node000023" class="node">
<title>Node23</title>
<g id="a_Node000023"><a xlink:title=" ">
<polygon fill="#e0e0e0" stroke="#999999" points="1485.5,-74 1346.5,-74 1346.5,-55 1485.5,-55 1485.5,-74"/>
<text text-anchor="middle" x="1416" y="-62" font-family="Helvetica,sans-Serif" font-size="10.00">dg/backend/mpi_vector.h</text>
</a>
</g>
</g>
<!-- Node22&#45;&gt;Node23 -->
<g id="edge30_Node000022_Node000023" class="edge">
<title>Node22&#45;&gt;Node23</title>
<g id="a_edge30_Node000022_Node000023"><a xlink:title=" ">
<path fill="none" stroke="#63b8ff" d="M1311.92,-109.98C1332.05,-101.38 1363.38,-87.99 1386.41,-78.15"/>
<polygon fill="#63b8ff" stroke="#63b8ff" points="1387.9,-81.32 1395.71,-74.17 1385.14,-74.88 1387.9,-81.32"/>
</a>
</g>
</g>
<!-- Node24 -->
<g id="Node000024" class="node">
<title>Node24</title>
<g id="a_Node000024"><a xlink:title=" ">
<polygon fill="#e0e0e0" stroke="#999999" points="1851,-74 1727,-74 1727,-55 1851,-55 1851,-74"/>
<text text-anchor="middle" x="1789" y="-62" font-family="Helvetica,sans-Serif" font-size="10.00">dg/backend/mpi_init.h</text>
</a>
</g>
</g>
<!-- Node22&#45;&gt;Node24 -->
<g id="edge32_Node000022_Node000024" class="edge">
<title>Node22&#45;&gt;Node24</title>
<g id="a_edge32_Node000022_Node000024"><a xlink:title=" ">
<path fill="none" stroke="#63b8ff" d="M1335.1,-111.23C1338.11,-110.8 1341.1,-110.38 1344,-110 1507.4,-88.7 1549.12,-91.16 1713,-74 1714.26,-73.87 1715.54,-73.73 1716.82,-73.6"/>
<polygon fill="#63b8ff" stroke="#63b8ff" points="1717.22,-77.07 1726.79,-72.53 1716.48,-70.11 1717.22,-77.07"/>
</a>
</g>
</g>
<!-- Node25 -->
<g id="Node000025" class="node">
<title>Node25</title>
<g id="a_Node000025"><a xlink:href="nc__hyperslab_8h.html" target="_top" xlink:title=" ">
<polygon fill="white" stroke="#666666" points="1290,-74 1200,-74 1200,-55 1290,-55 1290,-74"/>
<text text-anchor="middle" x="1245" y="-62" font-family="Helvetica,sans-Serif" font-size="10.00">nc_hyperslab.h</text>
</a>
</g>
</g>
<!-- Node22&#45;&gt;Node25 -->
<g id="edge34_Node000022_Node000025" class="edge">
<title>Node22&#45;&gt;Node25</title>
<g id="a_edge34_Node000022_Node000025"><a xlink:title=" ">
<path fill="none" stroke="#63b8ff" d="M1284.24,-109.75C1277.53,-102.18 1267.66,-91.05 1259.49,-81.84"/>
<polygon fill="#63b8ff" stroke="#63b8ff" points="1261.87,-79.25 1252.62,-74.09 1256.63,-83.89 1261.87,-79.25"/>
</a>
</g>
</g>
<!-- Node25&#45;&gt;Node2 -->
<g id="edge36_Node000025_Node000002" class="edge">
<title>Node25&#45;&gt;Node2</title>
<g id="a_edge36_Node000025_Node000002"><a xlink:title=" ">
<path fill="none" stroke="#63b8ff" d="M1203.71,-54.98C1154.67,-44.87 1073.53,-28.14 1025.99,-18.33"/>
<polygon fill="#63b8ff" stroke="#63b8ff" points="1026.59,-14.88 1016.09,-16.29 1025.18,-21.74 1026.59,-14.88"/>
</a>
</g>
</g>
<!-- Node25&#45;&gt;Node15 -->
<g id="edge35_Node000025_Node000015" class="edge">
<title>Node25&#45;&gt;Node15</title>
<g id="a_edge35_Node000025_Node000015"><a xlink:title=" ">
<path fill="none" stroke="#63b8ff" d="M1229.9,-54.98C1215.18,-46.69 1192.58,-33.94 1175.33,-24.22"/>
<polygon fill="#63b8ff" stroke="#63b8ff" points="1176.81,-21.03 1166.38,-19.17 1173.37,-27.13 1176.81,-21.03"/>
</a>
</g>
</g>
<!-- Node26&#45;&gt;Node2 -->
<g id="edge39_Node000026_Node000002" class="edge">
<title>Node26&#45;&gt;Node2</title>
<g id="a_edge39_Node000026_Node000002"><a xlink:title=" ">
<path fill="none" stroke="#63b8ff" d="M1156.06,-109.64C1160.05,-96.3 1165.2,-70.93 1153,-55 1137.67,-34.99 1070.03,-21.94 1026.25,-15.43"/>
<polygon fill="#63b8ff" stroke="#63b8ff" points="1026.62,-11.94 1016.22,-13.99 1025.62,-18.87 1026.62,-11.94"/>
</a>
</g>
</g>
<!-- Node26&#45;&gt;Node3 -->
<g id="edge43_Node000026_Node000003" class="edge">
<title>Node26&#45;&gt;Node3</title>
<g id="a_edge43_Node000026_Node000003"><a xlink:title=" ">
<path fill="none" stroke="#63b8ff" d="M1126.49,-109.98C1098.79,-101.09 1055.14,-87.07 1024.26,-77.15"/>
<polygon fill="#63b8ff" stroke="#63b8ff" points="1025.31,-73.81 1014.72,-74.08 1023.17,-80.47 1025.31,-73.81"/>
</a>
</g>
</g>
<!-- Node26&#45;&gt;Node4 -->
<g id="edge38_Node000026_Node000004" class="edge">
<title>Node26&#45;&gt;Node4</title>
<g id="a_edge38_Node000026_Node000004"><a xlink:title=" ">
<path fill="none" stroke="#63b8ff" d="M1192.53,-110.84C1230.42,-102.74 1284,-89.08 1299,-74 1310.78,-62.16 1315.31,-43.32 1317.03,-29.24"/>
<polygon fill="#63b8ff" stroke="#63b8ff" points="1320.52,-29.44 1317.88,-19.18 1313.55,-28.85 1320.52,-29.44"/>
</a>
</g>
</g>
<!-- Node26&#45;&gt;Node8 -->
<g id="edge40_Node000026_Node000008" class="edge">
<title>Node26&#45;&gt;Node8</title>
<g id="a_edge40_Node000026_Node000008"><a xlink:title=" ">
<path fill="none" stroke="#63b8ff" d="M1143.04,-109.98C1133.87,-102.15 1120.06,-90.34 1108.97,-80.86"/>
<polygon fill="#63b8ff" stroke="#63b8ff" points="1111.02,-78.01 1101.14,-74.17 1106.47,-83.33 1111.02,-78.01"/>
</a>
</g>
</g>
<!-- Node26&#45;&gt;Node11 -->
<g id="edge42_Node000026_Node000011" class="edge">
<title>Node26&#45;&gt;Node11</title>
<g id="a_edge42_Node000026_Node000011"><a xlink:title=" ">
<path fill="none" stroke="#63b8ff" d="M1192.79,-112.08C1197.57,-111.36 1202.39,-110.65 1207,-110 1260.59,-102.48 1404.24,-85.08 1493.33,-74.41"/>
<polygon fill="#63b8ff" stroke="#63b8ff" points="1493.87,-77.87 1503.38,-73.2 1493.04,-70.92 1493.87,-77.87"/>
</a>
</g>
</g>
<!-- Node26&#45;&gt;Node23 -->
<g id="edge41_Node000026_Node000023" class="edge">
<title>Node26&#45;&gt;Node23</title>
<g id="a_edge41_Node000026_Node000023"><a xlink:title=" ">
<path fill="none" stroke="#63b8ff" d="M1192.66,-110.51C1238.17,-101.34 1312.99,-86.26 1363.35,-76.11"/>
<polygon fill="#63b8ff" stroke="#63b8ff" points="1364.29,-79.49 1373.4,-74.09 1362.9,-72.63 1364.29,-79.49"/>
</a>
</g>
</g>
<!-- Node26&#45;&gt;Node25 -->
<g id="edge44_Node000026_Node000025" class="edge">
<title>Node26&#45;&gt;Node25</title>
<g id="a_edge44_Node000026_Node000025"><a xlink:title=" ">
<path fill="none" stroke="#63b8ff" d="M1167.78,-109.98C1182.18,-101.69 1204.31,-88.94 1221.19,-79.22"/>
<polygon fill="#63b8ff" stroke="#63b8ff" points="1223.03,-82.19 1229.95,-74.17 1219.54,-76.13 1223.03,-82.19"/>
</a>
</g>
</g>
<!-- Node27&#45;&gt;Node28 -->
<g id="edge46_Node000027_Node000028" class="edge">
<title>Node27&#45;&gt;Node28</title>
<g id="a_edge46_Node000027_Node000028"><a xlink:title=" ">
<path fill="none" stroke="#63b8ff" d="M1295.83,-219.75C1295.7,-212.8 1295.52,-202.85 1295.35,-194.13"/>
<polygon fill="#63b8ff" stroke="#63b8ff" points="1298.85,-194.02 1295.16,-184.09 1291.85,-194.15 1298.85,-194.02"/>
</a>
</g>
</g>
<!-- Node34 -->
<g id="Node000034" class="node">
<title>Node34</title>
<g id="a_Node000034"><a xlink:title=" ">
<polygon fill="#e0e0e0" stroke="#999999" points="1494,-184 1342,-184 1342,-165 1494,-165 1494,-184"/>
<text text-anchor="middle" x="1418" y="-172" font-family="Helvetica,sans-Serif" font-size="10.00">dg/backend/mpi_datatype.h</text>
</a>
</g>
</g>
<!-- Node27&#45;&gt;Node34 -->
<g id="edge56_Node000027_Node000034" class="edge">
<title>Node27&#45;&gt;Node34</title>
<g id="a_edge56_Node000027_Node000034"><a xlink:title=" ">
<path fill="none" stroke="#63b8ff" d="M1315.6,-219.98C1335.32,-211.42 1365.95,-198.11 1388.58,-188.28"/>
<polygon fill="#63b8ff" stroke="#63b8ff" points="1390.26,-191.37 1398.04,-184.17 1387.48,-184.94 1390.26,-191.37"/>
</a>
</g>
</g>
<!-- Node28&#45;&gt;Node3 -->
<g id="edge52_Node000028_Node000003" class="edge">
<title>Node28&#45;&gt;Node3</title>
<g id="a_edge52_Node000028_Node000003"><a xlink:title=" ">
<path fill="none" stroke="#63b8ff" d="M1265.96,-169.18C1228.07,-162.99 1160.09,-149.97 1105,-129 1070.07,-115.71 1032.58,-93.87 1009.71,-79.59"/>
<polygon fill="#63b8ff" stroke="#63b8ff" points="1011.45,-76.55 1001.13,-74.15 1007.7,-82.46 1011.45,-76.55"/>
</a>
</g>
</g>
<!-- Node28&#45;&gt;Node13 -->
<g id="edge53_Node000028_Node000013" class="edge">
<title>Node28&#45;&gt;Node13</title>
<g id="a_edge53_Node000028_Node000013"><a xlink:title=" ">
<path fill="none" stroke="#63b8ff" d="M1265.88,-170.26C1185.96,-161.38 962.67,-136.57 864.88,-125.71"/>
<polygon fill="#63b8ff" stroke="#63b8ff" points="865.03,-122.2 854.7,-124.58 864.26,-129.16 865.03,-122.2"/>
</a>
</g>
</g>
<!-- Node28&#45;&gt;Node22 -->
<g id="edge54_Node000028_Node000022" class="edge">
<title>Node28&#45;&gt;Node22</title>
<g id="a_edge54_Node000028_Node000022"><a xlink:title=" ">
<path fill="none" stroke="#63b8ff" d="M1294.5,-164.75C1294.11,-157.8 1293.55,-147.85 1293.05,-139.13"/>
<polygon fill="#63b8ff" stroke="#63b8ff" points="1296.55,-138.88 1292.49,-129.09 1289.56,-139.27 1296.55,-138.88"/>
</a>
</g>
</g>
<!-- Node28&#45;&gt;Node26 -->
<g id="edge55_Node000028_Node000026" class="edge">
<title>Node28&#45;&gt;Node26</title>
<g id="a_edge55_Node000028_Node000026"><a xlink:title=" ">
<path fill="none" stroke="#63b8ff" d="M1272.19,-164.98C1248.83,-156.27 1212.3,-142.63 1185.83,-132.75"/>
<polygon fill="#63b8ff" stroke="#63b8ff" points="1186.82,-129.39 1176.23,-129.17 1184.37,-135.95 1186.82,-129.39"/>
</a>
</g>
</g>
<!-- Node29 -->
<g id="Node000029" class="node">
<title>Node29</title>
<g id="a_Node000029"><a xlink:title=" ">
<polygon fill="#e0e0e0" stroke="#999999" points="1711,-129 1643,-129 1643,-110 1711,-110 1711,-129"/>
<text text-anchor="middle" x="1677" y="-117" font-family="Helvetica,sans-Serif" font-size="10.00">filesystem</text>
</a>
</g>
</g>
<!-- Node28&#45;&gt;Node29 -->
<g id="edge47_Node000028_Node000029" class="edge">
<title>Node28&#45;&gt;Node29</title>
<g id="a_edge47_Node000028_Node000029"><a xlink:title=" ">
<path fill="none" stroke="#63b8ff" d="M1324.4,-166.62C1327.3,-166.03 1330.2,-165.48 1333,-165 1462.56,-142.82 1499.15,-149.72 1632.57,-129.11"/>
<polygon fill="#63b8ff" stroke="#63b8ff" points="1633.44,-132.52 1642.77,-127.51 1632.35,-125.6 1633.44,-132.52"/>
</a>
</g>
</g>
<!-- Node30 -->
<g id="Node000030" class="node">
<title>Node30</title>
<g id="a_Node000030"><a xlink:title=" ">
<polygon fill="#e0e0e0" stroke="#999999" points="1794.5,-129 1729.5,-129 1729.5,-110 1794.5,-110 1794.5,-129"/>
<text text-anchor="middle" x="1762" y="-117" font-family="Helvetica,sans-Serif" font-size="10.00">functional</text>
</a>
</g>
</g>
<!-- Node28&#45;&gt;Node30 -->
<g id="edge48_Node000028_Node000030" class="edge">
<title>Node28&#45;&gt;Node30</title>
<g id="a_edge48_Node000028_Node000030"><a xlink:title=" ">
<path fill="none" stroke="#63b8ff" d="M1324.39,-166.54C1327.29,-165.97 1330.2,-165.44 1333,-165 1500.38,-138.6 1547.32,-153.57 1718.91,-128.99"/>
<polygon fill="#63b8ff" stroke="#63b8ff" points="1719.65,-132.42 1729.04,-127.52 1718.64,-125.49 1719.65,-132.42"/>
</a>
</g>
</g>
<!-- Node31 -->
<g id="Node000031" class="node">
<title>Node31</title>
<g id="a_Node000031"><a xlink:title=" ">
<polygon fill="#e0e0e0" stroke="#999999" points="1385,-129 1353,-129 1353,-110 1385,-110 1385,-129"/>
<text text-anchor="middle" x="1369" y="-117" font-family="Helvetica,sans-Serif" font-size="10.00">list</text>
</a>
</g>
</g>
<!-- Node28&#45;&gt;Node31 -->
<g id="edge49_Node000028_Node000031" class="edge">
<title>Node28&#45;&gt;Node31</title>
<g id="a_edge49_Node000028_Node000031"><a xlink:title=" ">
<path fill="none" stroke="#63b8ff" d="M1306.89,-164.98C1318.15,-156.92 1335.29,-144.65 1348.71,-135.03"/>
<polygon fill="#63b8ff" stroke="#63b8ff" points="1350.8,-137.84 1356.89,-129.17 1346.73,-132.15 1350.8,-137.84"/>
</a>
</g>
</g>
<!-- Node32 -->
<g id="Node000032" class="node">
<title>Node32</title>
<g id="a_Node000032"><a xlink:title=" ">
<polygon fill="#e0e0e0" stroke="#999999" points="1473,-129 1403,-129 1403,-110 1473,-110 1473,-129"/>
<text text-anchor="middle" x="1438" y="-117" font-family="Helvetica,sans-Serif" font-size="10.00">../dg/blas.h</text>
</a>
</g>
</g>
<!-- Node28&#45;&gt;Node32 -->
<g id="edge50_Node000028_Node000032" class="edge">
<title>Node28&#45;&gt;Node32</title>
<g id="a_edge50_Node000028_Node000032"><a xlink:title=" ">
<path fill="none" stroke="#63b8ff" d="M1317.98,-164.98C1341.5,-156.27 1378.29,-142.63 1404.94,-132.75"/>
<polygon fill="#63b8ff" stroke="#63b8ff" points="1406.45,-135.93 1414.61,-129.17 1404.01,-129.36 1406.45,-135.93"/>
</a>
</g>
</g>
<!-- Node33 -->
<g id="Node000033" class="node">
<title>Node33</title>
<g id="a_Node000033"><a xlink:title=" ">
<polygon fill="#e0e0e0" stroke="#999999" points="1624.5,-129 1491.5,-129 1491.5,-110 1624.5,-110 1624.5,-129"/>
<text text-anchor="middle" x="1558" y="-117" font-family="Helvetica,sans-Serif" font-size="10.00">../dg/backend/memory.h</text>
</a>
</g>
</g>
<!-- Node28&#45;&gt;Node33 -->
<g id="edge51_Node000028_Node000033" class="edge">
<title>Node28&#45;&gt;Node33</title>
<g id="a_edge51_Node000028_Node000033"><a xlink:title=" ">
<path fill="none" stroke="#63b8ff" d="M1324.03,-166.93C1327.06,-166.27 1330.09,-165.61 1333,-165 1390.96,-152.79 1457.53,-139.74 1503.13,-130.96"/>
<polygon fill="#63b8ff" stroke="#63b8ff" points="1503.95,-134.36 1513.11,-129.04 1502.63,-127.49 1503.95,-134.36"/>
</a>
</g>
</g>
</g>
</svg>
