<?xml version="1.0" encoding="UTF-8" standalone="no"?>
<!DOCTYPE svg PUBLIC "-//W3C//DTD SVG 1.1//EN"
 "http://www.w3.org/Graphics/SVG/1.1/DTD/svg11.dtd">
<!-- Generated by graphviz version 2.43.0 (0)
 -->
<!-- Title: probes.h Pages: 1 -->
<svg width="1435pt" height="302pt"
 viewBox="0.00 0.00 1434.88 302.00" xmlns="http://www.w3.org/2000/svg" xmlns:xlink="http://www.w3.org/1999/xlink">
<g id="graph0" class="graph" transform="scale(1 1) rotate(0) translate(4 298)">
<title>probes.h</title>
<!-- Node1 -->
<g id="Node000001" class="node">
<title>Node1</title>
<g id="a_Node000001"><a xlink:title=" ">
<polygon fill="#999999" stroke="#666666" points="594.5,-294 535.5,-294 535.5,-275 594.5,-275 594.5,-294"/>
<text text-anchor="middle" x="565" y="-282" font-family="Helvetica,sans-Serif" font-size="10.00">probes.h</text>
</a>
</g>
</g>
<!-- Node2 -->
<g id="Node000002" class="node">
<title>Node2</title>
<g id="a_Node000002"><a xlink:title=" ">
<polygon fill="#e0e0e0" stroke="#999999" points="341.5,-239 192.5,-239 192.5,-220 341.5,-220 341.5,-239"/>
<text text-anchor="middle" x="267" y="-227" font-family="Helvetica,sans-Serif" font-size="10.00">dg/topology/interpolation.h</text>
</a>
</g>
</g>
<!-- Node1&#45;&gt;Node2 -->
<g id="edge1_Node000001_Node000002" class="edge">
<title>Node1&#45;&gt;Node2</title>
<g id="a_edge1_Node000001_Node000002"><a xlink:title=" ">
<path fill="none" stroke="#63b8ff" d="M535.34,-278.22C486.46,-269.53 388.13,-252.04 325.04,-240.82"/>
<polygon fill="#63b8ff" stroke="#63b8ff" points="325.31,-237.32 314.85,-239.01 324.08,-244.21 325.31,-237.32"/>
</a>
</g>
</g>
<!-- Node3 -->
<g id="Node000003" class="node">
<title>Node3</title>
<g id="a_Node000003"><a xlink:title=" ">
<polygon fill="#e0e0e0" stroke="#999999" points="518.5,-239 359.5,-239 359.5,-220 518.5,-220 518.5,-239"/>
<text text-anchor="middle" x="439" y="-227" font-family="Helvetica,sans-Serif" font-size="10.00">dg/topology/mpi_projection.h</text>
</a>
</g>
</g>
<!-- Node1&#45;&gt;Node3 -->
<g id="edge2_Node000001_Node000003" class="edge">
<title>Node1&#45;&gt;Node3</title>
<g id="a_edge2_Node000001_Node000003"><a xlink:title=" ">
<path fill="none" stroke="#63b8ff" d="M544.76,-274.98C524.3,-266.38 492.47,-252.99 469.07,-243.15"/>
<polygon fill="#63b8ff" stroke="#63b8ff" points="470.19,-239.82 459.61,-239.17 467.47,-246.27 470.19,-239.82"/>
</a>
</g>
</g>
<!-- Node4 -->
<g id="Node000004" class="node">
<title>Node4</title>
<g id="a_Node000004"><a xlink:href="nc__mpi__file_8h.html" target="_top" xlink:title=" ">
<polygon fill="white" stroke="#666666" points="694,-239 612,-239 612,-220 694,-220 694,-239"/>
<text text-anchor="middle" x="653" y="-227" font-family="Helvetica,sans-Serif" font-size="10.00">nc_mpi_file.h</text>
</a>
</g>
</g>
<!-- Node1&#45;&gt;Node4 -->
<g id="edge3_Node000001_Node000004" class="edge">
<title>Node1&#45;&gt;Node4</title>
<g id="a_edge3_Node000001_Node000004"><a xlink:title=" ">
<path fill="none" stroke="#63b8ff" d="M579.14,-274.98C592.79,-266.77 613.69,-254.18 629.78,-244.49"/>
<polygon fill="#63b8ff" stroke="#63b8ff" points="631.84,-247.33 638.6,-239.17 628.23,-241.33 631.84,-247.33"/>
</a>
</g>
</g>
<!-- Node5 -->
<g id="Node000005" class="node">
<title>Node5</title>
<g id="a_Node000005"><a xlink:href="nc__file_8h.html" target="_top" xlink:title=" ">
<polygon fill="white" stroke="#666666" points="613,-184 555,-184 555,-165 613,-165 613,-184"/>
<text text-anchor="middle" x="584" y="-172" font-family="Helvetica,sans-Serif" font-size="10.00">nc_file.h</text>
</a>
</g>
</g>
<!-- Node1&#45;&gt;Node5 -->
<g id="edge46_Node000001_Node000005" class="edge">
<title>Node1&#45;&gt;Node5</title>
<g id="a_edge46_Node000001_Node000005"><a xlink:title=" ">
<path fill="none" stroke="#63b8ff" d="M566.55,-274.66C569.63,-257.17 576.56,-217.8 580.7,-194.27"/>
<polygon fill="#63b8ff" stroke="#63b8ff" points="584.19,-194.61 582.48,-184.16 577.3,-193.4 584.19,-194.61"/>
</a>
</g>
</g>
<!-- Node31 -->
<g id="Node000031" class="node">
<title>Node31</title>
<g id="a_Node000031"><a xlink:href="probes__params_8h.html" target="_top" xlink:title=" ">
<polygon fill="white" stroke="#666666" points="1217.5,-184 1116.5,-184 1116.5,-165 1217.5,-165 1217.5,-184"/>
<text text-anchor="middle" x="1167" y="-172" font-family="Helvetica,sans-Serif" font-size="10.00">probes_params.h</text>
</a>
</g>
</g>
<!-- Node1&#45;&gt;Node31 -->
<g id="edge44_Node000001_Node000031" class="edge">
<title>Node1&#45;&gt;Node31</title>
<g id="a_edge44_Node000001_Node000031"><a xlink:title=" ">
<path fill="none" stroke="#63b8ff" d="M594.85,-278.14C689.47,-261.17 983.79,-208.37 1109.33,-185.85"/>
<polygon fill="#63b8ff" stroke="#63b8ff" points="1110.28,-189.23 1119.51,-184.02 1109.05,-182.34 1110.28,-189.23"/>
</a>
</g>
</g>
<!-- Node32 -->
<g id="Node000032" class="node">
<title>Node32</title>
<g id="a_Node000032"><a xlink:href="records_8h.html" target="_top" xlink:title=" ">
<polygon fill="white" stroke="#666666" points="304,-184 242,-184 242,-165 304,-165 304,-184"/>
<text text-anchor="middle" x="273" y="-172" font-family="Helvetica,sans-Serif" font-size="10.00">records.h</text>
</a>
</g>
</g>
<!-- Node1&#45;&gt;Node32 -->
<g id="edge47_Node000001_Node000032" class="edge">
<title>Node1&#45;&gt;Node32</title>
<g id="a_edge47_Node000001_Node000032"><a xlink:title=" ">
<path fill="none" stroke="#63b8ff" d="M562.45,-274.89C557.83,-260.93 546.69,-233.54 527,-220 493.11,-196.69 376.99,-183.91 314.16,-178.56"/>
<polygon fill="#63b8ff" stroke="#63b8ff" points="314.44,-175.07 304.18,-177.74 313.86,-182.05 314.44,-175.07"/>
</a>
</g>
</g>
<!-- Node4&#45;&gt;Node5 -->
<g id="edge4_Node000004_Node000005" class="edge">
<title>Node4&#45;&gt;Node5</title>
<g id="a_edge4_Node000004_Node000005"><a xlink:title=" ">
<path fill="none" stroke="#63b8ff" d="M641.91,-219.98C631.51,-212 615.74,-199.88 603.28,-190.31"/>
<polygon fill="#63b8ff" stroke="#63b8ff" points="605.35,-187.49 595.29,-184.17 601.09,-193.04 605.35,-187.49"/>
</a>
</g>
</g>
<!-- Node30 -->
<g id="Node000030" class="node">
<title>Node30</title>
<g id="a_Node000030"><a xlink:title=" ">
<polygon fill="#e0e0e0" stroke="#999999" points="783,-184 631,-184 631,-165 783,-165 783,-184"/>
<text text-anchor="middle" x="707" y="-172" font-family="Helvetica,sans-Serif" font-size="10.00">dg/backend/mpi_datatype.h</text>
</a>
</g>
</g>
<!-- Node4&#45;&gt;Node30 -->
<g id="edge43_Node000004_Node000030" class="edge">
<title>Node4&#45;&gt;Node30</title>
<g id="a_edge43_Node000004_Node000030"><a xlink:title=" ">
<path fill="none" stroke="#63b8ff" d="M661.92,-219.75C669.78,-212.03 681.43,-200.6 690.92,-191.28"/>
<polygon fill="#63b8ff" stroke="#63b8ff" points="693.56,-193.59 698.25,-184.09 688.66,-188.6 693.56,-193.59"/>
</a>
</g>
</g>
<!-- Node6 -->
<g id="Node000006" class="node">
<title>Node6</title>
<g id="a_Node000006"><a xlink:title=" ">
<polygon fill="#e0e0e0" stroke="#999999" points="512,-129 444,-129 444,-110 512,-110 512,-129"/>
<text text-anchor="middle" x="478" y="-117" font-family="Helvetica,sans-Serif" font-size="10.00">filesystem</text>
</a>
</g>
</g>
<!-- Node5&#45;&gt;Node6 -->
<g id="edge5_Node000005_Node000006" class="edge">
<title>Node5&#45;&gt;Node6</title>
<g id="a_edge5_Node000005_Node000006"><a xlink:title=" ">
<path fill="none" stroke="#63b8ff" d="M566.97,-164.98C550.07,-156.54 523.94,-143.47 504.36,-133.68"/>
<polygon fill="#63b8ff" stroke="#63b8ff" points="505.85,-130.51 495.34,-129.17 502.72,-136.77 505.85,-130.51"/>
</a>
</g>
</g>
<!-- Node7 -->
<g id="Node000007" class="node">
<title>Node7</title>
<g id="a_Node000007"><a xlink:title=" ">
<polygon fill="#e0e0e0" stroke="#999999" points="305.5,-129 240.5,-129 240.5,-110 305.5,-110 305.5,-129"/>
<text text-anchor="middle" x="273" y="-117" font-family="Helvetica,sans-Serif" font-size="10.00">functional</text>
</a>
</g>
</g>
<!-- Node5&#45;&gt;Node7 -->
<g id="edge6_Node000005_Node000007" class="edge">
<title>Node5&#45;&gt;Node7</title>
<g id="a_edge6_Node000005_Node000007"><a xlink:title=" ">
<path fill="none" stroke="#63b8ff" d="M554.76,-169.08C506.85,-161.76 408.37,-146.35 315.49,-129.22"/>
<polygon fill="#63b8ff" stroke="#63b8ff" points="316.12,-125.78 305.65,-127.39 314.84,-132.66 316.12,-125.78"/>
</a>
</g>
</g>
<!-- Node8 -->
<g id="Node000008" class="node">
<title>Node8</title>
<g id="a_Node000008"><a xlink:title=" ">
<polygon fill="#e0e0e0" stroke="#999999" points="600,-129 568,-129 568,-110 600,-110 600,-129"/>
<text text-anchor="middle" x="584" y="-117" font-family="Helvetica,sans-Serif" font-size="10.00">list</text>
</a>
</g>
</g>
<!-- Node5&#45;&gt;Node8 -->
<g id="edge7_Node000005_Node000008" class="edge">
<title>Node5&#45;&gt;Node8</title>
<g id="a_edge7_Node000005_Node000008"><a xlink:title=" ">
<path fill="none" stroke="#63b8ff" d="M584,-164.75C584,-157.8 584,-147.85 584,-139.13"/>
<polygon fill="#63b8ff" stroke="#63b8ff" points="587.5,-139.09 584,-129.09 580.5,-139.09 587.5,-139.09"/>
</a>
</g>
</g>
<!-- Node9 -->
<g id="Node000009" class="node">
<title>Node9</title>
<g id="a_Node000009"><a xlink:title=" ">
<polygon fill="#e0e0e0" stroke="#999999" points="688,-129 618,-129 618,-110 688,-110 688,-129"/>
<text text-anchor="middle" x="653" y="-117" font-family="Helvetica,sans-Serif" font-size="10.00">../dg/blas.h</text>
</a>
</g>
</g>
<!-- Node5&#45;&gt;Node9 -->
<g id="edge8_Node000005_Node000009" class="edge">
<title>Node5&#45;&gt;Node9</title>
<g id="a_edge8_Node000005_Node000009"><a xlink:title=" ">
<path fill="none" stroke="#63b8ff" d="M595.09,-164.98C605.49,-157 621.26,-144.88 633.72,-135.31"/>
<polygon fill="#63b8ff" stroke="#63b8ff" points="635.91,-138.04 641.71,-129.17 631.65,-132.49 635.91,-138.04"/>
</a>
</g>
</g>
<!-- Node10 -->
<g id="Node000010" class="node">
<title>Node10</title>
<g id="a_Node000010"><a xlink:title=" ">
<polygon fill="#e0e0e0" stroke="#999999" points="839.5,-129 706.5,-129 706.5,-110 839.5,-110 839.5,-129"/>
<text text-anchor="middle" x="773" y="-117" font-family="Helvetica,sans-Serif" font-size="10.00">../dg/backend/memory.h</text>
</a>
</g>
</g>
<!-- Node5&#45;&gt;Node10 -->
<g id="edge9_Node000005_Node000010" class="edge">
<title>Node5&#45;&gt;Node10</title>
<g id="a_edge9_Node000005_Node000010"><a xlink:title=" ">
<path fill="none" stroke="#63b8ff" d="M613.12,-165.33C645.2,-156.34 697.01,-141.81 732.92,-131.74"/>
<polygon fill="#63b8ff" stroke="#63b8ff" points="733.91,-135.1 742.6,-129.03 732.02,-128.36 733.91,-135.1"/>
</a>
</g>
</g>
<!-- Node11 -->
<g id="Node000011" class="node">
<title>Node11</title>
<g id="a_Node000011"><a xlink:href="nc__error_8h.html" target="_top" xlink:title=" ">
<polygon fill="white" stroke="#666666" points="647.5,-74 582.5,-74 582.5,-55 647.5,-55 647.5,-74"/>
<text text-anchor="middle" x="615" y="-62" font-family="Helvetica,sans-Serif" font-size="10.00">nc_error.h</text>
</a>
</g>
</g>
<!-- Node5&#45;&gt;Node11 -->
<g id="edge10_Node000005_Node000011" class="edge">
<title>Node5&#45;&gt;Node11</title>
<g id="a_edge10_Node000005_Node000011"><a xlink:title=" ">
<path fill="none" stroke="#63b8ff" d="M575.9,-164.7C565.5,-152.27 549.83,-128.99 559,-110 565.22,-97.12 577.18,-86.82 588.46,-79.38"/>
<polygon fill="#63b8ff" stroke="#63b8ff" points="590.51,-82.23 597.23,-74.04 586.87,-76.25 590.51,-82.23"/>
</a>
</g>
</g>
<!-- Node14 -->
<g id="Node000014" class="node">
<title>Node14</title>
<g id="a_Node000014"><a xlink:href="easy__atts_8h.html" target="_top" xlink:title=" ">
<polygon fill="white" stroke="#666666" points="396.5,-129 323.5,-129 323.5,-110 396.5,-110 396.5,-129"/>
<text text-anchor="middle" x="360" y="-117" font-family="Helvetica,sans-Serif" font-size="10.00">easy_atts.h</text>
</a>
</g>
</g>
<!-- Node5&#45;&gt;Node14 -->
<g id="edge13_Node000005_Node000014" class="edge">
<title>Node5&#45;&gt;Node14</title>
<g id="a_edge13_Node000005_Node000014"><a xlink:title=" ">
<path fill="none" stroke="#63b8ff" d="M554.72,-166.57C516.87,-157.62 450.55,-141.92 405.96,-131.37"/>
<polygon fill="#63b8ff" stroke="#63b8ff" points="406.5,-127.9 395.96,-129.01 404.88,-134.72 406.5,-127.9"/>
</a>
</g>
</g>
<!-- Node23 -->
<g id="Node000023" class="node">
<title>Node23</title>
<g id="a_Node000023"><a xlink:href="easy__output_8h.html" target="_top" xlink:title=" ">
<polygon fill="white" stroke="#666666" points="944,-129 858,-129 858,-110 944,-110 944,-129"/>
<text text-anchor="middle" x="901" y="-117" font-family="Helvetica,sans-Serif" font-size="10.00">easy_output.h</text>
</a>
</g>
</g>
<!-- Node5&#45;&gt;Node23 -->
<g id="edge24_Node000005_Node000023" class="edge">
<title>Node5&#45;&gt;Node23</title>
<g id="a_edge24_Node000005_Node000023"><a xlink:title=" ">
<path fill="none" stroke="#63b8ff" d="M613.01,-166.82C616.04,-166.18 619.08,-165.56 622,-165 721.9,-145.89 747.56,-145.05 848,-129 848.1,-128.98 848.2,-128.97 848.3,-128.95"/>
<polygon fill="#63b8ff" stroke="#63b8ff" points="848.58,-132.45 857.9,-127.42 847.47,-125.54 848.58,-132.45"/>
</a>
</g>
</g>
<!-- Node29 -->
<g id="Node000029" class="node">
<title>Node29</title>
<g id="a_Node000029"><a xlink:href="easy__input_8h.html" target="_top" xlink:title=" ">
<polygon fill="white" stroke="#666666" points="1171.5,-129 1092.5,-129 1092.5,-110 1171.5,-110 1171.5,-129"/>
<text text-anchor="middle" x="1132" y="-117" font-family="Helvetica,sans-Serif" font-size="10.00">easy_input.h</text>
</a>
</g>
</g>
<!-- Node5&#45;&gt;Node29 -->
<g id="edge35_Node000005_Node000029" class="edge">
<title>Node5&#45;&gt;Node29</title>
<g id="a_edge35_Node000005_Node000029"><a xlink:title=" ">
<path fill="none" stroke="#63b8ff" d="M613.38,-166.52C616.29,-165.95 619.19,-165.43 622,-165 789.67,-139.05 990.86,-127.06 1082.35,-122.64"/>
<polygon fill="#63b8ff" stroke="#63b8ff" points="1082.61,-126.13 1092.43,-122.16 1082.28,-119.14 1082.61,-126.13"/>
</a>
</g>
</g>
<!-- Node12 -->
<g id="Node000012" class="node">
<title>Node12</title>
<g id="a_Node000012"><a xlink:title=" ">
<polygon fill="#e0e0e0" stroke="#999999" points="850.5,-19 785.5,-19 785.5,0 850.5,0 850.5,-19"/>
<text text-anchor="middle" x="818" y="-7" font-family="Helvetica,sans-Serif" font-size="10.00">exception</text>
</a>
</g>
</g>
<!-- Node11&#45;&gt;Node12 -->
<g id="edge11_Node000011_Node000012" class="edge">
<title>Node11&#45;&gt;Node12</title>
<g id="a_edge11_Node000011_Node000012"><a xlink:title=" ">
<path fill="none" stroke="#63b8ff" d="M647.62,-54.98C682.39,-45.91 737.59,-31.49 775.69,-21.55"/>
<polygon fill="#63b8ff" stroke="#63b8ff" points="776.67,-24.91 785.47,-18.99 774.91,-18.13 776.67,-24.91"/>
</a>
</g>
</g>
<!-- Node13 -->
<g id="Node000013" class="node">
<title>Node13</title>
<g id="a_Node000013"><a xlink:title=" ">
<polygon fill="#e0e0e0" stroke="#999999" points="643,-19 587,-19 587,0 643,0 643,-19"/>
<text text-anchor="middle" x="615" y="-7" font-family="Helvetica,sans-Serif" font-size="10.00">netcdf.h</text>
</a>
</g>
</g>
<!-- Node11&#45;&gt;Node13 -->
<g id="edge12_Node000011_Node000013" class="edge">
<title>Node11&#45;&gt;Node13</title>
<g id="a_edge12_Node000011_Node000013"><a xlink:title=" ">
<path fill="none" stroke="#63b8ff" d="M615,-54.75C615,-47.8 615,-37.85 615,-29.13"/>
<polygon fill="#63b8ff" stroke="#63b8ff" points="618.5,-29.09 615,-19.09 611.5,-29.09 618.5,-29.09"/>
</a>
</g>
</g>
<!-- Node14&#45;&gt;Node11 -->
<g id="edge23_Node000014_Node000011" class="edge">
<title>Node14&#45;&gt;Node11</title>
<g id="a_edge23_Node000014_Node000011"><a xlink:title=" ">
<path fill="none" stroke="#63b8ff" d="M396.54,-110.91C442.95,-101.26 522.92,-84.64 572.16,-74.4"/>
<polygon fill="#63b8ff" stroke="#63b8ff" points="573.1,-77.78 582.18,-72.32 571.67,-70.93 573.1,-77.78"/>
</a>
</g>
</g>
<!-- Node14&#45;&gt;Node13 -->
<g id="edge22_Node000014_Node000013" class="edge">
<title>Node14&#45;&gt;Node13</title>
<g id="a_edge22_Node000014_Node000013"><a xlink:title=" ">
<path fill="none" stroke="#63b8ff" d="M357.72,-109.83C354.73,-96.28 351.33,-70.07 365,-55 392.72,-24.44 513.54,-14.78 576.51,-11.79"/>
<polygon fill="#63b8ff" stroke="#63b8ff" points="577,-15.28 586.83,-11.34 576.69,-8.28 577,-15.28"/>
</a>
</g>
</g>
<!-- Node15 -->
<g id="Node000015" class="node">
<title>Node15</title>
<g id="a_Node000015"><a xlink:title=" ">
<polygon fill="#e0e0e0" stroke="#999999" points="425.5,-74 374.5,-74 374.5,-55 425.5,-55 425.5,-74"/>
<text text-anchor="middle" x="400" y="-62" font-family="Helvetica,sans-Serif" font-size="10.00">variant</text>
</a>
</g>
</g>
<!-- Node14&#45;&gt;Node15 -->
<g id="edge14_Node000014_Node000015" class="edge">
<title>Node14&#45;&gt;Node15</title>
<g id="a_edge14_Node000014_Node000015"><a xlink:title=" ">
<path fill="none" stroke="#63b8ff" d="M366.61,-109.75C372.26,-102.26 380.54,-91.28 387.45,-82.13"/>
<polygon fill="#63b8ff" stroke="#63b8ff" points="390.29,-84.18 393.52,-74.09 384.7,-79.96 390.29,-84.18"/>
</a>
</g>
</g>
<!-- Node16 -->
<g id="Node000016" class="node">
<title>Node16</title>
<g id="a_Node000016"><a xlink:title=" ">
<polygon fill="#e0e0e0" stroke="#999999" points="1219.5,-19 1172.5,-19 1172.5,0 1219.5,0 1219.5,-19"/>
<text text-anchor="middle" x="1196" y="-7" font-family="Helvetica,sans-Serif" font-size="10.00">vector</text>
</a>
</g>
</g>
<!-- Node14&#45;&gt;Node16 -->
<g id="edge15_Node000014_Node000016" class="edge">
<title>Node14&#45;&gt;Node16</title>
<g id="a_edge15_Node000014_Node000016"><a xlink:title=" ">
<path fill="none" stroke="#63b8ff" d="M386.07,-109.95C434.44,-94.21 536.46,-61.67 573,-55 795.12,-14.46 1068.07,-10.43 1162.21,-10.34"/>
<polygon fill="#63b8ff" stroke="#63b8ff" points="1162.29,-13.84 1172.29,-10.34 1162.29,-6.84 1162.29,-13.84"/>
</a>
</g>
</g>
<!-- Node17 -->
<g id="Node000017" class="node">
<title>Node17</title>
<g id="a_Node000017"><a xlink:title=" ">
<polygon fill="#e0e0e0" stroke="#999999" points="38,-74 0,-74 0,-55 38,-55 38,-74"/>
<text text-anchor="middle" x="19" y="-62" font-family="Helvetica,sans-Serif" font-size="10.00">map</text>
</a>
</g>
</g>
<!-- Node14&#45;&gt;Node17 -->
<g id="edge16_Node000014_Node000017" class="edge">
<title>Node14&#45;&gt;Node17</title>
<g id="a_edge16_Node000014_Node000017"><a xlink:title=" ">
<path fill="none" stroke="#63b8ff" d="M323.37,-111.57C320.2,-111.02 317.05,-110.49 314,-110 198.99,-91.63 165.8,-99.04 48.29,-73.96"/>
<polygon fill="#63b8ff" stroke="#63b8ff" points="48.69,-70.46 38.17,-71.76 47.2,-77.3 48.69,-70.46"/>
</a>
</g>
</g>
<!-- Node18 -->
<g id="Node000018" class="node">
<title>Node18</title>
<g id="a_Node000018"><a xlink:title=" ">
<polygon fill="#e0e0e0" stroke="#999999" points="488,-74 444,-74 444,-55 488,-55 488,-74"/>
<text text-anchor="middle" x="466" y="-62" font-family="Helvetica,sans-Serif" font-size="10.00">string</text>
</a>
</g>
</g>
<!-- Node14&#45;&gt;Node18 -->
<g id="edge17_Node000014_Node000018" class="edge">
<title>Node14&#45;&gt;Node18</title>
<g id="a_edge17_Node000014_Node000018"><a xlink:title=" ">
<path fill="none" stroke="#63b8ff" d="M377.03,-109.98C393.93,-101.54 420.06,-88.47 439.64,-78.68"/>
<polygon fill="#63b8ff" stroke="#63b8ff" points="441.28,-81.77 448.66,-74.17 438.15,-75.51 441.28,-81.77"/>
</a>
</g>
</g>
<!-- Node19 -->
<g id="Node000019" class="node">
<title>Node19</title>
<g id="a_Node000019"><a xlink:title=" ">
<polygon fill="#e0e0e0" stroke="#999999" points="108,-74 56,-74 56,-55 108,-55 108,-74"/>
<text text-anchor="middle" x="82" y="-62" font-family="Helvetica,sans-Serif" font-size="10.00">cassert</text>
</a>
</g>
</g>
<!-- Node14&#45;&gt;Node19 -->
<g id="edge18_Node000014_Node000019" class="edge">
<title>Node14&#45;&gt;Node19</title>
<g id="a_edge18_Node000014_Node000019"><a xlink:title=" ">
<path fill="none" stroke="#63b8ff" d="M323.34,-111.72C320.18,-111.14 317.04,-110.56 314,-110 229.54,-94.48 205.72,-92.63 118.17,-74.15"/>
<polygon fill="#63b8ff" stroke="#63b8ff" points="118.85,-70.72 108.34,-72.07 117.39,-77.57 118.85,-70.72"/>
</a>
</g>
</g>
<!-- Node20 -->
<g id="Node000020" class="node">
<title>Node20</title>
<g id="a_Node000020"><a xlink:title=" ">
<polygon fill="#e0e0e0" stroke="#999999" points="182,-74 126,-74 126,-55 182,-55 182,-74"/>
<text text-anchor="middle" x="154" y="-62" font-family="Helvetica,sans-Serif" font-size="10.00">sstream</text>
</a>
</g>
</g>
<!-- Node14&#45;&gt;Node20 -->
<g id="edge19_Node000014_Node000020" class="edge">
<title>Node14&#45;&gt;Node20</title>
<g id="a_edge19_Node000014_Node000020"><a xlink:title=" ">
<path fill="none" stroke="#63b8ff" d="M326.9,-109.98C290.05,-100.5 230.59,-85.2 191.9,-75.25"/>
<polygon fill="#63b8ff" stroke="#63b8ff" points="192.61,-71.82 182.05,-72.72 190.86,-78.6 192.61,-71.82"/>
</a>
</g>
</g>
<!-- Node21 -->
<g id="Node000021" class="node">
<title>Node21</title>
<g id="a_Node000021"><a xlink:title=" ">
<polygon fill="#e0e0e0" stroke="#999999" points="256,-74 200,-74 200,-55 256,-55 256,-74"/>
<text text-anchor="middle" x="228" y="-62" font-family="Helvetica,sans-Serif" font-size="10.00">iomanip</text>
</a>
</g>
</g>
<!-- Node14&#45;&gt;Node21 -->
<g id="edge20_Node000014_Node000021" class="edge">
<title>Node14&#45;&gt;Node21</title>
<g id="a_edge20_Node000014_Node000021"><a xlink:title=" ">
<path fill="none" stroke="#63b8ff" d="M338.79,-109.98C317.27,-101.34 283.72,-87.87 259.17,-78.02"/>
<polygon fill="#63b8ff" stroke="#63b8ff" points="260.18,-74.65 249.59,-74.17 257.57,-81.14 260.18,-74.65"/>
</a>
</g>
</g>
<!-- Node22 -->
<g id="Node000022" class="node">
<title>Node22</title>
<g id="a_Node000022"><a xlink:title=" ">
<polygon fill="#e0e0e0" stroke="#999999" points="318,-74 274,-74 274,-55 318,-55 318,-74"/>
<text text-anchor="middle" x="296" y="-62" font-family="Helvetica,sans-Serif" font-size="10.00">ctime</text>
</a>
</g>
</g>
<!-- Node14&#45;&gt;Node22 -->
<g id="edge21_Node000014_Node000022" class="edge">
<title>Node14&#45;&gt;Node22</title>
<g id="a_edge21_Node000014_Node000022"><a xlink:title=" ">
<path fill="none" stroke="#63b8ff" d="M349.72,-109.98C340.16,-102.07 325.72,-90.11 314.22,-80.58"/>
<polygon fill="#63b8ff" stroke="#63b8ff" points="316.4,-77.85 306.47,-74.17 311.94,-83.24 316.4,-77.85"/>
</a>
</g>
</g>
<!-- Node23&#45;&gt;Node11 -->
<g id="edge31_Node000023_Node000011" class="edge">
<title>Node23&#45;&gt;Node11</title>
<g id="a_edge31_Node000023_Node000011"><a xlink:title=" ">
<path fill="none" stroke="#63b8ff" d="M857.76,-110.87C811.05,-102.58 734.16,-88.75 657.82,-74.13"/>
<polygon fill="#63b8ff" stroke="#63b8ff" points="658.03,-70.6 647.55,-72.15 656.71,-77.48 658.03,-70.6"/>
</a>
</g>
</g>
<!-- Node23&#45;&gt;Node12 -->
<g id="edge25_Node000023_Node000012" class="edge">
<title>Node23&#45;&gt;Node12</title>
<g id="a_edge25_Node000023_Node000012"><a xlink:title=" ">
<path fill="none" stroke="#63b8ff" d="M882.42,-109.93C868.04,-102.39 848.67,-90.11 837,-74 827.4,-60.75 822.6,-42.63 820.23,-29.14"/>
<polygon fill="#63b8ff" stroke="#63b8ff" points="823.68,-28.49 818.76,-19.1 816.75,-29.5 823.68,-28.49"/>
</a>
</g>
</g>
<!-- Node23&#45;&gt;Node13 -->
<g id="edge26_Node000023_Node000013" class="edge">
<title>Node23&#45;&gt;Node13</title>
<g id="a_edge26_Node000023_Node000013"><a xlink:title=" ">
<path fill="none" stroke="#63b8ff" d="M857.92,-111.48C854.56,-110.97 851.23,-110.47 848,-110 787.01,-101.12 613.65,-120.32 573,-74 559.56,-58.69 577.53,-38.8 593.96,-25.39"/>
<polygon fill="#63b8ff" stroke="#63b8ff" points="596.44,-27.9 602.23,-19.03 592.17,-22.35 596.44,-27.9"/>
</a>
</g>
</g>
<!-- Node24 -->
<g id="Node000024" class="node">
<title>Node24</title>
<g id="a_Node000024"><a xlink:title=" ">
<polygon fill="#e0e0e0" stroke="#999999" points="1364.5,-74 1259.5,-74 1259.5,-55 1364.5,-55 1364.5,-74"/>
<text text-anchor="middle" x="1312" y="-62" font-family="Helvetica,sans-Serif" font-size="10.00">dg/topology/grid.h</text>
</a>
</g>
</g>
<!-- Node23&#45;&gt;Node24 -->
<g id="edge27_Node000023_Node000024" class="edge">
<title>Node23&#45;&gt;Node24</title>
<g id="a_edge27_Node000023_Node000024"><a xlink:title=" ">
<path fill="none" stroke="#63b8ff" d="M944.27,-113.12C1008.38,-105.11 1132.65,-89.48 1249.08,-74.11"/>
<polygon fill="#63b8ff" stroke="#63b8ff" points="1249.78,-77.55 1259.24,-72.77 1248.87,-70.61 1249.78,-77.55"/>
</a>
</g>
</g>
<!-- Node25 -->
<g id="Node000025" class="node">
<title>Node25</title>
<g id="a_Node000025"><a xlink:title=" ">
<polygon fill="#e0e0e0" stroke="#999999" points="985.5,-74 846.5,-74 846.5,-55 985.5,-55 985.5,-74"/>
<text text-anchor="middle" x="916" y="-62" font-family="Helvetica,sans-Serif" font-size="10.00">dg/backend/mpi_vector.h</text>
</a>
</g>
</g>
<!-- Node23&#45;&gt;Node25 -->
<g id="edge28_Node000023_Node000025" class="edge">
<title>Node23&#45;&gt;Node25</title>
<g id="a_edge28_Node000023_Node000025"><a xlink:title=" ">
<path fill="none" stroke="#63b8ff" d="M903.48,-109.75C905.46,-102.72 908.32,-92.62 910.81,-83.84"/>
<polygon fill="#63b8ff" stroke="#63b8ff" points="914.21,-84.66 913.57,-74.09 907.48,-82.76 914.21,-84.66"/>
</a>
</g>
</g>
<!-- Node26 -->
<g id="Node000026" class="node">
<title>Node26</title>
<g id="a_Node000026"><a xlink:title=" ">
<polygon fill="#e0e0e0" stroke="#999999" points="1132.5,-74 1003.5,-74 1003.5,-55 1132.5,-55 1132.5,-74"/>
<text text-anchor="middle" x="1068" y="-62" font-family="Helvetica,sans-Serif" font-size="10.00">dg/topology/mpi_grid.h</text>
</a>
</g>
</g>
<!-- Node23&#45;&gt;Node26 -->
<g id="edge29_Node000023_Node000026" class="edge">
<title>Node23&#45;&gt;Node26</title>
<g id="a_edge29_Node000023_Node000026"><a xlink:title=" ">
<path fill="none" stroke="#63b8ff" d="M927.83,-109.98C955.87,-101.09 1000.05,-87.07 1031.3,-77.15"/>
<polygon fill="#63b8ff" stroke="#63b8ff" points="1032.49,-80.44 1040.96,-74.08 1030.37,-73.77 1032.49,-80.44"/>
</a>
</g>
</g>
<!-- Node27 -->
<g id="Node000027" class="node">
<title>Node27</title>
<g id="a_Node000027"><a xlink:title=" ">
<polygon fill="#e0e0e0" stroke="#999999" points="790,-74 666,-74 666,-55 790,-55 790,-74"/>
<text text-anchor="middle" x="728" y="-62" font-family="Helvetica,sans-Serif" font-size="10.00">dg/backend/mpi_init.h</text>
</a>
</g>
</g>
<!-- Node23&#45;&gt;Node27 -->
<g id="edge30_Node000023_Node000027" class="edge">
<title>Node23&#45;&gt;Node27</title>
<g id="a_edge30_Node000023_Node000027"><a xlink:title=" ">
<path fill="none" stroke="#63b8ff" d="M873.2,-109.98C844.03,-101.05 798,-86.94 765.6,-77.02"/>
<polygon fill="#63b8ff" stroke="#63b8ff" points="766.6,-73.66 756.01,-74.08 764.55,-80.36 766.6,-73.66"/>
</a>
</g>
</g>
<!-- Node28 -->
<g id="Node000028" class="node">
<title>Node28</title>
<g id="a_Node000028"><a xlink:href="nc__hyperslab_8h.html" target="_top" xlink:title=" ">
<polygon fill="white" stroke="#666666" points="1241,-74 1151,-74 1151,-55 1241,-55 1241,-74"/>
<text text-anchor="middle" x="1196" y="-62" font-family="Helvetica,sans-Serif" font-size="10.00">nc_hyperslab.h</text>
</a>
</g>
</g>
<!-- Node23&#45;&gt;Node28 -->
<g id="edge32_Node000023_Node000028" class="edge">
<title>Node23&#45;&gt;Node28</title>
<g id="a_edge32_Node000023_Node000028"><a xlink:title=" ">
<path fill="none" stroke="#63b8ff" d="M944.21,-110.74C996.3,-101.38 1083.9,-85.64 1140.83,-75.41"/>
<polygon fill="#63b8ff" stroke="#63b8ff" points="1141.51,-78.85 1150.73,-73.63 1140.27,-71.96 1141.51,-78.85"/>
</a>
</g>
</g>
<!-- Node28&#45;&gt;Node13 -->
<g id="edge34_Node000028_Node000013" class="edge">
<title>Node28&#45;&gt;Node13</title>
<g id="a_edge34_Node000028_Node000013"><a xlink:title=" ">
<path fill="none" stroke="#63b8ff" d="M1150.95,-56.16C1147.93,-55.74 1144.92,-55.35 1142,-55 959.55,-32.97 740.25,-18.18 653.25,-12.78"/>
<polygon fill="#63b8ff" stroke="#63b8ff" points="653.26,-9.28 643.07,-12.16 652.83,-16.26 653.26,-9.28"/>
</a>
</g>
</g>
<!-- Node28&#45;&gt;Node16 -->
<g id="edge33_Node000028_Node000016" class="edge">
<title>Node28&#45;&gt;Node16</title>
<g id="a_edge33_Node000028_Node000016"><a xlink:title=" ">
<path fill="none" stroke="#63b8ff" d="M1196,-54.75C1196,-47.8 1196,-37.85 1196,-29.13"/>
<polygon fill="#63b8ff" stroke="#63b8ff" points="1199.5,-29.09 1196,-19.09 1192.5,-29.09 1199.5,-29.09"/>
</a>
</g>
</g>
<!-- Node29&#45;&gt;Node11 -->
<g id="edge41_Node000029_Node000011" class="edge">
<title>Node29&#45;&gt;Node11</title>
<g id="a_edge41_Node000029_Node000011"><a xlink:title=" ">
<path fill="none" stroke="#63b8ff" d="M1092.42,-116.22C1012.31,-111.3 825.1,-98.23 657.92,-73.98"/>
<polygon fill="#63b8ff" stroke="#63b8ff" points="658.36,-70.5 647.96,-72.51 657.34,-77.43 658.36,-70.5"/>
</a>
</g>
</g>
<!-- Node29&#45;&gt;Node12 -->
<g id="edge36_Node000029_Node000012" class="edge">
<title>Node29&#45;&gt;Node12</title>
<g id="a_edge36_Node000029_Node000012"><a xlink:title=" ">
<path fill="none" stroke="#63b8ff" d="M1171.74,-118.12C1240.52,-116.53 1377.26,-108.94 1407,-74 1412.47,-67.57 1412.74,-61.19 1407,-55 1388.44,-34.98 993.08,-17.47 860.73,-12.15"/>
<polygon fill="#63b8ff" stroke="#63b8ff" points="860.7,-8.65 850.57,-11.75 860.42,-15.64 860.7,-8.65"/>
</a>
</g>
</g>
<!-- Node29&#45;&gt;Node13 -->
<g id="edge37_Node000029_Node000013" class="edge">
<title>Node29&#45;&gt;Node13</title>
<g id="a_edge37_Node000029_Node000013"><a xlink:title=" ">
<path fill="none" stroke="#63b8ff" d="M1171.68,-117.14C1233.59,-114.08 1348.71,-104.36 1374,-74 1379.4,-67.51 1379.79,-61.14 1374,-55 1370.87,-51.68 807.77,-20.94 653.62,-12.59"/>
<polygon fill="#63b8ff" stroke="#63b8ff" points="653.41,-9.07 643.24,-12.03 653.03,-16.06 653.41,-9.07"/>
</a>
</g>
</g>
<!-- Node29&#45;&gt;Node24 -->
<g id="edge38_Node000029_Node000024" class="edge">
<title>Node29&#45;&gt;Node24</title>
<g id="a_edge38_Node000029_Node000024"><a xlink:title=" ">
<path fill="none" stroke="#63b8ff" d="M1160.92,-109.98C1191.27,-101.05 1239.17,-86.94 1272.88,-77.02"/>
<polygon fill="#63b8ff" stroke="#63b8ff" points="1274.25,-80.26 1282.85,-74.08 1272.27,-73.55 1274.25,-80.26"/>
</a>
</g>
</g>
<!-- Node29&#45;&gt;Node25 -->
<g id="edge39_Node000029_Node000025" class="edge">
<title>Node29&#45;&gt;Node25</title>
<g id="a_edge39_Node000029_Node000025"><a xlink:title=" ">
<path fill="none" stroke="#63b8ff" d="M1097.3,-109.98C1060.25,-100.89 1001.41,-86.46 960.87,-76.51"/>
<polygon fill="#63b8ff" stroke="#63b8ff" points="961.52,-73.07 950.98,-74.08 959.85,-79.86 961.52,-73.07"/>
</a>
</g>
</g>
<!-- Node29&#45;&gt;Node26 -->
<g id="edge40_Node000029_Node000026" class="edge">
<title>Node29&#45;&gt;Node26</title>
<g id="a_edge40_Node000029_Node000026"><a xlink:title=" ">
<path fill="none" stroke="#63b8ff" d="M1121.72,-109.98C1112.16,-102.07 1097.72,-90.11 1086.22,-80.58"/>
<polygon fill="#63b8ff" stroke="#63b8ff" points="1088.4,-77.85 1078.47,-74.17 1083.94,-83.24 1088.4,-77.85"/>
</a>
</g>
</g>
<!-- Node29&#45;&gt;Node28 -->
<g id="edge42_Node000029_Node000028" class="edge">
<title>Node29&#45;&gt;Node28</title>
<g id="a_edge42_Node000029_Node000028"><a xlink:title=" ">
<path fill="none" stroke="#63b8ff" d="M1142.28,-109.98C1151.84,-102.07 1166.28,-90.11 1177.78,-80.58"/>
<polygon fill="#63b8ff" stroke="#63b8ff" points="1180.06,-83.24 1185.53,-74.17 1175.6,-77.85 1180.06,-83.24"/>
</a>
</g>
</g>
<!-- Node31&#45;&gt;Node16 -->
<g id="edge45_Node000031_Node000016" class="edge">
<title>Node31&#45;&gt;Node16</title>
<g id="a_edge45_Node000031_Node000016"><a xlink:title=" ">
<path fill="none" stroke="#63b8ff" d="M1217.7,-170.13C1278.2,-163.08 1376.96,-141.29 1423,-74 1427.77,-67.03 1428.37,-61.52 1423,-55 1398.92,-25.74 1286.94,-15.43 1229.78,-12.04"/>
<polygon fill="#63b8ff" stroke="#63b8ff" points="1229.95,-8.55 1219.77,-11.48 1229.56,-15.53 1229.95,-8.55"/>
</a>
</g>
</g>
<!-- Node32&#45;&gt;Node7 -->
<g id="edge49_Node000032_Node000007" class="edge">
<title>Node32&#45;&gt;Node7</title>
<g id="a_edge49_Node000032_Node000007"><a xlink:title=" ">
<path fill="none" stroke="#63b8ff" d="M273,-164.75C273,-157.8 273,-147.85 273,-139.13"/>
<polygon fill="#63b8ff" stroke="#63b8ff" points="276.5,-139.09 273,-129.09 269.5,-139.09 276.5,-139.09"/>
</a>
</g>
</g>
<!-- Node32&#45;&gt;Node17 -->
<g id="edge48_Node000032_Node000017" class="edge">
<title>Node32&#45;&gt;Node17</title>
<g id="a_edge48_Node000032_Node000017"><a xlink:title=" ">
<path fill="none" stroke="#63b8ff" d="M252.64,-164.84C207.52,-145.66 99.01,-99.52 47.31,-77.54"/>
<polygon fill="#63b8ff" stroke="#63b8ff" points="48.63,-74.3 38.06,-73.6 45.89,-80.74 48.63,-74.3"/>
</a>
</g>
</g>
</g>
</svg>
