<?xml version="1.0" encoding="UTF-8" standalone="no"?>
<!DOCTYPE svg PUBLIC "-//W3C//DTD SVG 1.1//EN"
 "http://www.w3.org/Graphics/SVG/1.1/DTD/svg11.dtd">
<!-- Generated by graphviz version 2.43.0 (0)
 -->
<!-- Title: probes.h Pages: 1 -->
<svg width="1448pt" height="302pt"
 viewBox="0.00 0.00 1448.00 302.00" xmlns="http://www.w3.org/2000/svg" xmlns:xlink="http://www.w3.org/1999/xlink">
<g id="graph0" class="graph" transform="scale(1 1) rotate(0) translate(4 298)">
<title>probes.h</title>
<!-- Node1 -->
<g id="Node000001" class="node">
<title>Node1</title>
<g id="a_Node000001"><a xlink:title=" ">
<polygon fill="#999999" stroke="#666666" points="492.5,-294 433.5,-294 433.5,-275 492.5,-275 492.5,-294"/>
<text text-anchor="middle" x="463" y="-282" font-family="Helvetica,sans-Serif" font-size="10.00">probes.h</text>
</a>
</g>
</g>
<!-- Node2 -->
<g id="Node000002" class="node">
<title>Node2</title>
<g id="a_Node000002"><a xlink:title=" ">
<polygon fill="#e0e0e0" stroke="#999999" points="239.5,-239 90.5,-239 90.5,-220 239.5,-220 239.5,-239"/>
<text text-anchor="middle" x="165" y="-227" font-family="Helvetica,sans-Serif" font-size="10.00">dg/topology/interpolation.h</text>
</a>
</g>
</g>
<!-- Node1&#45;&gt;Node2 -->
<g id="edge1_Node000001_Node000002" class="edge">
<title>Node1&#45;&gt;Node2</title>
<g id="a_edge1_Node000001_Node000002"><a xlink:title=" ">
<path fill="none" stroke="#63b8ff" d="M433.34,-278.22C384.46,-269.53 286.13,-252.04 223.04,-240.82"/>
<polygon fill="#63b8ff" stroke="#63b8ff" points="223.31,-237.32 212.85,-239.01 222.08,-244.21 223.31,-237.32"/>
</a>
</g>
</g>
<!-- Node3 -->
<g id="Node000003" class="node">
<title>Node3</title>
<g id="a_Node000003"><a xlink:title=" ">
<polygon fill="#e0e0e0" stroke="#999999" points="416.5,-239 257.5,-239 257.5,-220 416.5,-220 416.5,-239"/>
<text text-anchor="middle" x="337" y="-227" font-family="Helvetica,sans-Serif" font-size="10.00">dg/topology/mpi_projection.h</text>
</a>
</g>
</g>
<!-- Node1&#45;&gt;Node3 -->
<g id="edge2_Node000001_Node000003" class="edge">
<title>Node1&#45;&gt;Node3</title>
<g id="a_edge2_Node000001_Node000003"><a xlink:title=" ">
<path fill="none" stroke="#63b8ff" d="M442.76,-274.98C422.3,-266.38 390.47,-252.99 367.07,-243.15"/>
<polygon fill="#63b8ff" stroke="#63b8ff" points="368.19,-239.82 357.61,-239.17 365.47,-246.27 368.19,-239.82"/>
</a>
</g>
</g>
<!-- Node4 -->
<g id="Node000004" class="node">
<title>Node4</title>
<g id="a_Node000004"><a xlink:href="nc__mpi__file_8h.html" target="_top" xlink:title=" ">
<polygon fill="white" stroke="#666666" points="592,-239 510,-239 510,-220 592,-220 592,-239"/>
<text text-anchor="middle" x="551" y="-227" font-family="Helvetica,sans-Serif" font-size="10.00">nc_mpi_file.h</text>
</a>
</g>
</g>
<!-- Node1&#45;&gt;Node4 -->
<g id="edge3_Node000001_Node000004" class="edge">
<title>Node1&#45;&gt;Node4</title>
<g id="a_edge3_Node000001_Node000004"><a xlink:title=" ">
<path fill="none" stroke="#63b8ff" d="M477.14,-274.98C490.79,-266.77 511.69,-254.18 527.78,-244.49"/>
<polygon fill="#63b8ff" stroke="#63b8ff" points="529.84,-247.33 536.6,-239.17 526.23,-241.33 529.84,-247.33"/>
</a>
</g>
</g>
<!-- Node5 -->
<g id="Node000005" class="node">
<title>Node5</title>
<g id="a_Node000005"><a xlink:href="nc__file_8h.html" target="_top" xlink:title=" ">
<polygon fill="white" stroke="#666666" points="511,-184 453,-184 453,-165 511,-165 511,-184"/>
<text text-anchor="middle" x="482" y="-172" font-family="Helvetica,sans-Serif" font-size="10.00">nc_file.h</text>
</a>
</g>
</g>
<!-- Node1&#45;&gt;Node5 -->
<g id="edge46_Node000001_Node000005" class="edge">
<title>Node1&#45;&gt;Node5</title>
<g id="a_edge46_Node000001_Node000005"><a xlink:title=" ">
<path fill="none" stroke="#63b8ff" d="M464.55,-274.66C467.63,-257.17 474.56,-217.8 478.7,-194.27"/>
<polygon fill="#63b8ff" stroke="#63b8ff" points="482.19,-194.61 480.48,-184.16 475.3,-193.4 482.19,-194.61"/>
</a>
</g>
</g>
<!-- Node31 -->
<g id="Node000031" class="node">
<title>Node31</title>
<g id="a_Node000031"><a xlink:href="probes__params_8h.html" target="_top" xlink:title=" ">
<polygon fill="white" stroke="#666666" points="764.5,-239 663.5,-239 663.5,-220 764.5,-220 764.5,-239"/>
<text text-anchor="middle" x="714" y="-227" font-family="Helvetica,sans-Serif" font-size="10.00">probes_params.h</text>
</a>
</g>
</g>
<!-- Node1&#45;&gt;Node31 -->
<g id="edge44_Node000001_Node000031" class="edge">
<title>Node1&#45;&gt;Node31</title>
<g id="a_edge44_Node000001_Node000031"><a xlink:title=" ">
<path fill="none" stroke="#63b8ff" d="M492.78,-277.21C534.9,-268.32 612.44,-251.94 663.62,-241.14"/>
<polygon fill="#63b8ff" stroke="#63b8ff" points="664.42,-244.55 673.49,-239.05 662.98,-237.7 664.42,-244.55"/>
</a>
</g>
</g>
<!-- Node33 -->
<g id="Node000033" class="node">
<title>Node33</title>
<g id="a_Node000033"><a xlink:href="records_8h.html" target="_top" xlink:title=" ">
<polygon fill="white" stroke="#666666" points="226,-184 164,-184 164,-165 226,-165 226,-184"/>
<text text-anchor="middle" x="195" y="-172" font-family="Helvetica,sans-Serif" font-size="10.00">records.h</text>
</a>
</g>
</g>
<!-- Node1&#45;&gt;Node33 -->
<g id="edge47_Node000001_Node000033" class="edge">
<title>Node1&#45;&gt;Node33</title>
<g id="a_edge47_Node000001_Node000033"><a xlink:title=" ">
<path fill="none" stroke="#63b8ff" d="M460.42,-274.93C455.76,-261.02 444.57,-233.72 425,-220 395.14,-199.07 294.24,-185.62 236.49,-179.45"/>
<polygon fill="#63b8ff" stroke="#63b8ff" points="236.54,-175.94 226.24,-178.38 235.82,-182.9 236.54,-175.94"/>
</a>
</g>
</g>
<!-- Node4&#45;&gt;Node5 -->
<g id="edge4_Node000004_Node000005" class="edge">
<title>Node4&#45;&gt;Node5</title>
<g id="a_edge4_Node000004_Node000005"><a xlink:title=" ">
<path fill="none" stroke="#63b8ff" d="M539.91,-219.98C529.51,-212 513.74,-199.88 501.28,-190.31"/>
<polygon fill="#63b8ff" stroke="#63b8ff" points="503.35,-187.49 493.29,-184.17 499.09,-193.04 503.35,-187.49"/>
</a>
</g>
</g>
<!-- Node30 -->
<g id="Node000030" class="node">
<title>Node30</title>
<g id="a_Node000030"><a xlink:title=" ">
<polygon fill="#e0e0e0" stroke="#999999" points="681,-184 529,-184 529,-165 681,-165 681,-184"/>
<text text-anchor="middle" x="605" y="-172" font-family="Helvetica,sans-Serif" font-size="10.00">dg/backend/mpi_datatype.h</text>
</a>
</g>
</g>
<!-- Node4&#45;&gt;Node30 -->
<g id="edge43_Node000004_Node000030" class="edge">
<title>Node4&#45;&gt;Node30</title>
<g id="a_edge43_Node000004_Node000030"><a xlink:title=" ">
<path fill="none" stroke="#63b8ff" d="M559.92,-219.75C567.78,-212.03 579.43,-200.6 588.92,-191.28"/>
<polygon fill="#63b8ff" stroke="#63b8ff" points="591.56,-193.59 596.25,-184.09 586.66,-188.6 591.56,-193.59"/>
</a>
</g>
</g>
<!-- Node6 -->
<g id="Node000006" class="node">
<title>Node6</title>
<g id="a_Node000006"><a xlink:title=" ">
<polygon fill="#e0e0e0" stroke="#999999" points="695,-129 627,-129 627,-110 695,-110 695,-129"/>
<text text-anchor="middle" x="661" y="-117" font-family="Helvetica,sans-Serif" font-size="10.00">filesystem</text>
</a>
</g>
</g>
<!-- Node5&#45;&gt;Node6 -->
<g id="edge5_Node000005_Node000006" class="edge">
<title>Node5&#45;&gt;Node6</title>
<g id="a_edge5_Node000005_Node000006"><a xlink:title=" ">
<path fill="none" stroke="#63b8ff" d="M510.76,-164.98C540.94,-156.05 588.57,-141.94 622.1,-132.02"/>
<polygon fill="#63b8ff" stroke="#63b8ff" points="623.42,-135.28 632.02,-129.08 621.43,-128.57 623.42,-135.28"/>
</a>
</g>
</g>
<!-- Node7 -->
<g id="Node000007" class="node">
<title>Node7</title>
<g id="a_Node000007"><a xlink:title=" ">
<polygon fill="#e0e0e0" stroke="#999999" points="227.5,-129 162.5,-129 162.5,-110 227.5,-110 227.5,-129"/>
<text text-anchor="middle" x="195" y="-117" font-family="Helvetica,sans-Serif" font-size="10.00">functional</text>
</a>
</g>
</g>
<!-- Node5&#45;&gt;Node7 -->
<g id="edge6_Node000005_Node000007" class="edge">
<title>Node5&#45;&gt;Node7</title>
<g id="a_edge6_Node000005_Node000007"><a xlink:title=" ">
<path fill="none" stroke="#63b8ff" d="M452.8,-168.47C408.43,-160.76 321.16,-145.4 237.57,-129.27"/>
<polygon fill="#63b8ff" stroke="#63b8ff" points="238.14,-125.81 227.66,-127.35 236.81,-132.69 238.14,-125.81"/>
</a>
</g>
</g>
<!-- Node8 -->
<g id="Node000008" class="node">
<title>Node8</title>
<g id="a_Node000008"><a xlink:title=" ">
<polygon fill="#e0e0e0" stroke="#999999" points="369,-129 337,-129 337,-110 369,-110 369,-129"/>
<text text-anchor="middle" x="353" y="-117" font-family="Helvetica,sans-Serif" font-size="10.00">list</text>
</a>
</g>
</g>
<!-- Node5&#45;&gt;Node8 -->
<g id="edge7_Node000005_Node000008" class="edge">
<title>Node5&#45;&gt;Node8</title>
<g id="a_edge7_Node000005_Node000008"><a xlink:title=" ">
<path fill="none" stroke="#63b8ff" d="M461.27,-164.98C438.74,-155.73 402.71,-140.92 378.47,-130.96"/>
<polygon fill="#63b8ff" stroke="#63b8ff" points="379.76,-127.71 369.18,-127.15 377.1,-134.19 379.76,-127.71"/>
</a>
</g>
</g>
<!-- Node9 -->
<g id="Node000009" class="node">
<title>Node9</title>
<g id="a_Node000009"><a xlink:title=" ">
<polygon fill="#e0e0e0" stroke="#999999" points="457,-129 387,-129 387,-110 457,-110 457,-129"/>
<text text-anchor="middle" x="422" y="-117" font-family="Helvetica,sans-Serif" font-size="10.00">../dg/blas.h</text>
</a>
</g>
</g>
<!-- Node5&#45;&gt;Node9 -->
<g id="edge8_Node000005_Node000009" class="edge">
<title>Node5&#45;&gt;Node9</title>
<g id="a_edge8_Node000005_Node000009"><a xlink:title=" ">
<path fill="none" stroke="#63b8ff" d="M472.36,-164.98C463.49,-157.15 450.13,-145.34 439.39,-135.86"/>
<polygon fill="#63b8ff" stroke="#63b8ff" points="441.63,-133.17 431.82,-129.17 436.99,-138.41 441.63,-133.17"/>
</a>
</g>
</g>
<!-- Node10 -->
<g id="Node000010" class="node">
<title>Node10</title>
<g id="a_Node000010"><a xlink:title=" ">
<polygon fill="#e0e0e0" stroke="#999999" points="608.5,-129 475.5,-129 475.5,-110 608.5,-110 608.5,-129"/>
<text text-anchor="middle" x="542" y="-117" font-family="Helvetica,sans-Serif" font-size="10.00">../dg/backend/memory.h</text>
</a>
</g>
</g>
<!-- Node5&#45;&gt;Node10 -->
<g id="edge9_Node000005_Node000010" class="edge">
<title>Node5&#45;&gt;Node10</title>
<g id="a_edge9_Node000005_Node000010"><a xlink:title=" ">
<path fill="none" stroke="#63b8ff" d="M491.64,-164.98C500.51,-157.15 513.87,-145.34 524.61,-135.86"/>
<polygon fill="#63b8ff" stroke="#63b8ff" points="527.01,-138.41 532.18,-129.17 522.37,-133.17 527.01,-138.41"/>
</a>
</g>
</g>
<!-- Node11 -->
<g id="Node000011" class="node">
<title>Node11</title>
<g id="a_Node000011"><a xlink:href="nc__error_8h.html" target="_top" xlink:title=" ">
<polygon fill="white" stroke="#666666" points="647.5,-74 582.5,-74 582.5,-55 647.5,-55 647.5,-74"/>
<text text-anchor="middle" x="615" y="-62" font-family="Helvetica,sans-Serif" font-size="10.00">nc_error.h</text>
</a>
</g>
</g>
<!-- Node5&#45;&gt;Node11 -->
<g id="edge10_Node000005_Node000011" class="edge">
<title>Node5&#45;&gt;Node11</title>
<g id="a_edge10_Node000005_Node000011"><a xlink:title=" ">
<path fill="none" stroke="#63b8ff" d="M511.03,-166.92C514.06,-166.26 517.09,-165.61 520,-165 601.56,-147.9 651.04,-193.33 704,-129 722.42,-106.62 687.2,-88.35 655.78,-77.24"/>
<polygon fill="#63b8ff" stroke="#63b8ff" points="656.8,-73.9 646.21,-74.03 654.57,-80.53 656.8,-73.9"/>
</a>
</g>
</g>
<!-- Node14 -->
<g id="Node000014" class="node">
<title>Node14</title>
<g id="a_Node000014"><a xlink:href="easy__atts_8h.html" target="_top" xlink:title=" ">
<polygon fill="white" stroke="#666666" points="318.5,-129 245.5,-129 245.5,-110 318.5,-110 318.5,-129"/>
<text text-anchor="middle" x="282" y="-117" font-family="Helvetica,sans-Serif" font-size="10.00">easy_atts.h</text>
</a>
</g>
</g>
<!-- Node5&#45;&gt;Node14 -->
<g id="edge13_Node000005_Node000014" class="edge">
<title>Node5&#45;&gt;Node14</title>
<g id="a_edge13_Node000005_Node000014"><a xlink:title=" ">
<path fill="none" stroke="#63b8ff" d="M452.92,-165.79C419.01,-156.81 362.67,-141.88 324.01,-131.63"/>
<polygon fill="#63b8ff" stroke="#63b8ff" points="324.66,-128.18 314.1,-129.01 322.87,-134.95 324.66,-128.18"/>
</a>
</g>
</g>
<!-- Node23 -->
<g id="Node000023" class="node">
<title>Node23</title>
<g id="a_Node000023"><a xlink:href="easy__output_8h.html" target="_top" xlink:title=" ">
<polygon fill="white" stroke="#666666" points="1077,-129 991,-129 991,-110 1077,-110 1077,-129"/>
<text text-anchor="middle" x="1034" y="-117" font-family="Helvetica,sans-Serif" font-size="10.00">easy_output.h</text>
</a>
</g>
</g>
<!-- Node5&#45;&gt;Node23 -->
<g id="edge24_Node000005_Node000023" class="edge">
<title>Node5&#45;&gt;Node23</title>
<g id="a_edge24_Node000005_Node000023"><a xlink:title=" ">
<path fill="none" stroke="#63b8ff" d="M511.38,-166.52C514.29,-165.95 517.19,-165.43 520,-165 687.02,-139.21 887.05,-127.26 980.71,-122.76"/>
<polygon fill="#63b8ff" stroke="#63b8ff" points="980.96,-126.26 990.78,-122.29 980.63,-119.26 980.96,-126.26"/>
</a>
</g>
</g>
<!-- Node29 -->
<g id="Node000029" class="node">
<title>Node29</title>
<g id="a_Node000029"><a xlink:href="easy__input_8h.html" target="_top" xlink:title=" ">
<polygon fill="white" stroke="#666666" points="830.5,-129 751.5,-129 751.5,-110 830.5,-110 830.5,-129"/>
<text text-anchor="middle" x="791" y="-117" font-family="Helvetica,sans-Serif" font-size="10.00">easy_input.h</text>
</a>
</g>
</g>
<!-- Node5&#45;&gt;Node29 -->
<g id="edge35_Node000005_Node000029" class="edge">
<title>Node5&#45;&gt;Node29</title>
<g id="a_edge35_Node000005_Node000029"><a xlink:title=" ">
<path fill="none" stroke="#63b8ff" d="M511.01,-166.83C514.04,-166.19 517.08,-165.57 520,-165 541.25,-160.88 668.68,-140.22 740.99,-128.55"/>
<polygon fill="#63b8ff" stroke="#63b8ff" points="741.92,-131.95 751.23,-126.9 740.8,-125.04 741.92,-131.95"/>
</a>
</g>
</g>
<!-- Node12 -->
<g id="Node000012" class="node">
<title>Node12</title>
<g id="a_Node000012"><a xlink:title=" ">
<polygon fill="#e0e0e0" stroke="#999999" points="816.5,-19 751.5,-19 751.5,0 816.5,0 816.5,-19"/>
<text text-anchor="middle" x="784" y="-7" font-family="Helvetica,sans-Serif" font-size="10.00">exception</text>
</a>
</g>
</g>
<!-- Node11&#45;&gt;Node12 -->
<g id="edge11_Node000011_Node000012" class="edge">
<title>Node11&#45;&gt;Node12</title>
<g id="a_edge11_Node000011_Node000012"><a xlink:title=" ">
<path fill="none" stroke="#63b8ff" d="M642.15,-54.98C670.53,-46.09 715.23,-32.07 746.86,-22.15"/>
<polygon fill="#63b8ff" stroke="#63b8ff" points="748.14,-25.41 756.63,-19.08 746.05,-18.73 748.14,-25.41"/>
</a>
</g>
</g>
<!-- Node13 -->
<g id="Node000013" class="node">
<title>Node13</title>
<g id="a_Node000013"><a xlink:title=" ">
<polygon fill="#e0e0e0" stroke="#999999" points="643,-19 587,-19 587,0 643,0 643,-19"/>
<text text-anchor="middle" x="615" y="-7" font-family="Helvetica,sans-Serif" font-size="10.00">netcdf.h</text>
</a>
</g>
</g>
<!-- Node11&#45;&gt;Node13 -->
<g id="edge12_Node000011_Node000013" class="edge">
<title>Node11&#45;&gt;Node13</title>
<g id="a_edge12_Node000011_Node000013"><a xlink:title=" ">
<path fill="none" stroke="#63b8ff" d="M615,-54.75C615,-47.8 615,-37.85 615,-29.13"/>
<polygon fill="#63b8ff" stroke="#63b8ff" points="618.5,-29.09 615,-19.09 611.5,-29.09 618.5,-29.09"/>
</a>
</g>
</g>
<!-- Node14&#45;&gt;Node11 -->
<g id="edge23_Node000014_Node000011" class="edge">
<title>Node14&#45;&gt;Node11</title>
<g id="a_edge23_Node000014_Node000011"><a xlink:title=" ">
<path fill="none" stroke="#63b8ff" d="M318.64,-111.63C321.8,-111.07 324.96,-110.52 328,-110 414.57,-95.29 516.18,-80 572.3,-71.73"/>
<polygon fill="#63b8ff" stroke="#63b8ff" points="572.85,-75.18 582.24,-70.27 571.84,-68.26 572.85,-75.18"/>
</a>
</g>
</g>
<!-- Node14&#45;&gt;Node13 -->
<g id="edge22_Node000014_Node000013" class="edge">
<title>Node14&#45;&gt;Node13</title>
<g id="a_edge22_Node000014_Node000013"><a xlink:title=" ">
<path fill="none" stroke="#63b8ff" d="M318.62,-111.52C375.53,-100.58 480.43,-80.03 497,-74 532.55,-61.07 570.54,-38.95 593.53,-24.53"/>
<polygon fill="#63b8ff" stroke="#63b8ff" points="595.58,-27.37 602.14,-19.05 591.82,-21.47 595.58,-27.37"/>
</a>
</g>
</g>
<!-- Node15 -->
<g id="Node000015" class="node">
<title>Node15</title>
<g id="a_Node000015"><a xlink:title=" ">
<polygon fill="#e0e0e0" stroke="#999999" points="487.5,-74 436.5,-74 436.5,-55 487.5,-55 487.5,-74"/>
<text text-anchor="middle" x="462" y="-62" font-family="Helvetica,sans-Serif" font-size="10.00">variant</text>
</a>
</g>
</g>
<!-- Node14&#45;&gt;Node15 -->
<g id="edge14_Node000014_Node000015" class="edge">
<title>Node14&#45;&gt;Node15</title>
<g id="a_edge14_Node000014_Node000015"><a xlink:title=" ">
<path fill="none" stroke="#63b8ff" d="M310.92,-109.98C342.35,-100.73 392.6,-85.93 426.43,-75.97"/>
<polygon fill="#63b8ff" stroke="#63b8ff" points="427.75,-79.23 436.36,-73.05 425.78,-72.52 427.75,-79.23"/>
</a>
</g>
</g>
<!-- Node16 -->
<g id="Node000016" class="node">
<title>Node16</title>
<g id="a_Node000016"><a xlink:title=" ">
<polygon fill="#e0e0e0" stroke="#999999" points="500.5,-19 453.5,-19 453.5,0 500.5,0 500.5,-19"/>
<text text-anchor="middle" x="477" y="-7" font-family="Helvetica,sans-Serif" font-size="10.00">vector</text>
</a>
</g>
</g>
<!-- Node14&#45;&gt;Node16 -->
<g id="edge15_Node000014_Node000016" class="edge">
<title>Node14&#45;&gt;Node16</title>
<g id="a_edge15_Node000014_Node000016"><a xlink:title=" ">
<path fill="none" stroke="#63b8ff" d="M306.98,-109.98C329.16,-101.98 362.13,-89.02 389,-74 414.49,-59.76 441.37,-39.48 458.61,-25.71"/>
<polygon fill="#63b8ff" stroke="#63b8ff" points="461.13,-28.17 466.7,-19.16 456.72,-22.73 461.13,-28.17"/>
</a>
</g>
</g>
<!-- Node17 -->
<g id="Node000017" class="node">
<title>Node17</title>
<g id="a_Node000017"><a xlink:title=" ">
<polygon fill="#e0e0e0" stroke="#999999" points="38,-74 0,-74 0,-55 38,-55 38,-74"/>
<text text-anchor="middle" x="19" y="-62" font-family="Helvetica,sans-Serif" font-size="10.00">map</text>
</a>
</g>
</g>
<!-- Node14&#45;&gt;Node17 -->
<g id="edge16_Node000014_Node000017" class="edge">
<title>Node14&#45;&gt;Node17</title>
<g id="a_edge16_Node000014_Node000017"><a xlink:title=" ">
<path fill="none" stroke="#63b8ff" d="M245.1,-111.62C188.6,-101.07 84.07,-81.5 48.3,-73.91"/>
<polygon fill="#63b8ff" stroke="#63b8ff" points="48.73,-70.42 38.2,-71.63 47.19,-77.24 48.73,-70.42"/>
</a>
</g>
</g>
<!-- Node18 -->
<g id="Node000018" class="node">
<title>Node18</title>
<g id="a_Node000018"><a xlink:title=" ">
<polygon fill="#e0e0e0" stroke="#999999" points="100,-74 56,-74 56,-55 100,-55 100,-74"/>
<text text-anchor="middle" x="78" y="-62" font-family="Helvetica,sans-Serif" font-size="10.00">string</text>
</a>
</g>
</g>
<!-- Node14&#45;&gt;Node18 -->
<g id="edge17_Node000014_Node000018" class="edge">
<title>Node14&#45;&gt;Node18</title>
<g id="a_edge17_Node000014_Node000018"><a xlink:title=" ">
<path fill="none" stroke="#63b8ff" d="M248.15,-109.96C215.22,-101.62 163.53,-88.42 109.72,-74.16"/>
<polygon fill="#63b8ff" stroke="#63b8ff" points="110.57,-70.76 100,-71.58 108.77,-77.53 110.57,-70.76"/>
</a>
</g>
</g>
<!-- Node19 -->
<g id="Node000019" class="node">
<title>Node19</title>
<g id="a_Node000019"><a xlink:title=" ">
<polygon fill="#e0e0e0" stroke="#999999" points="170,-74 118,-74 118,-55 170,-55 170,-74"/>
<text text-anchor="middle" x="144" y="-62" font-family="Helvetica,sans-Serif" font-size="10.00">cassert</text>
</a>
</g>
</g>
<!-- Node14&#45;&gt;Node19 -->
<g id="edge18_Node000014_Node000019" class="edge">
<title>Node14&#45;&gt;Node19</title>
<g id="a_edge18_Node000014_Node000019"><a xlink:title=" ">
<path fill="none" stroke="#63b8ff" d="M259.83,-109.98C237.23,-101.3 201.94,-87.75 176.25,-77.88"/>
<polygon fill="#63b8ff" stroke="#63b8ff" points="177.17,-74.49 166.58,-74.17 174.66,-81.02 177.17,-74.49"/>
</a>
</g>
</g>
<!-- Node20 -->
<g id="Node000020" class="node">
<title>Node20</title>
<g id="a_Node000020"><a xlink:title=" ">
<polygon fill="#e0e0e0" stroke="#999999" points="244,-74 188,-74 188,-55 244,-55 244,-74"/>
<text text-anchor="middle" x="216" y="-62" font-family="Helvetica,sans-Serif" font-size="10.00">sstream</text>
</a>
</g>
</g>
<!-- Node14&#45;&gt;Node20 -->
<g id="edge19_Node000014_Node000020" class="edge">
<title>Node14&#45;&gt;Node20</title>
<g id="a_edge19_Node000014_Node000020"><a xlink:title=" ">
<path fill="none" stroke="#63b8ff" d="M271.4,-109.98C261.54,-102.07 246.65,-90.11 234.78,-80.58"/>
<polygon fill="#63b8ff" stroke="#63b8ff" points="236.79,-77.7 226.8,-74.17 232.4,-83.16 236.79,-77.7"/>
</a>
</g>
</g>
<!-- Node21 -->
<g id="Node000021" class="node">
<title>Node21</title>
<g id="a_Node000021"><a xlink:title=" ">
<polygon fill="#e0e0e0" stroke="#999999" points="318,-74 262,-74 262,-55 318,-55 318,-74"/>
<text text-anchor="middle" x="290" y="-62" font-family="Helvetica,sans-Serif" font-size="10.00">iomanip</text>
</a>
</g>
</g>
<!-- Node14&#45;&gt;Node21 -->
<g id="edge20_Node000014_Node000021" class="edge">
<title>Node14&#45;&gt;Node21</title>
<g id="a_edge20_Node000014_Node000021"><a xlink:title=" ">
<path fill="none" stroke="#63b8ff" d="M283.32,-109.75C284.37,-102.8 285.87,-92.85 287.19,-84.13"/>
<polygon fill="#63b8ff" stroke="#63b8ff" points="290.67,-84.5 288.7,-74.09 283.75,-83.45 290.67,-84.5"/>
</a>
</g>
</g>
<!-- Node22 -->
<g id="Node000022" class="node">
<title>Node22</title>
<g id="a_Node000022"><a xlink:title=" ">
<polygon fill="#e0e0e0" stroke="#999999" points="380,-74 336,-74 336,-55 380,-55 380,-74"/>
<text text-anchor="middle" x="358" y="-62" font-family="Helvetica,sans-Serif" font-size="10.00">ctime</text>
</a>
</g>
</g>
<!-- Node14&#45;&gt;Node22 -->
<g id="edge21_Node000014_Node000022" class="edge">
<title>Node14&#45;&gt;Node22</title>
<g id="a_edge21_Node000014_Node000022"><a xlink:title=" ">
<path fill="none" stroke="#63b8ff" d="M294.21,-109.98C305.78,-101.92 323.38,-89.65 337.16,-80.03"/>
<polygon fill="#63b8ff" stroke="#63b8ff" points="339.37,-82.76 345.57,-74.17 335.36,-77.02 339.37,-82.76"/>
</a>
</g>
</g>
<!-- Node23&#45;&gt;Node11 -->
<g id="edge31_Node000023_Node000011" class="edge">
<title>Node23&#45;&gt;Node11</title>
<g id="a_edge31_Node000023_Node000011"><a xlink:title=" ">
<path fill="none" stroke="#63b8ff" d="M990.87,-114.57C922.45,-108.09 784.62,-93.99 657.43,-73.93"/>
<polygon fill="#63b8ff" stroke="#63b8ff" points="657.94,-70.47 647.51,-72.35 656.84,-77.38 657.94,-70.47"/>
</a>
</g>
</g>
<!-- Node23&#45;&gt;Node12 -->
<g id="edge25_Node000023_Node000012" class="edge">
<title>Node23&#45;&gt;Node12</title>
<g id="a_edge25_Node000023_Node000012"><a xlink:title=" ">
<path fill="none" stroke="#63b8ff" d="M1077.12,-116.5C1137.04,-112.71 1240.77,-102.16 1264,-74 1269.37,-67.49 1269.69,-61.24 1264,-55 1234.85,-23.02 939.49,-13.67 827.1,-11.25"/>
<polygon fill="#63b8ff" stroke="#63b8ff" points="826.88,-7.75 816.81,-11.04 826.73,-14.75 826.88,-7.75"/>
</a>
</g>
</g>
<!-- Node23&#45;&gt;Node13 -->
<g id="edge26_Node000023_Node000013" class="edge">
<title>Node23&#45;&gt;Node13</title>
<g id="a_edge26_Node000023_Node000013"><a xlink:title=" ">
<path fill="none" stroke="#63b8ff" d="M1077.21,-117.94C1148.18,-115.61 1277.2,-104.66 1231,-55 1228.53,-52.34 788.14,-22.25 653.59,-13.11"/>
<polygon fill="#63b8ff" stroke="#63b8ff" points="653.56,-9.6 643.35,-12.42 653.09,-16.59 653.56,-9.6"/>
</a>
</g>
</g>
<!-- Node24 -->
<g id="Node000024" class="node">
<title>Node24</title>
<g id="a_Node000024"><a xlink:title=" ">
<polygon fill="#e0e0e0" stroke="#999999" points="1221.5,-74 1116.5,-74 1116.5,-55 1221.5,-55 1221.5,-74"/>
<text text-anchor="middle" x="1169" y="-62" font-family="Helvetica,sans-Serif" font-size="10.00">dg/topology/grid.h</text>
</a>
</g>
</g>
<!-- Node23&#45;&gt;Node24 -->
<g id="edge27_Node000023_Node000024" class="edge">
<title>Node23&#45;&gt;Node24</title>
<g id="a_edge27_Node000023_Node000024"><a xlink:title=" ">
<path fill="none" stroke="#63b8ff" d="M1055.69,-109.98C1077.8,-101.3 1112.32,-87.75 1137.45,-77.88"/>
<polygon fill="#63b8ff" stroke="#63b8ff" points="1138.89,-81.08 1146.92,-74.17 1136.33,-74.57 1138.89,-81.08"/>
</a>
</g>
</g>
<!-- Node25 -->
<g id="Node000025" class="node">
<title>Node25</title>
<g id="a_Node000025"><a xlink:title=" ">
<polygon fill="#e0e0e0" stroke="#999999" points="951.5,-74 812.5,-74 812.5,-55 951.5,-55 951.5,-74"/>
<text text-anchor="middle" x="882" y="-62" font-family="Helvetica,sans-Serif" font-size="10.00">dg/backend/mpi_vector.h</text>
</a>
</g>
</g>
<!-- Node23&#45;&gt;Node25 -->
<g id="edge28_Node000023_Node000025" class="edge">
<title>Node23&#45;&gt;Node25</title>
<g id="a_edge28_Node000023_Node000025"><a xlink:title=" ">
<path fill="none" stroke="#63b8ff" d="M1009.58,-109.98C984.28,-101.16 944.55,-87.31 916.14,-77.41"/>
<polygon fill="#63b8ff" stroke="#63b8ff" points="917.21,-74.07 906.61,-74.08 914.9,-80.68 917.21,-74.07"/>
</a>
</g>
</g>
<!-- Node26 -->
<g id="Node000026" class="node">
<title>Node26</title>
<g id="a_Node000026"><a xlink:title=" ">
<polygon fill="#e0e0e0" stroke="#999999" points="1098.5,-74 969.5,-74 969.5,-55 1098.5,-55 1098.5,-74"/>
<text text-anchor="middle" x="1034" y="-62" font-family="Helvetica,sans-Serif" font-size="10.00">dg/topology/mpi_grid.h</text>
</a>
</g>
</g>
<!-- Node23&#45;&gt;Node26 -->
<g id="edge29_Node000023_Node000026" class="edge">
<title>Node23&#45;&gt;Node26</title>
<g id="a_edge29_Node000023_Node000026"><a xlink:title=" ">
<path fill="none" stroke="#63b8ff" d="M1034,-109.75C1034,-102.8 1034,-92.85 1034,-84.13"/>
<polygon fill="#63b8ff" stroke="#63b8ff" points="1037.5,-84.09 1034,-74.09 1030.5,-84.09 1037.5,-84.09"/>
</a>
</g>
</g>
<!-- Node27 -->
<g id="Node000027" class="node">
<title>Node27</title>
<g id="a_Node000027"><a xlink:title=" ">
<polygon fill="#e0e0e0" stroke="#999999" points="1440,-74 1316,-74 1316,-55 1440,-55 1440,-74"/>
<text text-anchor="middle" x="1378" y="-62" font-family="Helvetica,sans-Serif" font-size="10.00">dg/backend/mpi_init.h</text>
</a>
</g>
</g>
<!-- Node23&#45;&gt;Node27 -->
<g id="edge30_Node000023_Node000027" class="edge">
<title>Node23&#45;&gt;Node27</title>
<g id="a_edge30_Node000023_Node000027"><a xlink:title=" ">
<path fill="none" stroke="#63b8ff" d="M1077.22,-111.84C1136.56,-102.7 1243.74,-86.19 1312.84,-75.54"/>
<polygon fill="#63b8ff" stroke="#63b8ff" points="1313.4,-78.99 1322.75,-74.01 1312.33,-72.08 1313.4,-78.99"/>
</a>
</g>
</g>
<!-- Node28 -->
<g id="Node000028" class="node">
<title>Node28</title>
<g id="a_Node000028"><a xlink:href="nc__hyperslab_8h.html" target="_top" xlink:title=" ">
<polygon fill="white" stroke="#666666" points="756,-74 666,-74 666,-55 756,-55 756,-74"/>
<text text-anchor="middle" x="711" y="-62" font-family="Helvetica,sans-Serif" font-size="10.00">nc_hyperslab.h</text>
</a>
</g>
</g>
<!-- Node23&#45;&gt;Node28 -->
<g id="edge32_Node000023_Node000028" class="edge">
<title>Node23&#45;&gt;Node28</title>
<g id="a_edge32_Node000023_Node000028"><a xlink:title=" ">
<path fill="none" stroke="#63b8ff" d="M990.77,-111.41C932.8,-101.9 829.83,-85 766.28,-74.57"/>
<polygon fill="#63b8ff" stroke="#63b8ff" points="766.48,-71.06 756.05,-72.89 765.35,-77.96 766.48,-71.06"/>
</a>
</g>
</g>
<!-- Node28&#45;&gt;Node13 -->
<g id="edge34_Node000028_Node000013" class="edge">
<title>Node28&#45;&gt;Node13</title>
<g id="a_edge34_Node000028_Node000013"><a xlink:title=" ">
<path fill="none" stroke="#63b8ff" d="M695.58,-54.98C680.55,-46.69 657.46,-33.94 639.84,-24.22"/>
<polygon fill="#63b8ff" stroke="#63b8ff" points="641.15,-20.94 630.7,-19.17 637.77,-27.07 641.15,-20.94"/>
</a>
</g>
</g>
<!-- Node28&#45;&gt;Node16 -->
<g id="edge33_Node000028_Node000016" class="edge">
<title>Node28&#45;&gt;Node16</title>
<g id="a_edge33_Node000028_Node000016"><a xlink:title=" ">
<path fill="none" stroke="#63b8ff" d="M673.4,-54.98C628.41,-44.79 553.75,-27.88 510.6,-18.11"/>
<polygon fill="#63b8ff" stroke="#63b8ff" points="511.13,-14.64 500.6,-15.85 509.58,-21.47 511.13,-14.64"/>
</a>
</g>
</g>
<!-- Node29&#45;&gt;Node11 -->
<g id="edge41_Node000029_Node000011" class="edge">
<title>Node29&#45;&gt;Node11</title>
<g id="a_edge41_Node000029_Node000011"><a xlink:title=" ">
<path fill="none" stroke="#63b8ff" d="M762.72,-109.98C733.05,-101.05 686.21,-86.94 653.25,-77.02"/>
<polygon fill="#63b8ff" stroke="#63b8ff" points="654.08,-73.61 643.5,-74.08 652.07,-80.32 654.08,-73.61"/>
</a>
</g>
</g>
<!-- Node29&#45;&gt;Node12 -->
<g id="edge36_Node000029_Node000012" class="edge">
<title>Node29&#45;&gt;Node12</title>
<g id="a_edge36_Node000029_Node000012"><a xlink:title=" ">
<path fill="none" stroke="#63b8ff" d="M790.43,-109.66C789.29,-92.17 786.74,-52.8 785.22,-29.27"/>
<polygon fill="#63b8ff" stroke="#63b8ff" points="788.7,-28.91 784.56,-19.16 781.72,-29.36 788.7,-28.91"/>
</a>
</g>
</g>
<!-- Node29&#45;&gt;Node13 -->
<g id="edge37_Node000029_Node000013" class="edge">
<title>Node29&#45;&gt;Node13</title>
<g id="a_edge37_Node000029_Node000013"><a xlink:title=" ">
<path fill="none" stroke="#63b8ff" d="M751.33,-113.1C691.81,-104.61 585.15,-87.67 574,-74 561.29,-58.41 578.5,-38.73 594.35,-25.44"/>
<polygon fill="#63b8ff" stroke="#63b8ff" points="596.67,-28.07 602.36,-19.13 592.34,-22.57 596.67,-28.07"/>
</a>
</g>
</g>
<!-- Node29&#45;&gt;Node24 -->
<g id="edge38_Node000029_Node000024" class="edge">
<title>Node29&#45;&gt;Node24</title>
<g id="a_edge38_Node000029_Node000024"><a xlink:title=" ">
<path fill="none" stroke="#63b8ff" d="M830.74,-112.93C896.32,-103.73 1027.72,-85.31 1106.04,-74.33"/>
<polygon fill="#63b8ff" stroke="#63b8ff" points="1106.85,-77.75 1116.26,-72.89 1105.87,-70.82 1106.85,-77.75"/>
</a>
</g>
</g>
<!-- Node29&#45;&gt;Node25 -->
<g id="edge39_Node000029_Node000025" class="edge">
<title>Node29&#45;&gt;Node25</title>
<g id="a_edge39_Node000029_Node000025"><a xlink:title=" ">
<path fill="none" stroke="#63b8ff" d="M805.62,-109.98C819.86,-101.69 841.75,-88.94 858.45,-79.22"/>
<polygon fill="#63b8ff" stroke="#63b8ff" points="860.23,-82.23 867.11,-74.17 856.71,-76.18 860.23,-82.23"/>
</a>
</g>
</g>
<!-- Node29&#45;&gt;Node26 -->
<g id="edge40_Node000029_Node000026" class="edge">
<title>Node29&#45;&gt;Node26</title>
<g id="a_edge40_Node000029_Node000026"><a xlink:title=" ">
<path fill="none" stroke="#63b8ff" d="M830.04,-109.98C872.08,-100.82 939.04,-86.21 984.68,-76.26"/>
<polygon fill="#63b8ff" stroke="#63b8ff" points="985.63,-79.63 994.65,-74.08 984.14,-72.79 985.63,-79.63"/>
</a>
</g>
</g>
<!-- Node29&#45;&gt;Node28 -->
<g id="edge42_Node000029_Node000028" class="edge">
<title>Node29&#45;&gt;Node28</title>
<g id="a_edge42_Node000029_Node000028"><a xlink:title=" ">
<path fill="none" stroke="#63b8ff" d="M778.15,-109.98C765.86,-101.84 747.09,-89.41 732.52,-79.76"/>
<polygon fill="#63b8ff" stroke="#63b8ff" points="734.36,-76.78 724.09,-74.17 730.49,-82.61 734.36,-76.78"/>
</a>
</g>
</g>
<!-- Node32 -->
<g id="Node000032" class="node">
<title>Node32</title>
<g id="a_Node000032"><a xlink:title=" ">
<polygon fill="#e0e0e0" stroke="#999999" points="835,-184 699,-184 699,-165 835,-165 835,-184"/>
<text text-anchor="middle" x="767" y="-172" font-family="Helvetica,sans-Serif" font-size="10.00">../dg/backend/typedefs.h</text>
</a>
</g>
</g>
<!-- Node31&#45;&gt;Node32 -->
<g id="edge45_Node000031_Node000032" class="edge">
<title>Node31&#45;&gt;Node32</title>
<g id="a_edge45_Node000031_Node000032"><a xlink:title=" ">
<path fill="none" stroke="#63b8ff" d="M722.75,-219.75C730.47,-212.03 741.9,-200.6 751.22,-191.28"/>
<polygon fill="#63b8ff" stroke="#63b8ff" points="753.81,-193.64 758.41,-184.09 748.86,-188.69 753.81,-193.64"/>
</a>
</g>
</g>
<!-- Node33&#45;&gt;Node7 -->
<g id="edge49_Node000033_Node000007" class="edge">
<title>Node33&#45;&gt;Node7</title>
<g id="a_edge49_Node000033_Node000007"><a xlink:title=" ">
<path fill="none" stroke="#63b8ff" d="M195,-164.75C195,-157.8 195,-147.85 195,-139.13"/>
<polygon fill="#63b8ff" stroke="#63b8ff" points="198.5,-139.09 195,-129.09 191.5,-139.09 198.5,-139.09"/>
</a>
</g>
</g>
<!-- Node33&#45;&gt;Node17 -->
<g id="edge48_Node000033_Node000017" class="edge">
<title>Node33&#45;&gt;Node17</title>
<g id="a_edge48_Node000033_Node000017"><a xlink:title=" ">
<path fill="none" stroke="#63b8ff" d="M180.89,-164.84C150.51,-146.2 78.67,-102.11 41.76,-79.46"/>
<polygon fill="#63b8ff" stroke="#63b8ff" points="43.53,-76.44 33.17,-74.2 39.87,-82.41 43.53,-76.44"/>
</a>
</g>
</g>
</g>
</svg>
