<?xml version="1.0" encoding="UTF-8" standalone="no"?>
<!DOCTYPE svg PUBLIC "-//W3C//DTD SVG 1.1//EN"
 "http://www.w3.org/Graphics/SVG/1.1/DTD/svg11.dtd">
<!-- Generated by graphviz version 2.43.0 (0)
 -->
<!-- Title: dg::file::MPINcHyperslab::MPINcHyperslab Pages: 1 -->
<svg width="300pt" height="86pt"
 viewBox="0.00 0.00 300.00 86.00" xmlns="http://www.w3.org/2000/svg" xmlns:xlink="http://www.w3.org/1999/xlink">
<g id="graph0" class="graph" transform="scale(1 1) rotate(0) translate(4 82)">
<title>dg::file::MPINcHyperslab::MPINcHyperslab</title>
<!-- Node1 -->
<g id="Node000001" class="node">
<title>Node1</title>
<g id="a_Node000001"><a xlink:title="{start0, MPINcHyperslab( param).start()}, {count0, MPINcHyperslab(param).count(), MPINcHyperslab....">
<polygon fill="#999999" stroke="#666666" points="137,-54 0,-54 0,-24 137,-24 137,-54"/>
<text text-anchor="start" x="8" y="-42" font-family="Helvetica,sans-Serif" font-size="10.00">dg::file::MPINcHyperslab</text>
<text text-anchor="middle" x="68.5" y="-31" font-family="Helvetica,sans-Serif" font-size="10.00">::MPINcHyperslab</text>
</a>
</g>
</g>
<!-- Node2 -->
<g id="Node000002" class="node">
<title>Node2</title>
<g id="a_Node000002"><a xlink:href="structdg_1_1file_1_1_nc_hyperslab.html#a5c121af1fcac4fadff4cdf288656a395" target="_top" xlink:title=" ">
<polygon fill="white" stroke="#666666" points="292,-78 173,-78 173,-48 292,-48 292,-78"/>
<text text-anchor="start" x="181" y="-66" font-family="Helvetica,sans-Serif" font-size="10.00">dg::file::NcHyperslab</text>
<text text-anchor="middle" x="232.5" y="-55" font-family="Helvetica,sans-Serif" font-size="10.00">::count</text>
</a>
</g>
</g>
<!-- Node1&#45;&gt;Node2 -->
<g id="edge1_Node000001_Node000002" class="edge">
<title>Node1&#45;&gt;Node2</title>
<g id="a_edge1_Node000001_Node000002"><a xlink:title=" ">
<path fill="none" stroke="#63b8ff" d="M137.26,-49.04C145.65,-50.28 154.22,-51.55 162.62,-52.8"/>
<polygon fill="#63b8ff" stroke="#63b8ff" points="162.35,-56.29 172.76,-54.3 163.38,-49.37 162.35,-56.29"/>
</a>
</g>
</g>
<!-- Node3 -->
<g id="Node000003" class="node">
<title>Node3</title>
<g id="a_Node000003"><a xlink:href="structdg_1_1file_1_1_nc_hyperslab.html#a5ff57cb7ef32ecba185f432a4b3c0f4b" target="_top" xlink:title=" ">
<polygon fill="white" stroke="#666666" points="292,-30 173,-30 173,0 292,0 292,-30"/>
<text text-anchor="start" x="181" y="-18" font-family="Helvetica,sans-Serif" font-size="10.00">dg::file::NcHyperslab</text>
<text text-anchor="middle" x="232.5" y="-7" font-family="Helvetica,sans-Serif" font-size="10.00">::start</text>
</a>
</g>
</g>
<!-- Node1&#45;&gt;Node3 -->
<g id="edge2_Node000001_Node000003" class="edge">
<title>Node1&#45;&gt;Node3</title>
<g id="a_edge2_Node000001_Node000003"><a xlink:title=" ">
<path fill="none" stroke="#63b8ff" d="M137.26,-28.96C145.65,-27.72 154.22,-26.45 162.62,-25.2"/>
<polygon fill="#63b8ff" stroke="#63b8ff" points="163.38,-28.63 172.76,-23.7 162.35,-21.71 163.38,-28.63"/>
</a>
</g>
</g>
</g>
</svg>
