<?xml version="1.0" encoding="UTF-8" standalone="no"?>
<!DOCTYPE svg PUBLIC "-//W3C//DTD SVG 1.1//EN"
 "http://www.w3.org/Graphics/SVG/1.1/DTD/svg11.dtd">
<!-- Generated by graphviz version 2.43.0 (0)
 -->
<!-- Title: dg::file::MPINcFile::put_var Pages: 1 -->
<svg width="416pt" height="134pt"
 viewBox="0.00 0.00 416.00 134.00" xmlns="http://www.w3.org/2000/svg" xmlns:xlink="http://www.w3.org/1999/xlink">
<g id="graph0" class="graph" transform="scale(1 1) rotate(0) translate(4 130)">
<title>dg::file::MPINcFile::put_var</title>
<!-- Node1 -->
<g id="Node000001" class="node">
<title>Node1</title>
<g id="a_Node000001"><a xlink:title="Write a single data point.">
<polygon fill="#999999" stroke="#666666" points="104,-78 0,-78 0,-48 104,-48 104,-78"/>
<text text-anchor="start" x="8" y="-66" font-family="Helvetica,sans-Serif" font-size="10.00">dg::file::MPINcFile</text>
<text text-anchor="middle" x="52" y="-55" font-family="Helvetica,sans-Serif" font-size="10.00">::put_var</text>
</a>
</g>
</g>
<!-- Node2 -->
<g id="Node000002" class="node">
<title>Node2</title>
<g id="a_Node000002"><a xlink:href="structdg_1_1file_1_1_serial_nc_file.html#ab4aac604038f5629578ca128acab8a94" target="_top" xlink:title="Write data to a variable.">
<polygon fill="white" stroke="#666666" points="253,-78 140,-78 140,-48 253,-48 253,-78"/>
<text text-anchor="start" x="148" y="-66" font-family="Helvetica,sans-Serif" font-size="10.00">dg::file::SerialNcFile</text>
<text text-anchor="middle" x="196.5" y="-55" font-family="Helvetica,sans-Serif" font-size="10.00">::put_var</text>
</a>
</g>
</g>
<!-- Node1&#45;&gt;Node2 -->
<g id="edge1_Node000001_Node000002" class="edge">
<title>Node1&#45;&gt;Node2</title>
<g id="a_edge1_Node000001_Node000002"><a xlink:title=" ">
<path fill="none" stroke="#63b8ff" d="M104.04,-63C112.42,-63 121.21,-63 129.89,-63"/>
<polygon fill="#63b8ff" stroke="#63b8ff" points="129.99,-66.5 139.99,-63 129.99,-59.5 129.99,-66.5"/>
</a>
</g>
</g>
<!-- Node3 -->
<g id="Node000003" class="node">
<title>Node3</title>
<g id="a_Node000003"><a xlink:href="structdg_1_1file_1_1_nc_hyperslab.html#a124f8ade60022bf87d97f8f371094a0b" target="_top" xlink:title=" ">
<polygon fill="white" stroke="#666666" points="408,-126 289,-126 289,-96 408,-96 408,-126"/>
<text text-anchor="start" x="297" y="-114" font-family="Helvetica,sans-Serif" font-size="10.00">dg::file::NcHyperslab</text>
<text text-anchor="middle" x="348.5" y="-103" font-family="Helvetica,sans-Serif" font-size="10.00">::countp</text>
</a>
</g>
</g>
<!-- Node2&#45;&gt;Node3 -->
<g id="edge2_Node000002_Node000003" class="edge">
<title>Node2&#45;&gt;Node3</title>
<g id="a_edge2_Node000002_Node000003"><a xlink:title=" ">
<path fill="none" stroke="#63b8ff" d="M244.55,-78.06C259.21,-82.75 275.53,-87.97 290.78,-92.85"/>
<polygon fill="#63b8ff" stroke="#63b8ff" points="290.03,-96.28 300.62,-96 292.16,-89.62 290.03,-96.28"/>
</a>
</g>
</g>
<!-- Node4 -->
<g id="Node000004" class="node">
<title>Node4</title>
<g id="a_Node000004"><a xlink:href="structdg_1_1file_1_1_nc_hyperslab.html#a687535de3bdcc001cb9c4a2a62ac4494" target="_top" xlink:title=" ">
<polygon fill="white" stroke="#666666" points="408,-78 289,-78 289,-48 408,-48 408,-78"/>
<text text-anchor="start" x="297" y="-66" font-family="Helvetica,sans-Serif" font-size="10.00">dg::file::NcHyperslab</text>
<text text-anchor="middle" x="348.5" y="-55" font-family="Helvetica,sans-Serif" font-size="10.00">::ndim</text>
</a>
</g>
</g>
<!-- Node2&#45;&gt;Node4 -->
<g id="edge3_Node000002_Node000004" class="edge">
<title>Node2&#45;&gt;Node4</title>
<g id="a_edge3_Node000002_Node000004"><a xlink:title=" ">
<path fill="none" stroke="#63b8ff" d="M253.35,-63C261.59,-63 270.15,-63 278.6,-63"/>
<polygon fill="#63b8ff" stroke="#63b8ff" points="278.84,-66.5 288.84,-63 278.84,-59.5 278.84,-66.5"/>
</a>
</g>
</g>
<!-- Node5 -->
<g id="Node000005" class="node">
<title>Node5</title>
<g id="a_Node000005"><a xlink:href="structdg_1_1file_1_1_nc_hyperslab.html#a5e0d5fb46ee1d14e37347223ffe75a2d" target="_top" xlink:title=" ">
<polygon fill="white" stroke="#666666" points="408,-30 289,-30 289,0 408,0 408,-30"/>
<text text-anchor="start" x="297" y="-18" font-family="Helvetica,sans-Serif" font-size="10.00">dg::file::NcHyperslab</text>
<text text-anchor="middle" x="348.5" y="-7" font-family="Helvetica,sans-Serif" font-size="10.00">::startp</text>
</a>
</g>
</g>
<!-- Node2&#45;&gt;Node5 -->
<g id="edge4_Node000002_Node000005" class="edge">
<title>Node2&#45;&gt;Node5</title>
<g id="a_edge4_Node000002_Node000005"><a xlink:title=" ">
<path fill="none" stroke="#63b8ff" d="M244.55,-47.94C259.21,-43.25 275.53,-38.03 290.78,-33.15"/>
<polygon fill="#63b8ff" stroke="#63b8ff" points="292.16,-36.38 300.62,-30 290.03,-29.72 292.16,-36.38"/>
</a>
</g>
</g>
</g>
</svg>
