<?xml version="1.0" encoding="UTF-8" standalone="no"?>
<!DOCTYPE svg PUBLIC "-//W3C//DTD SVG 1.1//EN"
 "http://www.w3.org/Graphics/SVG/1.1/DTD/svg11.dtd">
<!-- Generated by graphviz version 2.43.0 (0)
 -->
<!-- Title: dg::file::SerialNcFile::defput_dim Pages: 1 -->
<svg width="425pt" height="230pt"
 viewBox="0.00 0.00 425.00 230.00" xmlns="http://www.w3.org/2000/svg" xmlns:xlink="http://www.w3.org/1999/xlink">
<g id="graph0" class="graph" transform="scale(1 1) rotate(0) translate(4 226)">
<title>dg::file::SerialNcFile::defput_dim</title>
<!-- Node1 -->
<g id="Node000001" class="node">
<title>Node1</title>
<g id="a_Node000001"><a xlink:title="Define a dimension and define and write to a dimension variable in one go.">
<polygon fill="#999999" stroke="#666666" points="113,-126 0,-126 0,-96 113,-96 113,-126"/>
<text text-anchor="start" x="8" y="-114" font-family="Helvetica,sans-Serif" font-size="10.00">dg::file::SerialNcFile</text>
<text text-anchor="middle" x="56.5" y="-103" font-family="Helvetica,sans-Serif" font-size="10.00">::defput_dim</text>
</a>
</g>
</g>
<!-- Node2 -->
<g id="Node000002" class="node">
<title>Node2</title>
<g id="a_Node000002"><a xlink:href="structdg_1_1file_1_1_serial_nc_file.html#ad063d7e0b6998a7eafe7734781c50ade" target="_top" xlink:title="Define a dimension and dimension variable in one go.">
<polygon fill="white" stroke="#666666" points="262,-174 149,-174 149,-144 262,-144 262,-174"/>
<text text-anchor="start" x="157" y="-162" font-family="Helvetica,sans-Serif" font-size="10.00">dg::file::SerialNcFile</text>
<text text-anchor="middle" x="205.5" y="-151" font-family="Helvetica,sans-Serif" font-size="10.00">::def_dimvar_as</text>
</a>
</g>
</g>
<!-- Node1&#45;&gt;Node2 -->
<g id="edge1_Node000001_Node000002" class="edge">
<title>Node1&#45;&gt;Node2</title>
<g id="a_edge1_Node000001_Node000002"><a xlink:title=" ">
<path fill="none" stroke="#63b8ff" d="M103.61,-126.06C117.97,-130.75 133.97,-135.97 148.91,-140.85"/>
<polygon fill="#63b8ff" stroke="#63b8ff" points="147.96,-144.22 158.56,-144 150.14,-137.57 147.96,-144.22"/>
</a>
</g>
</g>
<!-- Node5 -->
<g id="Node000005" class="node">
<title>Node5</title>
<g id="a_Node000005"><a xlink:href="structdg_1_1file_1_1_serial_nc_file.html#ab4aac604038f5629578ca128acab8a94" target="_top" xlink:title="Write data to a variable.">
<polygon fill="white" stroke="#666666" points="262,-102 149,-102 149,-72 262,-72 262,-102"/>
<text text-anchor="start" x="157" y="-90" font-family="Helvetica,sans-Serif" font-size="10.00">dg::file::SerialNcFile</text>
<text text-anchor="middle" x="205.5" y="-79" font-family="Helvetica,sans-Serif" font-size="10.00">::put_var</text>
</a>
</g>
</g>
<!-- Node1&#45;&gt;Node5 -->
<g id="edge4_Node000001_Node000005" class="edge">
<title>Node1&#45;&gt;Node5</title>
<g id="a_edge4_Node000001_Node000005"><a xlink:title=" ">
<path fill="none" stroke="#63b8ff" d="M113.07,-101.93C121.49,-100.55 130.24,-99.12 138.84,-97.72"/>
<polygon fill="#63b8ff" stroke="#63b8ff" points="139.54,-101.15 148.85,-96.09 138.41,-94.24 139.54,-101.15"/>
</a>
</g>
</g>
<!-- Node3 -->
<g id="Node000003" class="node">
<title>Node3</title>
<g id="a_Node000003"><a xlink:href="structdg_1_1file_1_1_serial_nc_file.html#a7e6d005109a47d4c17ede892b6379d3f" target="_top" xlink:title="Define a dimension named name of size size.">
<polygon fill="white" stroke="#666666" points="414,-222 301,-222 301,-192 414,-192 414,-222"/>
<text text-anchor="start" x="309" y="-210" font-family="Helvetica,sans-Serif" font-size="10.00">dg::file::SerialNcFile</text>
<text text-anchor="middle" x="357.5" y="-199" font-family="Helvetica,sans-Serif" font-size="10.00">::def_dim</text>
</a>
</g>
</g>
<!-- Node2&#45;&gt;Node3 -->
<g id="edge2_Node000002_Node000003" class="edge">
<title>Node2&#45;&gt;Node3</title>
<g id="a_edge2_Node000002_Node000003"><a xlink:title=" ">
<path fill="none" stroke="#63b8ff" d="M253.55,-174.06C268.21,-178.75 284.53,-183.97 299.78,-188.85"/>
<polygon fill="#63b8ff" stroke="#63b8ff" points="299.03,-192.28 309.62,-192 301.16,-185.62 299.03,-192.28"/>
</a>
</g>
</g>
<!-- Node4 -->
<g id="Node000004" class="node">
<title>Node4</title>
<g id="a_Node000004"><a xlink:href="structdg_1_1file_1_1_serial_nc_file.html#ae39facbe44837171a715f55fe8bfa52e" target="_top" xlink:title="Define a variable with given type, dimensions and (optionally) attributes.">
<polygon fill="white" stroke="#666666" points="414,-174 301,-174 301,-144 414,-144 414,-174"/>
<text text-anchor="start" x="309" y="-162" font-family="Helvetica,sans-Serif" font-size="10.00">dg::file::SerialNcFile</text>
<text text-anchor="middle" x="357.5" y="-151" font-family="Helvetica,sans-Serif" font-size="10.00">::def_var_as</text>
</a>
</g>
</g>
<!-- Node2&#45;&gt;Node4 -->
<g id="edge3_Node000002_Node000004" class="edge">
<title>Node2&#45;&gt;Node4</title>
<g id="a_edge3_Node000002_Node000004"><a xlink:title=" ">
<path fill="none" stroke="#63b8ff" d="M262.35,-159C271.59,-159 281.24,-159 290.7,-159"/>
<polygon fill="#63b8ff" stroke="#63b8ff" points="290.85,-162.5 300.85,-159 290.85,-155.5 290.85,-162.5"/>
</a>
</g>
</g>
<!-- Node6 -->
<g id="Node000006" class="node">
<title>Node6</title>
<g id="a_Node000006"><a xlink:href="structdg_1_1file_1_1_nc_hyperslab.html#a124f8ade60022bf87d97f8f371094a0b" target="_top" xlink:title=" ">
<polygon fill="white" stroke="#666666" points="417,-126 298,-126 298,-96 417,-96 417,-126"/>
<text text-anchor="start" x="306" y="-114" font-family="Helvetica,sans-Serif" font-size="10.00">dg::file::NcHyperslab</text>
<text text-anchor="middle" x="357.5" y="-103" font-family="Helvetica,sans-Serif" font-size="10.00">::countp</text>
</a>
</g>
</g>
<!-- Node5&#45;&gt;Node6 -->
<g id="edge5_Node000005_Node000006" class="edge">
<title>Node5&#45;&gt;Node6</title>
<g id="a_edge5_Node000005_Node000006"><a xlink:title=" ">
<path fill="none" stroke="#63b8ff" d="M262.35,-95.94C270.68,-97.27 279.33,-98.65 287.88,-100.02"/>
<polygon fill="#63b8ff" stroke="#63b8ff" points="287.41,-103.49 297.84,-101.61 288.52,-96.58 287.41,-103.49"/>
</a>
</g>
</g>
<!-- Node7 -->
<g id="Node000007" class="node">
<title>Node7</title>
<g id="a_Node000007"><a xlink:href="structdg_1_1file_1_1_nc_hyperslab.html#a687535de3bdcc001cb9c4a2a62ac4494" target="_top" xlink:title=" ">
<polygon fill="white" stroke="#666666" points="417,-78 298,-78 298,-48 417,-48 417,-78"/>
<text text-anchor="start" x="306" y="-66" font-family="Helvetica,sans-Serif" font-size="10.00">dg::file::NcHyperslab</text>
<text text-anchor="middle" x="357.5" y="-55" font-family="Helvetica,sans-Serif" font-size="10.00">::ndim</text>
</a>
</g>
</g>
<!-- Node5&#45;&gt;Node7 -->
<g id="edge6_Node000005_Node000007" class="edge">
<title>Node5&#45;&gt;Node7</title>
<g id="a_edge6_Node000005_Node000007"><a xlink:title=" ">
<path fill="none" stroke="#63b8ff" d="M262.35,-78.06C270.68,-76.73 279.33,-75.35 287.88,-73.98"/>
<polygon fill="#63b8ff" stroke="#63b8ff" points="288.52,-77.42 297.84,-72.39 287.41,-70.51 288.52,-77.42"/>
</a>
</g>
</g>
<!-- Node8 -->
<g id="Node000008" class="node">
<title>Node8</title>
<g id="a_Node000008"><a xlink:href="structdg_1_1file_1_1_nc_hyperslab.html#a5e0d5fb46ee1d14e37347223ffe75a2d" target="_top" xlink:title=" ">
<polygon fill="white" stroke="#666666" points="417,-30 298,-30 298,0 417,0 417,-30"/>
<text text-anchor="start" x="306" y="-18" font-family="Helvetica,sans-Serif" font-size="10.00">dg::file::NcHyperslab</text>
<text text-anchor="middle" x="357.5" y="-7" font-family="Helvetica,sans-Serif" font-size="10.00">::startp</text>
</a>
</g>
</g>
<!-- Node5&#45;&gt;Node8 -->
<g id="edge7_Node000005_Node000008" class="edge">
<title>Node5&#45;&gt;Node8</title>
<g id="a_edge7_Node000005_Node000008"><a xlink:title=" ">
<path fill="none" stroke="#63b8ff" d="M233.79,-71.82C251.81,-62.02 276.05,-49.23 298,-39 301.54,-37.35 305.22,-35.7 308.94,-34.07"/>
<polygon fill="#63b8ff" stroke="#63b8ff" points="310.38,-37.26 318.2,-30.11 307.63,-30.83 310.38,-37.26"/>
</a>
</g>
</g>
</g>
</svg>
