<?xml version="1.0" encoding="UTF-8" standalone="no"?>
<!DOCTYPE svg PUBLIC "-//W3C//DTD SVG 1.1//EN"
 "http://www.w3.org/Graphics/SVG/1.1/DTD/svg11.dtd">
<!-- Generated by graphviz version 2.43.0 (0)
 -->
<!-- Title: dg::file::MPINcFile::def_dimvar_as Pages: 1 -->
<svg width="410pt" height="86pt"
 viewBox="0.00 0.00 410.00 86.00" xmlns="http://www.w3.org/2000/svg" xmlns:xlink="http://www.w3.org/1999/xlink">
<g id="graph0" class="graph" transform="scale(1 1) rotate(0) translate(4 82)">
<title>dg::file::MPINcFile::def_dimvar_as</title>
<!-- Node1 -->
<g id="Node000001" class="node">
<title>Node1</title>
<g id="a_Node000001"><a xlink:title="Define a dimension and dimension variable in one go.">
<polygon fill="#999999" stroke="#666666" points="104,-54 0,-54 0,-24 104,-24 104,-54"/>
<text text-anchor="start" x="8" y="-42" font-family="Helvetica,sans-Serif" font-size="10.00">dg::file::MPINcFile</text>
<text text-anchor="middle" x="52" y="-31" font-family="Helvetica,sans-Serif" font-size="10.00">::def_dimvar_as</text>
</a>
</g>
</g>
<!-- Node2 -->
<g id="Node000002" class="node">
<title>Node2</title>
<g id="a_Node000002"><a xlink:href="structdg_1_1file_1_1_serial_nc_file.html#ad063d7e0b6998a7eafe7734781c50ade" target="_top" xlink:title="Define a dimension and dimension variable in one go.">
<polygon fill="white" stroke="#666666" points="253,-54 140,-54 140,-24 253,-24 253,-54"/>
<text text-anchor="start" x="148" y="-42" font-family="Helvetica,sans-Serif" font-size="10.00">dg::file::SerialNcFile</text>
<text text-anchor="middle" x="196.5" y="-31" font-family="Helvetica,sans-Serif" font-size="10.00">::def_dimvar_as</text>
</a>
</g>
</g>
<!-- Node1&#45;&gt;Node2 -->
<g id="edge1_Node000001_Node000002" class="edge">
<title>Node1&#45;&gt;Node2</title>
<g id="a_edge1_Node000001_Node000002"><a xlink:title=" ">
<path fill="none" stroke="#63b8ff" d="M104.04,-39C112.42,-39 121.21,-39 129.89,-39"/>
<polygon fill="#63b8ff" stroke="#63b8ff" points="129.99,-42.5 139.99,-39 129.99,-35.5 129.99,-42.5"/>
</a>
</g>
</g>
<!-- Node3 -->
<g id="Node000003" class="node">
<title>Node3</title>
<g id="a_Node000003"><a xlink:href="structdg_1_1file_1_1_serial_nc_file.html#a7e6d005109a47d4c17ede892b6379d3f" target="_top" xlink:title="Define a dimension named name of size size.">
<polygon fill="white" stroke="#666666" points="402,-78 289,-78 289,-48 402,-48 402,-78"/>
<text text-anchor="start" x="297" y="-66" font-family="Helvetica,sans-Serif" font-size="10.00">dg::file::SerialNcFile</text>
<text text-anchor="middle" x="345.5" y="-55" font-family="Helvetica,sans-Serif" font-size="10.00">::def_dim</text>
</a>
</g>
</g>
<!-- Node2&#45;&gt;Node3 -->
<g id="edge2_Node000002_Node000003" class="edge">
<title>Node2&#45;&gt;Node3</title>
<g id="a_edge2_Node000002_Node000003"><a xlink:title=" ">
<path fill="none" stroke="#63b8ff" d="M253.07,-48.07C261.49,-49.45 270.24,-50.88 278.84,-52.28"/>
<polygon fill="#63b8ff" stroke="#63b8ff" points="278.41,-55.76 288.85,-53.91 279.54,-48.85 278.41,-55.76"/>
</a>
</g>
</g>
<!-- Node4 -->
<g id="Node000004" class="node">
<title>Node4</title>
<g id="a_Node000004"><a xlink:href="structdg_1_1file_1_1_serial_nc_file.html#ae39facbe44837171a715f55fe8bfa52e" target="_top" xlink:title="Define a variable with given type, dimensions and (optionally) attributes.">
<polygon fill="white" stroke="#666666" points="402,-30 289,-30 289,0 402,0 402,-30"/>
<text text-anchor="start" x="297" y="-18" font-family="Helvetica,sans-Serif" font-size="10.00">dg::file::SerialNcFile</text>
<text text-anchor="middle" x="345.5" y="-7" font-family="Helvetica,sans-Serif" font-size="10.00">::def_var_as</text>
</a>
</g>
</g>
<!-- Node2&#45;&gt;Node4 -->
<g id="edge3_Node000002_Node000004" class="edge">
<title>Node2&#45;&gt;Node4</title>
<g id="a_edge3_Node000002_Node000004"><a xlink:title=" ">
<path fill="none" stroke="#63b8ff" d="M253.07,-29.93C261.49,-28.55 270.24,-27.12 278.84,-25.72"/>
<polygon fill="#63b8ff" stroke="#63b8ff" points="279.54,-29.15 288.85,-24.09 278.41,-22.24 279.54,-29.15"/>
</a>
</g>
</g>
</g>
</svg>
