<?xml version="1.0" encoding="UTF-8" standalone="no"?>
<!DOCTYPE svg PUBLIC "-//W3C//DTD SVG 1.1//EN"
 "http://www.w3.org/Graphics/SVG/1.1/DTD/svg11.dtd">
<!-- Generated by graphviz version 2.43.0 (0)
 -->
<!-- Title: dg::file::WrappedJsonValue::operator[] Pages: 1 -->
<svg width="362pt" height="51pt"
 viewBox="0.00 0.00 362.00 50.50" xmlns="http://www.w3.org/2000/svg" xmlns:xlink="http://www.w3.org/1999/xlink">
<g id="graph0" class="graph" transform="scale(1 1) rotate(0) translate(4 46.5)">
<title>dg::file::WrappedJsonValue::operator[]</title>
<!-- Node1 -->
<g id="Node000001" class="node">
<title>Node1</title>
<g id="a_Node000001"><a xlink:title=" ">
<polygon fill="#999999" stroke="#666666" points="148,-30 0,-30 0,0 148,0 148,-30"/>
<text text-anchor="start" x="8" y="-18" font-family="Helvetica,sans-Serif" font-size="10.00">dg::file::WrappedJsonValue</text>
<text text-anchor="middle" x="74" y="-7" font-family="Helvetica,sans-Serif" font-size="10.00">::operator[]</text>
</a>
</g>
</g>
<!-- Node2 -->
<g id="Node000002" class="node">
<title>Node2</title>
<g id="a_Node000002"><a xlink:href="structdg_1_1file_1_1_wrapped_json_value.html#a756188a06ea1498a98d629859d1f45d8" target="_top" xlink:title="Wrap the corresponding JsonType function with error handling.">
<polygon fill="white" stroke="#666666" points="354,-24.5 184,-24.5 184,-5.5 354,-5.5 354,-24.5"/>
<text text-anchor="middle" x="269" y="-12.5" font-family="Helvetica,sans-Serif" font-size="10.00">dg::file::WrappedJsonValue::get</text>
</a>
</g>
</g>
<!-- Node1&#45;&gt;Node2 -->
<g id="edge1_Node000001_Node000002" class="edge">
<title>Node1&#45;&gt;Node2</title>
<g id="a_edge1_Node000001_Node000002"><a xlink:title=" ">
<path fill="none" stroke="#63b8ff" d="M148.24,-15C156.59,-15 165.2,-15 173.77,-15"/>
<polygon fill="#63b8ff" stroke="#63b8ff" points="173.82,-18.5 183.82,-15 173.82,-11.5 173.82,-18.5"/>
</a>
</g>
</g>
<!-- Node2&#45;&gt;Node2 -->
<g id="edge2_Node000002_Node000002" class="edge">
<title>Node2&#45;&gt;Node2</title>
<g id="a_edge2_Node000002_Node000002"><a xlink:title=" ">
<path fill="none" stroke="#63b8ff" d="M239.1,-24.58C224.55,-33.23 234.52,-42.5 269,-42.5 292.71,-42.5 304.82,-38.12 305.36,-32.57"/>
<polygon fill="#63b8ff" stroke="#63b8ff" points="307.91,-30.16 298.9,-24.58 302.46,-34.56 307.91,-30.16"/>
</a>
</g>
</g>
</g>
</svg>
