<?xml version="1.0" encoding="UTF-8" standalone="no"?>
<!DOCTYPE svg PUBLIC "-//W3C//DTD SVG 1.1//EN"
 "http://www.w3.org/Graphics/SVG/1.1/DTD/svg11.dtd">
<!-- Generated by graphviz version 2.43.0 (0)
 -->
<!-- Title: dg::file::Probes::Probes Pages: 1 -->
<svg width="596pt" height="268pt"
 viewBox="0.00 0.00 596.00 268.00" xmlns="http://www.w3.org/2000/svg" xmlns:xlink="http://www.w3.org/1999/xlink">
<g id="graph0" class="graph" transform="scale(1 1) rotate(0) translate(4 264)">
<title>dg::file::Probes::Probes</title>
<!-- Node1 -->
<g id="Node000001" class="node">
<title>Node1</title>
<g id="a_Node000001"><a xlink:title="Construct from parameter struct.">
<polygon fill="#999999" stroke="#666666" points="128,-136.5 0,-136.5 0,-117.5 128,-117.5 128,-136.5"/>
<text text-anchor="middle" x="64" y="-124.5" font-family="Helvetica,sans-Serif" font-size="10.00">dg::file::Probes::Probes</text>
</a>
</g>
</g>
<!-- Node2 -->
<g id="Node000002" class="node">
<title>Node2</title>
<g id="a_Node000002"><a xlink:href="structdg_1_1file_1_1_m_p_i_nc_file.html#a6c4a2f38be64487507df28292967817d" target="_top" xlink:title="Define a dimension named name of size size.">
<polygon fill="white" stroke="#666666" points="279,-260 175,-260 175,-230 279,-230 279,-260"/>
<text text-anchor="start" x="183" y="-248" font-family="Helvetica,sans-Serif" font-size="10.00">dg::file::MPINcFile</text>
<text text-anchor="middle" x="227" y="-237" font-family="Helvetica,sans-Serif" font-size="10.00">::def_dim</text>
</a>
</g>
</g>
<!-- Node1&#45;&gt;Node2 -->
<g id="edge1_Node000001_Node000002" class="edge">
<title>Node1&#45;&gt;Node2</title>
<g id="a_edge1_Node000001_Node000002"><a xlink:title=" ">
<path fill="none" stroke="#63b8ff" d="M72.77,-136.54C88.33,-155.1 125.15,-196.4 164,-221 166.47,-222.56 169.05,-224.05 171.71,-225.46"/>
<polygon fill="#63b8ff" stroke="#63b8ff" points="170.43,-228.73 180.95,-229.98 173.5,-222.44 170.43,-228.73"/>
</a>
</g>
</g>
<!-- Node4 -->
<g id="Node000004" class="node">
<title>Node4</title>
<g id="a_Node000004"><a xlink:href="structdg_1_1file_1_1_m_p_i_nc_file.html#aa26096f167a6560ab949af57cda72427" target="_top" xlink:title=" ">
<polygon fill="white" stroke="#666666" points="279,-212 175,-212 175,-182 279,-182 279,-212"/>
<text text-anchor="start" x="183" y="-200" font-family="Helvetica,sans-Serif" font-size="10.00">dg::file::MPINcFile</text>
<text text-anchor="middle" x="227" y="-189" font-family="Helvetica,sans-Serif" font-size="10.00">::def_grp</text>
</a>
</g>
</g>
<!-- Node1&#45;&gt;Node4 -->
<g id="edge3_Node000001_Node000004" class="edge">
<title>Node1&#45;&gt;Node4</title>
<g id="a_edge3_Node000001_Node000004"><a xlink:title=" ">
<path fill="none" stroke="#63b8ff" d="M84.55,-136.55C104.4,-146.13 136.1,-161.13 164,-173 168.05,-174.72 172.27,-176.47 176.53,-178.19"/>
<polygon fill="#63b8ff" stroke="#63b8ff" points="175.24,-181.44 185.82,-181.89 177.83,-174.94 175.24,-181.44"/>
</a>
</g>
</g>
<!-- Node6 -->
<g id="Node000006" class="node">
<title>Node6</title>
<g id="a_Node000006"><a xlink:href="structdg_1_1file_1_1_probes_params.html#a47fd5493a1cf839d191124fd524dd28b" target="_top" xlink:title="Check that coords all have same size and return that size.">
<polygon fill="white" stroke="#666666" points="290,-164 164,-164 164,-134 290,-134 290,-164"/>
<text text-anchor="start" x="172" y="-152" font-family="Helvetica,sans-Serif" font-size="10.00">dg::file::ProbesParams</text>
<text text-anchor="middle" x="227" y="-141" font-family="Helvetica,sans-Serif" font-size="10.00">::get_coords_sizes</text>
</a>
</g>
</g>
<!-- Node1&#45;&gt;Node6 -->
<g id="edge5_Node000001_Node000006" class="edge">
<title>Node1&#45;&gt;Node6</title>
<g id="a_edge5_Node000001_Node000006"><a xlink:title=" ">
<path fill="none" stroke="#63b8ff" d="M128.17,-135.63C136.59,-136.78 145.28,-137.97 153.84,-139.14"/>
<polygon fill="#63b8ff" stroke="#63b8ff" points="153.42,-142.62 163.8,-140.5 154.37,-135.68 153.42,-142.62"/>
</a>
</g>
</g>
<!-- Node7 -->
<g id="Node000007" class="node">
<title>Node7</title>
<g id="a_Node000007"><a xlink:href="structdg_1_1file_1_1_m_p_i_nc_file.html#a324df27278d2b9d1c2078231df76b5c0" target="_top" xlink:title="Get the absolute path of the current group.">
<polygon fill="white" stroke="#666666" points="435,-126 330,-126 330,-96 435,-96 435,-126"/>
<text text-anchor="start" x="338" y="-114" font-family="Helvetica,sans-Serif" font-size="10.00">dg::file::MPINcFile</text>
<text text-anchor="middle" x="382.5" y="-103" font-family="Helvetica,sans-Serif" font-size="10.00">::get_current_path</text>
</a>
</g>
</g>
<!-- Node1&#45;&gt;Node7 -->
<g id="edge6_Node000001_Node000007" class="edge">
<title>Node1&#45;&gt;Node7</title>
<g id="a_edge6_Node000001_Node000007"><a xlink:title=" ">
<path fill="none" stroke="#63b8ff" d="M128.29,-123.8C183.99,-120.98 264.6,-116.91 319.82,-114.12"/>
<polygon fill="#63b8ff" stroke="#63b8ff" points="320.01,-117.61 329.82,-113.61 319.66,-110.62 320.01,-117.61"/>
</a>
</g>
</g>
<!-- Node9 -->
<g id="Node000009" class="node">
<title>Node9</title>
<g id="a_Node000009"><a xlink:href="structdg_1_1file_1_1_m_p_i_nc_file.html#a32faa7c38409660f29d9955d9e850f1d" target="_top" xlink:title="Put an individual attribute.">
<polygon fill="white" stroke="#666666" points="279,-78 175,-78 175,-48 279,-48 279,-78"/>
<text text-anchor="start" x="183" y="-66" font-family="Helvetica,sans-Serif" font-size="10.00">dg::file::MPINcFile</text>
<text text-anchor="middle" x="227" y="-55" font-family="Helvetica,sans-Serif" font-size="10.00">::put_att</text>
</a>
</g>
</g>
<!-- Node1&#45;&gt;Node9 -->
<g id="edge8_Node000001_Node000009" class="edge">
<title>Node1&#45;&gt;Node9</title>
<g id="a_edge8_Node000001_Node000009"><a xlink:title=" ">
<path fill="none" stroke="#63b8ff" d="M89.1,-117.42C112.67,-108.05 149.19,-93.53 178.59,-81.85"/>
<polygon fill="#63b8ff" stroke="#63b8ff" points="180.25,-84.95 188.25,-78 177.67,-78.45 180.25,-84.95"/>
</a>
</g>
</g>
<!-- Node11 -->
<g id="Node000011" class="node">
<title>Node11</title>
<g id="a_Node000011"><a xlink:href="structdg_1_1file_1_1_m_p_i_nc_file.html#a1140a548101026d93c10decd79e18602" target="_top" xlink:title="Change group to path.">
<polygon fill="white" stroke="#666666" points="279,-30 175,-30 175,0 279,0 279,-30"/>
<text text-anchor="start" x="183" y="-18" font-family="Helvetica,sans-Serif" font-size="10.00">dg::file::MPINcFile</text>
<text text-anchor="middle" x="227" y="-7" font-family="Helvetica,sans-Serif" font-size="10.00">::set_grp</text>
</a>
</g>
</g>
<!-- Node1&#45;&gt;Node11 -->
<g id="edge10_Node000001_Node000011" class="edge">
<title>Node1&#45;&gt;Node11</title>
<g id="a_edge10_Node000001_Node000011"><a xlink:title=" ">
<path fill="none" stroke="#63b8ff" d="M73.66,-117.29C89.85,-99.61 126.51,-61.88 164,-39 166.62,-37.4 169.37,-35.87 172.2,-34.42"/>
<polygon fill="#63b8ff" stroke="#63b8ff" points="173.86,-37.5 181.38,-30.04 170.84,-31.18 173.86,-37.5"/>
</a>
</g>
</g>
<!-- Node3 -->
<g id="Node000003" class="node">
<title>Node3</title>
<g id="a_Node000003"><a xlink:href="structdg_1_1file_1_1_serial_nc_file.html#a7e6d005109a47d4c17ede892b6379d3f" target="_top" xlink:title="Define a dimension named name of size size.">
<polygon fill="white" stroke="#666666" points="439,-260 326,-260 326,-230 439,-230 439,-260"/>
<text text-anchor="start" x="334" y="-248" font-family="Helvetica,sans-Serif" font-size="10.00">dg::file::SerialNcFile</text>
<text text-anchor="middle" x="382.5" y="-237" font-family="Helvetica,sans-Serif" font-size="10.00">::def_dim</text>
</a>
</g>
</g>
<!-- Node2&#45;&gt;Node3 -->
<g id="edge2_Node000002_Node000003" class="edge">
<title>Node2&#45;&gt;Node3</title>
<g id="a_edge2_Node000002_Node000003"><a xlink:title=" ">
<path fill="none" stroke="#63b8ff" d="M279.11,-245C290.83,-245 303.45,-245 315.69,-245"/>
<polygon fill="#63b8ff" stroke="#63b8ff" points="315.86,-248.5 325.86,-245 315.86,-241.5 315.86,-248.5"/>
</a>
</g>
</g>
<!-- Node5 -->
<g id="Node000005" class="node">
<title>Node5</title>
<g id="a_Node000005"><a xlink:href="structdg_1_1file_1_1_serial_nc_file.html#a17498718cf4ca91c19b1f79f9e59dc3a" target="_top" xlink:title=" ">
<polygon fill="white" stroke="#666666" points="439,-212 326,-212 326,-182 439,-182 439,-212"/>
<text text-anchor="start" x="334" y="-200" font-family="Helvetica,sans-Serif" font-size="10.00">dg::file::SerialNcFile</text>
<text text-anchor="middle" x="382.5" y="-189" font-family="Helvetica,sans-Serif" font-size="10.00">::def_grp</text>
</a>
</g>
</g>
<!-- Node4&#45;&gt;Node5 -->
<g id="edge4_Node000004_Node000005" class="edge">
<title>Node4&#45;&gt;Node5</title>
<g id="a_edge4_Node000004_Node000005"><a xlink:title=" ">
<path fill="none" stroke="#63b8ff" d="M279.11,-197C290.83,-197 303.45,-197 315.69,-197"/>
<polygon fill="#63b8ff" stroke="#63b8ff" points="315.86,-200.5 325.86,-197 315.86,-193.5 315.86,-200.5"/>
</a>
</g>
</g>
<!-- Node8 -->
<g id="Node000008" class="node">
<title>Node8</title>
<g id="a_Node000008"><a xlink:href="structdg_1_1file_1_1_serial_nc_file.html#a6ba0f705938bbadf61abe2a123855a20" target="_top" xlink:title="Get the absolute path of the current group.">
<polygon fill="white" stroke="#666666" points="588,-78 475,-78 475,-48 588,-48 588,-78"/>
<text text-anchor="start" x="483" y="-66" font-family="Helvetica,sans-Serif" font-size="10.00">dg::file::SerialNcFile</text>
<text text-anchor="middle" x="531.5" y="-55" font-family="Helvetica,sans-Serif" font-size="10.00">::get_current_path</text>
</a>
</g>
</g>
<!-- Node7&#45;&gt;Node8 -->
<g id="edge7_Node000007_Node000008" class="edge">
<title>Node7&#45;&gt;Node8</title>
<g id="a_edge7_Node000007_Node000008"><a xlink:title=" ">
<path fill="none" stroke="#63b8ff" d="M429.61,-95.94C443.97,-91.25 459.97,-86.03 474.91,-81.15"/>
<polygon fill="#63b8ff" stroke="#63b8ff" points="476.14,-84.43 484.56,-78 473.96,-77.78 476.14,-84.43"/>
</a>
</g>
</g>
<!-- Node10 -->
<g id="Node000010" class="node">
<title>Node10</title>
<g id="a_Node000010"><a xlink:href="structdg_1_1file_1_1_serial_nc_file.html#a22fc57d30999c959f2969727f2ac9aa8" target="_top" xlink:title="Put an individual attribute.">
<polygon fill="white" stroke="#666666" points="439,-78 326,-78 326,-48 439,-48 439,-78"/>
<text text-anchor="start" x="334" y="-66" font-family="Helvetica,sans-Serif" font-size="10.00">dg::file::SerialNcFile</text>
<text text-anchor="middle" x="382.5" y="-55" font-family="Helvetica,sans-Serif" font-size="10.00">::put_att</text>
</a>
</g>
</g>
<!-- Node9&#45;&gt;Node10 -->
<g id="edge9_Node000009_Node000010" class="edge">
<title>Node9&#45;&gt;Node10</title>
<g id="a_edge9_Node000009_Node000010"><a xlink:title=" ">
<path fill="none" stroke="#63b8ff" d="M279.11,-63C290.83,-63 303.45,-63 315.69,-63"/>
<polygon fill="#63b8ff" stroke="#63b8ff" points="315.86,-66.5 325.86,-63 315.86,-59.5 315.86,-66.5"/>
</a>
</g>
</g>
<!-- Node12 -->
<g id="Node000012" class="node">
<title>Node12</title>
<g id="a_Node000012"><a xlink:href="structdg_1_1file_1_1_serial_nc_file.html#a62b2383a66602abff7f8e643b8bf4bad" target="_top" xlink:title="Change group to path.">
<polygon fill="white" stroke="#666666" points="439,-30 326,-30 326,0 439,0 439,-30"/>
<text text-anchor="start" x="334" y="-18" font-family="Helvetica,sans-Serif" font-size="10.00">dg::file::SerialNcFile</text>
<text text-anchor="middle" x="382.5" y="-7" font-family="Helvetica,sans-Serif" font-size="10.00">::set_grp</text>
</a>
</g>
</g>
<!-- Node11&#45;&gt;Node12 -->
<g id="edge11_Node000011_Node000012" class="edge">
<title>Node11&#45;&gt;Node12</title>
<g id="a_edge11_Node000011_Node000012"><a xlink:title=" ">
<path fill="none" stroke="#63b8ff" d="M279.11,-15C290.83,-15 303.45,-15 315.69,-15"/>
<polygon fill="#63b8ff" stroke="#63b8ff" points="315.86,-18.5 325.86,-15 315.86,-11.5 315.86,-18.5"/>
</a>
</g>
</g>
<!-- Node12&#45;&gt;Node8 -->
<g id="edge12_Node000012_Node000008" class="edge">
<title>Node12&#45;&gt;Node8</title>
<g id="a_edge12_Node000012_Node000008"><a xlink:title=" ">
<path fill="none" stroke="#63b8ff" d="M429.61,-30.06C443.97,-34.75 459.97,-39.97 474.91,-44.85"/>
<polygon fill="#63b8ff" stroke="#63b8ff" points="473.96,-48.22 484.56,-48 476.14,-41.57 473.96,-48.22"/>
</a>
</g>
</g>
</g>
</svg>
