<?xml version="1.0" encoding="UTF-8" standalone="no"?>
<!DOCTYPE svg PUBLIC "-//W3C//DTD SVG 1.1//EN"
 "http://www.w3.org/Graphics/SVG/1.1/DTD/svg11.dtd">
<!-- Generated by graphviz version 2.43.0 (0)
 -->
<!-- Title: dg::file::MPINcHyperslab::MPINcHyperslab Pages: 1 -->
<svg width="473pt" height="86pt"
 viewBox="0.00 0.00 473.00 86.00" xmlns="http://www.w3.org/2000/svg" xmlns:xlink="http://www.w3.org/1999/xlink">
<g id="graph0" class="graph" transform="scale(1 1) rotate(0) translate(4 82)">
<title>dg::file::MPINcHyperslab::MPINcHyperslab</title>
<!-- Node1 -->
<g id="Node000001" class="node">
<title>Node1</title>
<g id="a_Node000001"><a xlink:title="{local_start(data) , local_size(data), data.communicator()}">
<polygon fill="#999999" stroke="#666666" points="137,-54 0,-54 0,-24 137,-24 137,-54"/>
<text text-anchor="start" x="8" y="-42" font-family="Helvetica,sans-Serif" font-size="10.00">dg::file::MPINcHyperslab</text>
<text text-anchor="middle" x="68.5" y="-31" font-family="Helvetica,sans-Serif" font-size="10.00">::MPINcHyperslab</text>
</a>
</g>
</g>
<!-- Node2 -->
<g id="Node000002" class="node">
<title>Node2</title>
<g id="a_Node000002"><a xlink:href="structdg_1_1file_1_1_m_p_i_nc_hyperslab.html#a41a1d9b7e71217587853ceb41fc21e89" target="_top" xlink:title=" ">
<polygon fill="white" stroke="#666666" points="310,-78 173,-78 173,-48 310,-48 310,-78"/>
<text text-anchor="start" x="181" y="-66" font-family="Helvetica,sans-Serif" font-size="10.00">dg::file::MPINcHyperslab</text>
<text text-anchor="middle" x="241.5" y="-55" font-family="Helvetica,sans-Serif" font-size="10.00">::count</text>
</a>
</g>
</g>
<!-- Node1&#45;&gt;Node2 -->
<g id="edge1_Node000001_Node000002" class="edge">
<title>Node1&#45;&gt;Node2</title>
<g id="a_edge1_Node000001_Node000002"><a xlink:title=" ">
<path fill="none" stroke="#63b8ff" d="M137.08,-48.49C145.54,-49.67 154.24,-50.89 162.83,-52.1"/>
<polygon fill="#63b8ff" stroke="#63b8ff" points="162.46,-55.58 172.85,-53.5 163.43,-48.65 162.46,-55.58"/>
</a>
</g>
</g>
<!-- Node4 -->
<g id="Node000004" class="node">
<title>Node4</title>
<g id="a_Node000004"><a xlink:href="structdg_1_1file_1_1_m_p_i_nc_hyperslab.html#aed474ae8efa49aa044e8212bf067f3d3" target="_top" xlink:title=" ">
<polygon fill="white" stroke="#666666" points="310,-30 173,-30 173,0 310,0 310,-30"/>
<text text-anchor="start" x="181" y="-18" font-family="Helvetica,sans-Serif" font-size="10.00">dg::file::MPINcHyperslab</text>
<text text-anchor="middle" x="241.5" y="-7" font-family="Helvetica,sans-Serif" font-size="10.00">::start</text>
</a>
</g>
</g>
<!-- Node1&#45;&gt;Node4 -->
<g id="edge3_Node000001_Node000004" class="edge">
<title>Node1&#45;&gt;Node4</title>
<g id="a_edge3_Node000001_Node000004"><a xlink:title=" ">
<path fill="none" stroke="#63b8ff" d="M137.08,-29.51C145.54,-28.33 154.24,-27.11 162.83,-25.9"/>
<polygon fill="#63b8ff" stroke="#63b8ff" points="163.43,-29.35 172.85,-24.5 162.46,-22.42 163.43,-29.35"/>
</a>
</g>
</g>
<!-- Node3 -->
<g id="Node000003" class="node">
<title>Node3</title>
<g id="a_Node000003"><a xlink:href="structdg_1_1file_1_1_nc_hyperslab.html#a5c121af1fcac4fadff4cdf288656a395" target="_top" xlink:title=" ">
<polygon fill="white" stroke="#666666" points="465,-78 346,-78 346,-48 465,-48 465,-78"/>
<text text-anchor="start" x="354" y="-66" font-family="Helvetica,sans-Serif" font-size="10.00">dg::file::NcHyperslab</text>
<text text-anchor="middle" x="405.5" y="-55" font-family="Helvetica,sans-Serif" font-size="10.00">::count</text>
</a>
</g>
</g>
<!-- Node2&#45;&gt;Node3 -->
<g id="edge2_Node000002_Node000003" class="edge">
<title>Node2&#45;&gt;Node3</title>
<g id="a_edge2_Node000002_Node000003"><a xlink:title=" ">
<path fill="none" stroke="#63b8ff" d="M310.26,-63C318.65,-63 327.22,-63 335.62,-63"/>
<polygon fill="#63b8ff" stroke="#63b8ff" points="335.76,-66.5 345.76,-63 335.76,-59.5 335.76,-66.5"/>
</a>
</g>
</g>
<!-- Node5 -->
<g id="Node000005" class="node">
<title>Node5</title>
<g id="a_Node000005"><a xlink:href="structdg_1_1file_1_1_nc_hyperslab.html#a5ff57cb7ef32ecba185f432a4b3c0f4b" target="_top" xlink:title=" ">
<polygon fill="white" stroke="#666666" points="465,-30 346,-30 346,0 465,0 465,-30"/>
<text text-anchor="start" x="354" y="-18" font-family="Helvetica,sans-Serif" font-size="10.00">dg::file::NcHyperslab</text>
<text text-anchor="middle" x="405.5" y="-7" font-family="Helvetica,sans-Serif" font-size="10.00">::start</text>
</a>
</g>
</g>
<!-- Node4&#45;&gt;Node5 -->
<g id="edge4_Node000004_Node000005" class="edge">
<title>Node4&#45;&gt;Node5</title>
<g id="a_edge4_Node000004_Node000005"><a xlink:title=" ">
<path fill="none" stroke="#63b8ff" d="M310.26,-15C318.65,-15 327.22,-15 335.62,-15"/>
<polygon fill="#63b8ff" stroke="#63b8ff" points="335.76,-18.5 345.76,-15 335.76,-11.5 335.76,-18.5"/>
</a>
</g>
</g>
</g>
</svg>
