<?xml version="1.0" encoding="UTF-8" standalone="no"?>
<!DOCTYPE svg PUBLIC "-//W3C//DTD SVG 1.1//EN"
 "http://www.w3.org/Graphics/SVG/1.1/DTD/svg11.dtd">
<!-- Generated by graphviz version 2.43.0 (0)
 -->
<!-- Title: dg::file::SerialNcFile::defput_var Pages: 1 -->
<svg width="425pt" height="134pt"
 viewBox="0.00 0.00 425.00 134.00" xmlns="http://www.w3.org/2000/svg" xmlns:xlink="http://www.w3.org/1999/xlink">
<g id="graph0" class="graph" transform="scale(1 1) rotate(0) translate(4 130)">
<title>dg::file::SerialNcFile::defput_var</title>
<!-- Node1 -->
<g id="Node000001" class="node">
<title>Node1</title>
<g id="a_Node000001"><a xlink:title="Define and put a variable in one go.">
<polygon fill="#999999" stroke="#666666" points="113,-102 0,-102 0,-72 113,-72 113,-102"/>
<text text-anchor="start" x="8" y="-90" font-family="Helvetica,sans-Serif" font-size="10.00">dg::file::SerialNcFile</text>
<text text-anchor="middle" x="56.5" y="-79" font-family="Helvetica,sans-Serif" font-size="10.00">::defput_var</text>
</a>
</g>
</g>
<!-- Node2 -->
<g id="Node000002" class="node">
<title>Node2</title>
<g id="a_Node000002"><a xlink:href="structdg_1_1file_1_1_serial_nc_file.html#ae39facbe44837171a715f55fe8bfa52e" target="_top" xlink:title="Define a variable with given type, dimensions and (optionally) attributes.">
<polygon fill="white" stroke="#666666" points="262,-126 149,-126 149,-96 262,-96 262,-126"/>
<text text-anchor="start" x="157" y="-114" font-family="Helvetica,sans-Serif" font-size="10.00">dg::file::SerialNcFile</text>
<text text-anchor="middle" x="205.5" y="-103" font-family="Helvetica,sans-Serif" font-size="10.00">::def_var_as</text>
</a>
</g>
</g>
<!-- Node1&#45;&gt;Node2 -->
<g id="edge1_Node000001_Node000002" class="edge">
<title>Node1&#45;&gt;Node2</title>
<g id="a_edge1_Node000001_Node000002"><a xlink:title=" ">
<path fill="none" stroke="#63b8ff" d="M113.07,-96.07C121.49,-97.45 130.24,-98.88 138.84,-100.28"/>
<polygon fill="#63b8ff" stroke="#63b8ff" points="138.41,-103.76 148.85,-101.91 139.54,-96.85 138.41,-103.76"/>
</a>
</g>
</g>
<!-- Node3 -->
<g id="Node000003" class="node">
<title>Node3</title>
<g id="a_Node000003"><a xlink:href="structdg_1_1file_1_1_serial_nc_file.html#ab4aac604038f5629578ca128acab8a94" target="_top" xlink:title="Write data to a variable.">
<polygon fill="white" stroke="#666666" points="262,-78 149,-78 149,-48 262,-48 262,-78"/>
<text text-anchor="start" x="157" y="-66" font-family="Helvetica,sans-Serif" font-size="10.00">dg::file::SerialNcFile</text>
<text text-anchor="middle" x="205.5" y="-55" font-family="Helvetica,sans-Serif" font-size="10.00">::put_var</text>
</a>
</g>
</g>
<!-- Node1&#45;&gt;Node3 -->
<g id="edge2_Node000001_Node000003" class="edge">
<title>Node1&#45;&gt;Node3</title>
<g id="a_edge2_Node000001_Node000003"><a xlink:title=" ">
<path fill="none" stroke="#63b8ff" d="M113.07,-77.93C121.49,-76.55 130.24,-75.12 138.84,-73.72"/>
<polygon fill="#63b8ff" stroke="#63b8ff" points="139.54,-77.15 148.85,-72.09 138.41,-70.24 139.54,-77.15"/>
</a>
</g>
</g>
<!-- Node4 -->
<g id="Node000004" class="node">
<title>Node4</title>
<g id="a_Node000004"><a xlink:href="structdg_1_1file_1_1_nc_hyperslab.html#a124f8ade60022bf87d97f8f371094a0b" target="_top" xlink:title=" ">
<polygon fill="white" stroke="#666666" points="417,-126 298,-126 298,-96 417,-96 417,-126"/>
<text text-anchor="start" x="306" y="-114" font-family="Helvetica,sans-Serif" font-size="10.00">dg::file::NcHyperslab</text>
<text text-anchor="middle" x="357.5" y="-103" font-family="Helvetica,sans-Serif" font-size="10.00">::countp</text>
</a>
</g>
</g>
<!-- Node3&#45;&gt;Node4 -->
<g id="edge3_Node000003_Node000004" class="edge">
<title>Node3&#45;&gt;Node4</title>
<g id="a_edge3_Node000003_Node000004"><a xlink:title=" ">
<path fill="none" stroke="#63b8ff" d="M253.55,-78.06C268.21,-82.75 284.53,-87.97 299.78,-92.85"/>
<polygon fill="#63b8ff" stroke="#63b8ff" points="299.03,-96.28 309.62,-96 301.16,-89.62 299.03,-96.28"/>
</a>
</g>
</g>
<!-- Node5 -->
<g id="Node000005" class="node">
<title>Node5</title>
<g id="a_Node000005"><a xlink:href="structdg_1_1file_1_1_nc_hyperslab.html#a687535de3bdcc001cb9c4a2a62ac4494" target="_top" xlink:title=" ">
<polygon fill="white" stroke="#666666" points="417,-78 298,-78 298,-48 417,-48 417,-78"/>
<text text-anchor="start" x="306" y="-66" font-family="Helvetica,sans-Serif" font-size="10.00">dg::file::NcHyperslab</text>
<text text-anchor="middle" x="357.5" y="-55" font-family="Helvetica,sans-Serif" font-size="10.00">::ndim</text>
</a>
</g>
</g>
<!-- Node3&#45;&gt;Node5 -->
<g id="edge4_Node000003_Node000005" class="edge">
<title>Node3&#45;&gt;Node5</title>
<g id="a_edge4_Node000003_Node000005"><a xlink:title=" ">
<path fill="none" stroke="#63b8ff" d="M262.35,-63C270.59,-63 279.15,-63 287.6,-63"/>
<polygon fill="#63b8ff" stroke="#63b8ff" points="287.84,-66.5 297.84,-63 287.84,-59.5 287.84,-66.5"/>
</a>
</g>
</g>
<!-- Node6 -->
<g id="Node000006" class="node">
<title>Node6</title>
<g id="a_Node000006"><a xlink:href="structdg_1_1file_1_1_nc_hyperslab.html#a5e0d5fb46ee1d14e37347223ffe75a2d" target="_top" xlink:title=" ">
<polygon fill="white" stroke="#666666" points="417,-30 298,-30 298,0 417,0 417,-30"/>
<text text-anchor="start" x="306" y="-18" font-family="Helvetica,sans-Serif" font-size="10.00">dg::file::NcHyperslab</text>
<text text-anchor="middle" x="357.5" y="-7" font-family="Helvetica,sans-Serif" font-size="10.00">::startp</text>
</a>
</g>
</g>
<!-- Node3&#45;&gt;Node6 -->
<g id="edge5_Node000003_Node000006" class="edge">
<title>Node3&#45;&gt;Node6</title>
<g id="a_edge5_Node000003_Node000006"><a xlink:title=" ">
<path fill="none" stroke="#63b8ff" d="M253.55,-47.94C268.21,-43.25 284.53,-38.03 299.78,-33.15"/>
<polygon fill="#63b8ff" stroke="#63b8ff" points="301.16,-36.38 309.62,-30 299.03,-29.72 301.16,-36.38"/>
</a>
</g>
</g>
</g>
</svg>
