<?xml version="1.0" encoding="UTF-8" standalone="no"?>
<!DOCTYPE svg PUBLIC "-//W3C//DTD SVG 1.1//EN"
 "http://www.w3.org/Graphics/SVG/1.1/DTD/svg11.dtd">
<!-- Generated by graphviz version 2.43.0 (0)
 -->
<!-- Title: dg::file::MPINcFile::defput_dim Pages: 1 -->
<svg width="550pt" height="110pt"
 viewBox="0.00 0.00 550.00 110.00" xmlns="http://www.w3.org/2000/svg" xmlns:xlink="http://www.w3.org/1999/xlink">
<g id="graph0" class="graph" transform="scale(1 1) rotate(0) translate(4 106)">
<title>dg::file::MPINcFile::defput_dim</title>
<!-- Node1 -->
<g id="Node000001" class="node">
<title>Node1</title>
<g id="a_Node000001"><a xlink:title="Define a dimension and define and write to a dimension variable in one go.">
<polygon fill="#999999" stroke="#666666" points="104,-54 0,-54 0,-24 104,-24 104,-54"/>
<text text-anchor="start" x="8" y="-42" font-family="Helvetica,sans-Serif" font-size="10.00">dg::file::MPINcFile</text>
<text text-anchor="middle" x="52" y="-31" font-family="Helvetica,sans-Serif" font-size="10.00">::defput_dim</text>
</a>
</g>
</g>
<!-- Node2 -->
<g id="Node000002" class="node">
<title>Node2</title>
<g id="a_Node000002"><a xlink:href="structdg_1_1file_1_1_m_p_i_nc_file.html#ae1c01f5cf648af661fcfe65438201c35" target="_top" xlink:title="Define a dimension and dimension variable in one go.">
<polygon fill="white" stroke="#666666" points="244,-78 140,-78 140,-48 244,-48 244,-78"/>
<text text-anchor="start" x="148" y="-66" font-family="Helvetica,sans-Serif" font-size="10.00">dg::file::MPINcFile</text>
<text text-anchor="middle" x="192" y="-55" font-family="Helvetica,sans-Serif" font-size="10.00">::def_dimvar_as</text>
</a>
</g>
</g>
<!-- Node1&#45;&gt;Node2 -->
<g id="edge1_Node000001_Node000002" class="edge">
<title>Node1&#45;&gt;Node2</title>
<g id="a_edge1_Node000001_Node000002"><a xlink:title=" ">
<path fill="none" stroke="#63b8ff" d="M104.39,-47.94C112.56,-49.36 121.08,-50.84 129.46,-52.3"/>
<polygon fill="#63b8ff" stroke="#63b8ff" points="129.12,-55.79 139.57,-54.06 130.32,-48.89 129.12,-55.79"/>
</a>
</g>
</g>
<!-- Node6 -->
<g id="Node000006" class="node">
<title>Node6</title>
<g id="a_Node000006"><a xlink:href="structdg_1_1file_1_1_m_p_i_nc_file.html#a491de7aac14cf3f245168c96f54ae06a" target="_top" xlink:title="Write data to a variable.">
<polygon fill="white" stroke="#666666" points="244,-30 140,-30 140,0 244,0 244,-30"/>
<text text-anchor="start" x="148" y="-18" font-family="Helvetica,sans-Serif" font-size="10.00">dg::file::MPINcFile</text>
<text text-anchor="middle" x="192" y="-7" font-family="Helvetica,sans-Serif" font-size="10.00">::put_var</text>
</a>
</g>
</g>
<!-- Node1&#45;&gt;Node6 -->
<g id="edge5_Node000001_Node000006" class="edge">
<title>Node1&#45;&gt;Node6</title>
<g id="a_edge5_Node000001_Node000006"><a xlink:title=" ">
<path fill="none" stroke="#63b8ff" d="M104.39,-30.06C112.56,-28.64 121.08,-27.16 129.46,-25.7"/>
<polygon fill="#63b8ff" stroke="#63b8ff" points="130.32,-29.11 139.57,-23.94 129.12,-22.21 130.32,-29.11"/>
</a>
</g>
</g>
<!-- Node3 -->
<g id="Node000003" class="node">
<title>Node3</title>
<g id="a_Node000003"><a xlink:href="structdg_1_1file_1_1_serial_nc_file.html#ad063d7e0b6998a7eafe7734781c50ade" target="_top" xlink:title="Define a dimension and dimension variable in one go.">
<polygon fill="white" stroke="#666666" points="393,-78 280,-78 280,-48 393,-48 393,-78"/>
<text text-anchor="start" x="288" y="-66" font-family="Helvetica,sans-Serif" font-size="10.00">dg::file::SerialNcFile</text>
<text text-anchor="middle" x="336.5" y="-55" font-family="Helvetica,sans-Serif" font-size="10.00">::def_dimvar_as</text>
</a>
</g>
</g>
<!-- Node2&#45;&gt;Node3 -->
<g id="edge2_Node000002_Node000003" class="edge">
<title>Node2&#45;&gt;Node3</title>
<g id="a_edge2_Node000002_Node000003"><a xlink:title=" ">
<path fill="none" stroke="#63b8ff" d="M244.04,-63C252.42,-63 261.21,-63 269.89,-63"/>
<polygon fill="#63b8ff" stroke="#63b8ff" points="269.99,-66.5 279.99,-63 269.99,-59.5 269.99,-66.5"/>
</a>
</g>
</g>
<!-- Node4 -->
<g id="Node000004" class="node">
<title>Node4</title>
<g id="a_Node000004"><a xlink:href="structdg_1_1file_1_1_serial_nc_file.html#a7e6d005109a47d4c17ede892b6379d3f" target="_top" xlink:title="Define a dimension named name of size size.">
<polygon fill="white" stroke="#666666" points="542,-102 429,-102 429,-72 542,-72 542,-102"/>
<text text-anchor="start" x="437" y="-90" font-family="Helvetica,sans-Serif" font-size="10.00">dg::file::SerialNcFile</text>
<text text-anchor="middle" x="485.5" y="-79" font-family="Helvetica,sans-Serif" font-size="10.00">::def_dim</text>
</a>
</g>
</g>
<!-- Node3&#45;&gt;Node4 -->
<g id="edge3_Node000003_Node000004" class="edge">
<title>Node3&#45;&gt;Node4</title>
<g id="a_edge3_Node000003_Node000004"><a xlink:title=" ">
<path fill="none" stroke="#63b8ff" d="M393.07,-72.07C401.49,-73.45 410.24,-74.88 418.84,-76.28"/>
<polygon fill="#63b8ff" stroke="#63b8ff" points="418.41,-79.76 428.85,-77.91 419.54,-72.85 418.41,-79.76"/>
</a>
</g>
</g>
<!-- Node5 -->
<g id="Node000005" class="node">
<title>Node5</title>
<g id="a_Node000005"><a xlink:href="structdg_1_1file_1_1_serial_nc_file.html#ae39facbe44837171a715f55fe8bfa52e" target="_top" xlink:title="Define a variable with given type, dimensions and (optionally) attributes.">
<polygon fill="white" stroke="#666666" points="542,-54 429,-54 429,-24 542,-24 542,-54"/>
<text text-anchor="start" x="437" y="-42" font-family="Helvetica,sans-Serif" font-size="10.00">dg::file::SerialNcFile</text>
<text text-anchor="middle" x="485.5" y="-31" font-family="Helvetica,sans-Serif" font-size="10.00">::def_var_as</text>
</a>
</g>
</g>
<!-- Node3&#45;&gt;Node5 -->
<g id="edge4_Node000003_Node000005" class="edge">
<title>Node3&#45;&gt;Node5</title>
<g id="a_edge4_Node000003_Node000005"><a xlink:title=" ">
<path fill="none" stroke="#63b8ff" d="M393.07,-53.93C401.49,-52.55 410.24,-51.12 418.84,-49.72"/>
<polygon fill="#63b8ff" stroke="#63b8ff" points="419.54,-53.15 428.85,-48.09 418.41,-46.24 419.54,-53.15"/>
</a>
</g>
</g>
<!-- Node7 -->
<g id="Node000007" class="node">
<title>Node7</title>
<g id="a_Node000007"><a xlink:href="structdg_1_1file_1_1_serial_nc_file.html#a8a4737691d422e1cc31976523fcc29df" target="_top" xlink:title="Get the NetCDF&#45;C ID of the current group.">
<polygon fill="white" stroke="#666666" points="393,-30 280,-30 280,0 393,0 393,-30"/>
<text text-anchor="start" x="288" y="-18" font-family="Helvetica,sans-Serif" font-size="10.00">dg::file::SerialNcFile</text>
<text text-anchor="middle" x="336.5" y="-7" font-family="Helvetica,sans-Serif" font-size="10.00">::get_grpid</text>
</a>
</g>
</g>
<!-- Node6&#45;&gt;Node7 -->
<g id="edge6_Node000006_Node000007" class="edge">
<title>Node6&#45;&gt;Node7</title>
<g id="a_edge6_Node000006_Node000007"><a xlink:title=" ">
<path fill="none" stroke="#63b8ff" d="M244.04,-15C252.42,-15 261.21,-15 269.89,-15"/>
<polygon fill="#63b8ff" stroke="#63b8ff" points="269.99,-18.5 279.99,-15 269.99,-11.5 269.99,-18.5"/>
</a>
</g>
</g>
</g>
</svg>
