<?xml version="1.0" encoding="UTF-8" standalone="no"?>
<!DOCTYPE svg PUBLIC "-//W3C//DTD SVG 1.1//EN"
 "http://www.w3.org/Graphics/SVG/1.1/DTD/svg11.dtd">
<!-- Generated by graphviz version 2.43.0 (0)
 -->
<!-- Title: dg::file::SerialNcFile::get_var Pages: 1 -->
<svg width="276pt" height="182pt"
 viewBox="0.00 0.00 276.00 182.00" xmlns="http://www.w3.org/2000/svg" xmlns:xlink="http://www.w3.org/1999/xlink">
<g id="graph0" class="graph" transform="scale(1 1) rotate(0) translate(4 178)">
<title>dg::file::SerialNcFile::get_var</title>
<!-- Node1 -->
<g id="Node000001" class="node">
<title>Node1</title>
<g id="a_Node000001"><a xlink:title="Read hyperslab slab from variable named name into container data.">
<polygon fill="#999999" stroke="#666666" points="113,-102 0,-102 0,-72 113,-72 113,-102"/>
<text text-anchor="start" x="8" y="-90" font-family="Helvetica,sans-Serif" font-size="10.00">dg::file::SerialNcFile</text>
<text text-anchor="middle" x="56.5" y="-79" font-family="Helvetica,sans-Serif" font-size="10.00">::get_var</text>
</a>
</g>
</g>
<!-- Node2 -->
<g id="Node000002" class="node">
<title>Node2</title>
<g id="a_Node000002"><a xlink:href="structdg_1_1file_1_1_nc_hyperslab.html#a5c121af1fcac4fadff4cdf288656a395" target="_top" xlink:title=" ">
<polygon fill="white" stroke="#666666" points="268,-174 149,-174 149,-144 268,-144 268,-174"/>
<text text-anchor="start" x="157" y="-162" font-family="Helvetica,sans-Serif" font-size="10.00">dg::file::NcHyperslab</text>
<text text-anchor="middle" x="208.5" y="-151" font-family="Helvetica,sans-Serif" font-size="10.00">::count</text>
</a>
</g>
</g>
<!-- Node1&#45;&gt;Node2 -->
<g id="edge1_Node000001_Node000002" class="edge">
<title>Node1&#45;&gt;Node2</title>
<g id="a_edge1_Node000001_Node000002"><a xlink:title=" ">
<path fill="none" stroke="#63b8ff" d="M84.79,-102.18C102.81,-111.98 127.05,-124.77 149,-135 152.54,-136.65 156.22,-138.3 159.94,-139.93"/>
<polygon fill="#63b8ff" stroke="#63b8ff" points="158.63,-143.17 169.2,-143.89 161.38,-136.74 158.63,-143.17"/>
</a>
</g>
</g>
<!-- Node3 -->
<g id="Node000003" class="node">
<title>Node3</title>
<g id="a_Node000003"><a xlink:href="structdg_1_1file_1_1_nc_hyperslab.html#a124f8ade60022bf87d97f8f371094a0b" target="_top" xlink:title=" ">
<polygon fill="white" stroke="#666666" points="268,-126 149,-126 149,-96 268,-96 268,-126"/>
<text text-anchor="start" x="157" y="-114" font-family="Helvetica,sans-Serif" font-size="10.00">dg::file::NcHyperslab</text>
<text text-anchor="middle" x="208.5" y="-103" font-family="Helvetica,sans-Serif" font-size="10.00">::countp</text>
</a>
</g>
</g>
<!-- Node1&#45;&gt;Node3 -->
<g id="edge2_Node000001_Node000003" class="edge">
<title>Node1&#45;&gt;Node3</title>
<g id="a_edge2_Node000001_Node000003"><a xlink:title=" ">
<path fill="none" stroke="#63b8ff" d="M113.35,-95.94C121.68,-97.27 130.33,-98.65 138.88,-100.02"/>
<polygon fill="#63b8ff" stroke="#63b8ff" points="138.41,-103.49 148.84,-101.61 139.52,-96.58 138.41,-103.49"/>
</a>
</g>
</g>
<!-- Node4 -->
<g id="Node000004" class="node">
<title>Node4</title>
<g id="a_Node000004"><a xlink:href="structdg_1_1file_1_1_nc_hyperslab.html#a687535de3bdcc001cb9c4a2a62ac4494" target="_top" xlink:title=" ">
<polygon fill="white" stroke="#666666" points="268,-78 149,-78 149,-48 268,-48 268,-78"/>
<text text-anchor="start" x="157" y="-66" font-family="Helvetica,sans-Serif" font-size="10.00">dg::file::NcHyperslab</text>
<text text-anchor="middle" x="208.5" y="-55" font-family="Helvetica,sans-Serif" font-size="10.00">::ndim</text>
</a>
</g>
</g>
<!-- Node1&#45;&gt;Node4 -->
<g id="edge3_Node000001_Node000004" class="edge">
<title>Node1&#45;&gt;Node4</title>
<g id="a_edge3_Node000001_Node000004"><a xlink:title=" ">
<path fill="none" stroke="#63b8ff" d="M113.35,-78.06C121.68,-76.73 130.33,-75.35 138.88,-73.98"/>
<polygon fill="#63b8ff" stroke="#63b8ff" points="139.52,-77.42 148.84,-72.39 138.41,-70.51 139.52,-77.42"/>
</a>
</g>
</g>
<!-- Node5 -->
<g id="Node000005" class="node">
<title>Node5</title>
<g id="a_Node000005"><a xlink:href="structdg_1_1file_1_1_nc_hyperslab.html#a5e0d5fb46ee1d14e37347223ffe75a2d" target="_top" xlink:title=" ">
<polygon fill="white" stroke="#666666" points="268,-30 149,-30 149,0 268,0 268,-30"/>
<text text-anchor="start" x="157" y="-18" font-family="Helvetica,sans-Serif" font-size="10.00">dg::file::NcHyperslab</text>
<text text-anchor="middle" x="208.5" y="-7" font-family="Helvetica,sans-Serif" font-size="10.00">::startp</text>
</a>
</g>
</g>
<!-- Node1&#45;&gt;Node5 -->
<g id="edge4_Node000001_Node000005" class="edge">
<title>Node1&#45;&gt;Node5</title>
<g id="a_edge4_Node000001_Node000005"><a xlink:title=" ">
<path fill="none" stroke="#63b8ff" d="M84.79,-71.82C102.81,-62.02 127.05,-49.23 149,-39 152.54,-37.35 156.22,-35.7 159.94,-34.07"/>
<polygon fill="#63b8ff" stroke="#63b8ff" points="161.38,-37.26 169.2,-30.11 158.63,-30.83 161.38,-37.26"/>
</a>
</g>
</g>
</g>
</svg>
