<?xml version="1.0" encoding="UTF-8" standalone="no"?>
<!DOCTYPE svg PUBLIC "-//W3C//DTD SVG 1.1//EN"
 "http://www.w3.org/Graphics/SVG/1.1/DTD/svg11.dtd">
<!-- Generated by graphviz version 2.43.0 (0)
 -->
<!-- Title: dg::file::MPINcFile::get_var Pages: 1 -->
<svg width="416pt" height="182pt"
 viewBox="0.00 0.00 416.00 182.00" xmlns="http://www.w3.org/2000/svg" xmlns:xlink="http://www.w3.org/1999/xlink">
<g id="graph0" class="graph" transform="scale(1 1) rotate(0) translate(4 178)">
<title>dg::file::MPINcFile::get_var</title>
<!-- Node1 -->
<g id="Node000001" class="node">
<title>Node1</title>
<g id="a_Node000001"><a xlink:title="Read scalar from position start from variable named name.">
<polygon fill="#999999" stroke="#666666" points="104,-102 0,-102 0,-72 104,-72 104,-102"/>
<text text-anchor="start" x="8" y="-90" font-family="Helvetica,sans-Serif" font-size="10.00">dg::file::MPINcFile</text>
<text text-anchor="middle" x="52" y="-79" font-family="Helvetica,sans-Serif" font-size="10.00">::get_var</text>
</a>
</g>
</g>
<!-- Node2 -->
<g id="Node000002" class="node">
<title>Node2</title>
<g id="a_Node000002"><a xlink:href="structdg_1_1file_1_1_serial_nc_file.html#a804b685267b51a1c715e5136eb1c6088" target="_top" xlink:title="Read hyperslab slab from variable named name into container data.">
<polygon fill="white" stroke="#666666" points="253,-102 140,-102 140,-72 253,-72 253,-102"/>
<text text-anchor="start" x="148" y="-90" font-family="Helvetica,sans-Serif" font-size="10.00">dg::file::SerialNcFile</text>
<text text-anchor="middle" x="196.5" y="-79" font-family="Helvetica,sans-Serif" font-size="10.00">::get_var</text>
</a>
</g>
</g>
<!-- Node1&#45;&gt;Node2 -->
<g id="edge1_Node000001_Node000002" class="edge">
<title>Node1&#45;&gt;Node2</title>
<g id="a_edge1_Node000001_Node000002"><a xlink:title=" ">
<path fill="none" stroke="#63b8ff" d="M104.04,-87C112.42,-87 121.21,-87 129.89,-87"/>
<polygon fill="#63b8ff" stroke="#63b8ff" points="129.99,-90.5 139.99,-87 129.99,-83.5 129.99,-90.5"/>
</a>
</g>
</g>
<!-- Node3 -->
<g id="Node000003" class="node">
<title>Node3</title>
<g id="a_Node000003"><a xlink:href="structdg_1_1file_1_1_nc_hyperslab.html#a5c121af1fcac4fadff4cdf288656a395" target="_top" xlink:title=" ">
<polygon fill="white" stroke="#666666" points="408,-174 289,-174 289,-144 408,-144 408,-174"/>
<text text-anchor="start" x="297" y="-162" font-family="Helvetica,sans-Serif" font-size="10.00">dg::file::NcHyperslab</text>
<text text-anchor="middle" x="348.5" y="-151" font-family="Helvetica,sans-Serif" font-size="10.00">::count</text>
</a>
</g>
</g>
<!-- Node2&#45;&gt;Node3 -->
<g id="edge2_Node000002_Node000003" class="edge">
<title>Node2&#45;&gt;Node3</title>
<g id="a_edge2_Node000002_Node000003"><a xlink:title=" ">
<path fill="none" stroke="#63b8ff" d="M224.79,-102.18C242.81,-111.98 267.05,-124.77 289,-135 292.54,-136.65 296.22,-138.3 299.94,-139.93"/>
<polygon fill="#63b8ff" stroke="#63b8ff" points="298.63,-143.17 309.2,-143.89 301.38,-136.74 298.63,-143.17"/>
</a>
</g>
</g>
<!-- Node4 -->
<g id="Node000004" class="node">
<title>Node4</title>
<g id="a_Node000004"><a xlink:href="structdg_1_1file_1_1_nc_hyperslab.html#a124f8ade60022bf87d97f8f371094a0b" target="_top" xlink:title=" ">
<polygon fill="white" stroke="#666666" points="408,-126 289,-126 289,-96 408,-96 408,-126"/>
<text text-anchor="start" x="297" y="-114" font-family="Helvetica,sans-Serif" font-size="10.00">dg::file::NcHyperslab</text>
<text text-anchor="middle" x="348.5" y="-103" font-family="Helvetica,sans-Serif" font-size="10.00">::countp</text>
</a>
</g>
</g>
<!-- Node2&#45;&gt;Node4 -->
<g id="edge3_Node000002_Node000004" class="edge">
<title>Node2&#45;&gt;Node4</title>
<g id="a_edge3_Node000002_Node000004"><a xlink:title=" ">
<path fill="none" stroke="#63b8ff" d="M253.35,-95.94C261.68,-97.27 270.33,-98.65 278.88,-100.02"/>
<polygon fill="#63b8ff" stroke="#63b8ff" points="278.41,-103.49 288.84,-101.61 279.52,-96.58 278.41,-103.49"/>
</a>
</g>
</g>
<!-- Node5 -->
<g id="Node000005" class="node">
<title>Node5</title>
<g id="a_Node000005"><a xlink:href="structdg_1_1file_1_1_nc_hyperslab.html#a687535de3bdcc001cb9c4a2a62ac4494" target="_top" xlink:title=" ">
<polygon fill="white" stroke="#666666" points="408,-78 289,-78 289,-48 408,-48 408,-78"/>
<text text-anchor="start" x="297" y="-66" font-family="Helvetica,sans-Serif" font-size="10.00">dg::file::NcHyperslab</text>
<text text-anchor="middle" x="348.5" y="-55" font-family="Helvetica,sans-Serif" font-size="10.00">::ndim</text>
</a>
</g>
</g>
<!-- Node2&#45;&gt;Node5 -->
<g id="edge4_Node000002_Node000005" class="edge">
<title>Node2&#45;&gt;Node5</title>
<g id="a_edge4_Node000002_Node000005"><a xlink:title=" ">
<path fill="none" stroke="#63b8ff" d="M253.35,-78.06C261.68,-76.73 270.33,-75.35 278.88,-73.98"/>
<polygon fill="#63b8ff" stroke="#63b8ff" points="279.52,-77.42 288.84,-72.39 278.41,-70.51 279.52,-77.42"/>
</a>
</g>
</g>
<!-- Node6 -->
<g id="Node000006" class="node">
<title>Node6</title>
<g id="a_Node000006"><a xlink:href="structdg_1_1file_1_1_nc_hyperslab.html#a5e0d5fb46ee1d14e37347223ffe75a2d" target="_top" xlink:title=" ">
<polygon fill="white" stroke="#666666" points="408,-30 289,-30 289,0 408,0 408,-30"/>
<text text-anchor="start" x="297" y="-18" font-family="Helvetica,sans-Serif" font-size="10.00">dg::file::NcHyperslab</text>
<text text-anchor="middle" x="348.5" y="-7" font-family="Helvetica,sans-Serif" font-size="10.00">::startp</text>
</a>
</g>
</g>
<!-- Node2&#45;&gt;Node6 -->
<g id="edge5_Node000002_Node000006" class="edge">
<title>Node2&#45;&gt;Node6</title>
<g id="a_edge5_Node000002_Node000006"><a xlink:title=" ">
<path fill="none" stroke="#63b8ff" d="M224.79,-71.82C242.81,-62.02 267.05,-49.23 289,-39 292.54,-37.35 296.22,-35.7 299.94,-34.07"/>
<polygon fill="#63b8ff" stroke="#63b8ff" points="301.38,-37.26 309.2,-30.11 298.63,-30.83 301.38,-37.26"/>
</a>
</g>
</g>
</g>
</svg>
