<?xml version="1.0" encoding="UTF-8" standalone="no"?>
<!DOCTYPE svg PUBLIC "-//W3C//DTD SVG 1.1//EN"
 "http://www.w3.org/Graphics/SVG/1.1/DTD/svg11.dtd">
<!-- Generated by graphviz version 2.43.0 (0)
 -->
<!-- Title: dg::file::MPINcFile::get_var Pages: 1 -->
<svg width="440pt" height="278pt"
 viewBox="0.00 0.00 440.00 278.00" xmlns="http://www.w3.org/2000/svg" xmlns:xlink="http://www.w3.org/1999/xlink">
<g id="graph0" class="graph" transform="scale(1 1) rotate(0) translate(4 274)">
<title>dg::file::MPINcFile::get_var</title>
<!-- Node1 -->
<g id="Node000001" class="node">
<title>Node1</title>
<g id="a_Node000001"><a xlink:title="Read hyperslab slab from variable named name into container data.">
<polygon fill="#999999" stroke="#666666" points="104,-150 0,-150 0,-120 104,-120 104,-150"/>
<text text-anchor="start" x="8" y="-138" font-family="Helvetica,sans-Serif" font-size="10.00">dg::file::MPINcFile</text>
<text text-anchor="middle" x="52" y="-127" font-family="Helvetica,sans-Serif" font-size="10.00">::get_var</text>
</a>
</g>
</g>
<!-- Node2 -->
<g id="Node000002" class="node">
<title>Node2</title>
<g id="a_Node000002"><a xlink:href="structdg_1_1file_1_1_m_p_i_nc_hyperslab.html#a301e6c8e3a9041c0802acc742879d689" target="_top" xlink:title=" ">
<polygon fill="white" stroke="#666666" points="277,-270 140,-270 140,-240 277,-240 277,-270"/>
<text text-anchor="start" x="148" y="-258" font-family="Helvetica,sans-Serif" font-size="10.00">dg::file::MPINcHyperslab</text>
<text text-anchor="middle" x="208.5" y="-247" font-family="Helvetica,sans-Serif" font-size="10.00">::communicator</text>
</a>
</g>
</g>
<!-- Node1&#45;&gt;Node2 -->
<g id="edge1_Node000001_Node000002" class="edge">
<title>Node1&#45;&gt;Node2</title>
<g id="a_edge1_Node000001_Node000002"><a xlink:title=" ">
<path fill="none" stroke="#63b8ff" d="M63.03,-150.12C77.64,-171.05 106.69,-208.79 140,-231 142.38,-232.58 144.87,-234.08 147.44,-235.48"/>
<polygon fill="#63b8ff" stroke="#63b8ff" points="145.9,-238.63 156.42,-239.93 149.01,-232.36 145.9,-238.63"/>
</a>
</g>
</g>
<!-- Node3 -->
<g id="Node000003" class="node">
<title>Node3</title>
<g id="a_Node000003"><a xlink:href="structdg_1_1file_1_1_m_p_i_nc_hyperslab.html#a9ca1ce39825c32cce4c90694308096ef" target="_top" xlink:title=" ">
<polygon fill="white" stroke="#666666" points="277,-222 140,-222 140,-192 277,-192 277,-222"/>
<text text-anchor="start" x="148" y="-210" font-family="Helvetica,sans-Serif" font-size="10.00">dg::file::MPINcHyperslab</text>
<text text-anchor="middle" x="208.5" y="-199" font-family="Helvetica,sans-Serif" font-size="10.00">::count</text>
</a>
</g>
</g>
<!-- Node1&#45;&gt;Node3 -->
<g id="edge2_Node000001_Node000003" class="edge">
<title>Node1&#45;&gt;Node3</title>
<g id="a_edge2_Node000001_Node000003"><a xlink:title=" ">
<path fill="none" stroke="#63b8ff" d="M77.95,-150.19C95.05,-160.24 118.45,-173.3 140,-183 144.07,-184.83 148.32,-186.62 152.62,-188.34"/>
<polygon fill="#63b8ff" stroke="#63b8ff" points="151.49,-191.65 162.07,-191.99 154.01,-185.12 151.49,-191.65"/>
</a>
</g>
</g>
<!-- Node5 -->
<g id="Node000005" class="node">
<title>Node5</title>
<g id="a_Node000005"><a xlink:href="structdg_1_1file_1_1_m_p_i_nc_hyperslab.html#a154eecf30bd291bc8e4a89ddaba1d82e" target="_top" xlink:title=" ">
<polygon fill="white" stroke="#666666" points="277,-174 140,-174 140,-144 277,-144 277,-174"/>
<text text-anchor="start" x="148" y="-162" font-family="Helvetica,sans-Serif" font-size="10.00">dg::file::MPINcHyperslab</text>
<text text-anchor="middle" x="208.5" y="-151" font-family="Helvetica,sans-Serif" font-size="10.00">::countp</text>
</a>
</g>
</g>
<!-- Node1&#45;&gt;Node5 -->
<g id="edge4_Node000001_Node000005" class="edge">
<title>Node1&#45;&gt;Node5</title>
<g id="a_edge4_Node000001_Node000005"><a xlink:title=" ">
<path fill="none" stroke="#63b8ff" d="M104.02,-142.93C112.23,-144.2 120.89,-145.55 129.56,-146.89"/>
<polygon fill="#63b8ff" stroke="#63b8ff" points="129.31,-150.4 139.73,-148.47 130.38,-143.48 129.31,-150.4"/>
</a>
</g>
</g>
<!-- Node7 -->
<g id="Node000007" class="node">
<title>Node7</title>
<g id="a_Node000007"><a xlink:href="structdg_1_1file_1_1_serial_nc_file.html#a8a4737691d422e1cc31976523fcc29df" target="_top" xlink:title="Get the NetCDF&#45;C ID of the current group.">
<polygon fill="white" stroke="#666666" points="265,-126 152,-126 152,-96 265,-96 265,-126"/>
<text text-anchor="start" x="160" y="-114" font-family="Helvetica,sans-Serif" font-size="10.00">dg::file::SerialNcFile</text>
<text text-anchor="middle" x="208.5" y="-103" font-family="Helvetica,sans-Serif" font-size="10.00">::get_grpid</text>
</a>
</g>
</g>
<!-- Node1&#45;&gt;Node7 -->
<g id="edge6_Node000001_Node000007" class="edge">
<title>Node1&#45;&gt;Node7</title>
<g id="a_edge6_Node000001_Node000007"><a xlink:title=" ">
<path fill="none" stroke="#63b8ff" d="M104.02,-127.07C116.09,-125.2 129.12,-123.18 141.74,-121.22"/>
<polygon fill="#63b8ff" stroke="#63b8ff" points="142.4,-124.65 151.74,-119.66 141.33,-117.74 142.4,-124.65"/>
</a>
</g>
</g>
<!-- Node8 -->
<g id="Node000008" class="node">
<title>Node8</title>
<g id="a_Node000008"><a xlink:href="structdg_1_1file_1_1_m_p_i_nc_hyperslab.html#ab6e56753a76aef6c5df5c5d060181dad" target="_top" xlink:title=" ">
<polygon fill="white" stroke="#666666" points="277,-78 140,-78 140,-48 277,-48 277,-78"/>
<text text-anchor="start" x="148" y="-66" font-family="Helvetica,sans-Serif" font-size="10.00">dg::file::MPINcHyperslab</text>
<text text-anchor="middle" x="208.5" y="-55" font-family="Helvetica,sans-Serif" font-size="10.00">::ndim</text>
</a>
</g>
</g>
<!-- Node1&#45;&gt;Node8 -->
<g id="edge7_Node000001_Node000008" class="edge">
<title>Node1&#45;&gt;Node8</title>
<g id="a_edge7_Node000001_Node000008"><a xlink:title=" ">
<path fill="none" stroke="#63b8ff" d="M77.95,-119.81C95.05,-109.76 118.45,-96.7 140,-87 144.07,-85.17 148.32,-83.38 152.62,-81.66"/>
<polygon fill="#63b8ff" stroke="#63b8ff" points="154.01,-84.88 162.07,-78.01 151.49,-78.35 154.01,-84.88"/>
</a>
</g>
</g>
<!-- Node10 -->
<g id="Node000010" class="node">
<title>Node10</title>
<g id="a_Node000010"><a xlink:href="structdg_1_1file_1_1_m_p_i_nc_hyperslab.html#a2a93c7117c5f7967fe42a9139ca73c9d" target="_top" xlink:title=" ">
<polygon fill="white" stroke="#666666" points="277,-30 140,-30 140,0 277,0 277,-30"/>
<text text-anchor="start" x="148" y="-18" font-family="Helvetica,sans-Serif" font-size="10.00">dg::file::MPINcHyperslab</text>
<text text-anchor="middle" x="208.5" y="-7" font-family="Helvetica,sans-Serif" font-size="10.00">::startp</text>
</a>
</g>
</g>
<!-- Node1&#45;&gt;Node10 -->
<g id="edge9_Node000001_Node000010" class="edge">
<title>Node1&#45;&gt;Node10</title>
<g id="a_edge9_Node000001_Node000010"><a xlink:title=" ">
<path fill="none" stroke="#63b8ff" d="M63.03,-119.88C77.64,-98.95 106.69,-61.21 140,-39 142.38,-37.42 144.87,-35.92 147.44,-34.52"/>
<polygon fill="#63b8ff" stroke="#63b8ff" points="149.01,-37.64 156.42,-30.07 145.9,-31.37 149.01,-37.64"/>
</a>
</g>
</g>
<!-- Node4 -->
<g id="Node000004" class="node">
<title>Node4</title>
<g id="a_Node000004"><a xlink:href="structdg_1_1file_1_1_nc_hyperslab.html#a5c121af1fcac4fadff4cdf288656a395" target="_top" xlink:title=" ">
<polygon fill="white" stroke="#666666" points="432,-222 313,-222 313,-192 432,-192 432,-222"/>
<text text-anchor="start" x="321" y="-210" font-family="Helvetica,sans-Serif" font-size="10.00">dg::file::NcHyperslab</text>
<text text-anchor="middle" x="372.5" y="-199" font-family="Helvetica,sans-Serif" font-size="10.00">::count</text>
</a>
</g>
</g>
<!-- Node3&#45;&gt;Node4 -->
<g id="edge3_Node000003_Node000004" class="edge">
<title>Node3&#45;&gt;Node4</title>
<g id="a_edge3_Node000003_Node000004"><a xlink:title=" ">
<path fill="none" stroke="#63b8ff" d="M277.26,-207C285.65,-207 294.22,-207 302.62,-207"/>
<polygon fill="#63b8ff" stroke="#63b8ff" points="302.76,-210.5 312.76,-207 302.76,-203.5 302.76,-210.5"/>
</a>
</g>
</g>
<!-- Node6 -->
<g id="Node000006" class="node">
<title>Node6</title>
<g id="a_Node000006"><a xlink:href="structdg_1_1file_1_1_nc_hyperslab.html#a124f8ade60022bf87d97f8f371094a0b" target="_top" xlink:title=" ">
<polygon fill="white" stroke="#666666" points="432,-174 313,-174 313,-144 432,-144 432,-174"/>
<text text-anchor="start" x="321" y="-162" font-family="Helvetica,sans-Serif" font-size="10.00">dg::file::NcHyperslab</text>
<text text-anchor="middle" x="372.5" y="-151" font-family="Helvetica,sans-Serif" font-size="10.00">::countp</text>
</a>
</g>
</g>
<!-- Node5&#45;&gt;Node6 -->
<g id="edge5_Node000005_Node000006" class="edge">
<title>Node5&#45;&gt;Node6</title>
<g id="a_edge5_Node000005_Node000006"><a xlink:title=" ">
<path fill="none" stroke="#63b8ff" d="M277.26,-159C285.65,-159 294.22,-159 302.62,-159"/>
<polygon fill="#63b8ff" stroke="#63b8ff" points="302.76,-162.5 312.76,-159 302.76,-155.5 302.76,-162.5"/>
</a>
</g>
</g>
<!-- Node9 -->
<g id="Node000009" class="node">
<title>Node9</title>
<g id="a_Node000009"><a xlink:href="structdg_1_1file_1_1_nc_hyperslab.html#a687535de3bdcc001cb9c4a2a62ac4494" target="_top" xlink:title=" ">
<polygon fill="white" stroke="#666666" points="432,-78 313,-78 313,-48 432,-48 432,-78"/>
<text text-anchor="start" x="321" y="-66" font-family="Helvetica,sans-Serif" font-size="10.00">dg::file::NcHyperslab</text>
<text text-anchor="middle" x="372.5" y="-55" font-family="Helvetica,sans-Serif" font-size="10.00">::ndim</text>
</a>
</g>
</g>
<!-- Node8&#45;&gt;Node9 -->
<g id="edge8_Node000008_Node000009" class="edge">
<title>Node8&#45;&gt;Node9</title>
<g id="a_edge8_Node000008_Node000009"><a xlink:title=" ">
<path fill="none" stroke="#63b8ff" d="M277.26,-63C285.65,-63 294.22,-63 302.62,-63"/>
<polygon fill="#63b8ff" stroke="#63b8ff" points="302.76,-66.5 312.76,-63 302.76,-59.5 302.76,-66.5"/>
</a>
</g>
</g>
<!-- Node11 -->
<g id="Node000011" class="node">
<title>Node11</title>
<g id="a_Node000011"><a xlink:href="structdg_1_1file_1_1_nc_hyperslab.html#a5e0d5fb46ee1d14e37347223ffe75a2d" target="_top" xlink:title=" ">
<polygon fill="white" stroke="#666666" points="432,-30 313,-30 313,0 432,0 432,-30"/>
<text text-anchor="start" x="321" y="-18" font-family="Helvetica,sans-Serif" font-size="10.00">dg::file::NcHyperslab</text>
<text text-anchor="middle" x="372.5" y="-7" font-family="Helvetica,sans-Serif" font-size="10.00">::startp</text>
</a>
</g>
</g>
<!-- Node10&#45;&gt;Node11 -->
<g id="edge10_Node000010_Node000011" class="edge">
<title>Node10&#45;&gt;Node11</title>
<g id="a_edge10_Node000010_Node000011"><a xlink:title=" ">
<path fill="none" stroke="#63b8ff" d="M277.26,-15C285.65,-15 294.22,-15 302.62,-15"/>
<polygon fill="#63b8ff" stroke="#63b8ff" points="302.76,-18.5 312.76,-15 302.76,-11.5 302.76,-18.5"/>
</a>
</g>
</g>
</g>
</svg>
