<?xml version="1.0" encoding="UTF-8" standalone="no"?>
<!DOCTYPE svg PUBLIC "-//W3C//DTD SVG 1.1//EN"
 "http://www.w3.org/Graphics/SVG/1.1/DTD/svg11.dtd">
<!-- Generated by graphviz version 2.43.0 (0)
 -->
<!-- Title: Functions and functors Pages: 1 -->
<svg width="460pt" height="306pt"
 viewBox="0.00 0.00 460.00 305.50" xmlns="http://www.w3.org/2000/svg" xmlns:xlink="http://www.w3.org/1999/xlink">
<g id="graph0" class="graph" transform="scale(1 1) rotate(0) translate(4 301.5)">
<title>Functions and functors</title>
<!-- Node3 -->
<g id="Node000003" class="node">
<title>Node3</title>
<g id="a_Node000003"><a xlink:href="group__basics.html" target="_top" xlink:title="For the dg::evaluate and dg::blas1::evaluate functions.">
<polygon fill="white" stroke="#666666" points="417.5,-297.5 367.5,-297.5 367.5,-278.5 417.5,-278.5 417.5,-297.5"/>
<text text-anchor="middle" x="392.5" y="-285.5" font-family="Helvetica,sans-Serif" font-size="10.00">Simple</text>
</a>
</g>
</g>
<!-- Node6 -->
<g id="Node000006" class="node">
<title>Node6</title>
<g id="a_Node000006"><a xlink:href="group__binary__operators.html" target="_top" xlink:title="Binary subroutines for the dg::blas1::evaluate function.">
<polygon fill="white" stroke="#666666" points="447.5,-260 337.5,-260 337.5,-230 447.5,-230 447.5,-260"/>
<text text-anchor="start" x="345.5" y="-248" font-family="Helvetica,sans-Serif" font-size="10.00">dg::blas1::evaluate</text>
<text text-anchor="middle" x="392.5" y="-237" font-family="Helvetica,sans-Serif" font-size="10.00"> binary operators</text>
</a>
</g>
</g>
<!-- Node1 -->
<g id="Node000001" class="node">
<title>Node1</title>
<g id="a_Node000001"><a xlink:title=" ">
<polygon fill="#999999" stroke="#666666" points="297,-158.5 170,-158.5 170,-139.5 297,-139.5 297,-158.5"/>
<text text-anchor="middle" x="233.5" y="-146.5" font-family="Helvetica,sans-Serif" font-size="10.00">Functions and functors</text>
</a>
</g>
</g>
<!-- Node1&#45;&gt;Node3 -->
<g id="edge2" class="edge">
<title>Node1&#45;&gt;Node3</title>
<path fill="none" stroke="black" d="M245.03,-167.61C260.83,-193.91 293.12,-241.79 333,-269 343.23,-275.98 356.2,-280.54 367.33,-283.43"/>
<polygon fill="black" stroke="black" points="247.87,-165.53 239.8,-158.67 241.83,-169.07 247.87,-165.53"/>
</g>
<!-- Node1&#45;&gt;Node6 -->
<g id="edge5" class="edge">
<title>Node1&#45;&gt;Node6</title>
<path fill="none" stroke="black" d="M253.66,-165.18C272.85,-180.85 303.67,-204.58 333,-221 338.75,-224.22 345.01,-227.24 351.24,-229.99"/>
<polygon fill="black" stroke="black" points="255.65,-162.28 245.71,-158.61 251.18,-167.68 255.65,-162.28"/>
</g>
<!-- Node5 -->
<g id="Node000005" class="node">
<title>Node5</title>
<g id="a_Node000005"><a xlink:href="group__composition.html" target="_top" xlink:title=" ">
<polygon fill="white" stroke="#666666" points="448.5,-212 336.5,-212 336.5,-182 448.5,-182 448.5,-212"/>
<text text-anchor="start" x="344.5" y="-200" font-family="Helvetica,sans-Serif" font-size="10.00">Composition of two</text>
<text text-anchor="middle" x="392.5" y="-189" font-family="Helvetica,sans-Serif" font-size="10.00"> or more functors</text>
</a>
</g>
</g>
<!-- Node1&#45;&gt;Node5 -->
<g id="edge4" class="edge">
<title>Node1&#45;&gt;Node5</title>
<path fill="none" stroke="black" d="M275.53,-161.54C295.95,-167.79 320.79,-175.38 342.23,-181.94"/>
<polygon fill="black" stroke="black" points="276.48,-158.17 265.89,-158.6 274.43,-164.87 276.48,-158.17"/>
</g>
<!-- Node9 -->
<g id="Node000009" class="node">
<title>Node9</title>
<g id="a_Node000009"><a xlink:href="group__filters.html" target="_top" xlink:title="Functors to use in dg::blas2::stencil function.">
<polygon fill="white" stroke="#666666" points="442,-164 343,-164 343,-134 442,-134 442,-164"/>
<text text-anchor="start" x="351" y="-152" font-family="Helvetica,sans-Serif" font-size="10.00">dg::blas2::stencil</text>
<text text-anchor="middle" x="392.5" y="-141" font-family="Helvetica,sans-Serif" font-size="10.00"> subroutines</text>
</a>
</g>
</g>
<!-- Node1&#45;&gt;Node9 -->
<g id="edge8" class="edge">
<title>Node1&#45;&gt;Node9</title>
<path fill="none" stroke="black" d="M307.09,-149C319.17,-149 331.45,-149 342.76,-149"/>
<polygon fill="black" stroke="black" points="307,-145.5 297,-149 307,-152.5 307,-145.5"/>
</g>
<!-- Node4 -->
<g id="Node000004" class="node">
<title>Node4</title>
<g id="a_Node000004"><a xlink:href="group__functions.html" target="_top" xlink:title="For the dg::evaluate and dg::blas1::evaluate functions.">
<polygon fill="white" stroke="#666666" points="443,-115.5 342,-115.5 342,-96.5 443,-96.5 443,-115.5"/>
<text text-anchor="middle" x="392.5" y="-103.5" font-family="Helvetica,sans-Serif" font-size="10.00">A large collection</text>
</a>
</g>
</g>
<!-- Node1&#45;&gt;Node4 -->
<g id="edge3" class="edge">
<title>Node1&#45;&gt;Node4</title>
<path fill="none" stroke="black" d="M279.17,-136.76C303.8,-130.02 333.91,-121.77 356.75,-115.52"/>
<polygon fill="black" stroke="black" points="278.06,-133.44 269.34,-139.46 279.91,-140.19 278.06,-133.44"/>
</g>
<!-- Node7 -->
<g id="Node000007" class="node">
<title>Node7</title>
<g id="a_Node000007"><a xlink:href="group__variadic__evaluates.html" target="_top" xlink:title="Functors to use in the dg::blas1::evaluate function.">
<polygon fill="white" stroke="#666666" points="447.5,-78 337.5,-78 337.5,-48 447.5,-48 447.5,-78"/>
<text text-anchor="start" x="345.5" y="-66" font-family="Helvetica,sans-Serif" font-size="10.00">dg::blas1::evaluate</text>
<text text-anchor="middle" x="392.5" y="-55" font-family="Helvetica,sans-Serif" font-size="10.00"> variadic functors</text>
</a>
</g>
</g>
<!-- Node1&#45;&gt;Node7 -->
<g id="edge6" class="edge">
<title>Node1&#45;&gt;Node7</title>
<path fill="none" stroke="black" d="M256.57,-133.56C276.11,-120.27 305.71,-101.06 333,-87 339.05,-83.88 345.6,-80.87 352.06,-78.09"/>
<polygon fill="black" stroke="black" points="254.34,-130.84 248.08,-139.39 258.31,-136.61 254.34,-130.84"/>
</g>
<!-- Node8 -->
<g id="Node000008" class="node">
<title>Node8</title>
<g id="a_Node000008"><a xlink:href="group__variadic__subroutines.html" target="_top" xlink:title="Functors to use in the dg::blas1::subroutine functions.">
<polygon fill="white" stroke="#666666" points="452,-30 333,-30 333,0 452,0 452,-30"/>
<text text-anchor="start" x="341" y="-18" font-family="Helvetica,sans-Serif" font-size="10.00">dg::blas1::subroutine</text>
<text text-anchor="middle" x="392.5" y="-7" font-family="Helvetica,sans-Serif" font-size="10.00"> subroutines</text>
</a>
</g>
</g>
<!-- Node1&#45;&gt;Node8 -->
<g id="edge7" class="edge">
<title>Node1&#45;&gt;Node8</title>
<path fill="none" stroke="black" d="M246.64,-130.98C263.53,-107.11 296.21,-64.98 333,-39 337.75,-35.64 343.04,-32.65 348.45,-30.01"/>
<polygon fill="black" stroke="black" points="243.6,-129.23 240.78,-139.45 249.35,-133.22 243.6,-129.23"/>
</g>
<!-- Node2 -->
<g id="Node000002" class="node">
<title>Node2</title>
<g id="a_Node000002"><a xlink:href="group__misc.html" target="_top" xlink:title=" ">
<polygon fill="white" stroke="#666666" points="134,-164 0,-164 0,-134 134,-134 134,-164"/>
<text text-anchor="start" x="8" y="-152" font-family="Helvetica,sans-Serif" font-size="10.00">Level 99: Miscellaneous</text>
<text text-anchor="middle" x="67" y="-141" font-family="Helvetica,sans-Serif" font-size="10.00"> additions</text>
</a>
</g>
</g>
<!-- Node2&#45;&gt;Node1 -->
<g id="edge1" class="edge">
<title>Node2&#45;&gt;Node1</title>
<path fill="none" stroke="black" d="M144.65,-149C153.08,-149 161.58,-149 169.81,-149"/>
<polygon fill="black" stroke="black" points="144.43,-145.5 134.43,-149 144.43,-152.5 144.43,-145.5"/>
</g>
</g>
</svg>
