<?xml version="1.0" encoding="UTF-8" standalone="no"?>
<!DOCTYPE svg PUBLIC "-//W3C//DTD SVG 1.1//EN"
 "http://www.w3.org/Graphics/SVG/1.1/DTD/svg11.dtd">
<!-- Generated by graphviz version 2.43.0 (0)
 -->
<!-- Title: Level 3: Topology and Geometry Pages: 1 -->
<svg width="297pt" height="161pt"
 viewBox="0.00 0.00 297.00 161.00" xmlns="http://www.w3.org/2000/svg" xmlns:xlink="http://www.w3.org/1999/xlink">
<g id="graph0" class="graph" transform="scale(1 1) rotate(0) translate(4 157)">
<title>Level 3: Topology and Geometry</title>
<!-- Node4 -->
<g id="Node000004" class="node">
<title>Node4</title>
<g id="a_Node000004"><a xlink:href="group__fem.html" target="_top" xlink:title=" ">
<polygon fill="white" stroke="#666666" points="289,-153 158,-153 158,-134 289,-134 289,-153"/>
<text text-anchor="middle" x="223.5" y="-141" font-family="Helvetica,sans-Serif" font-size="10.00">Finite Element Methods</text>
</a>
</g>
</g>
<!-- Node3 -->
<g id="Node000003" class="node">
<title>Node3</title>
<g id="a_Node000003"><a xlink:href="group__geometry.html" target="_top" xlink:title=" ">
<polygon fill="white" stroke="#666666" points="281.5,-115.5 165.5,-115.5 165.5,-85.5 281.5,-85.5 281.5,-115.5"/>
<text text-anchor="start" x="173.5" y="-103.5" font-family="Helvetica,sans-Serif" font-size="10.00">Geometric grids and</text>
<text text-anchor="middle" x="223.5" y="-92.5" font-family="Helvetica,sans-Serif" font-size="10.00"> tensor operations</text>
</a>
</g>
</g>
<!-- Node2 -->
<g id="Node000002" class="node">
<title>Node2</title>
<g id="a_Node000002"><a xlink:href="group__grid.html" target="_top" xlink:title=" ">
<polygon fill="white" stroke="#666666" points="283,-67.5 164,-67.5 164,-37.5 283,-37.5 283,-67.5"/>
<text text-anchor="start" x="172" y="-55.5" font-family="Helvetica,sans-Serif" font-size="10.00">Topological grids and</text>
<text text-anchor="middle" x="223.5" y="-44.5" font-family="Helvetica,sans-Serif" font-size="10.00"> operations</text>
</a>
</g>
</g>
<!-- Node5 -->
<g id="Node000005" class="node">
<title>Node5</title>
<g id="a_Node000005"><a xlink:href="group__gridtypes.html" target="_top" xlink:title=" ">
<polygon fill="white" stroke="#666666" points="265,-19 182,-19 182,0 265,0 265,-19"/>
<text text-anchor="middle" x="223.5" y="-7" font-family="Helvetica,sans-Serif" font-size="10.00">Grid Typedefs</text>
</a>
</g>
</g>
<!-- Node1 -->
<g id="Node000001" class="node">
<title>Node1</title>
<g id="a_Node000001"><a xlink:title=" ">
<polygon fill="#999999" stroke="#666666" points="122,-91.5 0,-91.5 0,-61.5 122,-61.5 122,-91.5"/>
<text text-anchor="start" x="8" y="-79.5" font-family="Helvetica,sans-Serif" font-size="10.00">Level 3: Topology and</text>
<text text-anchor="middle" x="61" y="-68.5" font-family="Helvetica,sans-Serif" font-size="10.00"> Geometry</text>
</a>
</g>
</g>
<!-- Node1&#45;&gt;Node4 -->
<g id="edge3" class="edge">
<title>Node1&#45;&gt;Node4</title>
<path fill="none" stroke="black" d="M98,-96.4C115.73,-105.71 137.62,-116.48 158,-124.5 166.91,-128.01 176.73,-131.22 185.96,-133.96"/>
<polygon fill="black" stroke="black" points="99.61,-93.29 89.14,-91.69 96.32,-99.47 99.61,-93.29"/>
</g>
<!-- Node1&#45;&gt;Node3 -->
<g id="edge2" class="edge">
<title>Node1&#45;&gt;Node3</title>
<path fill="none" stroke="black" d="M132.29,-87.01C143.35,-88.66 154.68,-90.36 165.4,-91.96"/>
<polygon fill="black" stroke="black" points="132.63,-83.52 122.22,-85.5 131.59,-90.45 132.63,-83.52"/>
</g>
<!-- Node1&#45;&gt;Node2 -->
<g id="edge1" class="edge">
<title>Node1&#45;&gt;Node2</title>
<path fill="none" stroke="black" d="M132.23,-66C142.77,-64.42 153.54,-62.81 163.81,-61.28"/>
<polygon fill="black" stroke="black" points="131.59,-62.55 122.22,-67.5 132.63,-69.48 131.59,-62.55"/>
</g>
<!-- Node1&#45;&gt;Node5 -->
<g id="edge4" class="edge">
<title>Node1&#45;&gt;Node5</title>
<path fill="none" stroke="black" d="M98,-56.6C115.73,-47.29 137.62,-36.52 158,-28.5 166.91,-24.99 176.73,-21.78 185.96,-19.04"/>
<polygon fill="black" stroke="black" points="96.32,-53.53 89.14,-61.31 99.61,-59.71 96.32,-53.53"/>
</g>
</g>
</svg>
