<?xml version="1.0" encoding="UTF-8" standalone="no"?>
<!DOCTYPE svg PUBLIC "-//W3C//DTD SVG 1.1//EN"
 "http://www.w3.org/Graphics/SVG/1.1/DTD/svg11.dtd">
<!-- Generated by graphviz version 2.43.0 (0)
 -->
<!-- Title: Geometric grids and tensor operations Pages: 1 -->
<svg width="455pt" height="199pt"
 viewBox="0.00 0.00 455.00 198.50" xmlns="http://www.w3.org/2000/svg" xmlns:xlink="http://www.w3.org/1999/xlink">
<g id="graph0" class="graph" transform="scale(1 1) rotate(0) translate(4 194.5)">
<title>Geometric grids and tensor operations</title>
<!-- Node4 -->
<g id="Node000004" class="node">
<title>Node4</title>
<g id="a_Node000004"><a xlink:href="group__basic_xgeometry.html" target="_top" xlink:title=" ">
<polygon fill="white" stroke="#666666" points="442.5,-190.5 314.5,-190.5 314.5,-160.5 442.5,-160.5 442.5,-190.5"/>
<text text-anchor="start" x="322.5" y="-178.5" font-family="Helvetica,sans-Serif" font-size="10.00">Geometry classes with</text>
<text text-anchor="middle" x="378.5" y="-167.5" font-family="Helvetica,sans-Serif" font-size="10.00"> X&#45;point</text>
</a>
</g>
</g>
<!-- Node3 -->
<g id="Node000003" class="node">
<title>Node3</title>
<g id="a_Node000003"><a xlink:href="group__basicgeometry.html" target="_top" xlink:title=" ">
<polygon fill="white" stroke="#666666" points="430.5,-142 326.5,-142 326.5,-123 430.5,-123 430.5,-142"/>
<text text-anchor="middle" x="378.5" y="-130" font-family="Helvetica,sans-Serif" font-size="10.00">Geometry classes</text>
</a>
</g>
</g>
<!-- Node5 -->
<g id="Node000005" class="node">
<title>Node5</title>
<g id="a_Node000005"><a xlink:href="group__generators.html" target="_top" xlink:title=" ">
<polygon fill="white" stroke="#666666" points="425.5,-105 331.5,-105 331.5,-86 425.5,-86 425.5,-105"/>
<text text-anchor="middle" x="378.5" y="-93" font-family="Helvetica,sans-Serif" font-size="10.00">Grid refinement</text>
</a>
</g>
</g>
<!-- Node1 -->
<g id="Node000001" class="node">
<title>Node1</title>
<g id="a_Node000001"><a xlink:title=" ">
<polygon fill="#999999" stroke="#666666" points="274,-110.5 158,-110.5 158,-80.5 274,-80.5 274,-110.5"/>
<text text-anchor="start" x="166" y="-98.5" font-family="Helvetica,sans-Serif" font-size="10.00">Geometric grids and</text>
<text text-anchor="middle" x="216" y="-87.5" font-family="Helvetica,sans-Serif" font-size="10.00"> tensor operations</text>
</a>
</g>
</g>
<!-- Node1&#45;&gt;Node4 -->
<g id="edge3" class="edge">
<title>Node1&#45;&gt;Node4</title>
<path fill="none" stroke="black" d="M247.97,-116.29C265.66,-127.61 288.53,-141.34 310,-151.5 316.75,-154.69 324.04,-157.7 331.25,-160.45"/>
<polygon fill="black" stroke="black" points="249.52,-113.13 239.23,-110.62 245.71,-119 249.52,-113.13"/>
</g>
<!-- Node1&#45;&gt;Node3 -->
<g id="edge2" class="edge">
<title>Node1&#45;&gt;Node3</title>
<path fill="none" stroke="black" d="M283.81,-110.9C301.6,-115 320.3,-119.31 336.28,-123"/>
<polygon fill="black" stroke="black" points="284.57,-107.48 274.04,-108.65 283,-114.31 284.57,-107.48"/>
</g>
<!-- Node1&#45;&gt;Node5 -->
<g id="edge4" class="edge">
<title>Node1&#45;&gt;Node5</title>
<path fill="none" stroke="black" d="M284.34,-95.5C300.22,-95.5 316.78,-95.5 331.47,-95.5"/>
<polygon fill="black" stroke="black" points="284.04,-92 274.04,-95.5 284.04,-99 284.04,-92"/>
</g>
<!-- Node7 -->
<g id="Node000007" class="node">
<title>Node7</title>
<g id="a_Node000007"><a xlink:href="group__pullback.html" target="_top" xlink:title=",">
<polygon fill="white" stroke="#666666" points="442.5,-67.5 314.5,-67.5 314.5,-37.5 442.5,-37.5 442.5,-67.5"/>
<text text-anchor="start" x="322.5" y="-55.5" font-family="Helvetica,sans-Serif" font-size="10.00">Pullback, pushforward,</text>
<text text-anchor="middle" x="378.5" y="-44.5" font-family="Helvetica,sans-Serif" font-size="10.00"> volume</text>
</a>
</g>
</g>
<!-- Node1&#45;&gt;Node7 -->
<g id="edge6" class="edge">
<title>Node1&#45;&gt;Node7</title>
<path fill="none" stroke="black" d="M282.81,-77.87C295.62,-74.44 308.94,-70.87 321.4,-67.53"/>
<polygon fill="black" stroke="black" points="281.89,-74.49 273.14,-80.46 283.7,-81.25 281.89,-74.49"/>
</g>
<!-- Node6 -->
<g id="Node000006" class="node">
<title>Node6</title>
<g id="a_Node000006"><a xlink:href="group__tensor.html" target="_top" xlink:title=" ">
<polygon fill="white" stroke="#666666" points="447,-19 310,-19 310,0 447,0 447,-19"/>
<text text-anchor="middle" x="378.5" y="-7" font-family="Helvetica,sans-Serif" font-size="10.00">Tensor&#45;Vector operations</text>
</a>
</g>
</g>
<!-- Node1&#45;&gt;Node6 -->
<g id="edge5" class="edge">
<title>Node1&#45;&gt;Node6</title>
<path fill="none" stroke="black" d="M242.16,-73.63C260.04,-59.06 285.2,-40.46 310,-28.5 317.79,-24.75 326.44,-21.61 334.89,-19.04"/>
<polygon fill="black" stroke="black" points="239.45,-71.33 233.99,-80.42 243.92,-76.72 239.45,-71.33"/>
</g>
<!-- Node2 -->
<g id="Node000002" class="node">
<title>Node2</title>
<g id="a_Node000002"><a xlink:href="group__level3.html" target="_top" xlink:title=" ">
<polygon fill="white" stroke="#666666" points="122,-110.5 0,-110.5 0,-80.5 122,-80.5 122,-110.5"/>
<text text-anchor="start" x="8" y="-98.5" font-family="Helvetica,sans-Serif" font-size="10.00">Level 3: Topology and</text>
<text text-anchor="middle" x="61" y="-87.5" font-family="Helvetica,sans-Serif" font-size="10.00"> Geometry</text>
</a>
</g>
</g>
<!-- Node2&#45;&gt;Node1 -->
<g id="edge1" class="edge">
<title>Node2&#45;&gt;Node1</title>
<path fill="none" stroke="black" d="M132.3,-95.5C140.79,-95.5 149.38,-95.5 157.64,-95.5"/>
<polygon fill="black" stroke="black" points="132.03,-92 122.03,-95.5 132.03,-99 132.03,-92"/>
</g>
</g>
</svg>
