<?xml version="1.0" encoding="UTF-8" standalone="no"?>
<!DOCTYPE svg PUBLIC "-//W3C//DTD SVG 1.1//EN"
 "http://www.w3.org/Graphics/SVG/1.1/DTD/svg11.dtd">
<!-- Generated by graphviz version 2.43.0 (0)
 -->
<!-- Title: Utility Pages: 1 -->
<svg width="407pt" height="187pt"
 viewBox="0.00 0.00 407.00 187.00" xmlns="http://www.w3.org/2000/svg" xmlns:xlink="http://www.w3.org/1999/xlink">
<g id="graph0" class="graph" transform="scale(1 1) rotate(0) translate(4 183)">
<title>Utility</title>
<!-- Node5 -->
<g id="Node000005" class="node">
<title>Node5</title>
<g id="a_Node000005"><a xlink:href="group__densematrix.html" target="_top" xlink:title=" ">
<polygon fill="white" stroke="#666666" points="392.5,-179 268.5,-179 268.5,-160 392.5,-160 392.5,-179"/>
<text text-anchor="middle" x="330.5" y="-167" font-family="Helvetica,sans-Serif" font-size="10.00">Dense matrix formats</text>
</a>
</g>
</g>
<!-- Node3 -->
<g id="Node000003" class="node">
<title>Node3</title>
<g id="a_Node000003"><a xlink:href="group__dispatch.html" target="_top" xlink:title=" ">
<polygon fill="white" stroke="#666666" points="399,-142 262,-142 262,-123 399,-123 399,-142"/>
<text text-anchor="middle" x="330.5" y="-130" font-family="Helvetica,sans-Serif" font-size="10.00">The tag dispatch system</text>
</a>
</g>
</g>
<!-- Node2 -->
<g id="Node000002" class="node">
<title>Node2</title>
<g id="a_Node000002"><a xlink:href="group__level1.html" target="_top" xlink:title=" ">
<polygon fill="white" stroke="#666666" points="143,-110.5 0,-110.5 0,-80.5 143,-80.5 143,-110.5"/>
<text text-anchor="start" x="8" y="-98.5" font-family="Helvetica,sans-Serif" font-size="10.00">Level 1: Vectors, Matrices</text>
<text text-anchor="middle" x="71.5" y="-87.5" font-family="Helvetica,sans-Serif" font-size="10.00"> and basic operations</text>
</a>
</g>
</g>
<!-- Node1 -->
<g id="Node000001" class="node">
<title>Node1</title>
<g id="a_Node000001"><a xlink:title=" ">
<polygon fill="#999999" stroke="#666666" points="226,-105 179,-105 179,-86 226,-86 226,-105"/>
<text text-anchor="middle" x="202.5" y="-93" font-family="Helvetica,sans-Serif" font-size="10.00">Utility</text>
</a>
</g>
</g>
<!-- Node2&#45;&gt;Node1 -->
<g id="edge1" class="edge">
<title>Node2&#45;&gt;Node1</title>
<path fill="none" stroke="black" d="M153.24,-95.5C162.51,-95.5 171.3,-95.5 178.77,-95.5"/>
<polygon fill="black" stroke="black" points="153.04,-92 143.04,-95.5 153.04,-99 153.04,-92"/>
</g>
<!-- Node4 -->
<g id="Node000004" class="node">
<title>Node4</title>
<g id="a_Node000004"><a xlink:href="group__sparsematrix.html" target="_top" xlink:title=" ">
<polygon fill="white" stroke="#666666" points="393.5,-105 267.5,-105 267.5,-86 393.5,-86 393.5,-105"/>
<text text-anchor="middle" x="330.5" y="-93" font-family="Helvetica,sans-Serif" font-size="10.00">Sparse matrix formats</text>
</a>
</g>
</g>
<!-- Node7 -->
<g id="Node000007" class="node">
<title>Node7</title>
<g id="a_Node000007"><a xlink:href="group__typedefs.html" target="_top" xlink:title=" ">
<polygon fill="white" stroke="#666666" points="388.5,-67.5 272.5,-67.5 272.5,-37.5 388.5,-37.5 388.5,-67.5"/>
<text text-anchor="start" x="280.5" y="-55.5" font-family="Helvetica,sans-Serif" font-size="10.00">Typedefs for Vectors</text>
<text text-anchor="middle" x="330.5" y="-44.5" font-family="Helvetica,sans-Serif" font-size="10.00"> and Matrices</text>
</a>
</g>
</g>
<!-- Node1&#45;&gt;Node5 -->
<g id="edge4" class="edge">
<title>Node1&#45;&gt;Node5</title>
<path fill="none" stroke="black" d="M217.76,-113.27C228.64,-125.7 244.67,-141.76 262,-151.5 268.03,-154.89 274.72,-157.66 281.47,-159.92"/>
<polygon fill="black" stroke="black" points="220.22,-110.76 211.1,-105.37 214.87,-115.27 220.22,-110.76"/>
</g>
<!-- Node1&#45;&gt;Node3 -->
<g id="edge2" class="edge">
<title>Node1&#45;&gt;Node3</title>
<path fill="none" stroke="black" d="M235.78,-106.33C244.28,-109.08 253.46,-111.98 262,-114.5 271.77,-117.39 282.4,-120.32 292.26,-122.95"/>
<polygon fill="black" stroke="black" points="236.79,-102.97 226.19,-103.18 234.61,-109.62 236.79,-102.97"/>
</g>
<!-- Node1&#45;&gt;Node4 -->
<g id="edge3" class="edge">
<title>Node1&#45;&gt;Node4</title>
<path fill="none" stroke="black" d="M236.26,-95.5C245.85,-95.5 256.66,-95.5 267.43,-95.5"/>
<polygon fill="black" stroke="black" points="236.03,-92 226.03,-95.5 236.03,-99 236.03,-92"/>
</g>
<!-- Node1&#45;&gt;Node7 -->
<g id="edge6" class="edge">
<title>Node1&#45;&gt;Node7</title>
<path fill="none" stroke="black" d="M235.92,-84.44C251.01,-79.29 269.19,-73.08 285.5,-67.52"/>
<polygon fill="black" stroke="black" points="234.36,-81.27 226.03,-87.81 236.62,-87.9 234.36,-81.27"/>
</g>
<!-- Node6 -->
<g id="Node000006" class="node">
<title>Node6</title>
<g id="a_Node000006"><a xlink:href="group__view.html" target="_top" xlink:title=" ">
<polygon fill="white" stroke="#666666" points="367.5,-19 293.5,-19 293.5,0 367.5,0 367.5,-19"/>
<text text-anchor="middle" x="330.5" y="-7" font-family="Helvetica,sans-Serif" font-size="10.00">Vector view</text>
</a>
</g>
</g>
<!-- Node1&#45;&gt;Node6 -->
<g id="edge5" class="edge">
<title>Node1&#45;&gt;Node6</title>
<path fill="none" stroke="black" d="M215.06,-77.13C225.54,-61.95 242.33,-40.94 262,-28.5 271.36,-22.58 282.6,-18.47 293.19,-15.63"/>
<polygon fill="black" stroke="black" points="211.99,-75.44 209.38,-85.71 217.82,-79.3 211.99,-75.44"/>
</g>
</g>
</svg>
