<?xml version="1.0" encoding="UTF-8" standalone="no"?>
<!DOCTYPE svg PUBLIC "-//W3C//DTD SVG 1.1//EN"
 "http://www.w3.org/Graphics/SVG/1.1/DTD/svg11.dtd">
<!-- Generated by graphviz version 2.43.0 (0)
 -->
<!-- Title: Level 4: Advanced numerical schemes Pages: 1 -->
<svg width="345pt" height="101pt"
 viewBox="0.00 0.00 345.00 101.00" xmlns="http://www.w3.org/2000/svg" xmlns:xlink="http://www.w3.org/1999/xlink">
<g id="graph0" class="graph" transform="scale(1 1) rotate(0) translate(4 97)">
<title>Level 4: Advanced numerical schemes</title>
<!-- Node2 -->
<g id="Node000002" class="node">
<title>Node2</title>
<g id="a_Node000002"><a xlink:href="group__arakawa.html" target="_top" xlink:title="and">
<polygon fill="white" stroke="#666666" points="314,-93 217,-93 217,-74 314,-74 314,-93"/>
<text text-anchor="middle" x="265.5" y="-81" font-family="Helvetica,sans-Serif" font-size="10.00">Advection terms</text>
</a>
</g>
</g>
<!-- Node1 -->
<g id="Node000001" class="node">
<title>Node1</title>
<g id="a_Node000001"><a xlink:title=" ">
<polygon fill="#999999" stroke="#666666" points="158,-61.5 0,-61.5 0,-31.5 158,-31.5 158,-61.5"/>
<text text-anchor="start" x="8" y="-49.5" font-family="Helvetica,sans-Serif" font-size="10.00">Level 4: Advanced numerical</text>
<text text-anchor="middle" x="79" y="-38.5" font-family="Helvetica,sans-Serif" font-size="10.00"> schemes</text>
</a>
</g>
</g>
<!-- Node1&#45;&gt;Node2 -->
<g id="edge1" class="edge">
<title>Node1&#45;&gt;Node2</title>
<path fill="none" stroke="black" d="M164.94,-63.53C182.84,-67.12 201.12,-70.79 217.05,-73.98"/>
<polygon fill="black" stroke="black" points="165.54,-60.08 155.04,-61.55 164.16,-66.95 165.54,-60.08"/>
</g>
<!-- Node3 -->
<g id="Node000003" class="node">
<title>Node3</title>
<g id="a_Node000003"><a xlink:href="group__matrixoperators.html" target="_top" xlink:title="Elliptic &#160;and Helmholtz .">
<polygon fill="white" stroke="#666666" points="315,-56 216,-56 216,-37 315,-37 315,-56"/>
<text text-anchor="middle" x="265.5" y="-44" font-family="Helvetica,sans-Serif" font-size="10.00">Elliptic operators</text>
</a>
</g>
</g>
<!-- Node1&#45;&gt;Node3 -->
<g id="edge2" class="edge">
<title>Node1&#45;&gt;Node3</title>
<path fill="none" stroke="black" d="M168.38,-46.5C184.72,-46.5 201.22,-46.5 215.83,-46.5"/>
<polygon fill="black" stroke="black" points="168.24,-43 158.24,-46.5 168.24,-50 168.24,-43"/>
</g>
<!-- Node4 -->
<g id="Node000004" class="node">
<title>Node4</title>
<g id="a_Node000004"><a xlink:href="group__multigrid.html" target="_top" xlink:title=" ">
<polygon fill="white" stroke="#666666" points="337,-19 194,-19 194,0 337,0 337,-19"/>
<text text-anchor="middle" x="265.5" y="-7" font-family="Helvetica,sans-Serif" font-size="10.00">Multigrid matrix inversion</text>
</a>
</g>
</g>
<!-- Node1&#45;&gt;Node4 -->
<g id="edge3" class="edge">
<title>Node1&#45;&gt;Node4</title>
<path fill="none" stroke="black" d="M164.94,-29.47C182.84,-25.88 201.12,-22.21 217.05,-19.02"/>
<polygon fill="black" stroke="black" points="164.16,-26.05 155.04,-31.45 165.54,-32.92 164.16,-26.05"/>
</g>
</g>
</svg>
