<?xml version="1.0" encoding="UTF-8" standalone="no"?>
<!DOCTYPE svg PUBLIC "-//W3C//DTD SVG 1.1//EN"
 "http://www.w3.org/Graphics/SVG/1.1/DTD/svg11.dtd">
<!-- Generated by graphviz version 2.43.0 (0)
 -->
<!-- Title: Level 99: Miscellaneous additions Pages: 1 -->
<svg width="320pt" height="150pt"
 viewBox="0.00 0.00 320.00 150.00" xmlns="http://www.w3.org/2000/svg" xmlns:xlink="http://www.w3.org/1999/xlink">
<g id="graph0" class="graph" transform="scale(1 1) rotate(0) translate(4 146)">
<title>Level 99: Miscellaneous additions</title>
<!-- Node3 -->
<g id="Node000003" class="node">
<title>Node3</title>
<g id="a_Node000003"><a xlink:href="group__blas1__helpers.html" target="_top" xlink:title=" ">
<polygon fill="white" stroke="#666666" points="304.5,-142 177.5,-142 177.5,-123 304.5,-123 304.5,-142"/>
<text text-anchor="middle" x="241" y="-130" font-family="Helvetica,sans-Serif" font-size="10.00">Functions and functors</text>
</a>
</g>
</g>
<!-- Node5 -->
<g id="Node000005" class="node">
<title>Node5</title>
<g id="a_Node000005"><a xlink:href="group__lowlevel.html" target="_top" xlink:title=" ">
<polygon fill="white" stroke="#666666" points="312,-104.5 170,-104.5 170,-74.5 312,-74.5 312,-104.5"/>
<text text-anchor="start" x="178" y="-92.5" font-family="Helvetica,sans-Serif" font-size="10.00">Lowlevel helper functions</text>
<text text-anchor="middle" x="241" y="-81.5" font-family="Helvetica,sans-Serif" font-size="10.00"> and classes</text>
</a>
</g>
</g>
<!-- Node1 -->
<g id="Node000001" class="node">
<title>Node1</title>
<g id="a_Node000001"><a xlink:title=" ">
<polygon fill="#999999" stroke="#666666" points="134,-82.5 0,-82.5 0,-52.5 134,-52.5 134,-82.5"/>
<text text-anchor="start" x="8" y="-70.5" font-family="Helvetica,sans-Serif" font-size="10.00">Level 99: Miscellaneous</text>
<text text-anchor="middle" x="67" y="-59.5" font-family="Helvetica,sans-Serif" font-size="10.00"> additions</text>
</a>
</g>
</g>
<!-- Node1&#45;&gt;Node3 -->
<g id="edge2" class="edge">
<title>Node1&#45;&gt;Node3</title>
<path fill="none" stroke="black" d="M107.37,-87.02C126.06,-95.82 148.88,-105.93 170,-113.5 179.72,-116.99 190.39,-120.19 200.42,-122.93"/>
<polygon fill="black" stroke="black" points="108.81,-83.83 98.28,-82.68 105.8,-90.14 108.81,-83.83"/>
</g>
<!-- Node1&#45;&gt;Node5 -->
<g id="edge4" class="edge">
<title>Node1&#45;&gt;Node5</title>
<path fill="none" stroke="black" d="M144.02,-77.22C152.63,-78.32 161.36,-79.44 169.89,-80.53"/>
<polygon fill="black" stroke="black" points="144.37,-73.74 134.01,-75.94 143.48,-80.68 144.37,-73.74"/>
</g>
<!-- Node4 -->
<g id="Node000004" class="node">
<title>Node4</title>
<g id="a_Node000004"><a xlink:href="group__mpi__utility.html" target="_top" xlink:title=" ">
<polygon fill="white" stroke="#666666" points="298,-56 184,-56 184,-37 298,-37 298,-56"/>
<text text-anchor="middle" x="241" y="-44" font-family="Helvetica,sans-Serif" font-size="10.00">MPI utility functions</text>
</a>
</g>
</g>
<!-- Node1&#45;&gt;Node4 -->
<g id="edge3" class="edge">
<title>Node1&#45;&gt;Node4</title>
<path fill="none" stroke="black" d="M144.16,-58.2C157.55,-56.57 171.25,-54.89 183.96,-53.34"/>
<polygon fill="black" stroke="black" points="143.51,-54.75 134.01,-59.44 144.36,-61.7 143.51,-54.75"/>
</g>
<!-- Node2 -->
<g id="Node000002" class="node">
<title>Node2</title>
<g id="a_Node000002"><a xlink:href="group__timer.html" target="_top" xlink:title="t.tic(); t.toc(); t.diff();">
<polygon fill="white" stroke="#666666" points="277,-19 205,-19 205,0 277,0 277,-19"/>
<text text-anchor="middle" x="241" y="-7" font-family="Helvetica,sans-Serif" font-size="10.00">Timer class</text>
</a>
</g>
</g>
<!-- Node1&#45;&gt;Node2 -->
<g id="edge1" class="edge">
<title>Node1&#45;&gt;Node2</title>
<path fill="none" stroke="black" d="M114.32,-48.67C131.65,-41.92 151.6,-34.5 170,-28.5 181.25,-24.83 193.68,-21.3 204.9,-18.29"/>
<polygon fill="black" stroke="black" points="113.01,-45.42 104.98,-52.33 115.57,-51.93 113.01,-45.42"/>
</g>
</g>
</svg>
