<?xml version="1.0" encoding="UTF-8" standalone="no"?>
<!DOCTYPE svg PUBLIC "-//W3C//DTD SVG 1.1//EN"
 "http://www.w3.org/Graphics/SVG/1.1/DTD/svg11.dtd">
<!-- Generated by graphviz version 2.43.0 (0)
 -->
<!-- Title: ODE integration Pages: 1 -->
<svg width="578pt" height="68pt"
 viewBox="0.00 0.00 578.00 67.98" xmlns="http://www.w3.org/2000/svg" xmlns:xlink="http://www.w3.org/1999/xlink">
<g id="graph0" class="graph" transform="scale(1 1) rotate(0) translate(4 63.98)">
<title>ODE integration</title>
<!-- Node2 -->
<g id="Node000002" class="node">
<title>Node2</title>
<g id="a_Node000002"><a xlink:href="group__lvevl2.html" target="_top" xlink:title=" ">
<polygon fill="white" stroke="#666666" points="136,-54.77 0,-54.77 0,-24.77 136,-24.77 136,-54.77"/>
<text text-anchor="start" x="8" y="-42.77" font-family="Helvetica,sans-Serif" font-size="10.00">Level 2: Basic numerical</text>
<text text-anchor="middle" x="68" y="-31.77" font-family="Helvetica,sans-Serif" font-size="10.00"> algorithms</text>
</a>
</g>
</g>
<!-- Node1 -->
<g id="Node000001" class="node">
<title>Node1</title>
<g id="a_Node000001"><a xlink:title=" ">
<polygon fill="#999999" stroke="#666666" points="267,-49.27 173,-49.27 173,-30.27 267,-30.27 267,-49.27"/>
<text text-anchor="middle" x="220" y="-37.27" font-family="Helvetica,sans-Serif" font-size="10.00">ODE integration</text>
</a>
</g>
</g>
<!-- Node2&#45;&gt;Node1 -->
<g id="edge1" class="edge">
<title>Node2&#45;&gt;Node1</title>
<path fill="none" stroke="black" d="M146.25,-39.77C155.25,-39.77 164.2,-39.77 172.59,-39.77"/>
<polygon fill="black" stroke="black" points="146.1,-36.27 136.1,-39.77 146.1,-43.27 146.1,-36.27"/>
</g>
<!-- Node3 -->
<g id="Node000003" class="node">
<title>Node3</title>
<g id="a_Node000003"><a xlink:href="group__time__utils.html" target="_top" xlink:title=" ">
<polygon fill="white" stroke="#666666" points="570,-49.27 418,-49.27 418,-30.27 570,-30.27 570,-49.27"/>
<text text-anchor="middle" x="494" y="-37.27" font-family="Helvetica,sans-Serif" font-size="10.00">Utilities for ODE integrators</text>
</a>
</g>
</g>
<!-- Node1&#45;&gt;Node3 -->
<g id="edge2" class="edge">
<title>Node1&#45;&gt;Node3</title>
<path fill="none" stroke="black" d="M262.51,-51.71C269.94,-53.4 277.65,-54.87 285,-55.77 335.73,-62.02 349.07,-60.12 400,-55.77 415.34,-54.46 431.96,-51.96 446.84,-49.31"/>
<polygon fill="black" stroke="black" points="263.16,-48.27 252.61,-49.3 261.5,-55.07 263.16,-48.27"/>
</g>
<!-- Node1&#45;&gt;Node3 -->
<g id="edge3" class="edge">
<title>Node1&#45;&gt;Node3</title>
<path fill="none" stroke="orange" stroke-dasharray="5,2" d="M235.25,-30.21C247.76,-22.44 266.74,-12.08 285,-7.77 334.74,3.97 349.59,0.66 400,-7.77 425.43,-12.02 453.22,-22.39 471.73,-30.18"/>
<text text-anchor="middle" x="342.5" y="-43.77" font-family="Helvetica,sans-Serif" font-size="10.00">dg::AdaptiveTimeloop</text>
<text text-anchor="middle" x="342.5" y="-32.77" font-family="Helvetica,sans-Serif" font-size="10.00">dg::MultistepTimeloop</text>
<text text-anchor="middle" x="342.5" y="-21.77" font-family="Helvetica,sans-Serif" font-size="10.00">dg::aTimeloop</text>
<text text-anchor="middle" x="342.5" y="-10.77" font-family="Helvetica,sans-Serif" font-size="10.00">dg::SinglestepTimeloop</text>
</g>
</g>
</svg>
