<?xml version="1.0" encoding="UTF-8" standalone="no"?>
<!DOCTYPE svg PUBLIC "-//W3C//DTD SVG 1.1//EN"
 "http://www.w3.org/Graphics/SVG/1.1/DTD/svg11.dtd">
<!-- Generated by graphviz version 2.43.0 (0)
 -->
<!-- Title: Typedefs for Vectors and Matrices Pages: 1 -->
<svg width="352pt" height="38pt"
 viewBox="0.00 0.00 352.00 38.00" xmlns="http://www.w3.org/2000/svg" xmlns:xlink="http://www.w3.org/1999/xlink">
<g id="graph0" class="graph" transform="scale(1 1) rotate(0) translate(4 34)">
<title>Typedefs for Vectors and Matrices</title>
<!-- Node3 -->
<g id="Node000003" class="node">
<title>Node3</title>
<g id="a_Node000003"><a xlink:href="group__gridtypes.html" target="_top" xlink:title=" ">
<polygon fill="white" stroke="#666666" points="344,-24.5 261,-24.5 261,-5.5 344,-5.5 344,-24.5"/>
<text text-anchor="middle" x="302.5" y="-12.5" font-family="Helvetica,sans-Serif" font-size="10.00">Grid Typedefs</text>
</a>
</g>
</g>
<!-- Node1 -->
<g id="Node000001" class="node">
<title>Node1</title>
<g id="a_Node000001"><a xlink:title=" ">
<polygon fill="#999999" stroke="#666666" points="200,-30 84,-30 84,0 200,0 200,-30"/>
<text text-anchor="start" x="92" y="-18" font-family="Helvetica,sans-Serif" font-size="10.00">Typedefs for Vectors</text>
<text text-anchor="middle" x="142" y="-7" font-family="Helvetica,sans-Serif" font-size="10.00"> and Matrices</text>
</a>
</g>
</g>
<!-- Node1&#45;&gt;Node3 -->
<g id="edge2" class="edge">
<title>Node1&#45;&gt;Node3</title>
<path fill="none" stroke="blueviolet" stroke-dasharray="5,2" d="M200.22,-15C220.26,-15 242.34,-15 260.76,-15"/>
<text text-anchor="middle" x="230.5" y="-18" font-family="Helvetica,sans-Serif" font-size="10.00">dg::x</text>
</g>
<!-- Node2 -->
<g id="Node000002" class="node">
<title>Node2</title>
<g id="a_Node000002"><a xlink:href="group__utility.html" target="_top" xlink:title=" ">
<polygon fill="white" stroke="#666666" points="47,-24.5 0,-24.5 0,-5.5 47,-5.5 47,-24.5"/>
<text text-anchor="middle" x="23.5" y="-12.5" font-family="Helvetica,sans-Serif" font-size="10.00">Utility</text>
</a>
</g>
</g>
<!-- Node2&#45;&gt;Node1 -->
<g id="edge1" class="edge">
<title>Node2&#45;&gt;Node1</title>
<path fill="none" stroke="black" d="M57.42,-15C65.58,-15 74.56,-15 83.52,-15"/>
<polygon fill="black" stroke="black" points="57.24,-11.5 47.24,-15 57.24,-18.5 57.24,-11.5"/>
</g>
</g>
</svg>
