<?xml version="1.0" encoding="UTF-8" standalone="no"?>
<!DOCTYPE svg PUBLIC "-//W3C//DTD SVG 1.1//EN"
 "http://www.w3.org/Graphics/SVG/1.1/DTD/svg11.dtd">
<!-- Generated by graphviz version 2.43.0 (0)
 -->
<!-- Title: Level 1: Vectors, Matrices and basic operations Pages: 1 -->
<svg width="308pt" height="161pt"
 viewBox="0.00 0.00 308.00 160.50" xmlns="http://www.w3.org/2000/svg" xmlns:xlink="http://www.w3.org/1999/xlink">
<g id="graph0" class="graph" transform="scale(1 1) rotate(0) translate(4 156.5)">
<title>Level 1: Vectors, Matrices and basic operations</title>
<!-- Node2 -->
<g id="Node000002" class="node">
<title>Node2</title>
<g id="a_Node000002"><a xlink:href="group__blas1.html" target="_top" xlink:title="and">
<polygon fill="white" stroke="#666666" points="300,-152.5 179,-152.5 179,-122.5 300,-122.5 300,-152.5"/>
<text text-anchor="start" x="187" y="-140.5" font-family="Helvetica,sans-Serif" font-size="10.00">BLAS level 1 routines</text>
<text text-anchor="middle" x="239.5" y="-129.5" font-family="Helvetica,sans-Serif" font-size="10.00">: Vector&#45;Vector</text>
</a>
</g>
</g>
<!-- Node3 -->
<g id="Node000003" class="node">
<title>Node3</title>
<g id="a_Node000003"><a xlink:href="group__blas2.html" target="_top" xlink:title="and">
<polygon fill="white" stroke="#666666" points="300,-104.5 179,-104.5 179,-74.5 300,-74.5 300,-104.5"/>
<text text-anchor="start" x="187" y="-92.5" font-family="Helvetica,sans-Serif" font-size="10.00">BLAS level 2 routines</text>
<text text-anchor="middle" x="239.5" y="-81.5" font-family="Helvetica,sans-Serif" font-size="10.00">: Matrix&#45;Vector</text>
</a>
</g>
</g>
<!-- Node1 -->
<g id="Node000001" class="node">
<title>Node1</title>
<g id="a_Node000001"><a xlink:title=" ">
<polygon fill="#999999" stroke="#666666" points="143,-82.5 0,-82.5 0,-52.5 143,-52.5 143,-82.5"/>
<text text-anchor="start" x="8" y="-70.5" font-family="Helvetica,sans-Serif" font-size="10.00">Level 1: Vectors, Matrices</text>
<text text-anchor="middle" x="71.5" y="-59.5" font-family="Helvetica,sans-Serif" font-size="10.00"> and basic operations</text>
</a>
</g>
</g>
<!-- Node1&#45;&gt;Node2 -->
<g id="edge1" class="edge">
<title>Node1&#45;&gt;Node2</title>
<path fill="none" stroke="black" d="M116.33,-86.72C135.52,-95.06 158.33,-104.87 179,-113.5 185.99,-116.42 193.46,-119.48 200.67,-122.4"/>
<polygon fill="black" stroke="black" points="117.51,-83.41 106.94,-82.63 114.71,-89.83 117.51,-83.41"/>
</g>
<!-- Node1&#45;&gt;Node3 -->
<g id="edge2" class="edge">
<title>Node1&#45;&gt;Node3</title>
<path fill="none" stroke="black" d="M153.4,-78.22C161.97,-79.36 170.56,-80.5 178.82,-81.59"/>
<polygon fill="black" stroke="black" points="153.75,-74.74 143.38,-76.89 152.83,-81.68 153.75,-74.74"/>
</g>
<!-- Node4 -->
<g id="Node000004" class="node">
<title>Node4</title>
<g id="a_Node000004"><a xlink:href="group__mpi__structures.html" target="_top" xlink:title=" ">
<polygon fill="white" stroke="#666666" points="278.5,-56 200.5,-56 200.5,-37 278.5,-37 278.5,-56"/>
<text text-anchor="middle" x="239.5" y="-44" font-family="Helvetica,sans-Serif" font-size="10.00">MPI backend</text>
</a>
</g>
</g>
<!-- Node1&#45;&gt;Node4 -->
<g id="edge3" class="edge">
<title>Node1&#45;&gt;Node4</title>
<path fill="none" stroke="black" d="M153.53,-57.25C169.88,-55.18 186.33,-53.1 200.35,-51.33"/>
<polygon fill="black" stroke="black" points="152.86,-53.81 143.38,-58.53 153.74,-60.75 152.86,-53.81"/>
</g>
<!-- Node5 -->
<g id="Node000005" class="node">
<title>Node5</title>
<g id="a_Node000005"><a xlink:href="group__utility.html" target="_top" xlink:title=" ">
<polygon fill="white" stroke="#666666" points="263,-19 216,-19 216,0 263,0 263,-19"/>
<text text-anchor="middle" x="239.5" y="-7" font-family="Helvetica,sans-Serif" font-size="10.00">Utility</text>
</a>
</g>
</g>
<!-- Node1&#45;&gt;Node5 -->
<g id="edge4" class="edge">
<title>Node1&#45;&gt;Node5</title>
<path fill="none" stroke="black" d="M121.98,-48.89C139.88,-42.29 160.3,-34.91 179,-28.5 191.1,-24.35 204.69,-19.99 215.82,-16.5"/>
<polygon fill="black" stroke="black" points="120.47,-45.72 112.31,-52.47 122.9,-52.28 120.47,-45.72"/>
</g>
</g>
</svg>
