<?xml version="1.0" encoding="UTF-8" standalone="no"?>
<!DOCTYPE svg PUBLIC "-//W3C//DTD SVG 1.1//EN"
 "http://www.w3.org/Graphics/SVG/1.1/DTD/svg11.dtd">
<!-- Generated by graphviz version 2.43.0 (0)
 -->
<!-- Title: Topological grids and operations Pages: 1 -->
<svg width="458pt" height="343pt"
 viewBox="0.00 0.00 458.00 342.50" xmlns="http://www.w3.org/2000/svg" xmlns:xlink="http://www.w3.org/1999/xlink">
<g id="graph0" class="graph" transform="scale(1 1) rotate(0) translate(4 338.5)">
<title>Topological grids and operations</title>
<!-- Node9 -->
<g id="Node000009" class="node">
<title>Node9</title>
<g id="a_Node000009"><a xlink:href="group__average.html" target="_top" xlink:title="and">
<polygon fill="white" stroke="#666666" points="448.5,-334.5 314.5,-334.5 314.5,-304.5 448.5,-304.5 448.5,-334.5"/>
<text text-anchor="start" x="322.5" y="-322.5" font-family="Helvetica,sans-Serif" font-size="10.00">Averaging, prolongation</text>
<text text-anchor="middle" x="381.5" y="-311.5" font-family="Helvetica,sans-Serif" font-size="10.00"> and partial reductions</text>
</a>
</g>
</g>
<!-- Node4 -->
<g id="Node000004" class="node">
<title>Node4</title>
<g id="a_Node000004"><a xlink:href="group__basic_xtopology.html" target="_top" xlink:title=" ">
<polygon fill="white" stroke="#666666" points="446.5,-286.5 316.5,-286.5 316.5,-256.5 446.5,-256.5 446.5,-286.5"/>
<text text-anchor="start" x="324.5" y="-274.5" font-family="Helvetica,sans-Serif" font-size="10.00">Discontinuous Galerkin</text>
<text text-anchor="middle" x="381.5" y="-263.5" font-family="Helvetica,sans-Serif" font-size="10.00"> grids with X&#45;point</text>
</a>
</g>
</g>
<!-- Node3 -->
<g id="Node000003" class="node">
<title>Node3</title>
<g id="a_Node000003"><a xlink:href="group__basictopology.html" target="_top" xlink:title=" ">
<polygon fill="white" stroke="#666666" points="446.5,-238.5 316.5,-238.5 316.5,-208.5 446.5,-208.5 446.5,-238.5"/>
<text text-anchor="start" x="324.5" y="-226.5" font-family="Helvetica,sans-Serif" font-size="10.00">Discontinuous Galerkin</text>
<text text-anchor="middle" x="381.5" y="-215.5" font-family="Helvetica,sans-Serif" font-size="10.00"> Nd grid</text>
</a>
</g>
</g>
<!-- Node6 -->
<g id="Node000006" class="node">
<title>Node6</title>
<g id="a_Node000006"><a xlink:href="group__creation.html" target="_top" xlink:title=", &#160;and">
<polygon fill="white" stroke="#666666" points="435,-190 328,-190 328,-171 435,-171 435,-190"/>
<text text-anchor="middle" x="381.5" y="-178" font-family="Helvetica,sans-Serif" font-size="10.00">Create derivatives</text>
</a>
</g>
</g>
<!-- Node5 -->
<g id="Node000005" class="node">
<title>Node5</title>
<g id="a_Node000005"><a xlink:href="group__evaluation.html" target="_top" xlink:title=" ">
<polygon fill="white" stroke="#666666" points="438,-152.5 325,-152.5 325,-122.5 438,-122.5 438,-152.5"/>
<text text-anchor="start" x="333" y="-140.5" font-family="Helvetica,sans-Serif" font-size="10.00">Evaluate, integrate,</text>
<text text-anchor="middle" x="381.5" y="-129.5" font-family="Helvetica,sans-Serif" font-size="10.00"> weights</text>
</a>
</g>
</g>
<!-- Node1 -->
<g id="Node000001" class="node">
<title>Node1</title>
<g id="a_Node000001"><a xlink:title=" ">
<polygon fill="#999999" stroke="#666666" points="277,-173.5 158,-173.5 158,-143.5 277,-143.5 277,-173.5"/>
<text text-anchor="start" x="166" y="-161.5" font-family="Helvetica,sans-Serif" font-size="10.00">Topological grids and</text>
<text text-anchor="middle" x="217.5" y="-150.5" font-family="Helvetica,sans-Serif" font-size="10.00"> operations</text>
</a>
</g>
</g>
<!-- Node1&#45;&gt;Node9 -->
<g id="edge8" class="edge">
<title>Node1&#45;&gt;Node9</title>
<path fill="none" stroke="black" d="M229.29,-182.64C244.04,-213.06 273.28,-265.03 313,-295.5 317.44,-298.91 322.41,-301.86 327.57,-304.41"/>
<polygon fill="black" stroke="black" points="232.44,-181.13 225.01,-173.58 226.11,-184.11 232.44,-181.13"/>
</g>
<!-- Node1&#45;&gt;Node4 -->
<g id="edge3" class="edge">
<title>Node1&#45;&gt;Node4</title>
<path fill="none" stroke="black" d="M237.82,-181.42C255.59,-201.27 283.59,-229.53 313,-247.5 318.52,-250.87 324.58,-253.86 330.74,-256.49"/>
<polygon fill="black" stroke="black" points="240.31,-178.95 231.08,-173.75 235.05,-183.57 240.31,-178.95"/>
</g>
<!-- Node1&#45;&gt;Node3 -->
<g id="edge2" class="edge">
<title>Node1&#45;&gt;Node3</title>
<path fill="none" stroke="black" d="M261.14,-177.73C277.28,-184.82 295.89,-192.76 313,-199.5 320.64,-202.51 328.82,-205.56 336.77,-208.44"/>
<polygon fill="black" stroke="black" points="262.51,-174.51 251.95,-173.67 259.68,-180.91 262.51,-174.51"/>
</g>
<!-- Node1&#45;&gt;Node6 -->
<g id="edge5" class="edge">
<title>Node1&#45;&gt;Node6</title>
<path fill="none" stroke="black" d="M287.62,-167.89C301.06,-169.71 314.96,-171.6 327.77,-173.34"/>
<polygon fill="black" stroke="black" points="287.82,-164.38 277.44,-166.5 286.88,-171.32 287.82,-164.38"/>
</g>
<!-- Node1&#45;&gt;Node5 -->
<g id="edge4" class="edge">
<title>Node1&#45;&gt;Node5</title>
<path fill="none" stroke="black" d="M287.37,-149.57C299.87,-147.95 312.77,-146.28 324.84,-144.72"/>
<polygon fill="black" stroke="black" points="286.91,-146.1 277.44,-150.86 287.81,-153.04 286.91,-146.1"/>
</g>
<!-- Node8 -->
<g id="Node000008" class="node">
<title>Node8</title>
<g id="a_Node000008"><a xlink:href="group__interpolation.html" target="_top" xlink:title=" ">
<polygon fill="white" stroke="#666666" points="450,-104.5 313,-104.5 313,-74.5 450,-74.5 450,-104.5"/>
<text text-anchor="start" x="321" y="-92.5" font-family="Helvetica,sans-Serif" font-size="10.00">Interpolation, Projection,</text>
<text text-anchor="middle" x="381.5" y="-81.5" font-family="Helvetica,sans-Serif" font-size="10.00"> Transformation</text>
</a>
</g>
</g>
<!-- Node1&#45;&gt;Node8 -->
<g id="edge7" class="edge">
<title>Node1&#45;&gt;Node8</title>
<path fill="none" stroke="black" d="M257.39,-138.87C274.3,-130.63 294.45,-121.19 313,-113.5 320.35,-110.45 328.25,-107.43 335.96,-104.61"/>
<polygon fill="black" stroke="black" points="255.79,-135.76 248.36,-143.31 258.88,-142.04 255.79,-135.76"/>
</g>
<!-- Node10 -->
<g id="Node000010" class="node">
<title>Node10</title>
<g id="a_Node000010"><a xlink:href="group__scatter.html" target="_top" xlink:title=" ">
<polygon fill="white" stroke="#666666" points="435.5,-56 327.5,-56 327.5,-37 435.5,-37 435.5,-56"/>
<text text-anchor="middle" x="381.5" y="-44" font-family="Helvetica,sans-Serif" font-size="10.00">Scatter and Gather</text>
</a>
</g>
</g>
<!-- Node1&#45;&gt;Node10 -->
<g id="edge9" class="edge">
<title>Node1&#45;&gt;Node10</title>
<path fill="none" stroke="black" d="M236.19,-135.37C253.55,-114.22 281.89,-83.56 313,-65.5 319.63,-61.65 327.09,-58.54 334.56,-56.05"/>
<polygon fill="black" stroke="black" points="233.41,-133.25 229.88,-143.24 238.86,-137.63 233.41,-133.25"/>
</g>
<!-- Node7 -->
<g id="Node000007" class="node">
<title>Node7</title>
<g id="a_Node000007"><a xlink:href="group__stencil.html" target="_top" xlink:title=" ">
<polygon fill="white" stroke="#666666" points="426,-19 337,-19 337,0 426,0 426,-19"/>
<text text-anchor="middle" x="381.5" y="-7" font-family="Helvetica,sans-Serif" font-size="10.00">Create stencils</text>
</a>
</g>
</g>
<!-- Node1&#45;&gt;Node7 -->
<g id="edge6" class="edge">
<title>Node1&#45;&gt;Node7</title>
<path fill="none" stroke="black" d="M229.62,-134.07C244.41,-104.36 273.37,-54.8 313,-27.5 320.09,-22.61 328.44,-19.05 336.81,-16.46"/>
<polygon fill="black" stroke="black" points="226.35,-132.8 225.15,-143.33 232.65,-135.85 226.35,-132.8"/>
</g>
<!-- Node2 -->
<g id="Node000002" class="node">
<title>Node2</title>
<g id="a_Node000002"><a xlink:href="group__level3.html" target="_top" xlink:title=" ">
<polygon fill="white" stroke="#666666" points="122,-173.5 0,-173.5 0,-143.5 122,-143.5 122,-173.5"/>
<text text-anchor="start" x="8" y="-161.5" font-family="Helvetica,sans-Serif" font-size="10.00">Level 3: Topology and</text>
<text text-anchor="middle" x="61" y="-150.5" font-family="Helvetica,sans-Serif" font-size="10.00"> Geometry</text>
</a>
</g>
</g>
<!-- Node2&#45;&gt;Node1 -->
<g id="edge1" class="edge">
<title>Node2&#45;&gt;Node1</title>
<path fill="none" stroke="black" d="M132.43,-158.5C140.9,-158.5 149.48,-158.5 157.76,-158.5"/>
<polygon fill="black" stroke="black" points="132.18,-155 122.18,-158.5 132.18,-162 132.18,-155"/>
</g>
</g>
</svg>
