<?xml version="1.0" encoding="UTF-8" standalone="no"?>
<!DOCTYPE svg PUBLIC "-//W3C//DTD SVG 1.1//EN"
 "http://www.w3.org/Graphics/SVG/1.1/DTD/svg11.dtd">
<!-- Generated by graphviz version 2.43.0 (0)
 -->
<!-- Title: Level 2: Basic numerical algorithms Pages: 1 -->
<svg width="296pt" height="150pt"
 viewBox="0.00 0.00 296.00 150.00" xmlns="http://www.w3.org/2000/svg" xmlns:xlink="http://www.w3.org/1999/xlink">
<g id="graph0" class="graph" transform="scale(1 1) rotate(0) translate(4 146)">
<title>Level 2: Basic numerical algorithms</title>
<!-- Node4 -->
<g id="Node000004" class="node">
<title>Node4</title>
<g id="a_Node000004"><a xlink:href="group__extrapolation.html" target="_top" xlink:title=" ">
<polygon fill="white" stroke="#666666" points="271,-142 189,-142 189,-123 271,-123 271,-142"/>
<text text-anchor="middle" x="230" y="-130" font-family="Helvetica,sans-Serif" font-size="10.00">Extrapolation</text>
</a>
</g>
</g>
<!-- Node3 -->
<g id="Node000003" class="node">
<title>Node3</title>
<g id="a_Node000003"><a xlink:href="group__integration.html" target="_top" xlink:title=" ">
<polygon fill="white" stroke="#666666" points="265.5,-105 194.5,-105 194.5,-86 265.5,-86 265.5,-105"/>
<text text-anchor="middle" x="230" y="-93" font-family="Helvetica,sans-Serif" font-size="10.00">Quadrature</text>
</a>
</g>
</g>
<!-- Node5 -->
<g id="Node000005" class="node">
<title>Node5</title>
<g id="a_Node000005"><a xlink:href="group__invert.html" target="_top" xlink:title="Linear &#160;and non&#45;linear .">
<polygon fill="white" stroke="#666666" points="288,-67.5 172,-67.5 172,-37.5 288,-37.5 288,-67.5"/>
<text text-anchor="start" x="180" y="-55.5" font-family="Helvetica,sans-Serif" font-size="10.00">Linear and nonlinear</text>
<text text-anchor="middle" x="230" y="-44.5" font-family="Helvetica,sans-Serif" font-size="10.00"> solvers</text>
</a>
</g>
</g>
<!-- Node1 -->
<g id="Node000001" class="node">
<title>Node1</title>
<g id="a_Node000001"><a xlink:title=" ">
<polygon fill="#999999" stroke="#666666" points="136,-88.5 0,-88.5 0,-58.5 136,-58.5 136,-88.5"/>
<text text-anchor="start" x="8" y="-76.5" font-family="Helvetica,sans-Serif" font-size="10.00">Level 2: Basic numerical</text>
<text text-anchor="middle" x="68" y="-65.5" font-family="Helvetica,sans-Serif" font-size="10.00"> algorithms</text>
</a>
</g>
</g>
<!-- Node1&#45;&gt;Node4 -->
<g id="edge3" class="edge">
<title>Node1&#45;&gt;Node4</title>
<path fill="none" stroke="black" d="M114.55,-92.46C132.36,-99.66 153.03,-107.74 172,-114.5 180.11,-117.39 188.96,-120.3 197.21,-122.91"/>
<polygon fill="black" stroke="black" points="115.56,-89.09 104.98,-88.57 112.93,-95.58 115.56,-89.09"/>
</g>
<!-- Node1&#45;&gt;Node3 -->
<g id="edge2" class="edge">
<title>Node1&#45;&gt;Node3</title>
<path fill="none" stroke="black" d="M146.76,-84.19C163.49,-86.49 180.36,-88.81 194.42,-90.74"/>
<polygon fill="black" stroke="black" points="146.77,-80.66 136.39,-82.77 145.82,-87.6 146.77,-80.66"/>
</g>
<!-- Node1&#45;&gt;Node5 -->
<g id="edge4" class="edge">
<title>Node1&#45;&gt;Node5</title>
<path fill="none" stroke="black" d="M146.4,-63.34C154.96,-62.22 163.56,-61.09 171.81,-60.01"/>
<polygon fill="black" stroke="black" points="145.85,-59.88 136.39,-64.65 146.76,-66.82 145.85,-59.88"/>
</g>
<!-- Node2 -->
<g id="Node000002" class="node">
<title>Node2</title>
<g id="a_Node000002"><a xlink:href="group__time.html" target="_top" xlink:title=" ">
<polygon fill="white" stroke="#666666" points="277,-19 183,-19 183,0 277,0 277,-19"/>
<text text-anchor="middle" x="230" y="-7" font-family="Helvetica,sans-Serif" font-size="10.00">ODE integration</text>
</a>
</g>
</g>
<!-- Node1&#45;&gt;Node2 -->
<g id="edge1" class="edge">
<title>Node1&#45;&gt;Node2</title>
<path fill="none" stroke="black" d="M110.96,-54.14C129.51,-45.86 151.68,-36.31 172,-28.5 180.57,-25.21 189.98,-21.93 198.65,-19.05"/>
<polygon fill="black" stroke="black" points="109.3,-51.05 101.62,-58.35 112.18,-57.44 109.3,-51.05"/>
</g>
</g>
</svg>
