<?xml version="1.0" encoding="UTF-8" standalone="no"?>
<!DOCTYPE svg PUBLIC "-//W3C//DTD SVG 1.1//EN"
 "http://www.w3.org/Graphics/SVG/1.1/DTD/svg11.dtd">
<!-- Generated by graphviz version 2.43.0 (0)
 -->
<!-- Title: Utilities for ODE integrators Pages: 1 -->
<svg width="405pt" height="68pt"
 viewBox="0.00 0.00 405.00 67.98" xmlns="http://www.w3.org/2000/svg" xmlns:xlink="http://www.w3.org/1999/xlink">
<g id="graph0" class="graph" transform="scale(1 1) rotate(0) translate(4 63.98)">
<title>Utilities for ODE integrators</title>
<!-- Node2 -->
<g id="Node000002" class="node">
<title>Node2</title>
<g id="a_Node000002"><a xlink:href="group__time.html" target="_top" xlink:title=" ">
<polygon fill="white" stroke="#666666" points="94,-49.27 0,-49.27 0,-30.27 94,-30.27 94,-49.27"/>
<text text-anchor="middle" x="47" y="-37.27" font-family="Helvetica,sans-Serif" font-size="10.00">ODE integration</text>
</a>
</g>
</g>
<!-- Node1 -->
<g id="Node000001" class="node">
<title>Node1</title>
<g id="a_Node000001"><a xlink:title=" ">
<polygon fill="#999999" stroke="#666666" points="397,-49.27 245,-49.27 245,-30.27 397,-30.27 397,-49.27"/>
<text text-anchor="middle" x="321" y="-37.27" font-family="Helvetica,sans-Serif" font-size="10.00">Utilities for ODE integrators</text>
</a>
</g>
</g>
<!-- Node2&#45;&gt;Node1 -->
<g id="edge1" class="edge">
<title>Node2&#45;&gt;Node1</title>
<path fill="none" stroke="black" d="M89.51,-51.71C96.94,-53.4 104.65,-54.87 112,-55.77 162.73,-62.02 176.07,-60.12 227,-55.77 242.34,-54.46 258.96,-51.96 273.84,-49.31"/>
<polygon fill="black" stroke="black" points="90.16,-48.27 79.61,-49.3 88.5,-55.07 90.16,-48.27"/>
</g>
<!-- Node1&#45;&gt;Node2 -->
<g id="edge2" class="edge">
<title>Node1&#45;&gt;Node2</title>
<path fill="none" stroke="orange" stroke-dasharray="5,2" d="M298.73,-30.18C280.22,-22.39 252.43,-12.02 227,-7.77 176.59,0.66 161.74,3.97 112,-7.77 93.74,-12.08 74.76,-22.44 62.25,-30.21"/>
<text text-anchor="middle" x="169.5" y="-43.77" font-family="Helvetica,sans-Serif" font-size="10.00">dg::AdaptiveTimeloop</text>
<text text-anchor="middle" x="169.5" y="-32.77" font-family="Helvetica,sans-Serif" font-size="10.00">dg::MultistepTimeloop</text>
<text text-anchor="middle" x="169.5" y="-21.77" font-family="Helvetica,sans-Serif" font-size="10.00">dg::aTimeloop</text>
<text text-anchor="middle" x="169.5" y="-10.77" font-family="Helvetica,sans-Serif" font-size="10.00">dg::SinglestepTimeloop</text>
</g>
</g>
</svg>
