<?xml version="1.0" encoding="UTF-8" standalone="no"?>
<!DOCTYPE svg PUBLIC "-//W3C//DTD SVG 1.1//EN"
 "http://www.w3.org/Graphics/SVG/1.1/DTD/svg11.dtd">
<!-- Generated by graphviz version 2.43.0 (0)
 -->
<!-- Title: MPI backend Pages: 1 -->
<svg width="429pt" height="86pt"
 viewBox="0.00 0.00 429.00 86.00" xmlns="http://www.w3.org/2000/svg" xmlns:xlink="http://www.w3.org/1999/xlink">
<g id="graph0" class="graph" transform="scale(1 1) rotate(0) translate(4 82)">
<title>MPI backend</title>
<!-- Node2 -->
<g id="Node000002" class="node">
<title>Node2</title>
<g id="a_Node000002"><a xlink:href="group__level1.html" target="_top" xlink:title=" ">
<polygon fill="white" stroke="#666666" points="143,-54 0,-54 0,-24 143,-24 143,-54"/>
<text text-anchor="start" x="8" y="-42" font-family="Helvetica,sans-Serif" font-size="10.00">Level 1: Vectors, Matrices</text>
<text text-anchor="middle" x="71.5" y="-31" font-family="Helvetica,sans-Serif" font-size="10.00"> and basic operations</text>
</a>
</g>
</g>
<!-- Node1 -->
<g id="Node000001" class="node">
<title>Node1</title>
<g id="a_Node000001"><a xlink:title=" ">
<polygon fill="#999999" stroke="#666666" points="257,-48.5 179,-48.5 179,-29.5 257,-29.5 257,-48.5"/>
<text text-anchor="middle" x="218" y="-36.5" font-family="Helvetica,sans-Serif" font-size="10.00">MPI backend</text>
</a>
</g>
</g>
<!-- Node2&#45;&gt;Node1 -->
<g id="edge1" class="edge">
<title>Node2&#45;&gt;Node1</title>
<path fill="none" stroke="black" d="M153.15,-39C162.05,-39 170.78,-39 178.79,-39"/>
<polygon fill="black" stroke="black" points="153.06,-35.5 143.06,-39 153.06,-42.5 153.06,-35.5"/>
</g>
<!-- Node4 -->
<g id="Node000004" class="node">
<title>Node4</title>
<g id="a_Node000004"><a xlink:href="group__mpi__comm.html" target="_top" xlink:title=" ">
<polygon fill="white" stroke="#666666" points="421,-78 293,-78 293,-48 421,-48 421,-78"/>
<text text-anchor="start" x="301" y="-66" font-family="Helvetica,sans-Serif" font-size="10.00">MPI Distributed Gather</text>
<text text-anchor="middle" x="357" y="-55" font-family="Helvetica,sans-Serif" font-size="10.00"> and Scatter</text>
</a>
</g>
</g>
<!-- Node3 -->
<g id="Node000003" class="node">
<title>Node3</title>
<g id="a_Node000003"><a xlink:href="group__mpi__matvec.html" target="_top" xlink:title=" ">
<polygon fill="white" stroke="#666666" points="409.5,-30 304.5,-30 304.5,0 409.5,0 409.5,-30"/>
<text text-anchor="start" x="312.5" y="-18" font-family="Helvetica,sans-Serif" font-size="10.00">Distributed Matrix</text>
<text text-anchor="middle" x="357" y="-7" font-family="Helvetica,sans-Serif" font-size="10.00"> and Vector</text>
</a>
</g>
</g>
<!-- Node1&#45;&gt;Node4 -->
<g id="edge3" class="edge">
<title>Node1&#45;&gt;Node4</title>
<path fill="none" stroke="black" d="M267.07,-47.42C275.4,-48.88 284.18,-50.42 292.84,-51.94"/>
<polygon fill="black" stroke="black" points="267.62,-43.96 257.16,-45.69 266.41,-50.86 267.62,-43.96"/>
</g>
<!-- Node1&#45;&gt;Node3 -->
<g id="edge2" class="edge">
<title>Node1&#45;&gt;Node3</title>
<path fill="none" stroke="black" d="M267.07,-30.58C279.17,-28.46 292.21,-26.17 304.47,-24.03"/>
<polygon fill="black" stroke="black" points="266.41,-27.14 257.16,-32.31 267.62,-34.04 266.41,-27.14"/>
</g>
</g>
</svg>
