<?xml version="1.0" encoding="UTF-8" standalone="no"?>
<!DOCTYPE svg PUBLIC "-//W3C//DTD SVG 1.1//EN"
 "http://www.w3.org/Graphics/SVG/1.1/DTD/svg11.dtd">
<!-- Generated by graphviz version 2.43.0 (0)
 -->
<!-- Title: Graphical Class Hierarchy Pages: 1 -->
<svg width="301pt" height="64pt"
 viewBox="0.00 0.00 301.00 64.00" xmlns="http://www.w3.org/2000/svg" xmlns:xlink="http://www.w3.org/1999/xlink">
<g id="graph0" class="graph" transform="scale(1 1) rotate(0) translate(4 60)">
<title>Graphical Class Hierarchy</title>
<!-- Node0 -->
<g id="Node000000" class="node">
<title>Node0</title>
<g id="a_Node000000"><a xlink:title=" ">
<polygon fill="#e0e0e0" stroke="#999999" points="86,-37 0,-37 0,-18 86,-18 86,-37"/>
<text text-anchor="middle" x="43" y="-25" font-family="Helvetica,sans-Serif" font-size="10.00">std::exception</text>
</a>
</g>
</g>
<!-- Node1 -->
<g id="Node000001" class="node">
<title>Node1</title>
<g id="a_Node000001"><a xlink:href="classdg_1_1_error.html" target="_top" xlink:title="class intended for the use in throw statements">
<polygon fill="white" stroke="#666666" points="192.5,-56 134.5,-56 134.5,-37 192.5,-37 192.5,-56"/>
<text text-anchor="middle" x="163.5" y="-44" font-family="Helvetica,sans-Serif" font-size="10.00">dg::Error</text>
</a>
</g>
</g>
<!-- Node0&#45;&gt;Node1 -->
<g id="edge60_Node000000_Node000001" class="edge">
<title>Node0&#45;&gt;Node1</title>
<g id="a_edge60_Node000000_Node000001"><a xlink:title=" ">
<path fill="none" stroke="#63b8ff" d="M96.02,-35.84C109.16,-37.95 122.78,-40.13 134.25,-41.97"/>
<polygon fill="#63b8ff" stroke="#63b8ff" points="96.54,-32.38 86.11,-34.25 95.43,-39.29 96.54,-32.38"/>
</a>
</g>
</g>
<!-- Node3 -->
<g id="Node000003" class="node">
<title>Node3</title>
<g id="a_Node000003"><a xlink:href="classdg_1_1_no_root1d.html" target="_top" xlink:title="Exception class, that stores boundaries for 1D root finding.">
<polygon fill="white" stroke="#666666" points="205,-19 122,-19 122,0 205,0 205,-19"/>
<text text-anchor="middle" x="163.5" y="-7" font-family="Helvetica,sans-Serif" font-size="10.00">dg::NoRoot1d</text>
</a>
</g>
</g>
<!-- Node0&#45;&gt;Node3 -->
<g id="edge62_Node000000_Node000003" class="edge">
<title>Node0&#45;&gt;Node3</title>
<g id="a_edge62_Node000000_Node000003"><a xlink:title=" ">
<path fill="none" stroke="#63b8ff" d="M96.06,-19.59C104.65,-18.29 113.45,-16.95 121.72,-15.69"/>
<polygon fill="#63b8ff" stroke="#63b8ff" points="95.47,-16.14 86.11,-21.1 96.52,-23.06 95.47,-16.14"/>
</a>
</g>
</g>
<!-- Node2 -->
<g id="Node000002" class="node">
<title>Node2</title>
<g id="a_Node000002"><a xlink:href="structdg_1_1_fail.html" target="_top" xlink:title="Indicate failure to converge.">
<polygon fill="white" stroke="#666666" points="293,-56 241,-56 241,-37 293,-37 293,-56"/>
<text text-anchor="middle" x="267" y="-44" font-family="Helvetica,sans-Serif" font-size="10.00">dg::Fail</text>
</a>
</g>
</g>
<!-- Node1&#45;&gt;Node2 -->
<g id="edge61_Node000001_Node000002" class="edge">
<title>Node1&#45;&gt;Node2</title>
<g id="a_edge61_Node000001_Node000002"><a xlink:title=" ">
<path fill="none" stroke="#63b8ff" d="M202.85,-46.5C215.57,-46.5 229.4,-46.5 240.86,-46.5"/>
<polygon fill="#63b8ff" stroke="#63b8ff" points="202.5,-43 192.5,-46.5 202.5,-50 202.5,-43"/>
</a>
</g>
</g>
</g>
</svg>
