<?xml version="1.0" encoding="UTF-8" standalone="no"?>
<!DOCTYPE svg PUBLIC "-//W3C//DTD SVG 1.1//EN"
 "http://www.w3.org/Graphics/SVG/1.1/DTD/svg11.dtd">
<!-- Generated by graphviz version 2.43.0 (0)
 -->
<!-- Title: Graphical Class Hierarchy Pages: 1 -->
<svg width="355pt" height="101pt"
 viewBox="0.00 0.00 355.00 101.00" xmlns="http://www.w3.org/2000/svg" xmlns:xlink="http://www.w3.org/1999/xlink">
<g id="graph0" class="graph" transform="scale(1 1) rotate(0) translate(4 97)">
<title>Graphical Class Hierarchy</title>
<!-- Node0 -->
<g id="Node000000" class="node">
<title>Node0</title>
<g id="a_Node000000"><a xlink:title=" ">
<polygon fill="#e0e0e0" stroke="#999999" points="86,-56 0,-56 0,-37 86,-37 86,-56"/>
<text text-anchor="middle" x="43" y="-44" font-family="Helvetica,sans-Serif" font-size="10.00">std::exception</text>
</a>
</g>
</g>
<!-- Node1 -->
<g id="Node000001" class="node">
<title>Node1</title>
<g id="a_Node000001"><a xlink:href="classdg_1_1_error.html" target="_top" xlink:title="class intended for the use in throw statements">
<polygon fill="white" stroke="#666666" points="219.5,-93 161.5,-93 161.5,-74 219.5,-74 219.5,-93"/>
<text text-anchor="middle" x="190.5" y="-81" font-family="Helvetica,sans-Serif" font-size="10.00">dg::Error</text>
</a>
</g>
</g>
<!-- Node0&#45;&gt;Node1 -->
<g id="edge61_Node000000_Node000001" class="edge">
<title>Node0&#45;&gt;Node1</title>
<g id="a_edge61_Node000000_Node000001"><a xlink:title=" ">
<path fill="none" stroke="#63b8ff" d="M91.44,-58.56C114.54,-64.44 141.54,-71.3 161.35,-76.34"/>
<polygon fill="#63b8ff" stroke="#63b8ff" points="92.02,-55.1 81.47,-56.03 90.3,-61.89 92.02,-55.1"/>
</a>
</g>
</g>
<!-- Node3 -->
<g id="Node000003" class="node">
<title>Node3</title>
<g id="a_Node000003"><a xlink:href="classdg_1_1_no_root1d.html" target="_top" xlink:title="Exception class, that stores boundaries for 1D root finding.">
<polygon fill="white" stroke="#666666" points="232,-56 149,-56 149,-37 232,-37 232,-56"/>
<text text-anchor="middle" x="190.5" y="-44" font-family="Helvetica,sans-Serif" font-size="10.00">dg::NoRoot1d</text>
</a>
</g>
</g>
<!-- Node0&#45;&gt;Node3 -->
<g id="edge63_Node000000_Node000003" class="edge">
<title>Node0&#45;&gt;Node3</title>
<g id="a_edge63_Node000000_Node000003"><a xlink:title=" ">
<path fill="none" stroke="#63b8ff" d="M96.5,-46.5C113.62,-46.5 132.36,-46.5 148.51,-46.5"/>
<polygon fill="#63b8ff" stroke="#63b8ff" points="96.08,-43 86.08,-46.5 96.08,-50 96.08,-43"/>
</a>
</g>
</g>
<!-- Node4 -->
<g id="Node000004" class="node">
<title>Node4</title>
<g id="a_Node000004"><a xlink:href="structdg_1_1detail_1_1_cusparse_error.html" target="_top" xlink:title=" ">
<polygon fill="white" stroke="#666666" points="259,-19 122,-19 122,0 259,0 259,-19"/>
<text text-anchor="middle" x="190.5" y="-7" font-family="Helvetica,sans-Serif" font-size="10.00">dg::detail::CusparseError</text>
</a>
</g>
</g>
<!-- Node0&#45;&gt;Node4 -->
<g id="edge64_Node000000_Node000004" class="edge">
<title>Node0&#45;&gt;Node4</title>
<g id="a_edge64_Node000000_Node000004"><a xlink:title=" ">
<path fill="none" stroke="#63b8ff" d="M91.16,-34.51C110.84,-29.5 133.37,-23.77 151.9,-19.06"/>
<polygon fill="#63b8ff" stroke="#63b8ff" points="90.3,-31.11 81.47,-36.97 92.02,-37.9 90.3,-31.11"/>
</a>
</g>
</g>
<!-- Node2 -->
<g id="Node000002" class="node">
<title>Node2</title>
<g id="a_Node000002"><a xlink:href="structdg_1_1_fail.html" target="_top" xlink:title="Indicate failure to converge.">
<polygon fill="white" stroke="#666666" points="347,-93 295,-93 295,-74 347,-74 347,-93"/>
<text text-anchor="middle" x="321" y="-81" font-family="Helvetica,sans-Serif" font-size="10.00">dg::Fail</text>
</a>
</g>
</g>
<!-- Node1&#45;&gt;Node2 -->
<g id="edge62_Node000001_Node000002" class="edge">
<title>Node1&#45;&gt;Node2</title>
<g id="a_edge62_Node000001_Node000002"><a xlink:title=" ">
<path fill="none" stroke="#63b8ff" d="M229.93,-83.5C250.96,-83.5 276.43,-83.5 294.91,-83.5"/>
<polygon fill="#63b8ff" stroke="#63b8ff" points="229.7,-80 219.7,-83.5 229.7,-87 229.7,-80"/>
</a>
</g>
</g>
</g>
</svg>
