<?xml version="1.0" encoding="UTF-8" standalone="no"?>
<!DOCTYPE svg PUBLIC "-//W3C//DTD SVG 1.1//EN"
 "http://www.w3.org/Graphics/SVG/1.1/DTD/svg11.dtd">
<!-- Generated by graphviz version 2.43.0 (0)
 -->
<!-- Title: Graphical Class Hierarchy Pages: 1 -->
<svg width="319pt" height="134pt"
 viewBox="0.00 0.00 319.00 134.00" xmlns="http://www.w3.org/2000/svg" xmlns:xlink="http://www.w3.org/1999/xlink">
<g id="graph0" class="graph" transform="scale(1 1) rotate(0) translate(4 130)">
<title>Graphical Class Hierarchy</title>
<!-- Node0 -->
<g id="Node000000" class="node">
<title>Node0</title>
<g id="a_Node000000"><a xlink:href="structdg_1_1a_timeloop.html" target="_top" xlink:title="Abstract timeloop independent of stepper and ODE.">
<polygon fill="white" stroke="#666666" points="144,-78 0,-78 0,-48 144,-48 144,-78"/>
<text text-anchor="start" x="8" y="-66" font-family="Helvetica,sans-Serif" font-size="10.00">dg::aTimeloop&lt; Container</text>
<text text-anchor="middle" x="72" y="-55" font-family="Helvetica,sans-Serif" font-size="10.00">Type &gt;</text>
</a>
</g>
</g>
<!-- Node1 -->
<g id="Node000001" class="node">
<title>Node1</title>
<g id="a_Node000001"><a xlink:href="structdg_1_1_adaptive_timeloop.html" target="_top" xlink:title="Integrate using a while loop.">
<polygon fill="white" stroke="#666666" points="307,-126 184,-126 184,-96 307,-96 307,-126"/>
<text text-anchor="start" x="192" y="-114" font-family="Helvetica,sans-Serif" font-size="10.00">dg::AdaptiveTimeloop</text>
<text text-anchor="middle" x="245.5" y="-103" font-family="Helvetica,sans-Serif" font-size="10.00">&lt; ContainerType &gt;</text>
</a>
</g>
</g>
<!-- Node0&#45;&gt;Node1 -->
<g id="edge58_Node000000_Node000001" class="edge">
<title>Node0&#45;&gt;Node1</title>
<g id="a_edge58_Node000000_Node000001"><a xlink:title=" ">
<path fill="none" stroke="#63b8ff" d="M136.56,-80.79C154.42,-85.79 173.67,-91.18 190.9,-96"/>
<polygon fill="#63b8ff" stroke="#63b8ff" points="137.37,-77.38 126.79,-78.06 135.48,-84.12 137.37,-77.38"/>
</a>
</g>
</g>
<!-- Node2 -->
<g id="Node000002" class="node">
<title>Node2</title>
<g id="a_Node000002"><a xlink:href="structdg_1_1_multistep_timeloop.html" target="_top" xlink:title="Integrate using a for loop and a fixed non&#45;changeable time&#45;step.">
<polygon fill="white" stroke="#666666" points="308,-78 183,-78 183,-48 308,-48 308,-78"/>
<text text-anchor="start" x="191" y="-66" font-family="Helvetica,sans-Serif" font-size="10.00">dg::MultistepTimeloop</text>
<text text-anchor="middle" x="245.5" y="-55" font-family="Helvetica,sans-Serif" font-size="10.00">&lt; ContainerType &gt;</text>
</a>
</g>
</g>
<!-- Node0&#45;&gt;Node2 -->
<g id="edge59_Node000000_Node000002" class="edge">
<title>Node0&#45;&gt;Node2</title>
<g id="a_edge59_Node000000_Node000002"><a xlink:title=" ">
<path fill="none" stroke="#63b8ff" d="M154.51,-63C164.01,-63 173.59,-63 182.77,-63"/>
<polygon fill="#63b8ff" stroke="#63b8ff" points="154.24,-59.5 144.24,-63 154.24,-66.5 154.24,-59.5"/>
</a>
</g>
</g>
<!-- Node3 -->
<g id="Node000003" class="node">
<title>Node3</title>
<g id="a_Node000003"><a xlink:href="structdg_1_1_singlestep_timeloop.html" target="_top" xlink:title="Integrate using a for loop and a fixed time&#45;step.">
<polygon fill="white" stroke="#666666" points="311,-30 180,-30 180,0 311,0 311,-30"/>
<text text-anchor="start" x="188" y="-18" font-family="Helvetica,sans-Serif" font-size="10.00">dg::SinglestepTimeloop</text>
<text text-anchor="middle" x="245.5" y="-7" font-family="Helvetica,sans-Serif" font-size="10.00">&lt; ContainerType &gt;</text>
</a>
</g>
</g>
<!-- Node0&#45;&gt;Node3 -->
<g id="edge60_Node000000_Node000003" class="edge">
<title>Node0&#45;&gt;Node3</title>
<g id="a_edge60_Node000000_Node000003"><a xlink:title=" ">
<path fill="none" stroke="#63b8ff" d="M136.56,-45.21C154.42,-40.21 173.67,-34.82 190.9,-30"/>
<polygon fill="#63b8ff" stroke="#63b8ff" points="135.48,-41.88 126.79,-47.94 137.37,-48.62 135.48,-41.88"/>
</a>
</g>
</g>
</g>
</svg>
