<?xml version="1.0" encoding="UTF-8" standalone="no"?>
<!DOCTYPE svg PUBLIC "-//W3C//DTD SVG 1.1//EN"
 "http://www.w3.org/Graphics/SVG/1.1/DTD/svg11.dtd">
<!-- Generated by graphviz version 2.43.0 (0)
 -->
<!-- Title: Graphical Class Hierarchy Pages: 1 -->
<svg width="457pt" height="86pt"
 viewBox="0.00 0.00 457.00 86.00" xmlns="http://www.w3.org/2000/svg" xmlns:xlink="http://www.w3.org/1999/xlink">
<g id="graph0" class="graph" transform="scale(1 1) rotate(0) translate(4 82)">
<title>Graphical Class Hierarchy</title>
<!-- Node0 -->
<g id="Node000000" class="node">
<title>Node0</title>
<g id="a_Node000000"><a xlink:href="structdg_1_1a_real_topology.html" target="_top" xlink:title=" ">
<polygon fill="white" stroke="#666666" points="114,-54 0,-54 0,-24 114,-24 114,-54"/>
<text text-anchor="start" x="8" y="-42" font-family="Helvetica,sans-Serif" font-size="10.00">dg::aRealTopology&lt;</text>
<text text-anchor="middle" x="57" y="-31" font-family="Helvetica,sans-Serif" font-size="10.00"> real_type, 2 &gt;</text>
</a>
</g>
</g>
<!-- Node1 -->
<g id="Node000001" class="node">
<title>Node1</title>
<g id="a_Node000001"><a xlink:href="structdg_1_1a_real_geometry2d.html" target="_top" xlink:title="This is the abstract interface class for a two&#45;dimensional Geometry.">
<polygon fill="white" stroke="#666666" points="273,-54 150,-54 150,-24 273,-24 273,-54"/>
<text text-anchor="start" x="158" y="-42" font-family="Helvetica,sans-Serif" font-size="10.00">dg::aRealGeometry2d</text>
<text text-anchor="middle" x="211.5" y="-31" font-family="Helvetica,sans-Serif" font-size="10.00">&lt; real_type &gt;</text>
</a>
</g>
</g>
<!-- Node0&#45;&gt;Node1 -->
<g id="edge41_Node000000_Node000001" class="edge">
<title>Node0&#45;&gt;Node1</title>
<g id="a_edge41_Node000000_Node000001"><a xlink:title=" ">
<path fill="none" stroke="#63b8ff" d="M124.49,-39C132.9,-39 141.46,-39 149.77,-39"/>
<polygon fill="#63b8ff" stroke="#63b8ff" points="124.35,-35.5 114.35,-39 124.35,-42.5 124.35,-35.5"/>
</a>
</g>
</g>
<!-- Node2 -->
<g id="Node000002" class="node">
<title>Node2</title>
<g id="a_Node000002"><a xlink:href="structdg_1_1_real_cartesian_grid2d.html" target="_top" xlink:title="Two&#45;dimensional Grid with Cartesian metric.">
<polygon fill="white" stroke="#666666" points="446.5,-78 311.5,-78 311.5,-48 446.5,-48 446.5,-78"/>
<text text-anchor="start" x="319.5" y="-66" font-family="Helvetica,sans-Serif" font-size="10.00">dg::RealCartesianGrid2d</text>
<text text-anchor="middle" x="379" y="-55" font-family="Helvetica,sans-Serif" font-size="10.00">&lt; real_type &gt;</text>
</a>
</g>
</g>
<!-- Node1&#45;&gt;Node2 -->
<g id="edge42_Node000001_Node000002" class="edge">
<title>Node1&#45;&gt;Node2</title>
<g id="a_edge42_Node000001_Node000002"><a xlink:title=" ">
<path fill="none" stroke="#63b8ff" d="M283.24,-49.26C292.6,-50.62 302.17,-52 311.46,-53.35"/>
<polygon fill="#63b8ff" stroke="#63b8ff" points="283.59,-45.77 273.19,-47.8 282.58,-52.7 283.59,-45.77"/>
</a>
</g>
</g>
<!-- Node3 -->
<g id="Node000003" class="node">
<title>Node3</title>
<g id="a_Node000003"><a xlink:href="structdg_1_1_real_cartesian_refined_grid2d.html" target="_top" xlink:title="Refined RealCartesian grid.">
<polygon fill="white" stroke="#666666" points="449,-30 309,-30 309,0 449,0 449,-30"/>
<text text-anchor="start" x="317" y="-18" font-family="Helvetica,sans-Serif" font-size="10.00">dg::RealCartesianRefined</text>
<text text-anchor="middle" x="379" y="-7" font-family="Helvetica,sans-Serif" font-size="10.00">Grid2d&lt; real_type &gt;</text>
</a>
</g>
</g>
<!-- Node1&#45;&gt;Node3 -->
<g id="edge43_Node000001_Node000003" class="edge">
<title>Node1&#45;&gt;Node3</title>
<g id="a_edge43_Node000001_Node000003"><a xlink:title=" ">
<path fill="none" stroke="#63b8ff" d="M283.12,-28.76C291.67,-27.52 300.4,-26.25 308.93,-25.02"/>
<polygon fill="#63b8ff" stroke="#63b8ff" points="282.58,-25.3 273.19,-30.2 283.59,-32.23 282.58,-25.3"/>
</a>
</g>
</g>
</g>
</svg>
