<?xml version="1.0" encoding="UTF-8" standalone="no"?>
<!DOCTYPE svg PUBLIC "-//W3C//DTD SVG 1.1//EN"
 "http://www.w3.org/Graphics/SVG/1.1/DTD/svg11.dtd">
<!-- Generated by graphviz version 2.43.0 (0)
 -->
<!-- Title: Graphical Class Hierarchy Pages: 1 -->
<svg width="302pt" height="64pt"
 viewBox="0.00 0.00 302.00 64.00" xmlns="http://www.w3.org/2000/svg" xmlns:xlink="http://www.w3.org/1999/xlink">
<g id="graph0" class="graph" transform="scale(1 1) rotate(0) translate(4 60)">
<title>Graphical Class Hierarchy</title>
<!-- Node0 -->
<g id="Node000000" class="node">
<title>Node0</title>
<g id="a_Node000000"><a xlink:href="structdg_1_1a_real_topology.html" target="_top" xlink:title=" ">
<polygon fill="white" stroke="#666666" points="114,-42.5 0,-42.5 0,-12.5 114,-12.5 114,-42.5"/>
<text text-anchor="start" x="8" y="-30.5" font-family="Helvetica,sans-Serif" font-size="10.00">dg::aRealTopology&lt;</text>
<text text-anchor="middle" x="57" y="-19.5" font-family="Helvetica,sans-Serif" font-size="10.00"> double, Nd &gt;</text>
</a>
</g>
</g>
<!-- Node1 -->
<g id="Node000001" class="node">
<title>Node1</title>
<g id="a_Node000001"><a xlink:href="structdg_1_1_real_grid.html" target="_top" xlink:title=" ">
<polygon fill="white" stroke="#666666" points="294,-56 150,-56 150,-37 294,-37 294,-56"/>
<text text-anchor="middle" x="222" y="-44" font-family="Helvetica,sans-Serif" font-size="10.00">dg::RealGrid&lt; double, 1 &gt;</text>
</a>
</g>
</g>
<!-- Node0&#45;&gt;Node1 -->
<g id="edge39_Node000000_Node000001" class="edge">
<title>Node0&#45;&gt;Node1</title>
<g id="a_edge39_Node000000_Node000001"><a xlink:title=" ">
<path fill="none" stroke="#63b8ff" d="M124.24,-35.22C132.67,-36.2 141.33,-37.21 149.83,-38.2"/>
<polygon fill="#63b8ff" stroke="#63b8ff" points="124.43,-31.72 114.1,-34.04 123.62,-38.67 124.43,-31.72"/>
</a>
</g>
</g>
<!-- Node2 -->
<g id="Node000002" class="node">
<title>Node2</title>
<g id="a_Node000002"><a xlink:href="structdg_1_1_real_grid.html" target="_top" xlink:title=" ">
<polygon fill="white" stroke="#666666" points="294,-19 150,-19 150,0 294,0 294,-19"/>
<text text-anchor="middle" x="222" y="-7" font-family="Helvetica,sans-Serif" font-size="10.00">dg::RealGrid&lt; double, 2 &gt;</text>
</a>
</g>
</g>
<!-- Node0&#45;&gt;Node2 -->
<g id="edge40_Node000000_Node000002" class="edge">
<title>Node0&#45;&gt;Node2</title>
<g id="a_edge40_Node000000_Node000002"><a xlink:title=" ">
<path fill="none" stroke="#63b8ff" d="M124.24,-20.19C132.67,-19.25 141.33,-18.3 149.83,-17.36"/>
<polygon fill="#63b8ff" stroke="#63b8ff" points="123.65,-16.73 114.1,-21.31 124.42,-23.69 123.65,-16.73"/>
</a>
</g>
</g>
</g>
</svg>
