<?xml version="1.0" encoding="UTF-8" standalone="no"?>
<!DOCTYPE svg PUBLIC "-//W3C//DTD SVG 1.1//EN"
 "http://www.w3.org/Graphics/SVG/1.1/DTD/svg11.dtd">
<!-- Generated by graphviz version 2.43.0 (0)
 -->
<!-- Title: Graphical Class Hierarchy Pages: 1 -->
<svg width="653pt" height="110pt"
 viewBox="0.00 0.00 653.00 110.00" xmlns="http://www.w3.org/2000/svg" xmlns:xlink="http://www.w3.org/1999/xlink">
<g id="graph0" class="graph" transform="scale(1 1) rotate(0) translate(4 106)">
<title>Graphical Class Hierarchy</title>
<!-- Node0 -->
<g id="Node000000" class="node">
<title>Node0</title>
<g id="a_Node000000"><a xlink:href="structdg_1_1a_real_topology.html" target="_top" xlink:title=" ">
<polygon fill="white" stroke="#666666" points="114,-78 0,-78 0,-48 114,-48 114,-78"/>
<text text-anchor="start" x="8" y="-66" font-family="Helvetica,sans-Serif" font-size="10.00">dg::aRealTopology&lt;</text>
<text text-anchor="middle" x="57" y="-55" font-family="Helvetica,sans-Serif" font-size="10.00"> real_type, 3 &gt;</text>
</a>
</g>
</g>
<!-- Node1 -->
<g id="Node000001" class="node">
<title>Node1</title>
<g id="a_Node000001"><a xlink:href="structdg_1_1a_real_geometry3d.html" target="_top" xlink:title="This is the abstract interface class for a three&#45;dimensional Geometry.">
<polygon fill="white" stroke="#666666" points="273,-78 150,-78 150,-48 273,-48 273,-78"/>
<text text-anchor="start" x="158" y="-66" font-family="Helvetica,sans-Serif" font-size="10.00">dg::aRealGeometry3d</text>
<text text-anchor="middle" x="211.5" y="-55" font-family="Helvetica,sans-Serif" font-size="10.00">&lt; real_type &gt;</text>
</a>
</g>
</g>
<!-- Node0&#45;&gt;Node1 -->
<g id="edge44_Node000000_Node000001" class="edge">
<title>Node0&#45;&gt;Node1</title>
<g id="a_edge44_Node000000_Node000001"><a xlink:title=" ">
<path fill="none" stroke="#63b8ff" d="M124.49,-63C132.9,-63 141.46,-63 149.77,-63"/>
<polygon fill="#63b8ff" stroke="#63b8ff" points="124.35,-59.5 114.35,-63 124.35,-66.5 124.35,-59.5"/>
</a>
</g>
</g>
<!-- Node2 -->
<g id="Node000002" class="node">
<title>Node2</title>
<g id="a_Node000002"><a xlink:href="structdg_1_1_real_cartesian_refined_grid3d.html" target="_top" xlink:title="Refined RealCartesian grid.">
<polygon fill="white" stroke="#666666" points="459,-102 319,-102 319,-72 459,-72 459,-102"/>
<text text-anchor="start" x="327" y="-90" font-family="Helvetica,sans-Serif" font-size="10.00">dg::RealCartesianRefined</text>
<text text-anchor="middle" x="389" y="-79" font-family="Helvetica,sans-Serif" font-size="10.00">Grid3d&lt; real_type &gt;</text>
</a>
</g>
</g>
<!-- Node1&#45;&gt;Node2 -->
<g id="edge45_Node000001_Node000002" class="edge">
<title>Node1&#45;&gt;Node2</title>
<g id="a_edge45_Node000001_Node000002"><a xlink:title=" ">
<path fill="none" stroke="#63b8ff" d="M283.5,-72.71C295.14,-74.3 307.2,-75.95 318.8,-77.54"/>
<polygon fill="#63b8ff" stroke="#63b8ff" points="283.77,-69.21 273.39,-71.33 282.82,-76.15 283.77,-69.21"/>
</a>
</g>
</g>
<!-- Node3 -->
<g id="Node000003" class="node">
<title>Node3</title>
<g id="a_Node000003"><a xlink:href="structdg_1_1a_real_product_geometry3d.html" target="_top" xlink:title="A 3d product space Geometry .">
<polygon fill="white" stroke="#666666" points="469,-54 309,-54 309,-24 469,-24 469,-54"/>
<text text-anchor="start" x="317" y="-42" font-family="Helvetica,sans-Serif" font-size="10.00">dg::aRealProductGeometry3d</text>
<text text-anchor="middle" x="389" y="-31" font-family="Helvetica,sans-Serif" font-size="10.00">&lt; real_type &gt;</text>
</a>
</g>
</g>
<!-- Node1&#45;&gt;Node3 -->
<g id="edge46_Node000001_Node000003" class="edge">
<title>Node1&#45;&gt;Node3</title>
<g id="a_edge46_Node000001_Node000003"><a xlink:title=" ">
<path fill="none" stroke="#63b8ff" d="M283.5,-53.29C291.89,-52.14 300.49,-50.97 308.98,-49.81"/>
<polygon fill="#63b8ff" stroke="#63b8ff" points="282.82,-49.85 273.39,-54.67 283.77,-56.79 282.82,-49.85"/>
</a>
</g>
</g>
<!-- Node4 -->
<g id="Node000004" class="node">
<title>Node4</title>
<g id="a_Node000004"><a xlink:href="structdg_1_1_real_cartesian_grid3d.html" target="_top" xlink:title="Three&#45;dimensional Grid with Cartesian metric.">
<polygon fill="white" stroke="#666666" points="642.5,-78 507.5,-78 507.5,-48 642.5,-48 642.5,-78"/>
<text text-anchor="start" x="515.5" y="-66" font-family="Helvetica,sans-Serif" font-size="10.00">dg::RealCartesianGrid3d</text>
<text text-anchor="middle" x="575" y="-55" font-family="Helvetica,sans-Serif" font-size="10.00">&lt; real_type &gt;</text>
</a>
</g>
</g>
<!-- Node3&#45;&gt;Node4 -->
<g id="edge47_Node000003_Node000004" class="edge">
<title>Node3&#45;&gt;Node4</title>
<g id="a_edge47_Node000003_Node000004"><a xlink:title=" ">
<path fill="none" stroke="#63b8ff" d="M479.02,-50.61C488.57,-51.86 498.16,-53.11 507.38,-54.31"/>
<polygon fill="#63b8ff" stroke="#63b8ff" points="479.47,-47.14 469.1,-49.32 478.56,-54.08 479.47,-47.14"/>
</a>
</g>
</g>
<!-- Node5 -->
<g id="Node000005" class="node">
<title>Node5</title>
<g id="a_Node000005"><a xlink:href="structdg_1_1_real_cylindrical_grid3d.html" target="_top" xlink:title="three&#45;dimensional Grid with Cylindrical metric">
<polygon fill="white" stroke="#666666" points="645,-30 505,-30 505,0 645,0 645,-30"/>
<text text-anchor="start" x="513" y="-18" font-family="Helvetica,sans-Serif" font-size="10.00">dg::RealCylindricalGrid3d</text>
<text text-anchor="middle" x="575" y="-7" font-family="Helvetica,sans-Serif" font-size="10.00">&lt; real_type &gt;</text>
</a>
</g>
</g>
<!-- Node3&#45;&gt;Node5 -->
<g id="edge48_Node000003_Node000005" class="edge">
<title>Node3&#45;&gt;Node5</title>
<g id="a_edge48_Node000003_Node000005"><a xlink:title=" ">
<path fill="none" stroke="#63b8ff" d="M479.18,-27.37C487.79,-26.24 496.44,-25.12 504.81,-24.02"/>
<polygon fill="#63b8ff" stroke="#63b8ff" points="478.56,-23.92 469.1,-28.68 479.47,-30.86 478.56,-23.92"/>
</a>
</g>
</g>
</g>
</svg>
