<?xml version="1.0" encoding="UTF-8" standalone="no"?>
<!DOCTYPE svg PUBLIC "-//W3C//DTD SVG 1.1//EN"
 "http://www.w3.org/Graphics/SVG/1.1/DTD/svg11.dtd">
<!-- Generated by graphviz version 2.43.0 (0)
 -->
<!-- Title: Graphical Class Hierarchy Pages: 1 -->
<svg width="222pt" height="101pt"
 viewBox="0.00 0.00 222.00 101.00" xmlns="http://www.w3.org/2000/svg" xmlns:xlink="http://www.w3.org/1999/xlink">
<g id="graph0" class="graph" transform="scale(1 1) rotate(0) translate(4 97)">
<title>Graphical Class Hierarchy</title>
<!-- Node0 -->
<g id="Node000000" class="node">
<title>Node0</title>
<g id="a_Node000000"><a xlink:href="structdg_1_1_any_policy_tag.html" target="_top" xlink:title="Execution Policy base class.">
<polygon fill="white" stroke="#666666" points="99,-56 0,-56 0,-37 99,-37 99,-56"/>
<text text-anchor="middle" x="49.5" y="-44" font-family="Helvetica,sans-Serif" font-size="10.00">dg::AnyPolicyTag</text>
</a>
</g>
</g>
<!-- Node1 -->
<g id="Node000001" class="node">
<title>Node1</title>
<g id="a_Node000001"><a xlink:href="structdg_1_1_cuda_tag.html" target="_top" xlink:title="CUDA implementation.">
<polygon fill="white" stroke="#666666" points="212.5,-93 136.5,-93 136.5,-74 212.5,-74 212.5,-93"/>
<text text-anchor="middle" x="174.5" y="-81" font-family="Helvetica,sans-Serif" font-size="10.00">dg::CudaTag</text>
</a>
</g>
</g>
<!-- Node0&#45;&gt;Node1 -->
<g id="edge21_Node000000_Node000001" class="edge">
<title>Node0&#45;&gt;Node1</title>
<g id="a_edge21_Node000000_Node000001"><a xlink:title=" ">
<path fill="none" stroke="#63b8ff" d="M91.93,-58.96C108.11,-63.83 126.37,-69.32 141.5,-73.88"/>
<polygon fill="#63b8ff" stroke="#63b8ff" points="92.76,-55.56 82.18,-56.03 90.74,-62.26 92.76,-55.56"/>
</a>
</g>
</g>
<!-- Node2 -->
<g id="Node000002" class="node">
<title>Node2</title>
<g id="a_Node000002"><a xlink:href="structdg_1_1_omp_tag.html" target="_top" xlink:title="OpenMP parallel execution.">
<polygon fill="white" stroke="#666666" points="211.5,-56 137.5,-56 137.5,-37 211.5,-37 211.5,-56"/>
<text text-anchor="middle" x="174.5" y="-44" font-family="Helvetica,sans-Serif" font-size="10.00">dg::OmpTag</text>
</a>
</g>
</g>
<!-- Node0&#45;&gt;Node2 -->
<g id="edge22_Node000000_Node000002" class="edge">
<title>Node0&#45;&gt;Node2</title>
<g id="a_edge22_Node000000_Node000002"><a xlink:title=" ">
<path fill="none" stroke="#63b8ff" d="M109.4,-46.5C118.95,-46.5 128.59,-46.5 137.38,-46.5"/>
<polygon fill="#63b8ff" stroke="#63b8ff" points="109.11,-43 99.11,-46.5 109.11,-50 109.11,-43"/>
</a>
</g>
</g>
<!-- Node3 -->
<g id="Node000003" class="node">
<title>Node3</title>
<g id="a_Node000003"><a xlink:href="structdg_1_1_serial_tag.html" target="_top" xlink:title="Indicate sequential execution.">
<polygon fill="white" stroke="#666666" points="214,-19 135,-19 135,0 214,0 214,-19"/>
<text text-anchor="middle" x="174.5" y="-7" font-family="Helvetica,sans-Serif" font-size="10.00">dg::SerialTag</text>
</a>
</g>
</g>
<!-- Node0&#45;&gt;Node3 -->
<g id="edge23_Node000000_Node000003" class="edge">
<title>Node0&#45;&gt;Node3</title>
<g id="a_edge23_Node000000_Node000003"><a xlink:title=" ">
<path fill="none" stroke="#63b8ff" d="M91.93,-34.04C108.11,-29.17 126.37,-23.68 141.5,-19.12"/>
<polygon fill="#63b8ff" stroke="#63b8ff" points="90.74,-30.74 82.18,-36.97 92.76,-37.44 90.74,-30.74"/>
</a>
</g>
</g>
</g>
</svg>
