<?xml version="1.0" encoding="UTF-8" standalone="no"?>
<!DOCTYPE svg PUBLIC "-//W3C//DTD SVG 1.1//EN"
 "http://www.w3.org/Graphics/SVG/1.1/DTD/svg11.dtd">
<!-- Generated by graphviz version 2.43.0 (0)
 -->
<!-- Title: dg::AnyVectorTag Pages: 1 -->
<svg width="685pt" height="302pt"
 viewBox="0.00 0.00 685.00 302.00" xmlns="http://www.w3.org/2000/svg" xmlns:xlink="http://www.w3.org/1999/xlink">
<g id="graph0" class="graph" transform="scale(1 1) rotate(0) translate(4 298)">
<title>dg::AnyVectorTag</title>
<!-- Node1 -->
<g id="Node000001" class="node">
<title>Node1</title>
<g id="a_Node000001"><a xlink:title="Vector Tag base class, indicates the basic Vector/container concept.">
<polygon fill="#999999" stroke="#666666" points="460.5,-239 359.5,-239 359.5,-220 460.5,-220 460.5,-239"/>
<text text-anchor="middle" x="410" y="-227" font-family="Helvetica,sans-Serif" font-size="10.00">dg::AnyVectorTag</text>
</a>
</g>
</g>
<!-- Node3 -->
<g id="Node000003" class="node">
<title>Node3</title>
<g id="a_Node000003"><a xlink:href="structdg_1_1_any_scalar_tag.html" target="_top" xlink:title="Scalar Tag base class.">
<polygon fill="white" stroke="#666666" points="274,-184 174,-184 174,-165 274,-165 274,-184"/>
<text text-anchor="middle" x="224" y="-172" font-family="Helvetica,sans-Serif" font-size="10.00">dg::AnyScalarTag</text>
</a>
</g>
</g>
<!-- Node1&#45;&gt;Node3 -->
<g id="edge2_Node000001_Node000003" class="edge">
<title>Node1&#45;&gt;Node3</title>
<g id="a_edge2_Node000001_Node000003"><a xlink:title=" ">
<path fill="none" stroke="#63b8ff" d="M370.29,-217.18C335.5,-207.27 285.71,-193.08 254.12,-184.08"/>
<polygon fill="#63b8ff" stroke="#63b8ff" points="369.54,-220.61 380.12,-219.98 371.46,-213.88 369.54,-220.61"/>
</a>
</g>
</g>
<!-- Node8 -->
<g id="Node000008" class="node">
<title>Node8</title>
<g id="a_Node000008"><a xlink:href="structdg_1_1_m_p_i_vector_tag.html" target="_top" xlink:title="A distributed vector contains a data container and a MPI communicator.">
<polygon fill="white" stroke="#666666" points="393.5,-184 292.5,-184 292.5,-165 393.5,-165 393.5,-184"/>
<text text-anchor="middle" x="343" y="-172" font-family="Helvetica,sans-Serif" font-size="10.00">dg::MPIVectorTag</text>
</a>
</g>
</g>
<!-- Node1&#45;&gt;Node8 -->
<g id="edge7_Node000001_Node000008" class="edge">
<title>Node1&#45;&gt;Node8</title>
<g id="a_edge7_Node000001_Node000008"><a xlink:title=" ">
<path fill="none" stroke="#63b8ff" d="M391.17,-213.6C379.16,-204.11 364.03,-192.13 353.96,-184.17"/>
<polygon fill="#63b8ff" stroke="#63b8ff" points="389.22,-216.53 399.24,-219.98 393.56,-211.04 389.22,-216.53"/>
</a>
</g>
</g>
<!-- Node9 -->
<g id="Node000009" class="node">
<title>Node9</title>
<g id="a_Node000009"><a xlink:href="structdg_1_1_recursive_vector_tag.html" target="_top" xlink:title="This tag indicates composition/recursion.">
<polygon fill="white" stroke="#666666" points="542.5,-184 411.5,-184 411.5,-165 542.5,-165 542.5,-184"/>
<text text-anchor="middle" x="477" y="-172" font-family="Helvetica,sans-Serif" font-size="10.00">dg::RecursiveVectorTag</text>
</a>
</g>
</g>
<!-- Node1&#45;&gt;Node9 -->
<g id="edge8_Node000001_Node000009" class="edge">
<title>Node1&#45;&gt;Node9</title>
<g id="a_edge8_Node000001_Node000009"><a xlink:title=" ">
<path fill="none" stroke="#63b8ff" d="M428.83,-213.6C440.84,-204.11 455.97,-192.13 466.04,-184.17"/>
<polygon fill="#63b8ff" stroke="#63b8ff" points="426.44,-211.04 420.76,-219.98 430.78,-216.53 426.44,-211.04"/>
</a>
</g>
</g>
<!-- Node12 -->
<g id="Node000012" class="node">
<title>Node12</title>
<g id="a_Node000012"><a xlink:href="structdg_1_1_shared_vector_tag.html" target="_top" xlink:title="Indicate a contiguous chunk of shared memory.">
<polygon fill="white" stroke="#666666" points="677,-184 561,-184 561,-165 677,-165 677,-184"/>
<text text-anchor="middle" x="619" y="-172" font-family="Helvetica,sans-Serif" font-size="10.00">dg::SharedVectorTag</text>
</a>
</g>
</g>
<!-- Node1&#45;&gt;Node12 -->
<g id="edge11_Node000001_Node000012" class="edge">
<title>Node1&#45;&gt;Node12</title>
<g id="a_edge11_Node000001_Node000012"><a xlink:title=" ">
<path fill="none" stroke="#63b8ff" d="M453.37,-217.5C492.51,-207.58 549.28,-193.18 585.16,-184.08"/>
<polygon fill="#63b8ff" stroke="#63b8ff" points="452.41,-214.13 443.58,-219.98 454.13,-220.92 452.41,-214.13"/>
</a>
</g>
</g>
<!-- Node2 -->
<g id="Node000002" class="node">
<title>Node2</title>
<g id="a_Node000002"><a xlink:href="structdg_1_1_any_matrix_tag.html" target="_top" xlink:title="tensor_category base class">
<polygon fill="white" stroke="#666666" points="460.5,-294 359.5,-294 359.5,-275 460.5,-275 460.5,-294"/>
<text text-anchor="middle" x="410" y="-282" font-family="Helvetica,sans-Serif" font-size="10.00">dg::AnyMatrixTag</text>
</a>
</g>
</g>
<!-- Node2&#45;&gt;Node1 -->
<g id="edge1_Node000001_Node000002" class="edge">
<title>Node2&#45;&gt;Node1</title>
<g id="a_edge1_Node000001_Node000002"><a xlink:title=" ">
<path fill="none" stroke="#63b8ff" d="M410,-264.66C410,-255.93 410,-245.99 410,-239.09"/>
<polygon fill="#63b8ff" stroke="#63b8ff" points="406.5,-264.75 410,-274.75 413.5,-264.75 406.5,-264.75"/>
</a>
</g>
</g>
<!-- Node4 -->
<g id="Node000004" class="node">
<title>Node4</title>
<g id="a_Node000004"><a xlink:href="structdg_1_1_arithmetic_tag.html" target="_top" xlink:title="Types where std::is_arithmetic is true.">
<polygon fill="white" stroke="#666666" points="169,-129 67,-129 67,-110 169,-110 169,-129"/>
<text text-anchor="middle" x="118" y="-117" font-family="Helvetica,sans-Serif" font-size="10.00">dg::ArithmeticTag</text>
</a>
</g>
</g>
<!-- Node3&#45;&gt;Node4 -->
<g id="edge3_Node000003_Node000004" class="edge">
<title>Node3&#45;&gt;Node4</title>
<g id="a_edge3_Node000003_Node000004"><a xlink:title=" ">
<path fill="none" stroke="#63b8ff" d="M198,-160.5C178.5,-150.75 152.35,-137.68 135.34,-129.17"/>
<polygon fill="#63b8ff" stroke="#63b8ff" points="196.46,-163.64 206.97,-164.98 199.59,-157.38 196.46,-163.64"/>
</a>
</g>
</g>
<!-- Node7 -->
<g id="Node000007" class="node">
<title>Node7</title>
<g id="a_Node000007"><a xlink:href="structdg_1_1_complex_tag.html" target="_top" xlink:title="complex number type">
<polygon fill="white" stroke="#666666" points="282.5,-129 187.5,-129 187.5,-110 282.5,-110 282.5,-129"/>
<text text-anchor="middle" x="235" y="-117" font-family="Helvetica,sans-Serif" font-size="10.00">dg::ComplexTag</text>
</a>
</g>
</g>
<!-- Node3&#45;&gt;Node7 -->
<g id="edge6_Node000003_Node000007" class="edge">
<title>Node3&#45;&gt;Node7</title>
<g id="a_edge6_Node000003_Node000007"><a xlink:title=" ">
<path fill="none" stroke="#63b8ff" d="M227.85,-154.95C229.68,-146.15 231.77,-136.06 233.22,-129.09"/>
<polygon fill="#63b8ff" stroke="#63b8ff" points="224.42,-154.25 225.82,-164.75 231.28,-155.67 224.42,-154.25"/>
</a>
</g>
</g>
<!-- Node5 -->
<g id="Node000005" class="node">
<title>Node5</title>
<g id="a_Node000005"><a xlink:href="structdg_1_1_floating_point_tag.html" target="_top" xlink:title="Types where std::is_floating_point is true.">
<polygon fill="white" stroke="#666666" points="116,-74 0,-74 0,-55 116,-55 116,-74"/>
<text text-anchor="middle" x="58" y="-62" font-family="Helvetica,sans-Serif" font-size="10.00">dg::FloatingPointTag</text>
</a>
</g>
</g>
<!-- Node4&#45;&gt;Node5 -->
<g id="edge4_Node000004_Node000005" class="edge">
<title>Node4&#45;&gt;Node5</title>
<g id="a_edge4_Node000004_Node000005"><a xlink:title=" ">
<path fill="none" stroke="#63b8ff" d="M100.82,-103.32C90.12,-93.87 76.74,-82.06 67.82,-74.17"/>
<polygon fill="#63b8ff" stroke="#63b8ff" points="98.55,-105.99 108.36,-109.98 103.18,-100.74 98.55,-105.99"/>
</a>
</g>
</g>
<!-- Node6 -->
<g id="Node000006" class="node">
<title>Node6</title>
<g id="a_Node000006"><a xlink:href="structdg_1_1_integral_tag.html" target="_top" xlink:title="Types where std::is_integral is true.">
<polygon fill="white" stroke="#666666" points="223.5,-74 134.5,-74 134.5,-55 223.5,-55 223.5,-74"/>
<text text-anchor="middle" x="179" y="-62" font-family="Helvetica,sans-Serif" font-size="10.00">dg::IntegralTag</text>
</a>
</g>
</g>
<!-- Node4&#45;&gt;Node6 -->
<g id="edge5_Node000004_Node000006" class="edge">
<title>Node4&#45;&gt;Node6</title>
<g id="a_edge5_Node000004_Node000006"><a xlink:title=" ">
<path fill="none" stroke="#63b8ff" d="M135.47,-103.32C146.34,-93.87 159.94,-82.06 169.02,-74.17"/>
<polygon fill="#63b8ff" stroke="#63b8ff" points="133.05,-100.78 127.8,-109.98 137.65,-106.07 133.05,-100.78"/>
</a>
</g>
</g>
<!-- Node10 -->
<g id="Node000010" class="node">
<title>Node10</title>
<g id="a_Node000010"><a xlink:href="structdg_1_1_array_vector_tag.html" target="_top" xlink:title=" ">
<polygon fill="white" stroke="#666666" points="430.5,-129 321.5,-129 321.5,-110 430.5,-110 430.5,-129"/>
<text text-anchor="middle" x="376" y="-117" font-family="Helvetica,sans-Serif" font-size="10.00">dg::ArrayVectorTag</text>
</a>
</g>
</g>
<!-- Node9&#45;&gt;Node10 -->
<g id="edge9_Node000009_Node000010" class="edge">
<title>Node9&#45;&gt;Node10</title>
<g id="a_edge9_Node000009_Node000010"><a xlink:title=" ">
<path fill="none" stroke="#63b8ff" d="M451.72,-160.23C433.2,-150.51 408.58,-137.6 392.52,-129.17"/>
<polygon fill="#63b8ff" stroke="#63b8ff" points="450.29,-163.44 460.77,-164.98 453.54,-157.24 450.29,-163.44"/>
</a>
</g>
</g>
<!-- Node11 -->
<g id="Node000011" class="node">
<title>Node11</title>
<g id="a_Node000011"><a xlink:href="structdg_1_1_std_map_tag.html" target="_top" xlink:title=" ">
<polygon fill="white" stroke="#666666" points="537,-129 449,-129 449,-110 537,-110 537,-129"/>
<text text-anchor="middle" x="493" y="-117" font-family="Helvetica,sans-Serif" font-size="10.00">dg::StdMapTag</text>
</a>
</g>
</g>
<!-- Node9&#45;&gt;Node11 -->
<g id="edge10_Node000009_Node000011" class="edge">
<title>Node9&#45;&gt;Node11</title>
<g id="a_edge10_Node000009_Node000011"><a xlink:title=" ">
<path fill="none" stroke="#63b8ff" d="M482.6,-154.95C485.26,-146.15 488.3,-136.06 490.41,-129.09"/>
<polygon fill="#63b8ff" stroke="#63b8ff" points="479.18,-154.16 479.64,-164.75 485.88,-156.19 479.18,-154.16"/>
</a>
</g>
</g>
<!-- Node13 -->
<g id="Node000013" class="node">
<title>Node13</title>
<g id="a_Node000013"><a xlink:href="structdg_1_1_array_scalar_tag.html" target="_top" xlink:title=" ">
<polygon fill="white" stroke="#666666" points="672.5,-129 565.5,-129 565.5,-110 672.5,-110 672.5,-129"/>
<text text-anchor="middle" x="619" y="-117" font-family="Helvetica,sans-Serif" font-size="10.00">dg::ArrayScalarTag</text>
</a>
</g>
</g>
<!-- Node12&#45;&gt;Node13 -->
<g id="edge12_Node000012_Node000013" class="edge">
<title>Node12&#45;&gt;Node13</title>
<g id="a_edge12_Node000012_Node000013"><a xlink:title=" ">
<path fill="none" stroke="#63b8ff" d="M619,-154.66C619,-145.93 619,-135.99 619,-129.09"/>
<polygon fill="#63b8ff" stroke="#63b8ff" points="615.5,-154.75 619,-164.75 622.5,-154.75 615.5,-154.75"/>
</a>
</g>
</g>
<!-- Node14 -->
<g id="Node000014" class="node">
<title>Node14</title>
<g id="a_Node000014"><a xlink:href="structdg_1_1_thrust_vector_tag.html" target="_top" xlink:title="Indicate thrust/std &#45; like behaviour.">
<polygon fill="white" stroke="#666666" points="675.5,-74 562.5,-74 562.5,-55 675.5,-55 675.5,-74"/>
<text text-anchor="middle" x="619" y="-62" font-family="Helvetica,sans-Serif" font-size="10.00">dg::ThrustVectorTag</text>
</a>
</g>
</g>
<!-- Node13&#45;&gt;Node14 -->
<g id="edge13_Node000013_Node000014" class="edge">
<title>Node13&#45;&gt;Node14</title>
<g id="a_edge13_Node000013_Node000014"><a xlink:title=" ">
<path fill="none" stroke="#63b8ff" d="M619,-99.66C619,-90.93 619,-80.99 619,-74.09"/>
<polygon fill="#63b8ff" stroke="#63b8ff" points="615.5,-99.75 619,-109.75 622.5,-99.75 615.5,-99.75"/>
</a>
</g>
</g>
<!-- Node15 -->
<g id="Node000015" class="node">
<title>Node15</title>
<g id="a_Node000015"><a xlink:href="structdg_1_1_cusp_vector_tag.html" target="_top" xlink:title="special tag for cusp arrays">
<polygon fill="white" stroke="#666666" points="672.5,-19 565.5,-19 565.5,0 672.5,0 672.5,-19"/>
<text text-anchor="middle" x="619" y="-7" font-family="Helvetica,sans-Serif" font-size="10.00">dg::CuspVectorTag</text>
</a>
</g>
</g>
<!-- Node14&#45;&gt;Node15 -->
<g id="edge14_Node000014_Node000015" class="edge">
<title>Node14&#45;&gt;Node15</title>
<g id="a_edge14_Node000014_Node000015"><a xlink:title=" ">
<path fill="none" stroke="#63b8ff" d="M619,-44.66C619,-35.93 619,-25.99 619,-19.09"/>
<polygon fill="#63b8ff" stroke="#63b8ff" points="615.5,-44.75 619,-54.75 622.5,-44.75 615.5,-44.75"/>
</a>
</g>
</g>
</g>
</svg>
