<?xml version="1.0" encoding="UTF-8" standalone="no"?>
<!DOCTYPE svg PUBLIC "-//W3C//DTD SVG 1.1//EN"
 "http://www.w3.org/Graphics/SVG/1.1/DTD/svg11.dtd">
<!-- Generated by graphviz version 2.43.0 (0)
 -->
<!-- Title: dg::IntegralTag Pages: 1 -->
<svg width="110pt" height="247pt"
 viewBox="0.00 0.00 110.00 247.00" xmlns="http://www.w3.org/2000/svg" xmlns:xlink="http://www.w3.org/1999/xlink">
<g id="graph0" class="graph" transform="scale(1 1) rotate(0) translate(4 243)">
<title>dg::IntegralTag</title>
<!-- Node1 -->
<g id="Node000001" class="node">
<title>Node1</title>
<g id="a_Node000001"><a xlink:title="Types where std::is_integral is true.">
<polygon fill="#999999" stroke="#666666" points="95.5,-19 6.5,-19 6.5,0 95.5,0 95.5,-19"/>
<text text-anchor="middle" x="51" y="-7" font-family="Helvetica,sans-Serif" font-size="10.00">dg::IntegralTag</text>
</a>
</g>
</g>
<!-- Node2 -->
<g id="Node000002" class="node">
<title>Node2</title>
<g id="a_Node000002"><a xlink:href="structdg_1_1_arithmetic_tag.html" target="_top" xlink:title="Types where std::is_arithmetic is true.">
<polygon fill="white" stroke="#666666" points="102,-74 0,-74 0,-55 102,-55 102,-74"/>
<text text-anchor="middle" x="51" y="-62" font-family="Helvetica,sans-Serif" font-size="10.00">dg::ArithmeticTag</text>
</a>
</g>
</g>
<!-- Node2&#45;&gt;Node1 -->
<g id="edge1_Node000001_Node000002" class="edge">
<title>Node2&#45;&gt;Node1</title>
<g id="a_edge1_Node000001_Node000002"><a xlink:title=" ">
<path fill="none" stroke="#63b8ff" d="M51,-44.66C51,-35.93 51,-25.99 51,-19.09"/>
<polygon fill="#63b8ff" stroke="#63b8ff" points="47.5,-44.75 51,-54.75 54.5,-44.75 47.5,-44.75"/>
</a>
</g>
</g>
<!-- Node3 -->
<g id="Node000003" class="node">
<title>Node3</title>
<g id="a_Node000003"><a xlink:href="structdg_1_1_any_scalar_tag.html" target="_top" xlink:title="Scalar Tag base class.">
<polygon fill="white" stroke="#666666" points="101,-129 1,-129 1,-110 101,-110 101,-129"/>
<text text-anchor="middle" x="51" y="-117" font-family="Helvetica,sans-Serif" font-size="10.00">dg::AnyScalarTag</text>
</a>
</g>
</g>
<!-- Node3&#45;&gt;Node2 -->
<g id="edge2_Node000002_Node000003" class="edge">
<title>Node3&#45;&gt;Node2</title>
<g id="a_edge2_Node000002_Node000003"><a xlink:title=" ">
<path fill="none" stroke="#63b8ff" d="M51,-99.66C51,-90.93 51,-80.99 51,-74.09"/>
<polygon fill="#63b8ff" stroke="#63b8ff" points="47.5,-99.75 51,-109.75 54.5,-99.75 47.5,-99.75"/>
</a>
</g>
</g>
<!-- Node4 -->
<g id="Node000004" class="node">
<title>Node4</title>
<g id="a_Node000004"><a xlink:href="structdg_1_1_any_vector_tag.html" target="_top" xlink:title="Vector Tag base class, indicates the basic Vector/container concept.">
<polygon fill="white" stroke="#666666" points="101.5,-184 0.5,-184 0.5,-165 101.5,-165 101.5,-184"/>
<text text-anchor="middle" x="51" y="-172" font-family="Helvetica,sans-Serif" font-size="10.00">dg::AnyVectorTag</text>
</a>
</g>
</g>
<!-- Node4&#45;&gt;Node3 -->
<g id="edge3_Node000003_Node000004" class="edge">
<title>Node4&#45;&gt;Node3</title>
<g id="a_edge3_Node000003_Node000004"><a xlink:title=" ">
<path fill="none" stroke="#63b8ff" d="M51,-154.66C51,-145.93 51,-135.99 51,-129.09"/>
<polygon fill="#63b8ff" stroke="#63b8ff" points="47.5,-154.75 51,-164.75 54.5,-154.75 47.5,-154.75"/>
</a>
</g>
</g>
<!-- Node5 -->
<g id="Node000005" class="node">
<title>Node5</title>
<g id="a_Node000005"><a xlink:href="structdg_1_1_any_matrix_tag.html" target="_top" xlink:title="tensor_category base class">
<polygon fill="white" stroke="#666666" points="101.5,-239 0.5,-239 0.5,-220 101.5,-220 101.5,-239"/>
<text text-anchor="middle" x="51" y="-227" font-family="Helvetica,sans-Serif" font-size="10.00">dg::AnyMatrixTag</text>
</a>
</g>
</g>
<!-- Node5&#45;&gt;Node4 -->
<g id="edge4_Node000004_Node000005" class="edge">
<title>Node5&#45;&gt;Node4</title>
<g id="a_edge4_Node000004_Node000005"><a xlink:title=" ">
<path fill="none" stroke="#63b8ff" d="M51,-209.66C51,-200.93 51,-190.99 51,-184.09"/>
<polygon fill="#63b8ff" stroke="#63b8ff" points="47.5,-209.75 51,-219.75 54.5,-209.75 47.5,-209.75"/>
</a>
</g>
</g>
</g>
</svg>
