<?xml version="1.0" encoding="UTF-8" standalone="no"?>
<!DOCTYPE svg PUBLIC "-//W3C//DTD SVG 1.1//EN"
 "http://www.w3.org/Graphics/SVG/1.1/DTD/svg11.dtd">
<!-- Generated by graphviz version 2.43.0 (0)
 -->
<!-- Title: dg::aRealTopologyX2d&lt; real_type &gt; Pages: 1 -->
<svg width="477pt" height="110pt"
 viewBox="0.00 0.00 477.00 110.00" xmlns="http://www.w3.org/2000/svg" xmlns:xlink="http://www.w3.org/1999/xlink">
<g id="graph0" class="graph" transform="scale(1 1) rotate(0) translate(4 106)">
<title>dg::aRealTopologyX2d&lt; real_type &gt;</title>
<!-- Node1 -->
<g id="Node000001" class="node">
<title>Node1</title>
<g id="a_Node000001"><a xlink:title="A 2D grid class with X&#45;point topology.">
<polygon fill="#999999" stroke="#666666" points="125,-78 0,-78 0,-48 125,-48 125,-78"/>
<text text-anchor="start" x="8" y="-66" font-family="Helvetica,sans-Serif" font-size="10.00">dg::aRealTopologyX2d</text>
<text text-anchor="middle" x="62.5" y="-55" font-family="Helvetica,sans-Serif" font-size="10.00">&lt; real_type &gt;</text>
</a>
</g>
</g>
<!-- Node2 -->
<g id="Node000002" class="node">
<title>Node2</title>
<g id="a_Node000002"><a xlink:href="structdg_1_1_real_grid_x2d.html" target="_top" xlink:title="The simplest implementation of aRealTopologyX2d.">
<polygon fill="white" stroke="#666666" points="288.5,-102 163.5,-102 163.5,-72 288.5,-72 288.5,-102"/>
<text text-anchor="start" x="171.5" y="-90" font-family="Helvetica,sans-Serif" font-size="10.00">dg::RealGridX2d&lt; real</text>
<text text-anchor="middle" x="226" y="-79" font-family="Helvetica,sans-Serif" font-size="10.00">_type &gt;</text>
</a>
</g>
</g>
<!-- Node1&#45;&gt;Node2 -->
<g id="edge1_Node000001_Node000002" class="edge">
<title>Node1&#45;&gt;Node2</title>
<g id="a_edge1_Node000001_Node000002"><a xlink:title=" ">
<path fill="none" stroke="#63b8ff" d="M135.15,-73.65C144.57,-75.05 154.15,-76.47 163.39,-77.84"/>
<polygon fill="#63b8ff" stroke="#63b8ff" points="135.42,-70.15 125.02,-72.14 134.39,-77.07 135.42,-70.15"/>
</a>
</g>
</g>
<!-- Node3 -->
<g id="Node000003" class="node">
<title>Node3</title>
<g id="a_Node000003"><a xlink:href="structdg_1_1a_real_geometry_x2d.html" target="_top" xlink:title="This is the abstract interface class for a two&#45;dimensional RealGeometryX.">
<polygon fill="white" stroke="#666666" points="291,-54 161,-54 161,-24 291,-24 291,-54"/>
<text text-anchor="start" x="169" y="-42" font-family="Helvetica,sans-Serif" font-size="10.00">dg::aRealGeometryX2d</text>
<text text-anchor="middle" x="226" y="-31" font-family="Helvetica,sans-Serif" font-size="10.00">&lt; real_type &gt;</text>
</a>
</g>
</g>
<!-- Node1&#45;&gt;Node3 -->
<g id="edge2_Node000001_Node000003" class="edge">
<title>Node1&#45;&gt;Node3</title>
<g id="a_edge2_Node000001_Node000003"><a xlink:title=" ">
<path fill="none" stroke="#63b8ff" d="M135.06,-52.37C143.69,-51.08 152.46,-49.78 160.97,-48.52"/>
<polygon fill="#63b8ff" stroke="#63b8ff" points="134.39,-48.93 125.02,-53.86 135.42,-55.85 134.39,-48.93"/>
</a>
</g>
</g>
<!-- Node4 -->
<g id="Node000004" class="node">
<title>Node4</title>
<g id="a_Node000004"><a xlink:href="structdg_1_1_real_cartesian_grid_x2d.html" target="_top" xlink:title="two&#45;dimensional GridX with RealCartesian metric">
<polygon fill="white" stroke="#666666" points="469,-78 327,-78 327,-48 469,-48 469,-78"/>
<text text-anchor="start" x="335" y="-66" font-family="Helvetica,sans-Serif" font-size="10.00">dg::RealCartesianGridX2d</text>
<text text-anchor="middle" x="398" y="-55" font-family="Helvetica,sans-Serif" font-size="10.00">&lt; real_type &gt;</text>
</a>
</g>
</g>
<!-- Node3&#45;&gt;Node4 -->
<g id="edge3_Node000003_Node000004" class="edge">
<title>Node3&#45;&gt;Node4</title>
<g id="a_edge3_Node000003_Node000004"><a xlink:title=" ">
<path fill="none" stroke="#63b8ff" d="M301.22,-49.48C309.77,-50.68 318.47,-51.91 326.96,-53.11"/>
<polygon fill="#63b8ff" stroke="#63b8ff" points="301.66,-46.01 291.27,-48.07 300.68,-52.94 301.66,-46.01"/>
</a>
</g>
</g>
<!-- Node5 -->
<g id="Node000005" class="node">
<title>Node5</title>
<g id="a_Node000005"><a xlink:href="structdg_1_1_real_cartesian_refined_grid_x2d.html" target="_top" xlink:title="Refined X&#45;point grid.">
<polygon fill="white" stroke="#666666" points="468,-30 328,-30 328,0 468,0 468,-30"/>
<text text-anchor="start" x="336" y="-18" font-family="Helvetica,sans-Serif" font-size="10.00">dg::RealCartesianRefined</text>
<text text-anchor="middle" x="398" y="-7" font-family="Helvetica,sans-Serif" font-size="10.00">GridX2d&lt; real_type &gt;</text>
</a>
</g>
</g>
<!-- Node3&#45;&gt;Node5 -->
<g id="edge4_Node000003_Node000005" class="edge">
<title>Node3&#45;&gt;Node5</title>
<g id="a_edge4_Node000003_Node000005"><a xlink:title=" ">
<path fill="none" stroke="#63b8ff" d="M301.17,-28.53C310.03,-27.28 319.04,-26.01 327.81,-24.77"/>
<polygon fill="#63b8ff" stroke="#63b8ff" points="300.68,-25.06 291.27,-29.93 301.66,-31.99 300.68,-25.06"/>
</a>
</g>
</g>
</g>
</svg>
