<?xml version="1.0" encoding="UTF-8" standalone="no"?>
<!DOCTYPE svg PUBLIC "-//W3C//DTD SVG 1.1//EN"
 "http://www.w3.org/Graphics/SVG/1.1/DTD/svg11.dtd">
<!-- Generated by graphviz version 2.43.0 (0)
 -->
<!-- Title: dg::AnyScalarTag Pages: 1 -->
<svg width="291pt" height="247pt"
 viewBox="0.00 0.00 290.50 247.00" xmlns="http://www.w3.org/2000/svg" xmlns:xlink="http://www.w3.org/1999/xlink">
<g id="graph0" class="graph" transform="scale(1 1) rotate(0) translate(4 243)">
<title>dg::AnyScalarTag</title>
<!-- Node1 -->
<g id="Node000001" class="node">
<title>Node1</title>
<g id="a_Node000001"><a xlink:title="Scalar Tag base class.">
<polygon fill="#999999" stroke="#666666" points="226,-129 126,-129 126,-110 226,-110 226,-129"/>
<text text-anchor="middle" x="176" y="-117" font-family="Helvetica,sans-Serif" font-size="10.00">dg::AnyScalarTag</text>
</a>
</g>
</g>
<!-- Node4 -->
<g id="Node000004" class="node">
<title>Node4</title>
<g id="a_Node000004"><a xlink:href="structdg_1_1_arithmetic_tag.html" target="_top" xlink:title="Types where std::is_arithmetic is true.">
<polygon fill="white" stroke="#666666" points="169,-74 67,-74 67,-55 169,-55 169,-74"/>
<text text-anchor="middle" x="118" y="-62" font-family="Helvetica,sans-Serif" font-size="10.00">dg::ArithmeticTag</text>
</a>
</g>
</g>
<!-- Node1&#45;&gt;Node4 -->
<g id="edge3_Node000001_Node000004" class="edge">
<title>Node1&#45;&gt;Node4</title>
<g id="a_edge3_Node000001_Node000004"><a xlink:title=" ">
<path fill="none" stroke="#63b8ff" d="M159.09,-103.04C148.8,-93.64 136.03,-81.98 127.49,-74.17"/>
<polygon fill="#63b8ff" stroke="#63b8ff" points="156.94,-105.82 166.68,-109.98 161.66,-100.66 156.94,-105.82"/>
</a>
</g>
</g>
<!-- Node7 -->
<g id="Node000007" class="node">
<title>Node7</title>
<g id="a_Node000007"><a xlink:href="structdg_1_1_complex_tag.html" target="_top" xlink:title="complex number type">
<polygon fill="white" stroke="#666666" points="282.5,-74 187.5,-74 187.5,-55 282.5,-55 282.5,-74"/>
<text text-anchor="middle" x="235" y="-62" font-family="Helvetica,sans-Serif" font-size="10.00">dg::ComplexTag</text>
</a>
</g>
</g>
<!-- Node1&#45;&gt;Node7 -->
<g id="edge6_Node000001_Node000007" class="edge">
<title>Node1&#45;&gt;Node7</title>
<g id="a_edge6_Node000001_Node000007"><a xlink:title=" ">
<path fill="none" stroke="#63b8ff" d="M193.2,-103.04C203.67,-93.64 216.65,-81.98 225.35,-74.17"/>
<polygon fill="#63b8ff" stroke="#63b8ff" points="190.58,-100.7 185.48,-109.98 195.26,-105.91 190.58,-100.7"/>
</a>
</g>
</g>
<!-- Node2 -->
<g id="Node000002" class="node">
<title>Node2</title>
<g id="a_Node000002"><a xlink:href="structdg_1_1_any_vector_tag.html" target="_top" xlink:title="Vector Tag base class, indicates the basic Vector/container concept.">
<polygon fill="white" stroke="#666666" points="226.5,-184 125.5,-184 125.5,-165 226.5,-165 226.5,-184"/>
<text text-anchor="middle" x="176" y="-172" font-family="Helvetica,sans-Serif" font-size="10.00">dg::AnyVectorTag</text>
</a>
</g>
</g>
<!-- Node2&#45;&gt;Node1 -->
<g id="edge1_Node000001_Node000002" class="edge">
<title>Node2&#45;&gt;Node1</title>
<g id="a_edge1_Node000001_Node000002"><a xlink:title=" ">
<path fill="none" stroke="#63b8ff" d="M176,-154.66C176,-145.93 176,-135.99 176,-129.09"/>
<polygon fill="#63b8ff" stroke="#63b8ff" points="172.5,-154.75 176,-164.75 179.5,-154.75 172.5,-154.75"/>
</a>
</g>
</g>
<!-- Node3 -->
<g id="Node000003" class="node">
<title>Node3</title>
<g id="a_Node000003"><a xlink:href="structdg_1_1_any_matrix_tag.html" target="_top" xlink:title="tensor_category base class">
<polygon fill="white" stroke="#666666" points="226.5,-239 125.5,-239 125.5,-220 226.5,-220 226.5,-239"/>
<text text-anchor="middle" x="176" y="-227" font-family="Helvetica,sans-Serif" font-size="10.00">dg::AnyMatrixTag</text>
</a>
</g>
</g>
<!-- Node3&#45;&gt;Node2 -->
<g id="edge2_Node000002_Node000003" class="edge">
<title>Node3&#45;&gt;Node2</title>
<g id="a_edge2_Node000002_Node000003"><a xlink:title=" ">
<path fill="none" stroke="#63b8ff" d="M176,-209.66C176,-200.93 176,-190.99 176,-184.09"/>
<polygon fill="#63b8ff" stroke="#63b8ff" points="172.5,-209.75 176,-219.75 179.5,-209.75 172.5,-209.75"/>
</a>
</g>
</g>
<!-- Node5 -->
<g id="Node000005" class="node">
<title>Node5</title>
<g id="a_Node000005"><a xlink:href="structdg_1_1_floating_point_tag.html" target="_top" xlink:title="Types where std::is_floating_point is true.">
<polygon fill="white" stroke="#666666" points="116,-19 0,-19 0,0 116,0 116,-19"/>
<text text-anchor="middle" x="58" y="-7" font-family="Helvetica,sans-Serif" font-size="10.00">dg::FloatingPointTag</text>
</a>
</g>
</g>
<!-- Node4&#45;&gt;Node5 -->
<g id="edge4_Node000004_Node000005" class="edge">
<title>Node4&#45;&gt;Node5</title>
<g id="a_edge4_Node000004_Node000005"><a xlink:title=" ">
<path fill="none" stroke="#63b8ff" d="M100.82,-48.32C90.12,-38.87 76.74,-27.06 67.82,-19.17"/>
<polygon fill="#63b8ff" stroke="#63b8ff" points="98.55,-50.99 108.36,-54.98 103.18,-45.74 98.55,-50.99"/>
</a>
</g>
</g>
<!-- Node6 -->
<g id="Node000006" class="node">
<title>Node6</title>
<g id="a_Node000006"><a xlink:href="structdg_1_1_integral_tag.html" target="_top" xlink:title="Types where std::is_integral is true.">
<polygon fill="white" stroke="#666666" points="223.5,-19 134.5,-19 134.5,0 223.5,0 223.5,-19"/>
<text text-anchor="middle" x="179" y="-7" font-family="Helvetica,sans-Serif" font-size="10.00">dg::IntegralTag</text>
</a>
</g>
</g>
<!-- Node4&#45;&gt;Node6 -->
<g id="edge5_Node000004_Node000006" class="edge">
<title>Node4&#45;&gt;Node6</title>
<g id="a_edge5_Node000004_Node000006"><a xlink:title=" ">
<path fill="none" stroke="#63b8ff" d="M135.47,-48.32C146.34,-38.87 159.94,-27.06 169.02,-19.17"/>
<polygon fill="#63b8ff" stroke="#63b8ff" points="133.05,-45.78 127.8,-54.98 137.65,-51.07 133.05,-45.78"/>
</a>
</g>
</g>
</g>
</svg>
