<?xml version="1.0" encoding="UTF-8" standalone="no"?>
<!DOCTYPE svg PUBLIC "-//W3C//DTD SVG 1.1//EN"
 "http://www.w3.org/Graphics/SVG/1.1/DTD/svg11.dtd">
<!-- Generated by graphviz version 2.43.0 (0)
 -->
<!-- Title: dg::aRealRefinementX2d&lt; real_type &gt; Pages: 1 -->
<svg width="360pt" height="134pt"
 viewBox="0.00 0.00 360.00 134.00" xmlns="http://www.w3.org/2000/svg" xmlns:xlink="http://www.w3.org/1999/xlink">
<g id="graph0" class="graph" transform="scale(1 1) rotate(0) translate(4 130)">
<title>dg::aRealRefinementX2d&lt; real_type &gt;</title>
<!-- Node1 -->
<g id="Node000001" class="node">
<title>Node1</title>
<g id="a_Node000001"><a xlink:title="Abstract base class for 2d grid refinement that increases the number of grid cells of a fixed basis g...">
<polygon fill="#999999" stroke="#666666" points="138,-78 0,-78 0,-48 138,-48 138,-78"/>
<text text-anchor="start" x="8" y="-66" font-family="Helvetica,sans-Serif" font-size="10.00">dg::aRealRefinementX2d</text>
<text text-anchor="middle" x="69" y="-55" font-family="Helvetica,sans-Serif" font-size="10.00">&lt; real_type &gt;</text>
</a>
</g>
</g>
<!-- Node2 -->
<g id="Node000002" class="node">
<title>Node2</title>
<g id="a_Node000002"><a xlink:href="structdg_1_1_real_equidist_x_refinement.html" target="_top" xlink:title="RealEquidistant cell refinement around the X&#45;point.">
<polygon fill="white" stroke="#666666" points="342.5,-126 183.5,-126 183.5,-96 342.5,-96 342.5,-126"/>
<text text-anchor="start" x="191.5" y="-114" font-family="Helvetica,sans-Serif" font-size="10.00">dg::RealEquidistXRefinement</text>
<text text-anchor="middle" x="263" y="-103" font-family="Helvetica,sans-Serif" font-size="10.00">&lt; real_type &gt;</text>
</a>
</g>
</g>
<!-- Node1&#45;&gt;Node2 -->
<g id="edge1_Node000001_Node000002" class="edge">
<title>Node1&#45;&gt;Node2</title>
<g id="a_edge1_Node000001_Node000002"><a xlink:title=" ">
<path fill="none" stroke="#63b8ff" d="M140.04,-80.51C160.36,-85.59 182.35,-91.09 201.99,-96"/>
<polygon fill="#63b8ff" stroke="#63b8ff" points="140.77,-77.09 130.22,-78.06 139.08,-83.88 140.77,-77.09"/>
</a>
</g>
</g>
<!-- Node3 -->
<g id="Node000003" class="node">
<title>Node3</title>
<g id="a_Node000003"><a xlink:href="structdg_1_1_real_exponential_x_refinement.html" target="_top" xlink:title="The exponential refinement around the X&#45;point.">
<polygon fill="white" stroke="#666666" points="352,-78 174,-78 174,-48 352,-48 352,-78"/>
<text text-anchor="start" x="182" y="-66" font-family="Helvetica,sans-Serif" font-size="10.00">dg::RealExponentialXRefinement</text>
<text text-anchor="middle" x="263" y="-55" font-family="Helvetica,sans-Serif" font-size="10.00">&lt; real_type &gt;</text>
</a>
</g>
</g>
<!-- Node1&#45;&gt;Node3 -->
<g id="edge2_Node000001_Node000003" class="edge">
<title>Node1&#45;&gt;Node3</title>
<g id="a_edge2_Node000001_Node000003"><a xlink:title=" ">
<path fill="none" stroke="#63b8ff" d="M148.36,-63C156.76,-63 165.34,-63 173.84,-63"/>
<polygon fill="#63b8ff" stroke="#63b8ff" points="148.23,-59.5 138.23,-63 148.23,-66.5 148.23,-59.5"/>
</a>
</g>
</g>
<!-- Node4 -->
<g id="Node000004" class="node">
<title>Node4</title>
<g id="a_Node000004"><a xlink:href="structdg_1_1_real_identity_x_refinement.html" target="_top" xlink:title="No refinement.">
<polygon fill="white" stroke="#666666" points="342,-30 184,-30 184,0 342,0 342,-30"/>
<text text-anchor="start" x="192" y="-18" font-family="Helvetica,sans-Serif" font-size="10.00">dg::RealIdentityXRefinement</text>
<text text-anchor="middle" x="263" y="-7" font-family="Helvetica,sans-Serif" font-size="10.00">&lt; real_type &gt;</text>
</a>
</g>
</g>
<!-- Node1&#45;&gt;Node4 -->
<g id="edge3_Node000001_Node000004" class="edge">
<title>Node1&#45;&gt;Node4</title>
<g id="a_edge3_Node000001_Node000004"><a xlink:title=" ">
<path fill="none" stroke="#63b8ff" d="M140.04,-45.49C160.36,-40.41 182.35,-34.91 201.99,-30"/>
<polygon fill="#63b8ff" stroke="#63b8ff" points="139.08,-42.12 130.22,-47.94 140.77,-48.91 139.08,-42.12"/>
</a>
</g>
</g>
</g>
</svg>
