<?xml version="1.0" encoding="UTF-8" standalone="no"?>
<!DOCTYPE svg PUBLIC "-//W3C//DTD SVG 1.1//EN"
 "http://www.w3.org/Graphics/SVG/1.1/DTD/svg11.dtd">
<!-- Generated by graphviz version 2.43.0 (0)
 -->
<!-- Title: dg::AnyMatrixTag Pages: 1 -->
<svg width="895pt" height="322pt"
 viewBox="0.00 0.00 895.00 322.00" xmlns="http://www.w3.org/2000/svg" xmlns:xlink="http://www.w3.org/1999/xlink">
<g id="graph0" class="graph" transform="scale(1 1) rotate(0) translate(4 318)">
<title>dg::AnyMatrixTag</title>
<!-- Node1 -->
<g id="Node000001" class="node">
<title>Node1</title>
<g id="a_Node000001"><a xlink:title="tensor_category base class">
<polygon fill="#999999" stroke="#666666" points="101,-111 0,-111 0,-92 101,-92 101,-111"/>
<text text-anchor="middle" x="50.5" y="-99" font-family="Helvetica,sans-Serif" font-size="10.00">dg::AnyMatrixTag</text>
</a>
</g>
</g>
<!-- Node2 -->
<g id="Node000002" class="node">
<title>Node2</title>
<g id="a_Node000002"><a xlink:href="structdg_1_1_any_vector_tag.html" target="_top" xlink:title="Vector Tag base class, indicates the basic Vector/container concept.">
<polygon fill="white" stroke="#666666" points="259,-204 158,-204 158,-185 259,-185 259,-204"/>
<text text-anchor="middle" x="208.5" y="-192" font-family="Helvetica,sans-Serif" font-size="10.00">dg::AnyVectorTag</text>
</a>
</g>
</g>
<!-- Node1&#45;&gt;Node2 -->
<g id="edge1_Node000001_Node000002" class="edge">
<title>Node1&#45;&gt;Node2</title>
<g id="a_edge1_Node000001_Node000002"><a xlink:title=" ">
<path fill="none" stroke="#63b8ff" d="M66.55,-118.79C82.41,-135.93 108.93,-161.71 137,-176.5 143.48,-179.92 150.65,-182.71 157.85,-184.98"/>
<polygon fill="#63b8ff" stroke="#63b8ff" points="68.96,-116.24 59.67,-111.16 63.77,-120.93 68.96,-116.24"/>
</a>
</g>
</g>
<!-- Node16 -->
<g id="Node000016" class="node">
<title>Node16</title>
<g id="a_Node000016"><a xlink:href="structdg_1_1_cusp_matrix_tag.html" target="_top" xlink:title="One of cusp&#39;s matrices, for these only the blas2 transfer and the symv( m,x,y) are implemented.">
<polygon fill="white" stroke="#666666" points="262,-167 155,-167 155,-148 262,-148 262,-167"/>
<text text-anchor="middle" x="208.5" y="-155" font-family="Helvetica,sans-Serif" font-size="10.00">dg::CuspMatrixTag</text>
</a>
</g>
</g>
<!-- Node1&#45;&gt;Node16 -->
<g id="edge15_Node000001_Node000016" class="edge">
<title>Node1&#45;&gt;Node16</title>
<g id="a_edge15_Node000001_Node000016"><a xlink:title=" ">
<path fill="none" stroke="#63b8ff" d="M79.56,-115.4C96.02,-123.2 117.37,-132.69 137,-139.5 146.07,-142.65 155.97,-145.51 165.4,-147.99"/>
<polygon fill="#63b8ff" stroke="#63b8ff" points="81.01,-112.22 70.48,-111.05 77.98,-118.53 81.01,-112.22"/>
</a>
</g>
</g>
<!-- Node17 -->
<g id="Node000017" class="node">
<title>Node17</title>
<g id="a_Node000017"><a xlink:href="structdg_1_1_dense_matrix_tag.html" target="_top" xlink:title="indicate our dense matrix format">
<polygon fill="white" stroke="#666666" points="265,-130 152,-130 152,-111 265,-111 265,-130"/>
<text text-anchor="middle" x="208.5" y="-118" font-family="Helvetica,sans-Serif" font-size="10.00">dg::DenseMatrixTag</text>
</a>
</g>
</g>
<!-- Node1&#45;&gt;Node17 -->
<g id="edge16_Node000001_Node000017" class="edge">
<title>Node1&#45;&gt;Node17</title>
<g id="a_edge16_Node000001_Node000017"><a xlink:title=" ">
<path fill="none" stroke="#63b8ff" d="M111.33,-108.79C124.68,-110.41 138.79,-112.13 151.96,-113.74"/>
<polygon fill="#63b8ff" stroke="#63b8ff" points="111.64,-105.3 101.29,-107.56 110.79,-112.25 111.64,-105.3"/>
</a>
</g>
</g>
<!-- Node18 -->
<g id="Node000018" class="node">
<title>Node18</title>
<g id="a_Node000018"><a xlink:href="structdg_1_1_m_p_i_matrix_tag.html" target="_top" xlink:title="indicate one of our mpi matrices">
<polygon fill="white" stroke="#666666" points="259,-93 158,-93 158,-74 259,-74 259,-93"/>
<text text-anchor="middle" x="208.5" y="-81" font-family="Helvetica,sans-Serif" font-size="10.00">dg::MPIMatrixTag</text>
</a>
</g>
</g>
<!-- Node1&#45;&gt;Node18 -->
<g id="edge17_Node000001_Node000018" class="edge">
<title>Node1&#45;&gt;Node18</title>
<g id="a_edge17_Node000001_Node000018"><a xlink:title=" ">
<path fill="none" stroke="#63b8ff" d="M111.25,-94.61C126.66,-92.83 143.08,-90.93 157.92,-89.22"/>
<polygon fill="#63b8ff" stroke="#63b8ff" points="110.82,-91.13 101.29,-95.76 111.62,-98.09 110.82,-91.13"/>
</a>
</g>
</g>
<!-- Node19 -->
<g id="Node000019" class="node">
<title>Node19</title>
<g id="a_Node000019"><a xlink:href="structdg_1_1_self_made_matrix_tag.html" target="_top" xlink:title="Indicates that the type has a member function with the same name and interface (up to the matrix itse...">
<polygon fill="white" stroke="#666666" points="272.5,-56 144.5,-56 144.5,-37 272.5,-37 272.5,-56"/>
<text text-anchor="middle" x="208.5" y="-44" font-family="Helvetica,sans-Serif" font-size="10.00">dg::SelfMadeMatrixTag</text>
</a>
</g>
</g>
<!-- Node1&#45;&gt;Node19 -->
<g id="edge18_Node000001_Node000019" class="edge">
<title>Node1&#45;&gt;Node19</title>
<g id="a_edge18_Node000001_Node000019"><a xlink:title=" ">
<path fill="none" stroke="#63b8ff" d="M81.43,-87.73C97.66,-80.55 118.2,-71.96 137,-65.5 147.07,-62.04 158.12,-58.81 168.43,-56.02"/>
<polygon fill="#63b8ff" stroke="#63b8ff" points="79.63,-84.7 71.93,-91.98 82.49,-91.09 79.63,-84.7"/>
</a>
</g>
</g>
<!-- Node20 -->
<g id="Node000020" class="node">
<title>Node20</title>
<g id="a_Node000020"><a xlink:href="structdg_1_1_sparse_block_matrix_tag.html" target="_top" xlink:title="indicate our sparse block matrix format">
<polygon fill="white" stroke="#666666" points="280,-19 137,-19 137,0 280,0 280,-19"/>
<text text-anchor="middle" x="208.5" y="-7" font-family="Helvetica,sans-Serif" font-size="10.00">dg::SparseBlockMatrixTag</text>
</a>
</g>
</g>
<!-- Node1&#45;&gt;Node20 -->
<g id="edge19_Node000001_Node000020" class="edge">
<title>Node1&#45;&gt;Node20</title>
<g id="a_edge19_Node000001_Node000020"><a xlink:title=" ">
<path fill="none" stroke="#63b8ff" d="M66.94,-84.5C82.93,-67.89 109.4,-43.04 137,-28.5 144.29,-24.66 152.42,-21.54 160.5,-19.03"/>
<polygon fill="#63b8ff" stroke="#63b8ff" points="64.28,-82.22 59.98,-91.91 69.38,-87.02 64.28,-82.22"/>
</a>
</g>
</g>
<!-- Node3 -->
<g id="Node000003" class="node">
<title>Node3</title>
<g id="a_Node000003"><a xlink:href="structdg_1_1_any_scalar_tag.html" target="_top" xlink:title="Scalar Tag base class.">
<polygon fill="white" stroke="#666666" points="431.5,-259 331.5,-259 331.5,-240 431.5,-240 431.5,-259"/>
<text text-anchor="middle" x="381.5" y="-247" font-family="Helvetica,sans-Serif" font-size="10.00">dg::AnyScalarTag</text>
</a>
</g>
</g>
<!-- Node2&#45;&gt;Node3 -->
<g id="edge2_Node000002_Node000003" class="edge">
<title>Node2&#45;&gt;Node3</title>
<g id="a_edge2_Node000002_Node000003"><a xlink:title=" ">
<path fill="none" stroke="#63b8ff" d="M245.21,-207.53C265.8,-214.89 292.24,-224.07 316,-231.5 325.32,-234.42 335.47,-237.36 344.9,-239.99"/>
<polygon fill="#63b8ff" stroke="#63b8ff" points="246.2,-204.17 235.61,-204.08 243.84,-210.75 246.2,-204.17"/>
</a>
</g>
</g>
<!-- Node8 -->
<g id="Node000008" class="node">
<title>Node8</title>
<g id="a_Node000008"><a xlink:href="structdg_1_1_m_p_i_vector_tag.html" target="_top" xlink:title="A distributed vector contains a data container and a MPI communicator.">
<polygon fill="white" stroke="#666666" points="432,-222 331,-222 331,-203 432,-203 432,-222"/>
<text text-anchor="middle" x="381.5" y="-210" font-family="Helvetica,sans-Serif" font-size="10.00">dg::MPIVectorTag</text>
</a>
</g>
</g>
<!-- Node2&#45;&gt;Node8 -->
<g id="edge7_Node000002_Node000008" class="edge">
<title>Node2&#45;&gt;Node8</title>
<g id="a_edge7_Node000002_Node000008"><a xlink:title=" ">
<path fill="none" stroke="#63b8ff" d="M269.39,-200.8C289.46,-202.92 311.61,-205.25 330.81,-207.27"/>
<polygon fill="#63b8ff" stroke="#63b8ff" points="269.73,-197.32 259.42,-199.75 269,-204.28 269.73,-197.32"/>
</a>
</g>
</g>
<!-- Node9 -->
<g id="Node000009" class="node">
<title>Node9</title>
<g id="a_Node000009"><a xlink:href="structdg_1_1_recursive_vector_tag.html" target="_top" xlink:title="This tag indicates composition/recursion.">
<polygon fill="white" stroke="#666666" points="447,-185 316,-185 316,-166 447,-166 447,-185"/>
<text text-anchor="middle" x="381.5" y="-173" font-family="Helvetica,sans-Serif" font-size="10.00">dg::RecursiveVectorTag</text>
</a>
</g>
</g>
<!-- Node2&#45;&gt;Node9 -->
<g id="edge8_Node000002_Node000009" class="edge">
<title>Node2&#45;&gt;Node9</title>
<g id="a_edge8_Node000002_Node000009"><a xlink:title=" ">
<path fill="none" stroke="#63b8ff" d="M269.58,-187.82C284.56,-186.16 300.68,-184.37 315.86,-182.68"/>
<polygon fill="#63b8ff" stroke="#63b8ff" points="268.97,-184.37 259.42,-188.95 269.75,-191.33 268.97,-184.37"/>
</a>
</g>
</g>
<!-- Node12 -->
<g id="Node000012" class="node">
<title>Node12</title>
<g id="a_Node000012"><a xlink:href="structdg_1_1_shared_vector_tag.html" target="_top" xlink:title="Indicate a contiguous chunk of shared memory.">
<polygon fill="white" stroke="#666666" points="439.5,-148 323.5,-148 323.5,-129 439.5,-129 439.5,-148"/>
<text text-anchor="middle" x="381.5" y="-136" font-family="Helvetica,sans-Serif" font-size="10.00">dg::SharedVectorTag</text>
</a>
</g>
</g>
<!-- Node2&#45;&gt;Node12 -->
<g id="edge11_Node000002_Node000012" class="edge">
<title>Node2&#45;&gt;Node12</title>
<g id="a_edge11_Node000002_Node000012"><a xlink:title=" ">
<path fill="none" stroke="#63b8ff" d="M263.66,-182.07C269.23,-180.37 274.77,-178.52 280,-176.5 296.88,-169.99 299.24,-164.31 316,-157.5 324.76,-153.94 334.43,-150.73 343.57,-148.01"/>
<polygon fill="#63b8ff" stroke="#63b8ff" points="262.28,-178.82 253.63,-184.94 264.2,-185.55 262.28,-178.82"/>
</a>
</g>
</g>
<!-- Node4 -->
<g id="Node000004" class="node">
<title>Node4</title>
<g id="a_Node000004"><a xlink:href="structdg_1_1_arithmetic_tag.html" target="_top" xlink:title="Types where std::is_arithmetic is true.">
<polygon fill="white" stroke="#666666" points="588.5,-296 486.5,-296 486.5,-277 588.5,-277 588.5,-296"/>
<text text-anchor="middle" x="537.5" y="-284" font-family="Helvetica,sans-Serif" font-size="10.00">dg::ArithmeticTag</text>
</a>
</g>
</g>
<!-- Node3&#45;&gt;Node4 -->
<g id="edge3_Node000003_Node000004" class="edge">
<title>Node3&#45;&gt;Node4</title>
<g id="a_edge3_Node000003_Node000004"><a xlink:title=" ">
<path fill="none" stroke="#63b8ff" d="M432.13,-261.43C453.03,-266.44 477.01,-272.21 496.71,-276.94"/>
<polygon fill="#63b8ff" stroke="#63b8ff" points="432.7,-257.96 422.16,-259.03 431.06,-264.77 432.7,-257.96"/>
</a>
</g>
</g>
<!-- Node7 -->
<g id="Node000007" class="node">
<title>Node7</title>
<g id="a_Node000007"><a xlink:href="structdg_1_1_complex_tag.html" target="_top" xlink:title="complex number type">
<polygon fill="white" stroke="#666666" points="585,-259 490,-259 490,-240 585,-240 585,-259"/>
<text text-anchor="middle" x="537.5" y="-247" font-family="Helvetica,sans-Serif" font-size="10.00">dg::ComplexTag</text>
</a>
</g>
</g>
<!-- Node3&#45;&gt;Node7 -->
<g id="edge6_Node000003_Node000007" class="edge">
<title>Node3&#45;&gt;Node7</title>
<g id="a_edge6_Node000003_Node000007"><a xlink:title=" ">
<path fill="none" stroke="#63b8ff" d="M441.92,-249.5C457.84,-249.5 474.8,-249.5 489.91,-249.5"/>
<polygon fill="#63b8ff" stroke="#63b8ff" points="441.65,-246 431.65,-249.5 441.65,-253 441.65,-246"/>
</a>
</g>
</g>
<!-- Node5 -->
<g id="Node000005" class="node">
<title>Node5</title>
<g id="a_Node000005"><a xlink:href="structdg_1_1_floating_point_tag.html" target="_top" xlink:title="Types where std::is_floating_point is true.">
<polygon fill="white" stroke="#666666" points="744,-314 628,-314 628,-295 744,-295 744,-314"/>
<text text-anchor="middle" x="686" y="-302" font-family="Helvetica,sans-Serif" font-size="10.00">dg::FloatingPointTag</text>
</a>
</g>
</g>
<!-- Node4&#45;&gt;Node5 -->
<g id="edge4_Node000004_Node000005" class="edge">
<title>Node4&#45;&gt;Node5</title>
<g id="a_edge4_Node000004_Node000005"><a xlink:title=" ">
<path fill="none" stroke="#63b8ff" d="M598.49,-293.87C608.22,-295.07 618.26,-296.3 627.91,-297.49"/>
<polygon fill="#63b8ff" stroke="#63b8ff" points="598.86,-290.39 588.51,-292.64 598.01,-297.34 598.86,-290.39"/>
</a>
</g>
</g>
<!-- Node6 -->
<g id="Node000006" class="node">
<title>Node6</title>
<g id="a_Node000006"><a xlink:href="structdg_1_1_integral_tag.html" target="_top" xlink:title="Types where std::is_integral is true.">
<polygon fill="white" stroke="#666666" points="730.5,-277 641.5,-277 641.5,-258 730.5,-258 730.5,-277"/>
<text text-anchor="middle" x="686" y="-265" font-family="Helvetica,sans-Serif" font-size="10.00">dg::IntegralTag</text>
</a>
</g>
</g>
<!-- Node4&#45;&gt;Node6 -->
<g id="edge5_Node000004_Node000006" class="edge">
<title>Node4&#45;&gt;Node6</title>
<g id="a_edge5_Node000004_Node000006"><a xlink:title=" ">
<path fill="none" stroke="#63b8ff" d="M598.7,-278.69C612.9,-276.85 627.77,-274.92 641.1,-273.19"/>
<polygon fill="#63b8ff" stroke="#63b8ff" points="597.97,-275.26 588.51,-280.01 598.87,-282.2 597.97,-275.26"/>
</a>
</g>
</g>
<!-- Node10 -->
<g id="Node000010" class="node">
<title>Node10</title>
<g id="a_Node000010"><a xlink:href="structdg_1_1_array_vector_tag.html" target="_top" xlink:title=" ">
<polygon fill="white" stroke="#666666" points="592,-222 483,-222 483,-203 592,-203 592,-222"/>
<text text-anchor="middle" x="537.5" y="-210" font-family="Helvetica,sans-Serif" font-size="10.00">dg::ArrayVectorTag</text>
</a>
</g>
</g>
<!-- Node9&#45;&gt;Node10 -->
<g id="edge9_Node000009_Node000010" class="edge">
<title>Node9&#45;&gt;Node10</title>
<g id="a_edge9_Node000009_Node000010"><a xlink:title=" ">
<path fill="none" stroke="#63b8ff" d="M432.13,-187.43C453.03,-192.44 477.01,-198.21 496.71,-202.94"/>
<polygon fill="#63b8ff" stroke="#63b8ff" points="432.7,-183.96 422.16,-185.03 431.06,-190.77 432.7,-183.96"/>
</a>
</g>
</g>
<!-- Node11 -->
<g id="Node000011" class="node">
<title>Node11</title>
<g id="a_Node000011"><a xlink:href="structdg_1_1_std_map_tag.html" target="_top" xlink:title=" ">
<polygon fill="white" stroke="#666666" points="581.5,-185 493.5,-185 493.5,-166 581.5,-166 581.5,-185"/>
<text text-anchor="middle" x="537.5" y="-173" font-family="Helvetica,sans-Serif" font-size="10.00">dg::StdMapTag</text>
</a>
</g>
</g>
<!-- Node9&#45;&gt;Node11 -->
<g id="edge10_Node000009_Node000011" class="edge">
<title>Node9&#45;&gt;Node11</title>
<g id="a_edge10_Node000009_Node000011"><a xlink:title=" ">
<path fill="none" stroke="#63b8ff" d="M457.57,-175.5C469.78,-175.5 482.05,-175.5 493.16,-175.5"/>
<polygon fill="#63b8ff" stroke="#63b8ff" points="457.36,-172 447.36,-175.5 457.36,-179 457.36,-172"/>
</a>
</g>
</g>
<!-- Node13 -->
<g id="Node000013" class="node">
<title>Node13</title>
<g id="a_Node000013"><a xlink:href="structdg_1_1_array_scalar_tag.html" target="_top" xlink:title=" ">
<polygon fill="white" stroke="#666666" points="591,-148 484,-148 484,-129 591,-129 591,-148"/>
<text text-anchor="middle" x="537.5" y="-136" font-family="Helvetica,sans-Serif" font-size="10.00">dg::ArrayScalarTag</text>
</a>
</g>
</g>
<!-- Node12&#45;&gt;Node13 -->
<g id="edge12_Node000012_Node000013" class="edge">
<title>Node12&#45;&gt;Node13</title>
<g id="a_edge12_Node000012_Node000013"><a xlink:title=" ">
<path fill="none" stroke="#63b8ff" d="M450.14,-138.5C461.47,-138.5 473.07,-138.5 483.94,-138.5"/>
<polygon fill="#63b8ff" stroke="#63b8ff" points="449.84,-135 439.84,-138.5 449.84,-142 449.84,-135"/>
</a>
</g>
</g>
<!-- Node14 -->
<g id="Node000014" class="node">
<title>Node14</title>
<g id="a_Node000014"><a xlink:href="structdg_1_1_thrust_vector_tag.html" target="_top" xlink:title="Indicate thrust/std &#45; like behaviour.">
<polygon fill="white" stroke="#666666" points="742.5,-148 629.5,-148 629.5,-129 742.5,-129 742.5,-148"/>
<text text-anchor="middle" x="686" y="-136" font-family="Helvetica,sans-Serif" font-size="10.00">dg::ThrustVectorTag</text>
</a>
</g>
</g>
<!-- Node13&#45;&gt;Node14 -->
<g id="edge13_Node000013_Node000014" class="edge">
<title>Node13&#45;&gt;Node14</title>
<g id="a_edge13_Node000013_Node000014"><a xlink:title=" ">
<path fill="none" stroke="#63b8ff" d="M601.63,-138.5C610.81,-138.5 620.2,-138.5 629.22,-138.5"/>
<polygon fill="#63b8ff" stroke="#63b8ff" points="601.39,-135 591.39,-138.5 601.39,-142 601.39,-135"/>
</a>
</g>
</g>
<!-- Node15 -->
<g id="Node000015" class="node">
<title>Node15</title>
<g id="a_Node000015"><a xlink:href="structdg_1_1_cusp_vector_tag.html" target="_top" xlink:title="special tag for cusp arrays">
<polygon fill="white" stroke="#666666" points="887,-148 780,-148 780,-129 887,-129 887,-148"/>
<text text-anchor="middle" x="833.5" y="-136" font-family="Helvetica,sans-Serif" font-size="10.00">dg::CuspVectorTag</text>
</a>
</g>
</g>
<!-- Node14&#45;&gt;Node15 -->
<g id="edge14_Node000014_Node000015" class="edge">
<title>Node14&#45;&gt;Node15</title>
<g id="a_edge14_Node000014_Node000015"><a xlink:title=" ">
<path fill="none" stroke="#63b8ff" d="M752.95,-138.5C761.99,-138.5 771.17,-138.5 779.92,-138.5"/>
<polygon fill="#63b8ff" stroke="#63b8ff" points="752.84,-135 742.84,-138.5 752.84,-142 752.84,-135"/>
</a>
</g>
</g>
<!-- Node21 -->
<g id="Node000021" class="node">
<title>Node21</title>
<g id="a_Node000021"><a xlink:href="structdg_1_1_sparse_matrix_tag.html" target="_top" xlink:title="indicate our sparse matrix format">
<polygon fill="white" stroke="#666666" points="439.5,-19 323.5,-19 323.5,0 439.5,0 439.5,-19"/>
<text text-anchor="middle" x="381.5" y="-7" font-family="Helvetica,sans-Serif" font-size="10.00">dg::SparseMatrixTag</text>
</a>
</g>
</g>
<!-- Node20&#45;&gt;Node21 -->
<g id="edge20_Node000020_Node000021" class="edge">
<title>Node20&#45;&gt;Node21</title>
<g id="a_edge20_Node000020_Node000021"><a xlink:title=" ">
<path fill="none" stroke="#63b8ff" d="M290.27,-9.5C301.47,-9.5 312.77,-9.5 323.42,-9.5"/>
<polygon fill="#63b8ff" stroke="#63b8ff" points="290.04,-6 280.04,-9.5 290.04,-13 290.04,-6"/>
</a>
</g>
</g>
</g>
</svg>
