<?xml version="1.0" encoding="UTF-8" standalone="no"?>
<!DOCTYPE svg PUBLIC "-//W3C//DTD SVG 1.1//EN"
 "http://www.w3.org/Graphics/SVG/1.1/DTD/svg11.dtd">
<!-- Generated by graphviz version 2.43.0 (0)
 -->
<!-- Title: dg::RealCartesianMPIGrid3d&lt; real_type &gt; Pages: 1 -->
<svg width="186pt" height="236pt"
 viewBox="0.00 0.00 186.00 236.00" xmlns="http://www.w3.org/2000/svg" xmlns:xlink="http://www.w3.org/1999/xlink">
<g id="graph0" class="graph" transform="scale(1 1) rotate(0) translate(4 232)">
<title>dg::RealCartesianMPIGrid3d&lt; real_type &gt;</title>
<!-- Node1 -->
<g id="Node000001" class="node">
<title>Node1</title>
<g id="a_Node000001"><a xlink:title="The mpi version of RealCartesianGrid3d.">
<polygon fill="#999999" stroke="#666666" points="165.5,-30 12.5,-30 12.5,0 165.5,0 165.5,-30"/>
<text text-anchor="start" x="20.5" y="-18" font-family="Helvetica,sans-Serif" font-size="10.00">dg::RealCartesianMPIGrid3d</text>
<text text-anchor="middle" x="89" y="-7" font-family="Helvetica,sans-Serif" font-size="10.00">&lt; real_type &gt;</text>
</a>
</g>
</g>
<!-- Node2 -->
<g id="Node000002" class="node">
<title>Node2</title>
<g id="a_Node000002"><a xlink:href="structdg_1_1a_real_product_m_p_i_geometry3d.html" target="_top" xlink:title="A 3d product space Geometry .">
<polygon fill="white" stroke="#666666" points="178,-96 0,-96 0,-66 178,-66 178,-96"/>
<text text-anchor="start" x="8" y="-84" font-family="Helvetica,sans-Serif" font-size="10.00">dg::aRealProductMPIGeometry3d</text>
<text text-anchor="middle" x="89" y="-73" font-family="Helvetica,sans-Serif" font-size="10.00">&lt; real_type &gt;</text>
</a>
</g>
</g>
<!-- Node2&#45;&gt;Node1 -->
<g id="edge1_Node000001_Node000002" class="edge">
<title>Node2&#45;&gt;Node1</title>
<g id="a_edge1_Node000001_Node000002"><a xlink:title=" ">
<path fill="none" stroke="#63b8ff" d="M89,-55.54C89,-46.96 89,-37.61 89,-30.16"/>
<polygon fill="#63b8ff" stroke="#63b8ff" points="85.5,-55.8 89,-65.8 92.5,-55.8 85.5,-55.8"/>
</a>
</g>
</g>
<!-- Node3 -->
<g id="Node000003" class="node">
<title>Node3</title>
<g id="a_Node000003"><a xlink:href="structdg_1_1a_real_m_p_i_geometry3d.html" target="_top" xlink:title="This is the abstract interface class for a three&#45;dimensional MPIGeometry.">
<polygon fill="white" stroke="#666666" points="159.5,-162 18.5,-162 18.5,-132 159.5,-132 159.5,-162"/>
<text text-anchor="start" x="26.5" y="-150" font-family="Helvetica,sans-Serif" font-size="10.00">dg::aRealMPIGeometry3d</text>
<text text-anchor="middle" x="89" y="-139" font-family="Helvetica,sans-Serif" font-size="10.00">&lt; real_type &gt;</text>
</a>
</g>
</g>
<!-- Node3&#45;&gt;Node2 -->
<g id="edge2_Node000002_Node000003" class="edge">
<title>Node3&#45;&gt;Node2</title>
<g id="a_edge2_Node000002_Node000003"><a xlink:title=" ">
<path fill="none" stroke="#63b8ff" d="M89,-121.54C89,-112.96 89,-103.61 89,-96.16"/>
<polygon fill="#63b8ff" stroke="#63b8ff" points="85.5,-121.8 89,-131.8 92.5,-121.8 85.5,-121.8"/>
</a>
</g>
</g>
<!-- Node4 -->
<g id="Node000004" class="node">
<title>Node4</title>
<g id="a_Node000004"><a xlink:href="structdg_1_1a_real_m_p_i_topology.html" target="_top" xlink:title="An abstract base class for MPI distributed Nd&#45;dimensional dG grids.">
<polygon fill="white" stroke="#666666" points="148,-228 30,-228 30,-198 148,-198 148,-228"/>
<text text-anchor="start" x="38" y="-216" font-family="Helvetica,sans-Serif" font-size="10.00">aRealMPITopology3d</text>
<text text-anchor="middle" x="89" y="-205" font-family="Helvetica,sans-Serif" font-size="10.00">&lt; real_type &gt;</text>
</a>
</g>
</g>
<!-- Node4&#45;&gt;Node3 -->
<g id="edge3_Node000003_Node000004" class="edge">
<title>Node4&#45;&gt;Node3</title>
<g id="a_edge3_Node000003_Node000004"><a xlink:title=" ">
<path fill="none" stroke="#63b8ff" d="M89,-187.54C89,-178.96 89,-169.61 89,-162.16"/>
<polygon fill="#63b8ff" stroke="#63b8ff" points="85.5,-187.8 89,-197.8 92.5,-187.8 85.5,-187.8"/>
</a>
</g>
</g>
</g>
</svg>
