<?xml version="1.0" encoding="UTF-8" standalone="no"?>
<!DOCTYPE svg PUBLIC "-//W3C//DTD SVG 1.1//EN"
 "http://www.w3.org/Graphics/SVG/1.1/DTD/svg11.dtd">
<!-- Generated by graphviz version 2.43.0 (0)
 -->
<!-- Title: dg::RealCartesianRefinedGrid3d&lt; real_type &gt; Pages: 1 -->
<svg width="148pt" height="170pt"
 viewBox="0.00 0.00 148.00 170.00" xmlns="http://www.w3.org/2000/svg" xmlns:xlink="http://www.w3.org/1999/xlink">
<g id="graph0" class="graph" transform="scale(1 1) rotate(0) translate(4 166)">
<title>dg::RealCartesianRefinedGrid3d&lt; real_type &gt;</title>
<!-- Node1 -->
<g id="Node000001" class="node">
<title>Node1</title>
<g id="a_Node000001"><a xlink:title="Refined RealCartesian grid.">
<polygon fill="#999999" stroke="#666666" points="140,-30 0,-30 0,0 140,0 140,-30"/>
<text text-anchor="start" x="8" y="-18" font-family="Helvetica,sans-Serif" font-size="10.00">dg::RealCartesianRefined</text>
<text text-anchor="middle" x="70" y="-7" font-family="Helvetica,sans-Serif" font-size="10.00">Grid3d&lt; real_type &gt;</text>
</a>
</g>
</g>
<!-- Node2 -->
<g id="Node000002" class="node">
<title>Node2</title>
<g id="a_Node000002"><a xlink:href="structdg_1_1a_real_geometry3d.html" target="_top" xlink:title="This is the abstract interface class for a three&#45;dimensional Geometry.">
<polygon fill="white" stroke="#666666" points="131.5,-96 8.5,-96 8.5,-66 131.5,-66 131.5,-96"/>
<text text-anchor="start" x="16.5" y="-84" font-family="Helvetica,sans-Serif" font-size="10.00">dg::aRealGeometry3d</text>
<text text-anchor="middle" x="70" y="-73" font-family="Helvetica,sans-Serif" font-size="10.00">&lt; real_type &gt;</text>
</a>
</g>
</g>
<!-- Node2&#45;&gt;Node1 -->
<g id="edge1_Node000001_Node000002" class="edge">
<title>Node2&#45;&gt;Node1</title>
<g id="a_edge1_Node000001_Node000002"><a xlink:title=" ">
<path fill="none" stroke="#63b8ff" d="M70,-55.54C70,-46.96 70,-37.61 70,-30.16"/>
<polygon fill="#63b8ff" stroke="#63b8ff" points="66.5,-55.8 70,-65.8 73.5,-55.8 66.5,-55.8"/>
</a>
</g>
</g>
<!-- Node3 -->
<g id="Node000003" class="node">
<title>Node3</title>
<g id="a_Node000003"><a xlink:href="structdg_1_1a_real_topology.html" target="_top" xlink:title=" ">
<polygon fill="white" stroke="#666666" points="127,-162 13,-162 13,-132 127,-132 127,-162"/>
<text text-anchor="start" x="21" y="-150" font-family="Helvetica,sans-Serif" font-size="10.00">dg::aRealTopology&lt;</text>
<text text-anchor="middle" x="70" y="-139" font-family="Helvetica,sans-Serif" font-size="10.00"> real_type, 3 &gt;</text>
</a>
</g>
</g>
<!-- Node3&#45;&gt;Node2 -->
<g id="edge2_Node000002_Node000003" class="edge">
<title>Node3&#45;&gt;Node2</title>
<g id="a_edge2_Node000002_Node000003"><a xlink:title=" ">
<path fill="none" stroke="#63b8ff" d="M70,-121.54C70,-112.96 70,-103.61 70,-96.16"/>
<polygon fill="#63b8ff" stroke="#63b8ff" points="66.5,-121.8 70,-131.8 73.5,-121.8 66.5,-121.8"/>
</a>
</g>
</g>
</g>
</svg>
