<?xml version="1.0" encoding="UTF-8" standalone="no"?>
<!DOCTYPE svg PUBLIC "-//W3C//DTD SVG 1.1//EN"
 "http://www.w3.org/Graphics/SVG/1.1/DTD/svg11.dtd">
<!-- Generated by graphviz version 2.43.0 (0)
 -->
<!-- Title: dg::aRealRefinement1d&lt; real_type &gt; Pages: 1 -->
<svg width="346pt" height="230pt"
 viewBox="0.00 0.00 346.00 230.00" xmlns="http://www.w3.org/2000/svg" xmlns:xlink="http://www.w3.org/1999/xlink">
<g id="graph0" class="graph" transform="scale(1 1) rotate(0) translate(4 226)">
<title>dg::aRealRefinement1d&lt; real_type &gt;</title>
<!-- Node1 -->
<g id="Node000001" class="node">
<title>Node1</title>
<g id="a_Node000001"><a xlink:title="Abstract base class for 1d grid refinement that increases the number of grid cells of a fixed basis g...">
<polygon fill="#999999" stroke="#666666" points="131,-126 0,-126 0,-96 131,-96 131,-126"/>
<text text-anchor="start" x="8" y="-114" font-family="Helvetica,sans-Serif" font-size="10.00">dg::aRealRefinement1d</text>
<text text-anchor="middle" x="65.5" y="-103" font-family="Helvetica,sans-Serif" font-size="10.00">&lt; real_type &gt;</text>
</a>
</g>
</g>
<!-- Node2 -->
<g id="Node000002" class="node">
<title>Node2</title>
<g id="a_Node000002"><a xlink:href="structdg_1_1_real_equidist_refinement.html" target="_top" xlink:title="Cell refinement around a given node.">
<polygon fill="white" stroke="#666666" points="328.5,-222 176.5,-222 176.5,-192 328.5,-192 328.5,-222"/>
<text text-anchor="start" x="184.5" y="-210" font-family="Helvetica,sans-Serif" font-size="10.00">dg::RealEquidistRefinement</text>
<text text-anchor="middle" x="252.5" y="-199" font-family="Helvetica,sans-Serif" font-size="10.00">&lt; real_type &gt;</text>
</a>
</g>
</g>
<!-- Node1&#45;&gt;Node2 -->
<g id="edge1_Node000001_Node000002" class="edge">
<title>Node1&#45;&gt;Node2</title>
<g id="a_edge1_Node000001_Node000002"><a xlink:title=" ">
<path fill="none" stroke="#63b8ff" d="M91.59,-132.74C111.04,-148.62 139.26,-169.63 167,-183 174.01,-186.38 181.57,-189.36 189.2,-191.98"/>
<polygon fill="#63b8ff" stroke="#63b8ff" points="93.75,-129.99 83.82,-126.29 89.28,-135.37 93.75,-129.99"/>
</a>
</g>
</g>
<!-- Node3 -->
<g id="Node000003" class="node">
<title>Node3</title>
<g id="a_Node000003"><a xlink:href="structdg_1_1_real_exponential_refinement.html" target="_top" xlink:title="The exponential refinement around a node.">
<polygon fill="white" stroke="#666666" points="338,-174 167,-174 167,-144 338,-144 338,-174"/>
<text text-anchor="start" x="175" y="-162" font-family="Helvetica,sans-Serif" font-size="10.00">dg::RealExponentialRefinement</text>
<text text-anchor="middle" x="252.5" y="-151" font-family="Helvetica,sans-Serif" font-size="10.00">&lt; real_type &gt;</text>
</a>
</g>
</g>
<!-- Node1&#45;&gt;Node3 -->
<g id="edge2_Node000001_Node000003" class="edge">
<title>Node1&#45;&gt;Node3</title>
<g id="a_edge2_Node000001_Node000003"><a xlink:title=" ">
<path fill="none" stroke="#63b8ff" d="M134.26,-128.58C153.76,-133.64 174.84,-139.11 193.68,-144"/>
<polygon fill="#63b8ff" stroke="#63b8ff" points="135.09,-125.18 124.53,-126.06 133.33,-131.96 135.09,-125.18"/>
</a>
</g>
</g>
<!-- Node4 -->
<g id="Node000004" class="node">
<title>Node4</title>
<g id="a_Node000004"><a xlink:href="structdg_1_1_real_fem_refinement.html" target="_top" xlink:title="Insert equidistant points in between dG nodes.">
<polygon fill="white" stroke="#666666" points="319.5,-126 185.5,-126 185.5,-96 319.5,-96 319.5,-126"/>
<text text-anchor="start" x="193.5" y="-114" font-family="Helvetica,sans-Serif" font-size="10.00">dg::RealFemRefinement</text>
<text text-anchor="middle" x="252.5" y="-103" font-family="Helvetica,sans-Serif" font-size="10.00">&lt; real_type &gt;</text>
</a>
</g>
</g>
<!-- Node1&#45;&gt;Node4 -->
<g id="edge3_Node000001_Node000004" class="edge">
<title>Node1&#45;&gt;Node4</title>
<g id="a_edge3_Node000001_Node000004"><a xlink:title=" ">
<path fill="none" stroke="#63b8ff" d="M141.61,-111C156.07,-111 171.11,-111 185.27,-111"/>
<polygon fill="#63b8ff" stroke="#63b8ff" points="141.2,-107.5 131.2,-111 141.2,-114.5 141.2,-107.5"/>
</a>
</g>
</g>
<!-- Node5 -->
<g id="Node000005" class="node">
<title>Node5</title>
<g id="a_Node000005"><a xlink:href="structdg_1_1_real_identity_refinement.html" target="_top" xlink:title="No refinement.">
<polygon fill="white" stroke="#666666" points="328,-78 177,-78 177,-48 328,-48 328,-78"/>
<text text-anchor="start" x="185" y="-66" font-family="Helvetica,sans-Serif" font-size="10.00">dg::RealIdentityRefinement</text>
<text text-anchor="middle" x="252.5" y="-55" font-family="Helvetica,sans-Serif" font-size="10.00">&lt; real_type &gt;</text>
</a>
</g>
</g>
<!-- Node1&#45;&gt;Node5 -->
<g id="edge4_Node000001_Node000005" class="edge">
<title>Node1&#45;&gt;Node5</title>
<g id="a_edge4_Node000001_Node000005"><a xlink:title=" ">
<path fill="none" stroke="#63b8ff" d="M134.26,-93.42C153.76,-88.36 174.84,-82.89 193.68,-78"/>
<polygon fill="#63b8ff" stroke="#63b8ff" points="133.33,-90.04 124.53,-95.94 135.09,-96.82 133.33,-90.04"/>
</a>
</g>
</g>
<!-- Node6 -->
<g id="Node000006" class="node">
<title>Node6</title>
<g id="a_Node000006"><a xlink:href="structdg_1_1_real_linear_refinement.html" target="_top" xlink:title="Multiply every cell in the grid by a factor.">
<polygon fill="white" stroke="#666666" points="324,-30 181,-30 181,0 324,0 324,-30"/>
<text text-anchor="start" x="189" y="-18" font-family="Helvetica,sans-Serif" font-size="10.00">dg::RealLinearRefinement</text>
<text text-anchor="middle" x="252.5" y="-7" font-family="Helvetica,sans-Serif" font-size="10.00">&lt; real_type &gt;</text>
</a>
</g>
</g>
<!-- Node1&#45;&gt;Node6 -->
<g id="edge5_Node000001_Node000006" class="edge">
<title>Node1&#45;&gt;Node6</title>
<g id="a_edge5_Node000001_Node000006"><a xlink:title=" ">
<path fill="none" stroke="#63b8ff" d="M91.59,-89.26C111.04,-73.38 139.26,-52.37 167,-39 174.01,-35.62 181.57,-32.64 189.2,-30.02"/>
<polygon fill="#63b8ff" stroke="#63b8ff" points="89.28,-86.63 83.82,-95.71 93.75,-92.01 89.28,-86.63"/>
</a>
</g>
</g>
</g>
</svg>
