<?xml version="1.0" encoding="UTF-8" standalone="no"?>
<!DOCTYPE svg PUBLIC "-//W3C//DTD SVG 1.1//EN"
 "http://www.w3.org/Graphics/SVG/1.1/DTD/svg11.dtd">
<!-- Generated by graphviz version 2.43.0 (0)
 -->
<!-- Title: dg::aRealGeometry2d&lt; real_type &gt; Pages: 1 -->
<svg width="302pt" height="170pt"
 viewBox="0.00 0.00 301.50 170.00" xmlns="http://www.w3.org/2000/svg" xmlns:xlink="http://www.w3.org/1999/xlink">
<g id="graph0" class="graph" transform="scale(1 1) rotate(0) translate(4 166)">
<title>dg::aRealGeometry2d&lt; real_type &gt;</title>
<!-- Node1 -->
<g id="Node000001" class="node">
<title>Node1</title>
<g id="a_Node000001"><a xlink:title="This is the abstract interface class for a two&#45;dimensional Geometry.">
<polygon fill="#999999" stroke="#666666" points="207,-96 84,-96 84,-66 207,-66 207,-96"/>
<text text-anchor="start" x="92" y="-84" font-family="Helvetica,sans-Serif" font-size="10.00">dg::aRealGeometry2d</text>
<text text-anchor="middle" x="145.5" y="-73" font-family="Helvetica,sans-Serif" font-size="10.00">&lt; real_type &gt;</text>
</a>
</g>
</g>
<!-- Node3 -->
<g id="Node000003" class="node">
<title>Node3</title>
<g id="a_Node000003"><a xlink:href="structdg_1_1_real_cartesian_grid2d.html" target="_top" xlink:title="Two&#45;dimensional Grid with Cartesian metric.">
<polygon fill="white" stroke="#666666" points="135,-30 0,-30 0,0 135,0 135,-30"/>
<text text-anchor="start" x="8" y="-18" font-family="Helvetica,sans-Serif" font-size="10.00">dg::RealCartesianGrid2d</text>
<text text-anchor="middle" x="67.5" y="-7" font-family="Helvetica,sans-Serif" font-size="10.00">&lt; real_type &gt;</text>
</a>
</g>
</g>
<!-- Node1&#45;&gt;Node3 -->
<g id="edge2_Node000001_Node000003" class="edge">
<title>Node1&#45;&gt;Node3</title>
<g id="a_edge2_Node000001_Node000003"><a xlink:title=" ">
<path fill="none" stroke="#63b8ff" d="M120.15,-59.2C108.57,-49.7 95.15,-38.69 84.76,-30.16"/>
<polygon fill="#63b8ff" stroke="#63b8ff" points="118.24,-62.16 128.19,-65.8 122.68,-56.75 118.24,-62.16"/>
</a>
</g>
</g>
<!-- Node4 -->
<g id="Node000004" class="node">
<title>Node4</title>
<g id="a_Node000004"><a xlink:href="structdg_1_1_real_cartesian_refined_grid2d.html" target="_top" xlink:title="Refined RealCartesian grid.">
<polygon fill="white" stroke="#666666" points="293.5,-30 153.5,-30 153.5,0 293.5,0 293.5,-30"/>
<text text-anchor="start" x="161.5" y="-18" font-family="Helvetica,sans-Serif" font-size="10.00">dg::RealCartesianRefined</text>
<text text-anchor="middle" x="223.5" y="-7" font-family="Helvetica,sans-Serif" font-size="10.00">Grid2d&lt; real_type &gt;</text>
</a>
</g>
</g>
<!-- Node1&#45;&gt;Node4 -->
<g id="edge3_Node000001_Node000004" class="edge">
<title>Node1&#45;&gt;Node4</title>
<g id="a_edge3_Node000001_Node000004"><a xlink:title=" ">
<path fill="none" stroke="#63b8ff" d="M170.85,-59.2C182.43,-49.7 195.85,-38.69 206.24,-30.16"/>
<polygon fill="#63b8ff" stroke="#63b8ff" points="168.32,-56.75 162.81,-65.8 172.76,-62.16 168.32,-56.75"/>
</a>
</g>
</g>
<!-- Node2 -->
<g id="Node000002" class="node">
<title>Node2</title>
<g id="a_Node000002"><a xlink:href="structdg_1_1a_real_topology.html" target="_top" xlink:title=" ">
<polygon fill="white" stroke="#666666" points="202.5,-162 88.5,-162 88.5,-132 202.5,-132 202.5,-162"/>
<text text-anchor="start" x="96.5" y="-150" font-family="Helvetica,sans-Serif" font-size="10.00">dg::aRealTopology&lt;</text>
<text text-anchor="middle" x="145.5" y="-139" font-family="Helvetica,sans-Serif" font-size="10.00"> real_type, 2 &gt;</text>
</a>
</g>
</g>
<!-- Node2&#45;&gt;Node1 -->
<g id="edge1_Node000001_Node000002" class="edge">
<title>Node2&#45;&gt;Node1</title>
<g id="a_edge1_Node000001_Node000002"><a xlink:title=" ">
<path fill="none" stroke="#63b8ff" d="M145.5,-121.54C145.5,-112.96 145.5,-103.61 145.5,-96.16"/>
<polygon fill="#63b8ff" stroke="#63b8ff" points="142,-121.8 145.5,-131.8 149,-121.8 142,-121.8"/>
</a>
</g>
</g>
</g>
</svg>
