<?xml version="1.0" encoding="UTF-8" standalone="no"?>
<!DOCTYPE svg PUBLIC "-//W3C//DTD SVG 1.1//EN"
 "http://www.w3.org/Graphics/SVG/1.1/DTD/svg11.dtd">
<!-- Generated by graphviz version 2.43.0 (0)
 -->
<!-- Title: dg::aRealGeometryX3d&lt; real_type &gt; Pages: 1 -->
<svg width="477pt" height="86pt"
 viewBox="0.00 0.00 477.00 86.00" xmlns="http://www.w3.org/2000/svg" xmlns:xlink="http://www.w3.org/1999/xlink">
<g id="graph0" class="graph" transform="scale(1 1) rotate(0) translate(4 82)">
<title>dg::aRealGeometryX3d&lt; real_type &gt;</title>
<!-- Node1 -->
<g id="Node000001" class="node">
<title>Node1</title>
<g id="a_Node000001"><a xlink:title="This is the abstract interface class for a three&#45;dimensional RealGeometryX.">
<polygon fill="#999999" stroke="#666666" points="291,-54 161,-54 161,-24 291,-24 291,-54"/>
<text text-anchor="start" x="169" y="-42" font-family="Helvetica,sans-Serif" font-size="10.00">dg::aRealGeometryX3d</text>
<text text-anchor="middle" x="226" y="-31" font-family="Helvetica,sans-Serif" font-size="10.00">&lt; real_type &gt;</text>
</a>
</g>
</g>
<!-- Node3 -->
<g id="Node000003" class="node">
<title>Node3</title>
<g id="a_Node000003"><a xlink:href="structdg_1_1_real_cartesian_grid_x3d.html" target="_top" xlink:title="three&#45;dimensional GridX with RealCartesian metric">
<polygon fill="white" stroke="#666666" points="469,-78 327,-78 327,-48 469,-48 469,-78"/>
<text text-anchor="start" x="335" y="-66" font-family="Helvetica,sans-Serif" font-size="10.00">dg::RealCartesianGridX3d</text>
<text text-anchor="middle" x="398" y="-55" font-family="Helvetica,sans-Serif" font-size="10.00">&lt; real_type &gt;</text>
</a>
</g>
</g>
<!-- Node1&#45;&gt;Node3 -->
<g id="edge2_Node000001_Node000003" class="edge">
<title>Node1&#45;&gt;Node3</title>
<g id="a_edge2_Node000001_Node000003"><a xlink:title=" ">
<path fill="none" stroke="#63b8ff" d="M301.22,-49.48C309.77,-50.68 318.47,-51.91 326.96,-53.11"/>
<polygon fill="#63b8ff" stroke="#63b8ff" points="301.66,-46.01 291.27,-48.07 300.68,-52.94 301.66,-46.01"/>
</a>
</g>
</g>
<!-- Node4 -->
<g id="Node000004" class="node">
<title>Node4</title>
<g id="a_Node000004"><a xlink:href="structdg_1_1_real_cartesian_refined_grid_x3d.html" target="_top" xlink:title="Refined X&#45;point grid.">
<polygon fill="white" stroke="#666666" points="468,-30 328,-30 328,0 468,0 468,-30"/>
<text text-anchor="start" x="336" y="-18" font-family="Helvetica,sans-Serif" font-size="10.00">dg::RealCartesianRefined</text>
<text text-anchor="middle" x="398" y="-7" font-family="Helvetica,sans-Serif" font-size="10.00">GridX3d&lt; real_type &gt;</text>
</a>
</g>
</g>
<!-- Node1&#45;&gt;Node4 -->
<g id="edge3_Node000001_Node000004" class="edge">
<title>Node1&#45;&gt;Node4</title>
<g id="a_edge3_Node000001_Node000004"><a xlink:title=" ">
<path fill="none" stroke="#63b8ff" d="M301.17,-28.53C310.03,-27.28 319.04,-26.01 327.81,-24.77"/>
<polygon fill="#63b8ff" stroke="#63b8ff" points="300.68,-25.06 291.27,-29.93 301.66,-31.99 300.68,-25.06"/>
</a>
</g>
</g>
<!-- Node2 -->
<g id="Node000002" class="node">
<title>Node2</title>
<g id="a_Node000002"><a xlink:href="structdg_1_1a_real_topology_x3d.html" target="_top" xlink:title="A 3D grid class with X&#45;point topology.">
<polygon fill="white" stroke="#666666" points="125,-54 0,-54 0,-24 125,-24 125,-54"/>
<text text-anchor="start" x="8" y="-42" font-family="Helvetica,sans-Serif" font-size="10.00">dg::aRealTopologyX3d</text>
<text text-anchor="middle" x="62.5" y="-31" font-family="Helvetica,sans-Serif" font-size="10.00">&lt; real_type &gt;</text>
</a>
</g>
</g>
<!-- Node2&#45;&gt;Node1 -->
<g id="edge1_Node000001_Node000002" class="edge">
<title>Node2&#45;&gt;Node1</title>
<g id="a_edge1_Node000001_Node000002"><a xlink:title=" ">
<path fill="none" stroke="#63b8ff" d="M135.06,-39C143.69,-39 152.46,-39 160.97,-39"/>
<polygon fill="#63b8ff" stroke="#63b8ff" points="135.02,-35.5 125.02,-39 135.02,-42.5 135.02,-35.5"/>
</a>
</g>
</g>
</g>
</svg>
