<?xml version="1.0" encoding="UTF-8" standalone="no"?>
<!DOCTYPE svg PUBLIC "-//W3C//DTD SVG 1.1//EN"
 "http://www.w3.org/Graphics/SVG/1.1/DTD/svg11.dtd">
<!-- Generated by graphviz version 2.43.0 (0)
 -->
<!-- Title: dg::aRealProductMPIGeometry3d&lt; real_type &gt; Pages: 1 -->
<svg width="338pt" height="236pt"
 viewBox="0.00 0.00 337.50 236.00" xmlns="http://www.w3.org/2000/svg" xmlns:xlink="http://www.w3.org/1999/xlink">
<g id="graph0" class="graph" transform="scale(1 1) rotate(0) translate(4 232)">
<title>dg::aRealProductMPIGeometry3d&lt; real_type &gt;</title>
<!-- Node1 -->
<g id="Node000001" class="node">
<title>Node1</title>
<g id="a_Node000001"><a xlink:title="A 3d product space Geometry .">
<polygon fill="#999999" stroke="#666666" points="252.5,-96 74.5,-96 74.5,-66 252.5,-66 252.5,-96"/>
<text text-anchor="start" x="82.5" y="-84" font-family="Helvetica,sans-Serif" font-size="10.00">dg::aRealProductMPIGeometry3d</text>
<text text-anchor="middle" x="163.5" y="-73" font-family="Helvetica,sans-Serif" font-size="10.00">&lt; real_type &gt;</text>
</a>
</g>
</g>
<!-- Node4 -->
<g id="Node000004" class="node">
<title>Node4</title>
<g id="a_Node000004"><a xlink:href="structdg_1_1_real_cartesian_m_p_i_grid3d.html" target="_top" xlink:title="The mpi version of RealCartesianGrid3d.">
<polygon fill="white" stroke="#666666" points="153,-30 0,-30 0,0 153,0 153,-30"/>
<text text-anchor="start" x="8" y="-18" font-family="Helvetica,sans-Serif" font-size="10.00">dg::RealCartesianMPIGrid3d</text>
<text text-anchor="middle" x="76.5" y="-7" font-family="Helvetica,sans-Serif" font-size="10.00">&lt; real_type &gt;</text>
</a>
</g>
</g>
<!-- Node1&#45;&gt;Node4 -->
<g id="edge3_Node000001_Node000004" class="edge">
<title>Node1&#45;&gt;Node4</title>
<g id="a_edge3_Node000001_Node000004"><a xlink:title=" ">
<path fill="none" stroke="#63b8ff" d="M135.98,-59.75C122.89,-50.13 107.57,-38.86 95.75,-30.16"/>
<polygon fill="#63b8ff" stroke="#63b8ff" points="134.06,-62.69 144.19,-65.8 138.21,-57.05 134.06,-62.69"/>
</a>
</g>
</g>
<!-- Node5 -->
<g id="Node000005" class="node">
<title>Node5</title>
<g id="a_Node000005"><a xlink:href="structdg_1_1_real_cylindrical_m_p_i_grid3d.html" target="_top" xlink:title="the mpi version of RealCylindricalGrid3d">
<polygon fill="white" stroke="#666666" points="329.5,-30 171.5,-30 171.5,0 329.5,0 329.5,-30"/>
<text text-anchor="start" x="179.5" y="-18" font-family="Helvetica,sans-Serif" font-size="10.00">dg::RealCylindricalMPIGrid3d</text>
<text text-anchor="middle" x="250.5" y="-7" font-family="Helvetica,sans-Serif" font-size="10.00">&lt; real_type &gt;</text>
</a>
</g>
</g>
<!-- Node1&#45;&gt;Node5 -->
<g id="edge4_Node000001_Node000005" class="edge">
<title>Node1&#45;&gt;Node5</title>
<g id="a_edge4_Node000001_Node000005"><a xlink:title=" ">
<path fill="none" stroke="#63b8ff" d="M191.02,-59.75C204.11,-50.13 219.43,-38.86 231.25,-30.16"/>
<polygon fill="#63b8ff" stroke="#63b8ff" points="188.79,-57.05 182.81,-65.8 192.94,-62.69 188.79,-57.05"/>
</a>
</g>
</g>
<!-- Node2 -->
<g id="Node000002" class="node">
<title>Node2</title>
<g id="a_Node000002"><a xlink:href="structdg_1_1a_real_m_p_i_geometry3d.html" target="_top" xlink:title="This is the abstract interface class for a three&#45;dimensional MPIGeometry.">
<polygon fill="white" stroke="#666666" points="234,-162 93,-162 93,-132 234,-132 234,-162"/>
<text text-anchor="start" x="101" y="-150" font-family="Helvetica,sans-Serif" font-size="10.00">dg::aRealMPIGeometry3d</text>
<text text-anchor="middle" x="163.5" y="-139" font-family="Helvetica,sans-Serif" font-size="10.00">&lt; real_type &gt;</text>
</a>
</g>
</g>
<!-- Node2&#45;&gt;Node1 -->
<g id="edge1_Node000001_Node000002" class="edge">
<title>Node2&#45;&gt;Node1</title>
<g id="a_edge1_Node000001_Node000002"><a xlink:title=" ">
<path fill="none" stroke="#63b8ff" d="M163.5,-121.54C163.5,-112.96 163.5,-103.61 163.5,-96.16"/>
<polygon fill="#63b8ff" stroke="#63b8ff" points="160,-121.8 163.5,-131.8 167,-121.8 160,-121.8"/>
</a>
</g>
</g>
<!-- Node3 -->
<g id="Node000003" class="node">
<title>Node3</title>
<g id="a_Node000003"><a xlink:href="structdg_1_1a_real_m_p_i_topology.html" target="_top" xlink:title="An abstract base class for MPI distributed Nd&#45;dimensional dG grids.">
<polygon fill="white" stroke="#666666" points="222.5,-228 104.5,-228 104.5,-198 222.5,-198 222.5,-228"/>
<text text-anchor="start" x="112.5" y="-216" font-family="Helvetica,sans-Serif" font-size="10.00">aRealMPITopology3d</text>
<text text-anchor="middle" x="163.5" y="-205" font-family="Helvetica,sans-Serif" font-size="10.00">&lt; real_type &gt;</text>
</a>
</g>
</g>
<!-- Node3&#45;&gt;Node2 -->
<g id="edge2_Node000002_Node000003" class="edge">
<title>Node3&#45;&gt;Node2</title>
<g id="a_edge2_Node000002_Node000003"><a xlink:title=" ">
<path fill="none" stroke="#63b8ff" d="M163.5,-187.54C163.5,-178.96 163.5,-169.61 163.5,-162.16"/>
<polygon fill="#63b8ff" stroke="#63b8ff" points="160,-187.8 163.5,-197.8 167,-187.8 160,-187.8"/>
</a>
</g>
</g>
</g>
</svg>
