<?xml version="1.0" encoding="UTF-8" standalone="no"?>
<!DOCTYPE svg PUBLIC "-//W3C//DTD SVG 1.1//EN"
 "http://www.w3.org/Graphics/SVG/1.1/DTD/svg11.dtd">
<!-- Generated by graphviz version 2.43.0 (0)
 -->
<!-- Title: dg::RealCartesianGridX2d&lt; real_type &gt; Pages: 1 -->
<svg width="150pt" height="170pt"
 viewBox="0.00 0.00 150.00 170.00" xmlns="http://www.w3.org/2000/svg" xmlns:xlink="http://www.w3.org/1999/xlink">
<g id="graph0" class="graph" transform="scale(1 1) rotate(0) translate(4 166)">
<title>dg::RealCartesianGridX2d&lt; real_type &gt;</title>
<!-- Node1 -->
<g id="Node000001" class="node">
<title>Node1</title>
<g id="a_Node000001"><a xlink:title="two&#45;dimensional GridX with RealCartesian metric">
<polygon fill="#999999" stroke="#666666" points="142,-30 0,-30 0,0 142,0 142,-30"/>
<text text-anchor="start" x="8" y="-18" font-family="Helvetica,sans-Serif" font-size="10.00">dg::RealCartesianGridX2d</text>
<text text-anchor="middle" x="71" y="-7" font-family="Helvetica,sans-Serif" font-size="10.00">&lt; real_type &gt;</text>
</a>
</g>
</g>
<!-- Node2 -->
<g id="Node000002" class="node">
<title>Node2</title>
<g id="a_Node000002"><a xlink:href="structdg_1_1a_real_geometry_x2d.html" target="_top" xlink:title="This is the abstract interface class for a two&#45;dimensional RealGeometryX.">
<polygon fill="white" stroke="#666666" points="136,-96 6,-96 6,-66 136,-66 136,-96"/>
<text text-anchor="start" x="14" y="-84" font-family="Helvetica,sans-Serif" font-size="10.00">dg::aRealGeometryX2d</text>
<text text-anchor="middle" x="71" y="-73" font-family="Helvetica,sans-Serif" font-size="10.00">&lt; real_type &gt;</text>
</a>
</g>
</g>
<!-- Node2&#45;&gt;Node1 -->
<g id="edge1_Node000001_Node000002" class="edge">
<title>Node2&#45;&gt;Node1</title>
<g id="a_edge1_Node000001_Node000002"><a xlink:title=" ">
<path fill="none" stroke="#63b8ff" d="M71,-55.54C71,-46.96 71,-37.61 71,-30.16"/>
<polygon fill="#63b8ff" stroke="#63b8ff" points="67.5,-55.8 71,-65.8 74.5,-55.8 67.5,-55.8"/>
</a>
</g>
</g>
<!-- Node3 -->
<g id="Node000003" class="node">
<title>Node3</title>
<g id="a_Node000003"><a xlink:href="structdg_1_1a_real_topology_x2d.html" target="_top" xlink:title="A 2D grid class with X&#45;point topology.">
<polygon fill="white" stroke="#666666" points="133.5,-162 8.5,-162 8.5,-132 133.5,-132 133.5,-162"/>
<text text-anchor="start" x="16.5" y="-150" font-family="Helvetica,sans-Serif" font-size="10.00">dg::aRealTopologyX2d</text>
<text text-anchor="middle" x="71" y="-139" font-family="Helvetica,sans-Serif" font-size="10.00">&lt; real_type &gt;</text>
</a>
</g>
</g>
<!-- Node3&#45;&gt;Node2 -->
<g id="edge2_Node000002_Node000003" class="edge">
<title>Node3&#45;&gt;Node2</title>
<g id="a_edge2_Node000002_Node000003"><a xlink:title=" ">
<path fill="none" stroke="#63b8ff" d="M71,-121.54C71,-112.96 71,-103.61 71,-96.16"/>
<polygon fill="#63b8ff" stroke="#63b8ff" points="67.5,-121.8 71,-131.8 74.5,-121.8 67.5,-121.8"/>
</a>
</g>
</g>
</g>
</svg>
