<?xml version="1.0" encoding="UTF-8" standalone="no"?>
<!DOCTYPE svg PUBLIC "-//W3C//DTD SVG 1.1//EN"
 "http://www.w3.org/Graphics/SVG/1.1/DTD/svg11.dtd">
<!-- Generated by graphviz version 2.43.0 (0)
 -->
<!-- Title: dg::RealCartesianRefinedGridX3d&lt; real_type &gt; Pages: 1 -->
<svg width="148pt" height="170pt"
 viewBox="0.00 0.00 148.00 170.00" xmlns="http://www.w3.org/2000/svg" xmlns:xlink="http://www.w3.org/1999/xlink">
<g id="graph0" class="graph" transform="scale(1 1) rotate(0) translate(4 166)">
<title>dg::RealCartesianRefinedGridX3d&lt; real_type &gt;</title>
<!-- Node1 -->
<g id="Node000001" class="node">
<title>Node1</title>
<g id="a_Node000001"><a xlink:title="Refined X&#45;point grid.">
<polygon fill="#999999" stroke="#666666" points="140,-30 0,-30 0,0 140,0 140,-30"/>
<text text-anchor="start" x="8" y="-18" font-family="Helvetica,sans-Serif" font-size="10.00">dg::RealCartesianRefined</text>
<text text-anchor="middle" x="70" y="-7" font-family="Helvetica,sans-Serif" font-size="10.00">GridX3d&lt; real_type &gt;</text>
</a>
</g>
</g>
<!-- Node2 -->
<g id="Node000002" class="node">
<title>Node2</title>
<g id="a_Node000002"><a xlink:href="structdg_1_1a_real_geometry_x3d.html" target="_top" xlink:title="This is the abstract interface class for a three&#45;dimensional RealGeometryX.">
<polygon fill="white" stroke="#666666" points="135,-96 5,-96 5,-66 135,-66 135,-96"/>
<text text-anchor="start" x="13" y="-84" font-family="Helvetica,sans-Serif" font-size="10.00">dg::aRealGeometryX3d</text>
<text text-anchor="middle" x="70" y="-73" font-family="Helvetica,sans-Serif" font-size="10.00">&lt; real_type &gt;</text>
</a>
</g>
</g>
<!-- Node2&#45;&gt;Node1 -->
<g id="edge1_Node000001_Node000002" class="edge">
<title>Node2&#45;&gt;Node1</title>
<g id="a_edge1_Node000001_Node000002"><a xlink:title=" ">
<path fill="none" stroke="#63b8ff" d="M70,-55.54C70,-46.96 70,-37.61 70,-30.16"/>
<polygon fill="#63b8ff" stroke="#63b8ff" points="66.5,-55.8 70,-65.8 73.5,-55.8 66.5,-55.8"/>
</a>
</g>
</g>
<!-- Node3 -->
<g id="Node000003" class="node">
<title>Node3</title>
<g id="a_Node000003"><a xlink:href="structdg_1_1a_real_topology_x3d.html" target="_top" xlink:title="A 3D grid class with X&#45;point topology.">
<polygon fill="white" stroke="#666666" points="132.5,-162 7.5,-162 7.5,-132 132.5,-132 132.5,-162"/>
<text text-anchor="start" x="15.5" y="-150" font-family="Helvetica,sans-Serif" font-size="10.00">dg::aRealTopologyX3d</text>
<text text-anchor="middle" x="70" y="-139" font-family="Helvetica,sans-Serif" font-size="10.00">&lt; real_type &gt;</text>
</a>
</g>
</g>
<!-- Node3&#45;&gt;Node2 -->
<g id="edge2_Node000002_Node000003" class="edge">
<title>Node3&#45;&gt;Node2</title>
<g id="a_edge2_Node000002_Node000003"><a xlink:title=" ">
<path fill="none" stroke="#63b8ff" d="M70,-121.54C70,-112.96 70,-103.61 70,-96.16"/>
<polygon fill="#63b8ff" stroke="#63b8ff" points="66.5,-121.8 70,-131.8 73.5,-121.8 66.5,-121.8"/>
</a>
</g>
</g>
</g>
</svg>
