<?xml version="1.0" encoding="UTF-8" standalone="no"?>
<!DOCTYPE svg PUBLIC "-//W3C//DTD SVG 1.1//EN"
 "http://www.w3.org/Graphics/SVG/1.1/DTD/svg11.dtd">
<!-- Generated by graphviz version 2.43.0 (0)
 -->
<!-- Title: dg::ArithmeticTag Pages: 1 -->
<svg width="232pt" height="247pt"
 viewBox="0.00 0.00 231.50 247.00" xmlns="http://www.w3.org/2000/svg" xmlns:xlink="http://www.w3.org/1999/xlink">
<g id="graph0" class="graph" transform="scale(1 1) rotate(0) translate(4 243)">
<title>dg::ArithmeticTag</title>
<!-- Node1 -->
<g id="Node000001" class="node">
<title>Node1</title>
<g id="a_Node000001"><a xlink:title="Types where std::is_arithmetic is true.">
<polygon fill="#999999" stroke="#666666" points="169,-74 67,-74 67,-55 169,-55 169,-74"/>
<text text-anchor="middle" x="118" y="-62" font-family="Helvetica,sans-Serif" font-size="10.00">dg::ArithmeticTag</text>
</a>
</g>
</g>
<!-- Node5 -->
<g id="Node000005" class="node">
<title>Node5</title>
<g id="a_Node000005"><a xlink:href="structdg_1_1_floating_point_tag.html" target="_top" xlink:title="Types where std::is_floating_point is true.">
<polygon fill="white" stroke="#666666" points="116,-19 0,-19 0,0 116,0 116,-19"/>
<text text-anchor="middle" x="58" y="-7" font-family="Helvetica,sans-Serif" font-size="10.00">dg::FloatingPointTag</text>
</a>
</g>
</g>
<!-- Node1&#45;&gt;Node5 -->
<g id="edge4_Node000001_Node000005" class="edge">
<title>Node1&#45;&gt;Node5</title>
<g id="a_edge4_Node000001_Node000005"><a xlink:title=" ">
<path fill="none" stroke="#63b8ff" d="M100.82,-48.32C90.12,-38.87 76.74,-27.06 67.82,-19.17"/>
<polygon fill="#63b8ff" stroke="#63b8ff" points="98.55,-50.99 108.36,-54.98 103.18,-45.74 98.55,-50.99"/>
</a>
</g>
</g>
<!-- Node6 -->
<g id="Node000006" class="node">
<title>Node6</title>
<g id="a_Node000006"><a xlink:href="structdg_1_1_integral_tag.html" target="_top" xlink:title="Types where std::is_integral is true.">
<polygon fill="white" stroke="#666666" points="223.5,-19 134.5,-19 134.5,0 223.5,0 223.5,-19"/>
<text text-anchor="middle" x="179" y="-7" font-family="Helvetica,sans-Serif" font-size="10.00">dg::IntegralTag</text>
</a>
</g>
</g>
<!-- Node1&#45;&gt;Node6 -->
<g id="edge5_Node000001_Node000006" class="edge">
<title>Node1&#45;&gt;Node6</title>
<g id="a_edge5_Node000001_Node000006"><a xlink:title=" ">
<path fill="none" stroke="#63b8ff" d="M135.47,-48.32C146.34,-38.87 159.94,-27.06 169.02,-19.17"/>
<polygon fill="#63b8ff" stroke="#63b8ff" points="133.05,-45.78 127.8,-54.98 137.65,-51.07 133.05,-45.78"/>
</a>
</g>
</g>
<!-- Node2 -->
<g id="Node000002" class="node">
<title>Node2</title>
<g id="a_Node000002"><a xlink:href="structdg_1_1_any_scalar_tag.html" target="_top" xlink:title="Scalar Tag base class.">
<polygon fill="white" stroke="#666666" points="168,-129 68,-129 68,-110 168,-110 168,-129"/>
<text text-anchor="middle" x="118" y="-117" font-family="Helvetica,sans-Serif" font-size="10.00">dg::AnyScalarTag</text>
</a>
</g>
</g>
<!-- Node2&#45;&gt;Node1 -->
<g id="edge1_Node000001_Node000002" class="edge">
<title>Node2&#45;&gt;Node1</title>
<g id="a_edge1_Node000001_Node000002"><a xlink:title=" ">
<path fill="none" stroke="#63b8ff" d="M118,-99.66C118,-90.93 118,-80.99 118,-74.09"/>
<polygon fill="#63b8ff" stroke="#63b8ff" points="114.5,-99.75 118,-109.75 121.5,-99.75 114.5,-99.75"/>
</a>
</g>
</g>
<!-- Node3 -->
<g id="Node000003" class="node">
<title>Node3</title>
<g id="a_Node000003"><a xlink:href="structdg_1_1_any_vector_tag.html" target="_top" xlink:title="Vector Tag base class, indicates the basic Vector/container concept.">
<polygon fill="white" stroke="#666666" points="168.5,-184 67.5,-184 67.5,-165 168.5,-165 168.5,-184"/>
<text text-anchor="middle" x="118" y="-172" font-family="Helvetica,sans-Serif" font-size="10.00">dg::AnyVectorTag</text>
</a>
</g>
</g>
<!-- Node3&#45;&gt;Node2 -->
<g id="edge2_Node000002_Node000003" class="edge">
<title>Node3&#45;&gt;Node2</title>
<g id="a_edge2_Node000002_Node000003"><a xlink:title=" ">
<path fill="none" stroke="#63b8ff" d="M118,-154.66C118,-145.93 118,-135.99 118,-129.09"/>
<polygon fill="#63b8ff" stroke="#63b8ff" points="114.5,-154.75 118,-164.75 121.5,-154.75 114.5,-154.75"/>
</a>
</g>
</g>
<!-- Node4 -->
<g id="Node000004" class="node">
<title>Node4</title>
<g id="a_Node000004"><a xlink:href="structdg_1_1_any_matrix_tag.html" target="_top" xlink:title="tensor_category base class">
<polygon fill="white" stroke="#666666" points="168.5,-239 67.5,-239 67.5,-220 168.5,-220 168.5,-239"/>
<text text-anchor="middle" x="118" y="-227" font-family="Helvetica,sans-Serif" font-size="10.00">dg::AnyMatrixTag</text>
</a>
</g>
</g>
<!-- Node4&#45;&gt;Node3 -->
<g id="edge3_Node000003_Node000004" class="edge">
<title>Node4&#45;&gt;Node3</title>
<g id="a_edge3_Node000003_Node000004"><a xlink:title=" ">
<path fill="none" stroke="#63b8ff" d="M118,-209.66C118,-200.93 118,-190.99 118,-184.09"/>
<polygon fill="#63b8ff" stroke="#63b8ff" points="114.5,-209.75 118,-219.75 121.5,-209.75 114.5,-209.75"/>
</a>
</g>
</g>
</g>
</svg>
