<?xml version="1.0" encoding="UTF-8" standalone="no"?>
<!DOCTYPE svg PUBLIC "-//W3C//DTD SVG 1.1//EN"
 "http://www.w3.org/Graphics/SVG/1.1/DTD/svg11.dtd">
<!-- Generated by graphviz version 2.43.0 (0)
 -->
<!-- Title: dg::aRealMPITopology&lt; real_type, Nd &gt; Pages: 1 -->
<svg width="717pt" height="158pt"
 viewBox="0.00 0.00 717.00 158.00" xmlns="http://www.w3.org/2000/svg" xmlns:xlink="http://www.w3.org/1999/xlink">
<g id="graph0" class="graph" transform="scale(1 1) rotate(0) translate(4 154)">
<title>dg::aRealMPITopology&lt; real_type, Nd &gt;</title>
<!-- Node1 -->
<g id="Node000001" class="node">
<title>Node1</title>
<g id="a_Node000001"><a xlink:title="An abstract base class for MPI distributed Nd&#45;dimensional dG grids.">
<polygon fill="#999999" stroke="#666666" points="124,-102 0,-102 0,-72 124,-72 124,-102"/>
<text text-anchor="start" x="8" y="-90" font-family="Helvetica,sans-Serif" font-size="10.00">dg::aRealMPITopology</text>
<text text-anchor="middle" x="62" y="-79" font-family="Helvetica,sans-Serif" font-size="10.00">&lt; real_type, Nd &gt;</text>
</a>
</g>
</g>
<!-- Node2 -->
<g id="Node000002" class="node">
<title>Node2</title>
<g id="a_Node000002"><a xlink:href="structdg_1_1_real_m_p_i_grid.html" target="_top" xlink:title="The simplest implementation of aRealMPITopology3d.">
<polygon fill="white" stroke="#666666" points="293,-150 168,-150 168,-120 293,-120 293,-150"/>
<text text-anchor="start" x="176" y="-138" font-family="Helvetica,sans-Serif" font-size="10.00">dg::RealMPIGrid&lt; real</text>
<text text-anchor="middle" x="230.5" y="-127" font-family="Helvetica,sans-Serif" font-size="10.00">_type, Nd &gt;</text>
</a>
</g>
</g>
<!-- Node1&#45;&gt;Node2 -->
<g id="edge1_Node000001_Node000002" class="edge">
<title>Node1&#45;&gt;Node2</title>
<g id="a_edge1_Node000001_Node000002"><a xlink:title=" ">
<path fill="none" stroke="#63b8ff" d="M125.19,-104.93C142.4,-109.89 160.89,-115.22 177.46,-120"/>
<polygon fill="#63b8ff" stroke="#63b8ff" points="125.8,-101.46 115.22,-102.06 123.86,-108.19 125.8,-101.46"/>
</a>
</g>
</g>
<!-- Node3 -->
<g id="Node000003" class="node">
<title>Node3</title>
<g id="a_Node000003"><a xlink:href="structdg_1_1a_real_m_p_i_geometry2d.html" target="_top" xlink:title="This is the abstract interface class for a two&#45;dimensional Geometry.">
<polygon fill="white" stroke="#666666" points="301,-102 160,-102 160,-72 301,-72 301,-102"/>
<text text-anchor="start" x="168" y="-90" font-family="Helvetica,sans-Serif" font-size="10.00">dg::aRealMPIGeometry2d</text>
<text text-anchor="middle" x="230.5" y="-79" font-family="Helvetica,sans-Serif" font-size="10.00">&lt; real_type &gt;</text>
</a>
</g>
</g>
<!-- Node1&#45;&gt;Node3 -->
<g id="edge2_Node000001_Node000003" class="edge">
<title>Node1&#45;&gt;Node3</title>
<g id="a_edge2_Node000001_Node000003"><a xlink:title=" ">
<path fill="none" stroke="#63b8ff" d="M134.25,-87C142.69,-87 151.3,-87 159.72,-87"/>
<polygon fill="#63b8ff" stroke="#63b8ff" points="134.05,-83.5 124.05,-87 134.05,-90.5 134.05,-83.5"/>
</a>
</g>
</g>
<!-- Node5 -->
<g id="Node000005" class="node">
<title>Node5</title>
<g id="a_Node000005"><a xlink:href="structdg_1_1a_real_m_p_i_geometry3d.html" target="_top" xlink:title="This is the abstract interface class for a three&#45;dimensional MPIGeometry.">
<polygon fill="white" stroke="#666666" points="301,-54 160,-54 160,-24 301,-24 301,-54"/>
<text text-anchor="start" x="168" y="-42" font-family="Helvetica,sans-Serif" font-size="10.00">dg::aRealMPIGeometry3d</text>
<text text-anchor="middle" x="230.5" y="-31" font-family="Helvetica,sans-Serif" font-size="10.00">&lt; real_type &gt;</text>
</a>
</g>
</g>
<!-- Node1&#45;&gt;Node5 -->
<g id="edge4_Node000001_Node000005" class="edge">
<title>Node1&#45;&gt;Node5</title>
<g id="a_edge4_Node000001_Node000005"><a xlink:title=" ">
<path fill="none" stroke="#63b8ff" d="M125.19,-69.07C142.4,-64.11 160.89,-58.78 177.46,-54"/>
<polygon fill="#63b8ff" stroke="#63b8ff" points="123.86,-65.81 115.22,-71.94 125.8,-72.54 123.86,-65.81"/>
</a>
</g>
</g>
<!-- Node4 -->
<g id="Node000004" class="node">
<title>Node4</title>
<g id="a_Node000004"><a xlink:href="structdg_1_1_real_cartesian_m_p_i_grid2d.html" target="_top" xlink:title="The mpi version of RealCartesianGrid2d.">
<polygon fill="white" stroke="#666666" points="502.5,-102 349.5,-102 349.5,-72 502.5,-72 502.5,-102"/>
<text text-anchor="start" x="357.5" y="-90" font-family="Helvetica,sans-Serif" font-size="10.00">dg::RealCartesianMPIGrid2d</text>
<text text-anchor="middle" x="426" y="-79" font-family="Helvetica,sans-Serif" font-size="10.00">&lt; real_type &gt;</text>
</a>
</g>
</g>
<!-- Node3&#45;&gt;Node4 -->
<g id="edge3_Node000003_Node000004" class="edge">
<title>Node3&#45;&gt;Node4</title>
<g id="a_edge3_Node000003_Node000004"><a xlink:title=" ">
<path fill="none" stroke="#63b8ff" d="M311.15,-87C323.83,-87 336.91,-87 349.49,-87"/>
<polygon fill="#63b8ff" stroke="#63b8ff" points="311.08,-83.5 301.08,-87 311.08,-90.5 311.08,-83.5"/>
</a>
</g>
</g>
<!-- Node6 -->
<g id="Node000006" class="node">
<title>Node6</title>
<g id="a_Node000006"><a xlink:href="structdg_1_1a_real_product_m_p_i_geometry3d.html" target="_top" xlink:title="A 3d product space Geometry .">
<polygon fill="white" stroke="#666666" points="515,-54 337,-54 337,-24 515,-24 515,-54"/>
<text text-anchor="start" x="345" y="-42" font-family="Helvetica,sans-Serif" font-size="10.00">dg::aRealProductMPIGeometry3d</text>
<text text-anchor="middle" x="426" y="-31" font-family="Helvetica,sans-Serif" font-size="10.00">&lt; real_type &gt;</text>
</a>
</g>
</g>
<!-- Node5&#45;&gt;Node6 -->
<g id="edge5_Node000005_Node000006" class="edge">
<title>Node5&#45;&gt;Node6</title>
<g id="a_edge5_Node000005_Node000006"><a xlink:title=" ">
<path fill="none" stroke="#63b8ff" d="M311.26,-39C319.69,-39 328.3,-39 336.82,-39"/>
<polygon fill="#63b8ff" stroke="#63b8ff" points="311.08,-35.5 301.08,-39 311.08,-42.5 311.08,-35.5"/>
</a>
</g>
</g>
<!-- Node7 -->
<g id="Node000007" class="node">
<title>Node7</title>
<g id="a_Node000007"><a xlink:href="structdg_1_1_real_cartesian_m_p_i_grid3d.html" target="_top" xlink:title="The mpi version of RealCartesianGrid3d.">
<polygon fill="white" stroke="#666666" points="706.5,-78 553.5,-78 553.5,-48 706.5,-48 706.5,-78"/>
<text text-anchor="start" x="561.5" y="-66" font-family="Helvetica,sans-Serif" font-size="10.00">dg::RealCartesianMPIGrid3d</text>
<text text-anchor="middle" x="630" y="-55" font-family="Helvetica,sans-Serif" font-size="10.00">&lt; real_type &gt;</text>
</a>
</g>
</g>
<!-- Node6&#45;&gt;Node7 -->
<g id="edge6_Node000006_Node000007" class="edge">
<title>Node6&#45;&gt;Node7</title>
<g id="a_edge6_Node000006_Node000007"><a xlink:title=" ">
<path fill="none" stroke="#63b8ff" d="M525.22,-50.67C534.66,-51.79 544.13,-52.92 553.3,-54.01"/>
<polygon fill="#63b8ff" stroke="#63b8ff" points="525.36,-47.16 515.01,-49.46 524.53,-54.11 525.36,-47.16"/>
</a>
</g>
</g>
<!-- Node8 -->
<g id="Node000008" class="node">
<title>Node8</title>
<g id="a_Node000008"><a xlink:href="structdg_1_1_real_cylindrical_m_p_i_grid3d.html" target="_top" xlink:title="the mpi version of RealCylindricalGrid3d">
<polygon fill="white" stroke="#666666" points="709,-30 551,-30 551,0 709,0 709,-30"/>
<text text-anchor="start" x="559" y="-18" font-family="Helvetica,sans-Serif" font-size="10.00">dg::RealCylindricalMPIGrid3d</text>
<text text-anchor="middle" x="630" y="-7" font-family="Helvetica,sans-Serif" font-size="10.00">&lt; real_type &gt;</text>
</a>
</g>
</g>
<!-- Node6&#45;&gt;Node8 -->
<g id="edge7_Node000006_Node000008" class="edge">
<title>Node6&#45;&gt;Node8</title>
<g id="a_edge7_Node000006_Node000008"><a xlink:title=" ">
<path fill="none" stroke="#63b8ff" d="M525.1,-27.34C533.72,-26.32 542.37,-25.29 550.79,-24.29"/>
<polygon fill="#63b8ff" stroke="#63b8ff" points="524.53,-23.89 515.01,-28.54 525.36,-30.84 524.53,-23.89"/>
</a>
</g>
</g>
</g>
</svg>
