<?xml version="1.0" encoding="UTF-8" standalone="no"?>
<!DOCTYPE svg PUBLIC "-//W3C//DTD SVG 1.1//EN"
 "http://www.w3.org/Graphics/SVG/1.1/DTD/svg11.dtd">
<!-- Generated by graphviz version 2.43.0 (0)
 -->
<!-- Title: dg::AnyPolicyTag Pages: 1 -->
<svg width="274pt" height="82pt"
 viewBox="0.00 0.00 273.50 82.00" xmlns="http://www.w3.org/2000/svg" xmlns:xlink="http://www.w3.org/1999/xlink">
<g id="graph0" class="graph" transform="scale(1 1) rotate(0) translate(4 78)">
<title>dg::AnyPolicyTag</title>
<!-- Node1 -->
<g id="Node000001" class="node">
<title>Node1</title>
<g id="a_Node000001"><a xlink:title="Execution Policy base class.">
<polygon fill="#999999" stroke="#666666" points="180.5,-74 81.5,-74 81.5,-55 180.5,-55 180.5,-74"/>
<text text-anchor="middle" x="131" y="-62" font-family="Helvetica,sans-Serif" font-size="10.00">dg::AnyPolicyTag</text>
</a>
</g>
</g>
<!-- Node2 -->
<g id="Node000002" class="node">
<title>Node2</title>
<g id="a_Node000002"><a xlink:href="structdg_1_1_cuda_tag.html" target="_top" xlink:title="CUDA implementation.">
<polygon fill="white" stroke="#666666" points="76,-19 0,-19 0,0 76,0 76,-19"/>
<text text-anchor="middle" x="38" y="-7" font-family="Helvetica,sans-Serif" font-size="10.00">dg::CudaTag</text>
</a>
</g>
</g>
<!-- Node1&#45;&gt;Node2 -->
<g id="edge1_Node000001_Node000002" class="edge">
<title>Node1&#45;&gt;Node2</title>
<g id="a_edge1_Node000001_Node000002"><a xlink:title=" ">
<path fill="none" stroke="#63b8ff" d="M107.25,-49.97C90.25,-40.28 67.87,-27.52 53.21,-19.17"/>
<polygon fill="#63b8ff" stroke="#63b8ff" points="105.64,-53.07 116.06,-54.98 109.1,-46.99 105.64,-53.07"/>
</a>
</g>
</g>
<!-- Node3 -->
<g id="Node000003" class="node">
<title>Node3</title>
<g id="a_Node000003"><a xlink:href="structdg_1_1_omp_tag.html" target="_top" xlink:title="OpenMP parallel execution.">
<polygon fill="white" stroke="#666666" points="168,-19 94,-19 94,0 168,0 168,-19"/>
<text text-anchor="middle" x="131" y="-7" font-family="Helvetica,sans-Serif" font-size="10.00">dg::OmpTag</text>
</a>
</g>
</g>
<!-- Node1&#45;&gt;Node3 -->
<g id="edge2_Node000001_Node000003" class="edge">
<title>Node1&#45;&gt;Node3</title>
<g id="a_edge2_Node000001_Node000003"><a xlink:title=" ">
<path fill="none" stroke="#63b8ff" d="M131,-44.66C131,-35.93 131,-25.99 131,-19.09"/>
<polygon fill="#63b8ff" stroke="#63b8ff" points="127.5,-44.75 131,-54.75 134.5,-44.75 127.5,-44.75"/>
</a>
</g>
</g>
<!-- Node4 -->
<g id="Node000004" class="node">
<title>Node4</title>
<g id="a_Node000004"><a xlink:href="structdg_1_1_serial_tag.html" target="_top" xlink:title="Indicate sequential execution.">
<polygon fill="white" stroke="#666666" points="265.5,-19 186.5,-19 186.5,0 265.5,0 265.5,-19"/>
<text text-anchor="middle" x="226" y="-7" font-family="Helvetica,sans-Serif" font-size="10.00">dg::SerialTag</text>
</a>
</g>
</g>
<!-- Node1&#45;&gt;Node4 -->
<g id="edge3_Node000001_Node000004" class="edge">
<title>Node1&#45;&gt;Node4</title>
<g id="a_edge3_Node000001_Node000004"><a xlink:title=" ">
<path fill="none" stroke="#63b8ff" d="M155.26,-49.97C172.63,-40.28 195.49,-27.52 210.46,-19.17"/>
<polygon fill="#63b8ff" stroke="#63b8ff" points="153.29,-47.06 146.26,-54.98 156.7,-53.17 153.29,-47.06"/>
</a>
</g>
</g>
</g>
</svg>
