<?xml version="1.0" encoding="UTF-8" standalone="no"?>
<!DOCTYPE svg PUBLIC "-//W3C//DTD SVG 1.1//EN"
 "http://www.w3.org/Graphics/SVG/1.1/DTD/svg11.dtd">
<!-- Generated by graphviz version 2.43.0 (0)
 -->
<!-- Title: 3. New functors surrounding the magnetic field geometry Pages: 1 -->
<svg width="359pt" height="194pt"
 viewBox="0.00 0.00 359.00 194.00" xmlns="http://www.w3.org/2000/svg" xmlns:xlink="http://www.w3.org/1999/xlink">
<g id="graph0" class="graph" transform="scale(1 1) rotate(0) translate(4 190)">
<title>3. New functors surrounding the magnetic field geometry</title>
<!-- Node5 -->
<g id="Node000005" class="node">
<title>Node5</title>
<g id="a_Node000005"><a xlink:href="group__fluxfunctions.html" target="_top" xlink:title=" ">
<polygon fill="white" stroke="#666666" points="328,-186 218,-186 218,-156 328,-156 328,-186"/>
<text text-anchor="start" x="226" y="-174" font-family="Helvetica,sans-Serif" font-size="10.00">3.4. Utility functors</text>
<text text-anchor="middle" x="273" y="-163" font-family="Helvetica,sans-Serif" font-size="10.00"> and classes</text>
</a>
</g>
</g>
<!-- Node2 -->
<g id="Node000002" class="node">
<title>Node2</title>
<g id="a_Node000002"><a xlink:href="group__geom.html" target="_top" xlink:title="dg::geo::createMagneticField">
<polygon fill="white" stroke="#666666" points="326.5,-138 219.5,-138 219.5,-108 326.5,-108 326.5,-138"/>
<text text-anchor="start" x="227.5" y="-126" font-family="Helvetica,sans-Serif" font-size="10.00">3.1 Creating a flux</text>
<text text-anchor="middle" x="273" y="-115" font-family="Helvetica,sans-Serif" font-size="10.00"> function</text>
</a>
</g>
</g>
<!-- Node1 -->
<g id="Node000001" class="node">
<title>Node1</title>
<g id="a_Node000001"><a xlink:title=" ">
<polygon fill="#999999" stroke="#666666" points="159,-111 0,-111 0,-81 159,-81 159,-111"/>
<text text-anchor="start" x="8" y="-99" font-family="Helvetica,sans-Serif" font-size="10.00">3. New functors surrounding</text>
<text text-anchor="middle" x="79.5" y="-88" font-family="Helvetica,sans-Serif" font-size="10.00"> the magnetic field geometry</text>
</a>
</g>
</g>
<!-- Node1&#45;&gt;Node5 -->
<g id="edge4" class="edge">
<title>Node1&#45;&gt;Node5</title>
<path fill="none" stroke="black" d="M120.92,-115.39C142.62,-125.45 169.99,-137.57 195,-147 203.25,-150.11 212.11,-153.15 220.77,-155.95"/>
<polygon fill="black" stroke="black" points="122.22,-112.14 111.68,-111.07 119.26,-118.48 122.22,-112.14"/>
</g>
<!-- Node1&#45;&gt;Node2 -->
<g id="edge1" class="edge">
<title>Node1&#45;&gt;Node2</title>
<path fill="none" stroke="black" d="M169.24,-108.51C186.34,-110.92 203.75,-113.38 219.25,-115.56"/>
<polygon fill="black" stroke="black" points="169.61,-105.03 159.22,-107.1 168.63,-111.96 169.61,-105.03"/>
</g>
<!-- Node3 -->
<g id="Node000003" class="node">
<title>Node3</title>
<g id="a_Node000003"><a xlink:href="group__magnetic.html" target="_top" xlink:title=" ">
<polygon fill="white" stroke="#666666" points="347,-89.5 199,-89.5 199,-48.5 347,-48.5 347,-89.5"/>
<text text-anchor="start" x="207" y="-77.5" font-family="Helvetica,sans-Serif" font-size="10.00">3.2 Magnetic field,</text>
<text text-anchor="start" x="207" y="-66.5" font-family="Helvetica,sans-Serif" font-size="10.00"> curvatures and associated</text>
<text text-anchor="middle" x="273" y="-55.5" font-family="Helvetica,sans-Serif" font-size="10.00"> functors</text>
</a>
</g>
</g>
<!-- Node1&#45;&gt;Node3 -->
<g id="edge2" class="edge">
<title>Node1&#45;&gt;Node3</title>
<path fill="none" stroke="black" d="M169.42,-83.46C179.26,-82.08 189.2,-80.67 198.82,-79.32"/>
<polygon fill="black" stroke="black" points="168.63,-80.04 159.22,-84.9 169.61,-86.97 168.63,-80.04"/>
</g>
<!-- Node4 -->
<g id="Node000004" class="node">
<title>Node4</title>
<g id="a_Node000004"><a xlink:href="group__profiles.html" target="_top" xlink:title=" ">
<polygon fill="white" stroke="#666666" points="351,-30 195,-30 195,0 351,0 351,-30"/>
<text text-anchor="start" x="203" y="-18" font-family="Helvetica,sans-Serif" font-size="10.00">3.3 Penalization, weight</text>
<text text-anchor="middle" x="273" y="-7" font-family="Helvetica,sans-Serif" font-size="10.00"> and monitor metric functors</text>
</a>
</g>
</g>
<!-- Node1&#45;&gt;Node4 -->
<g id="edge3" class="edge">
<title>Node1&#45;&gt;Node4</title>
<path fill="none" stroke="black" d="M117.73,-76.13C139.84,-64.76 168.61,-50.67 195,-40 203.6,-36.52 212.88,-33.17 221.93,-30.12"/>
<polygon fill="black" stroke="black" points="115.96,-73.11 108.7,-80.82 119.18,-79.32 115.96,-73.11"/>
</g>
</g>
</svg>
