<?xml version="1.0" encoding="UTF-8" standalone="no"?>
<!DOCTYPE svg PUBLIC "-//W3C//DTD SVG 1.1//EN"
 "http://www.w3.org/Graphics/SVG/1.1/DTD/svg11.dtd">
<!-- Generated by graphviz version 2.43.0 (0)
 -->
<!-- Title: 3.1 Creating a flux function Pages: 1 -->
<svg width="494pt" height="310pt"
 viewBox="0.00 0.00 494.00 310.00" xmlns="http://www.w3.org/2000/svg" xmlns:xlink="http://www.w3.org/1999/xlink">
<g id="graph0" class="graph" transform="scale(1 1) rotate(0) translate(4 306)">
<title>3.1 Creating a flux function</title>
<!-- Node8 -->
<g id="Node000008" class="node">
<title>Node8</title>
<g id="a_Node000008"><a xlink:href="group__circular.html" target="_top" xlink:title=" ">
<polygon fill="white" stroke="#666666" points="476,-302 348,-302 348,-283 476,-283 476,-302"/>
<text text-anchor="middle" x="412" y="-290" font-family="Helvetica,sans-Serif" font-size="10.00">The Circular expansion</text>
</a>
</g>
</g>
<!-- Node1 -->
<g id="Node000001" class="node">
<title>Node1</title>
<g id="a_Node000001"><a xlink:title="dg::geo::createMagneticField">
<polygon fill="#999999" stroke="#666666" points="302,-165.5 195,-165.5 195,-135.5 302,-135.5 302,-165.5"/>
<text text-anchor="start" x="203" y="-153.5" font-family="Helvetica,sans-Serif" font-size="10.00">3.1 Creating a flux</text>
<text text-anchor="middle" x="248.5" y="-142.5" font-family="Helvetica,sans-Serif" font-size="10.00"> function</text>
</a>
</g>
</g>
<!-- Node1&#45;&gt;Node8 -->
<g id="edge7" class="edge">
<title>Node1&#45;&gt;Node8</title>
<path fill="none" stroke="black" d="M260.39,-175C274.27,-203.36 301,-249.39 338,-274.5 343.08,-277.95 348.75,-280.73 354.63,-282.99"/>
<polygon fill="black" stroke="black" points="263.46,-173.31 256.01,-165.77 257.13,-176.3 263.46,-173.31"/>
</g>
<!-- Node6 -->
<g id="Node000006" class="node">
<title>Node6</title>
<g id="a_Node000006"><a xlink:href="group__guenter.html" target="_top" xlink:title=" ">
<polygon fill="white" stroke="#666666" points="477,-265 347,-265 347,-246 477,-246 477,-265"/>
<text text-anchor="middle" x="412" y="-253" font-family="Helvetica,sans-Serif" font-size="10.00">The Guenter expansion</text>
</a>
</g>
</g>
<!-- Node1&#45;&gt;Node6 -->
<g id="edge5" class="edge">
<title>Node1&#45;&gt;Node6</title>
<path fill="none" stroke="black" d="M267.32,-173.54C283.66,-193.11 309.58,-220.5 338,-236.5 344.85,-240.36 352.49,-243.45 360.19,-245.92"/>
<polygon fill="black" stroke="black" points="269.95,-171.23 260.93,-165.69 264.53,-175.65 269.95,-171.23"/>
</g>
<!-- Node9 -->
<g id="Node000009" class="node">
<title>Node9</title>
<g id="a_Node000009"><a xlink:href="group__mod.html" target="_top" xlink:title=", dg::geo::createModifiedField">
<polygon fill="white" stroke="#666666" points="467.5,-227.5 356.5,-227.5 356.5,-197.5 467.5,-197.5 467.5,-227.5"/>
<text text-anchor="start" x="364.5" y="-215.5" font-family="Helvetica,sans-Serif" font-size="10.00">Modification of any</text>
<text text-anchor="middle" x="412" y="-204.5" font-family="Helvetica,sans-Serif" font-size="10.00"> expansion</text>
</a>
</g>
</g>
<!-- Node1&#45;&gt;Node9 -->
<g id="edge8" class="edge">
<title>Node1&#45;&gt;Node9</title>
<path fill="none" stroke="black" d="M292.05,-169.67C306.52,-175.95 322.86,-182.77 338,-188.5 346.11,-191.57 354.81,-194.62 363.27,-197.48"/>
<polygon fill="black" stroke="black" points="293.4,-166.44 282.84,-165.64 290.59,-172.85 293.4,-166.44"/>
</g>
<!-- Node4 -->
<g id="Node000004" class="node">
<title>Node4</title>
<g id="a_Node000004"><a xlink:href="group__polynomial.html" target="_top" xlink:title=" ">
<polygon fill="white" stroke="#666666" points="485,-179 339,-179 339,-160 485,-160 485,-179"/>
<text text-anchor="middle" x="412" y="-167" font-family="Helvetica,sans-Serif" font-size="10.00">The polynomial expansion</text>
</a>
</g>
</g>
<!-- Node1&#45;&gt;Node4 -->
<g id="edge3" class="edge">
<title>Node1&#45;&gt;Node4</title>
<path fill="none" stroke="black" d="M312.42,-157.9C321.11,-158.93 330.09,-159.98 338.93,-161.02"/>
<polygon fill="black" stroke="black" points="312.72,-154.41 302.38,-156.72 311.9,-161.37 312.72,-154.41"/>
</g>
<!-- Node3 -->
<g id="Node000003" class="node">
<title>Node3</title>
<g id="a_Node000003"><a xlink:href="group__solovev.html" target="_top" xlink:title=" ">
<polygon fill="white" stroke="#666666" points="476.5,-142 347.5,-142 347.5,-123 476.5,-123 476.5,-142"/>
<text text-anchor="middle" x="412" y="-130" font-family="Helvetica,sans-Serif" font-size="10.00">The solovev expansion</text>
</a>
</g>
</g>
<!-- Node1&#45;&gt;Node3 -->
<g id="edge2" class="edge">
<title>Node1&#45;&gt;Node3</title>
<path fill="none" stroke="black" d="M312.66,-143.46C324.04,-142.19 335.91,-140.87 347.3,-139.6"/>
<polygon fill="black" stroke="black" points="311.93,-140.02 302.38,-144.61 312.71,-146.98 311.93,-140.02"/>
</g>
<!-- Node5 -->
<g id="Node000005" class="node">
<title>Node5</title>
<g id="a_Node000005"><a xlink:href="group__taylor.html" target="_top" xlink:title=" ">
<polygon fill="white" stroke="#666666" points="486,-105 338,-105 338,-86 486,-86 486,-105"/>
<text text-anchor="middle" x="412" y="-93" font-family="Helvetica,sans-Serif" font-size="10.00">The Taylor state expansion</text>
</a>
</g>
</g>
<!-- Node1&#45;&gt;Node5 -->
<g id="edge4" class="edge">
<title>Node1&#45;&gt;Node5</title>
<path fill="none" stroke="black" d="M291.48,-131.39C306.03,-125.19 322.56,-118.6 338,-113.5 347.42,-110.39 357.68,-107.54 367.45,-105.07"/>
<polygon fill="black" stroke="black" points="290.03,-128.21 282.24,-135.39 292.81,-134.63 290.03,-128.21"/>
</g>
<!-- Node7 -->
<g id="Node000007" class="node">
<title>Node7</title>
<g id="a_Node000007"><a xlink:href="group__toroidal.html" target="_top" xlink:title=" ">
<polygon fill="white" stroke="#666666" points="467,-67.5 357,-67.5 357,-37.5 467,-37.5 467,-67.5"/>
<text text-anchor="start" x="365" y="-55.5" font-family="Helvetica,sans-Serif" font-size="10.00">The Purely Toroidal</text>
<text text-anchor="middle" x="412" y="-44.5" font-family="Helvetica,sans-Serif" font-size="10.00"> expansion</text>
</a>
</g>
</g>
<!-- Node1&#45;&gt;Node7 -->
<g id="edge6" class="edge">
<title>Node1&#45;&gt;Node7</title>
<path fill="none" stroke="black" d="M271.04,-128.43C287.95,-112.15 312.8,-90.5 338,-76.5 344.06,-73.13 350.68,-70.14 357.37,-67.51"/>
<polygon fill="black" stroke="black" points="268.53,-125.98 263.85,-135.48 273.44,-130.97 268.53,-125.98"/>
</g>
<!-- Node10 -->
<g id="Node000010" class="node">
<title>Node10</title>
<g id="a_Node000010"><a xlink:href="group__wall.html" target="_top" xlink:title=" ">
<polygon fill="white" stroke="#666666" points="460,-19 364,-19 364,0 460,0 460,-19"/>
<text text-anchor="middle" x="412" y="-7" font-family="Helvetica,sans-Serif" font-size="10.00">Wall and Sheath</text>
</a>
</g>
</g>
<!-- Node1&#45;&gt;Node10 -->
<g id="edge9" class="edge">
<title>Node1&#45;&gt;Node10</title>
<path fill="none" stroke="black" d="M260.77,-126.03C274.87,-98.17 301.65,-53.31 338,-28.5 345.68,-23.26 354.71,-19.46 363.76,-16.71"/>
<polygon fill="black" stroke="black" points="257.57,-124.6 256.32,-135.12 263.86,-127.68 257.57,-124.6"/>
</g>
<!-- Node2 -->
<g id="Node000002" class="node">
<title>Node2</title>
<g id="a_Node000002"><a xlink:href="group__geom__functors.html" target="_top" xlink:title=" ">
<polygon fill="white" stroke="#666666" points="159,-165.5 0,-165.5 0,-135.5 159,-135.5 159,-165.5"/>
<text text-anchor="start" x="8" y="-153.5" font-family="Helvetica,sans-Serif" font-size="10.00">3. New functors surrounding</text>
<text text-anchor="middle" x="79.5" y="-142.5" font-family="Helvetica,sans-Serif" font-size="10.00"> the magnetic field geometry</text>
</a>
</g>
</g>
<!-- Node2&#45;&gt;Node1 -->
<g id="edge1" class="edge">
<title>Node2&#45;&gt;Node1</title>
<path fill="none" stroke="black" d="M169.26,-150.5C177.89,-150.5 186.45,-150.5 194.56,-150.5"/>
<polygon fill="black" stroke="black" points="169.11,-147 159.11,-150.5 169.11,-154 169.11,-147"/>
</g>
</g>
</svg>
