<?xml version="1.0" encoding="UTF-8" standalone="no"?>
<!DOCTYPE svg PUBLIC "-//W3C//DTD SVG 1.1//EN"
 "http://www.w3.org/Graphics/SVG/1.1/DTD/svg11.dtd">
<!-- Generated by graphviz version 2.43.0 (0)
 -->
<!-- Title: Graphical Class Hierarchy Pages: 1 -->
<svg width="496pt" height="98pt"
 viewBox="0.00 0.00 496.00 97.50" xmlns="http://www.w3.org/2000/svg" xmlns:xlink="http://www.w3.org/1999/xlink">
<g id="graph0" class="graph" transform="scale(1 1) rotate(0) translate(4 93.5)">
<title>Graphical Class Hierarchy</title>
<!-- Node0 -->
<g id="Node000000" class="node">
<title>Node0</title>
<g id="a_Node000000"><a target="_parent" xlink:href="../../dg/html/structdg_1_1a_real_topology_x3d.html" xlink:title=" ">
<polygon fill="white" stroke="#666666" points="125,-62.5 0,-62.5 0,-32.5 125,-32.5 125,-62.5"/>
<text text-anchor="start" x="8" y="-50.5" font-family="Helvetica,sans-Serif" font-size="10.00">dg::aRealTopologyX3d</text>
<text text-anchor="middle" x="62.5" y="-39.5" font-family="Helvetica,sans-Serif" font-size="10.00">&lt; real_type &gt;</text>
</a>
</g>
</g>
<!-- Node1 -->
<g id="Node000001" class="node">
<title>Node1</title>
<g id="a_Node000001"><a target="_parent" xlink:href="../../dg/html/structdg_1_1a_real_geometry_x3d.html" xlink:title=" ">
<polygon fill="white" stroke="#666666" points="291,-62.5 161,-62.5 161,-32.5 291,-32.5 291,-62.5"/>
<text text-anchor="start" x="169" y="-50.5" font-family="Helvetica,sans-Serif" font-size="10.00">dg::aRealGeometryX3d</text>
<text text-anchor="middle" x="226" y="-39.5" font-family="Helvetica,sans-Serif" font-size="10.00">&lt; real_type &gt;</text>
</a>
</g>
</g>
<!-- Node0&#45;&gt;Node1 -->
<g id="edge16_Node000000_Node000001" class="edge">
<title>Node0&#45;&gt;Node1</title>
<g id="a_edge16_Node000000_Node000001"><a xlink:title=" ">
<path fill="none" stroke="#63b8ff" d="M135.06,-47.5C143.69,-47.5 152.46,-47.5 160.97,-47.5"/>
<polygon fill="#63b8ff" stroke="#63b8ff" points="135.02,-44 125.02,-47.5 135.02,-51 135.02,-44"/>
</a>
</g>
</g>
<!-- Node2 -->
<g id="Node000002" class="node">
<title>Node2</title>
<g id="a_Node000002"><a xlink:href="structdg_1_1geo_1_1_real_curvilinear_product_grid_x3d.html" target="_top" xlink:title="A three&#45;dimensional grid based on curvilinear coordinates.">
<polygon fill="white" stroke="#666666" points="488,-89.5 327,-89.5 327,-59.5 488,-59.5 488,-89.5"/>
<text text-anchor="start" x="335" y="-77.5" font-family="Helvetica,sans-Serif" font-size="10.00">dg::geo::RealCurvilinear</text>
<text text-anchor="middle" x="407.5" y="-66.5" font-family="Helvetica,sans-Serif" font-size="10.00">ProductGridX3d&lt; real_type &gt;</text>
</a>
</g>
</g>
<!-- Node1&#45;&gt;Node2 -->
<g id="edge17_Node000001_Node000002" class="edge">
<title>Node1&#45;&gt;Node2</title>
<g id="a_edge17_Node000001_Node000002"><a xlink:title=" ">
<path fill="none" stroke="#63b8ff" d="M300.94,-58.62C309.47,-59.9 318.19,-61.22 326.79,-62.51"/>
<polygon fill="#63b8ff" stroke="#63b8ff" points="301.45,-55.16 291.04,-57.13 300.41,-62.08 301.45,-55.16"/>
</a>
</g>
</g>
<!-- Node3 -->
<g id="Node000003" class="node">
<title>Node3</title>
<g id="a_Node000003"><a xlink:href="structdg_1_1geo_1_1_real_curvilinear_refined_product_grid_x3d.html" target="_top" xlink:title="A three&#45;dimensional grid based on curvilinear coordinates.">
<polygon fill="white" stroke="#666666" points="474.5,-41 340.5,-41 340.5,0 474.5,0 474.5,-41"/>
<text text-anchor="start" x="348.5" y="-29" font-family="Helvetica,sans-Serif" font-size="10.00">dg::geo::RealCurvilinear</text>
<text text-anchor="start" x="348.5" y="-18" font-family="Helvetica,sans-Serif" font-size="10.00">RefinedProductGridX3d</text>
<text text-anchor="middle" x="407.5" y="-7" font-family="Helvetica,sans-Serif" font-size="10.00">&lt; real_type &gt;</text>
</a>
</g>
</g>
<!-- Node1&#45;&gt;Node3 -->
<g id="edge18_Node000001_Node000003" class="edge">
<title>Node1&#45;&gt;Node3</title>
<g id="a_edge18_Node000001_Node000003"><a xlink:title=" ">
<path fill="none" stroke="#63b8ff" d="M301.31,-36.32C314.26,-34.37 327.65,-32.36 340.36,-30.45"/>
<polygon fill="#63b8ff" stroke="#63b8ff" points="300.41,-32.92 291.04,-37.87 301.45,-39.84 300.41,-32.92"/>
</a>
</g>
</g>
</g>
</svg>
