<?xml version="1.0" encoding="UTF-8" standalone="no"?>
<!DOCTYPE svg PUBLIC "-//W3C//DTD SVG 1.1//EN"
 "http://www.w3.org/Graphics/SVG/1.1/DTD/svg11.dtd">
<!-- Generated by graphviz version 2.43.0 (0)
 -->
<!-- Title: Graphical Class Hierarchy Pages: 1 -->
<svg width="333pt" height="187pt"
 viewBox="0.00 0.00 333.00 187.00" xmlns="http://www.w3.org/2000/svg" xmlns:xlink="http://www.w3.org/1999/xlink">
<g id="graph0" class="graph" transform="scale(1 1) rotate(0) translate(4 183)">
<title>Graphical Class Hierarchy</title>
<!-- Node0 -->
<g id="Node000000" class="node">
<title>Node0</title>
<g id="a_Node000000"><a xlink:href="structdg_1_1geo_1_1a_cylindrical_functor.html" target="_top" xlink:title=" ">
<polygon fill="white" stroke="#666666" points="152,-104.5 0,-104.5 0,-74.5 152,-74.5 152,-104.5"/>
<text text-anchor="start" x="8" y="-92.5" font-family="Helvetica,sans-Serif" font-size="10.00">dg::geo::aCylindricalFunctor</text>
<text text-anchor="middle" x="76" y="-81.5" font-family="Helvetica,sans-Serif" font-size="10.00">&lt; PsipRR &gt;</text>
</a>
</g>
</g>
<!-- Node1 -->
<g id="Node000001" class="node">
<title>Node1</title>
<g id="a_Node000001"><a xlink:href="structdg_1_1geo_1_1guenter_1_1_psip_r_r.html" target="_top" xlink:title=" ">
<polygon fill="white" stroke="#666666" points="324.5,-179 188.5,-179 188.5,-160 324.5,-160 324.5,-179"/>
<text text-anchor="middle" x="256.5" y="-167" font-family="Helvetica,sans-Serif" font-size="10.00">dg::geo::guenter::PsipRR</text>
</a>
</g>
</g>
<!-- Node0&#45;&gt;Node1 -->
<g id="edge79_Node000000_Node000001" class="edge">
<title>Node0&#45;&gt;Node1</title>
<g id="a_edge79_Node000000_Node000001"><a xlink:title=" ">
<path fill="none" stroke="#63b8ff" d="M108.73,-110.02C130.37,-123.31 160.08,-140.18 188,-151.5 195.98,-154.73 204.73,-157.56 213.2,-159.95"/>
<polygon fill="#63b8ff" stroke="#63b8ff" points="110.31,-106.88 99.97,-104.57 106.61,-112.83 110.31,-106.88"/>
</a>
</g>
</g>
<!-- Node2 -->
<g id="Node000002" class="node">
<title>Node2</title>
<g id="a_Node000002"><a xlink:href="structdg_1_1geo_1_1mod_1_1_psip_r_r.html" target="_top" xlink:title=" ">
<polygon fill="white" stroke="#666666" points="316.5,-142 196.5,-142 196.5,-123 316.5,-123 316.5,-142"/>
<text text-anchor="middle" x="256.5" y="-130" font-family="Helvetica,sans-Serif" font-size="10.00">dg::geo::mod::PsipRR</text>
</a>
</g>
</g>
<!-- Node0&#45;&gt;Node2 -->
<g id="edge80_Node000000_Node000002" class="edge">
<title>Node0&#45;&gt;Node2</title>
<g id="a_edge80_Node000000_Node000002"><a xlink:title=" ">
<path fill="none" stroke="#63b8ff" d="M149.41,-106.94C172.15,-112.42 196.4,-118.26 215.97,-122.98"/>
<polygon fill="#63b8ff" stroke="#63b8ff" points="149.97,-103.48 139.43,-104.54 148.33,-110.28 149.97,-103.48"/>
</a>
</g>
</g>
<!-- Node3 -->
<g id="Node000003" class="node">
<title>Node3</title>
<g id="a_Node000003"><a xlink:href="structdg_1_1geo_1_1polynomial_1_1_psip_r_r.html" target="_top" xlink:title=" ">
<polygon fill="white" stroke="#666666" points="313,-104.5 200,-104.5 200,-74.5 313,-74.5 313,-104.5"/>
<text text-anchor="start" x="208" y="-92.5" font-family="Helvetica,sans-Serif" font-size="10.00">dg::geo::polynomial</text>
<text text-anchor="middle" x="256.5" y="-81.5" font-family="Helvetica,sans-Serif" font-size="10.00">::PsipRR</text>
</a>
</g>
</g>
<!-- Node0&#45;&gt;Node3 -->
<g id="edge81_Node000000_Node000003" class="edge">
<title>Node0&#45;&gt;Node3</title>
<g id="a_edge81_Node000000_Node000003"><a xlink:title=" ">
<path fill="none" stroke="#63b8ff" d="M162.37,-89.5C175.14,-89.5 188,-89.5 199.93,-89.5"/>
<polygon fill="#63b8ff" stroke="#63b8ff" points="162.18,-86 152.18,-89.5 162.18,-93 162.18,-86"/>
</a>
</g>
</g>
<!-- Node4 -->
<g id="Node000004" class="node">
<title>Node4</title>
<g id="a_Node000004"><a xlink:href="structdg_1_1geo_1_1solovev_1_1_psip_r_r.html" target="_top" xlink:title=" ">
<polygon fill="white" stroke="#666666" points="325,-56 188,-56 188,-37 325,-37 325,-56"/>
<text text-anchor="middle" x="256.5" y="-44" font-family="Helvetica,sans-Serif" font-size="10.00">dg::geo::solovev::PsipRR</text>
</a>
</g>
</g>
<!-- Node0&#45;&gt;Node4 -->
<g id="edge82_Node000000_Node000004" class="edge">
<title>Node0&#45;&gt;Node4</title>
<g id="a_edge82_Node000000_Node000004"><a xlink:title=" ">
<path fill="none" stroke="#63b8ff" d="M149.41,-72.06C172.15,-66.58 196.4,-60.74 215.97,-56.02"/>
<polygon fill="#63b8ff" stroke="#63b8ff" points="148.33,-68.72 139.43,-74.46 149.97,-75.52 148.33,-68.72"/>
</a>
</g>
</g>
<!-- Node5 -->
<g id="Node000005" class="node">
<title>Node5</title>
<g id="a_Node000005"><a xlink:href="structdg_1_1geo_1_1taylor_1_1_psip_r_r.html" target="_top" xlink:title=" ">
<polygon fill="white" stroke="#666666" points="320,-19 193,-19 193,0 320,0 320,-19"/>
<text text-anchor="middle" x="256.5" y="-7" font-family="Helvetica,sans-Serif" font-size="10.00">dg::geo::taylor::PsipRR</text>
</a>
</g>
</g>
<!-- Node0&#45;&gt;Node5 -->
<g id="edge83_Node000000_Node000005" class="edge">
<title>Node0&#45;&gt;Node5</title>
<g id="a_edge83_Node000000_Node000005"><a xlink:title=" ">
<path fill="none" stroke="#63b8ff" d="M109.66,-68.96C131.27,-56.03 160.58,-39.72 188,-28.5 196.79,-24.9 206.49,-21.73 215.73,-19.07"/>
<polygon fill="#63b8ff" stroke="#63b8ff" points="107.63,-66.1 100.9,-74.27 111.26,-72.08 107.63,-66.1"/>
</a>
</g>
</g>
</g>
</svg>
