<?xml version="1.0" encoding="UTF-8" standalone="no"?>
<!DOCTYPE svg PUBLIC "-//W3C//DTD SVG 1.1//EN"
 "http://www.w3.org/Graphics/SVG/1.1/DTD/svg11.dtd">
<!-- Generated by graphviz version 2.43.0 (0)
 -->
<!-- Title: Graphical Class Hierarchy Pages: 1 -->
<svg width="319pt" height="224pt"
 viewBox="0.00 0.00 319.00 224.00" xmlns="http://www.w3.org/2000/svg" xmlns:xlink="http://www.w3.org/1999/xlink">
<g id="graph0" class="graph" transform="scale(1 1) rotate(0) translate(4 220)">
<title>Graphical Class Hierarchy</title>
<!-- Node0 -->
<g id="Node000000" class="node">
<title>Node0</title>
<g id="a_Node000000"><a xlink:href="structdg_1_1geo_1_1a_cylindrical_functor.html" target="_top" xlink:title=" ">
<polygon fill="white" stroke="#666666" points="152,-125.5 0,-125.5 0,-95.5 152,-95.5 152,-125.5"/>
<text text-anchor="start" x="8" y="-113.5" font-family="Helvetica,sans-Serif" font-size="10.00">dg::geo::aCylindricalFunctor</text>
<text text-anchor="middle" x="76" y="-102.5" font-family="Helvetica,sans-Serif" font-size="10.00">&lt; Psip &gt;</text>
</a>
</g>
</g>
<!-- Node1 -->
<g id="Node000001" class="node">
<title>Node1</title>
<g id="a_Node000001"><a xlink:href="structdg_1_1geo_1_1circular_1_1_psip.html" target="_top" xlink:title=" ">
<polygon fill="white" stroke="#666666" points="310,-216 189,-216 189,-197 310,-197 310,-216"/>
<text text-anchor="middle" x="249.5" y="-204" font-family="Helvetica,sans-Serif" font-size="10.00">dg::geo::circular::Psip</text>
</a>
</g>
</g>
<!-- Node0&#45;&gt;Node1 -->
<g id="edge67_Node000000_Node000001" class="edge">
<title>Node0&#45;&gt;Node1</title>
<g id="a_edge67_Node000000_Node000001"><a xlink:title=" ">
<path fill="none" stroke="#63b8ff" d="M102.71,-132.21C124.29,-149.51 156.56,-173.28 188,-188.5 194.81,-191.79 202.34,-194.62 209.71,-196.99"/>
<polygon fill="#63b8ff" stroke="#63b8ff" points="104.67,-129.3 94.71,-125.7 100.25,-134.73 104.67,-129.3"/>
</a>
</g>
</g>
<!-- Node2 -->
<g id="Node000002" class="node">
<title>Node2</title>
<g id="a_Node000002"><a xlink:href="structdg_1_1geo_1_1guenter_1_1_psip.html" target="_top" xlink:title=" ">
<polygon fill="white" stroke="#666666" points="310.5,-179 188.5,-179 188.5,-160 310.5,-160 310.5,-179"/>
<text text-anchor="middle" x="249.5" y="-167" font-family="Helvetica,sans-Serif" font-size="10.00">dg::geo::guenter::Psip</text>
</a>
</g>
</g>
<!-- Node0&#45;&gt;Node2 -->
<g id="edge68_Node000000_Node000002" class="edge">
<title>Node0&#45;&gt;Node2</title>
<g id="a_edge68_Node000000_Node000002"><a xlink:title=" ">
<path fill="none" stroke="#63b8ff" d="M125.35,-129.13C144.72,-136.39 167.32,-144.61 188,-151.5 196.73,-154.41 206.25,-157.35 215.09,-159.98"/>
<polygon fill="#63b8ff" stroke="#63b8ff" points="126.42,-125.79 115.82,-125.54 123.95,-132.34 126.42,-125.79"/>
</a>
</g>
</g>
<!-- Node3 -->
<g id="Node000003" class="node">
<title>Node3</title>
<g id="a_Node000003"><a xlink:href="structdg_1_1geo_1_1mod_1_1_psip.html" target="_top" xlink:title=" ">
<polygon fill="white" stroke="#666666" points="303,-142 196,-142 196,-123 303,-123 303,-142"/>
<text text-anchor="middle" x="249.5" y="-130" font-family="Helvetica,sans-Serif" font-size="10.00">dg::geo::mod::Psip</text>
</a>
</g>
</g>
<!-- Node0&#45;&gt;Node3 -->
<g id="edge69_Node000000_Node000003" class="edge">
<title>Node0&#45;&gt;Node3</title>
<g id="a_edge69_Node000000_Node000003"><a xlink:title=" ">
<path fill="none" stroke="#63b8ff" d="M162.3,-121.44C173.79,-122.92 185.3,-124.39 195.98,-125.76"/>
<polygon fill="#63b8ff" stroke="#63b8ff" points="162.59,-117.95 152.22,-120.15 161.7,-124.89 162.59,-117.95"/>
</a>
</g>
</g>
<!-- Node4 -->
<g id="Node000004" class="node">
<title>Node4</title>
<g id="a_Node000004"><a xlink:href="structdg_1_1geo_1_1polynomial_1_1_psip.html" target="_top" xlink:title=" ">
<polygon fill="white" stroke="#666666" points="306,-104.5 193,-104.5 193,-74.5 306,-74.5 306,-104.5"/>
<text text-anchor="start" x="201" y="-92.5" font-family="Helvetica,sans-Serif" font-size="10.00">dg::geo::polynomial</text>
<text text-anchor="middle" x="249.5" y="-81.5" font-family="Helvetica,sans-Serif" font-size="10.00">::Psip</text>
</a>
</g>
</g>
<!-- Node0&#45;&gt;Node4 -->
<g id="edge70_Node000000_Node000004" class="edge">
<title>Node0&#45;&gt;Node4</title>
<g id="a_edge70_Node000000_Node000004"><a xlink:title=" ">
<path fill="none" stroke="#63b8ff" d="M162.21,-100.07C172.64,-98.79 183.09,-97.51 192.93,-96.3"/>
<polygon fill="#63b8ff" stroke="#63b8ff" points="161.72,-96.6 152.22,-101.29 162.57,-103.55 161.72,-96.6"/>
</a>
</g>
</g>
<!-- Node5 -->
<g id="Node000005" class="node">
<title>Node5</title>
<g id="a_Node000005"><a xlink:href="structdg_1_1geo_1_1solovev_1_1_psip.html" target="_top" xlink:title=" ">
<polygon fill="white" stroke="#666666" points="311,-56 188,-56 188,-37 311,-37 311,-56"/>
<text text-anchor="middle" x="249.5" y="-44" font-family="Helvetica,sans-Serif" font-size="10.00">dg::geo::solovev::Psip</text>
</a>
</g>
</g>
<!-- Node0&#45;&gt;Node5 -->
<g id="edge71_Node000000_Node000005" class="edge">
<title>Node0&#45;&gt;Node5</title>
<g id="a_edge71_Node000000_Node000005"><a xlink:title=" ">
<path fill="none" stroke="#63b8ff" d="M121.46,-91.52C141.63,-83.15 165.87,-73.45 188,-65.5 197.12,-62.23 207.12,-58.96 216.31,-56.08"/>
<polygon fill="#63b8ff" stroke="#63b8ff" points="120.09,-88.29 112.21,-95.38 122.79,-94.75 120.09,-88.29"/>
</a>
</g>
</g>
<!-- Node6 -->
<g id="Node000006" class="node">
<title>Node6</title>
<g id="a_Node000006"><a xlink:href="structdg_1_1geo_1_1taylor_1_1_psip.html" target="_top" xlink:title=" ">
<polygon fill="white" stroke="#666666" points="306,-19 193,-19 193,0 306,0 306,-19"/>
<text text-anchor="middle" x="249.5" y="-7" font-family="Helvetica,sans-Serif" font-size="10.00">dg::geo::taylor::Psip</text>
</a>
</g>
</g>
<!-- Node0&#45;&gt;Node6 -->
<g id="edge72_Node000000_Node000006" class="edge">
<title>Node0&#45;&gt;Node6</title>
<g id="a_edge72_Node000000_Node000006"><a xlink:title=" ">
<path fill="none" stroke="#63b8ff" d="M101.54,-88.61C123.04,-70.39 155.8,-44.87 188,-28.5 195.26,-24.81 203.38,-21.66 211.26,-19.06"/>
<polygon fill="#63b8ff" stroke="#63b8ff" points="99.17,-86.03 93.87,-95.2 103.74,-91.34 99.17,-86.03"/>
</a>
</g>
</g>
</g>
</svg>
