<?xml version="1.0" encoding="UTF-8" standalone="no"?>
<!DOCTYPE svg PUBLIC "-//W3C//DTD SVG 1.1//EN"
 "http://www.w3.org/Graphics/SVG/1.1/DTD/svg11.dtd">
<!-- Generated by graphviz version 2.43.0 (0)
 -->
<!-- Title: Graphical Class Hierarchy Pages: 1 -->
<svg width="361pt" height="64pt"
 viewBox="0.00 0.00 361.00 64.00" xmlns="http://www.w3.org/2000/svg" xmlns:xlink="http://www.w3.org/1999/xlink">
<g id="graph0" class="graph" transform="scale(1 1) rotate(0) translate(4 60)">
<title>Graphical Class Hierarchy</title>
<!-- Node0 -->
<g id="Node000000" class="node">
<title>Node0</title>
<g id="a_Node000000"><a xlink:href="structdg_1_1geo_1_1a_real_generator_x2d.html" target="_top" xlink:title="The abstract generator base class.">
<polygon fill="white" stroke="#666666" points="154,-42.5 0,-42.5 0,-12.5 154,-12.5 154,-42.5"/>
<text text-anchor="start" x="8" y="-30.5" font-family="Helvetica,sans-Serif" font-size="10.00">dg::geo::aRealGeneratorX2d</text>
<text text-anchor="middle" x="77" y="-19.5" font-family="Helvetica,sans-Serif" font-size="10.00">&lt; real_type &gt;</text>
</a>
</g>
</g>
<!-- Node1 -->
<g id="Node000001" class="node">
<title>Node1</title>
<g id="a_Node000001"><a xlink:href="structdg_1_1geo_1_1_ribeiro_x.html" target="_top" xlink:title="A two&#45;dimensional grid based on &quot;almost&#45;conformal&quot; coordinates by Ribeiro and Scott 2010.">
<polygon fill="white" stroke="#666666" points="321.5,-56 221.5,-56 221.5,-37 321.5,-37 321.5,-56"/>
<text text-anchor="middle" x="271.5" y="-44" font-family="Helvetica,sans-Serif" font-size="10.00">dg::geo::RibeiroX</text>
</a>
</g>
</g>
<!-- Node0&#45;&gt;Node1 -->
<g id="edge128_Node000000_Node000001" class="edge">
<title>Node0&#45;&gt;Node1</title>
<g id="a_edge128_Node000000_Node000001"><a xlink:title=" ">
<path fill="none" stroke="#63b8ff" d="M164.23,-36.01C183.76,-37.94 203.85,-39.92 221.23,-41.64"/>
<polygon fill="#63b8ff" stroke="#63b8ff" points="164.38,-32.51 154.08,-35.01 163.69,-39.47 164.38,-32.51"/>
</a>
</g>
</g>
<!-- Node2 -->
<g id="Node000002" class="node">
<title>Node2</title>
<g id="a_Node000002"><a xlink:href="structdg_1_1geo_1_1_separatrix_orthogonal.html" target="_top" xlink:title="Choose points on separatrix and construct grid from there.">
<polygon fill="white" stroke="#666666" points="353,-19 190,-19 190,0 353,0 353,-19"/>
<text text-anchor="middle" x="271.5" y="-7" font-family="Helvetica,sans-Serif" font-size="10.00">dg::geo::SeparatrixOrthogonal</text>
</a>
</g>
</g>
<!-- Node0&#45;&gt;Node2 -->
<g id="edge129_Node000000_Node000002" class="edge">
<title>Node0&#45;&gt;Node2</title>
<g id="a_edge129_Node000000_Node000002"><a xlink:title=" ">
<path fill="none" stroke="#63b8ff" d="M164.1,-19.45C172.68,-18.65 181.38,-17.83 189.91,-17.04"/>
<polygon fill="#63b8ff" stroke="#63b8ff" points="163.71,-15.97 154.08,-20.39 164.36,-22.94 163.71,-15.97"/>
</a>
</g>
</g>
</g>
</svg>
