<?xml version="1.0" encoding="UTF-8" standalone="no"?>
<!DOCTYPE svg PUBLIC "-//W3C//DTD SVG 1.1//EN"
 "http://www.w3.org/Graphics/SVG/1.1/DTD/svg11.dtd">
<!-- Generated by graphviz version 2.43.0 (0)
 -->
<!-- Title: Graphical Class Hierarchy Pages: 1 -->
<svg width="326pt" height="236pt"
 viewBox="0.00 0.00 326.00 235.50" xmlns="http://www.w3.org/2000/svg" xmlns:xlink="http://www.w3.org/1999/xlink">
<g id="graph0" class="graph" transform="scale(1 1) rotate(0) translate(4 231.5)">
<title>Graphical Class Hierarchy</title>
<!-- Node0 -->
<g id="Node000000" class="node">
<title>Node0</title>
<g id="a_Node000000"><a xlink:href="structdg_1_1geo_1_1a_cylindrical_functor.html" target="_top" xlink:title=" ">
<polygon fill="white" stroke="#666666" points="152,-125.5 0,-125.5 0,-95.5 152,-95.5 152,-125.5"/>
<text text-anchor="start" x="8" y="-113.5" font-family="Helvetica,sans-Serif" font-size="10.00">dg::geo::aCylindricalFunctor</text>
<text text-anchor="middle" x="76" y="-102.5" font-family="Helvetica,sans-Serif" font-size="10.00">&lt; PsipR &gt;</text>
</a>
</g>
</g>
<!-- Node1 -->
<g id="Node000001" class="node">
<title>Node1</title>
<g id="a_Node000001"><a xlink:href="structdg_1_1geo_1_1circular_1_1_psip_r.html" target="_top" xlink:title=" ">
<polygon fill="white" stroke="#666666" points="303.5,-227.5 202.5,-227.5 202.5,-197.5 303.5,-197.5 303.5,-227.5"/>
<text text-anchor="start" x="210.5" y="-215.5" font-family="Helvetica,sans-Serif" font-size="10.00">dg::geo::circular::</text>
<text text-anchor="middle" x="253" y="-204.5" font-family="Helvetica,sans-Serif" font-size="10.00">PsipR</text>
</a>
</g>
</g>
<!-- Node0&#45;&gt;Node1 -->
<g id="edge73_Node000000_Node000001" class="edge">
<title>Node0&#45;&gt;Node1</title>
<g id="a_edge73_Node000000_Node000001"><a xlink:title=" ">
<path fill="none" stroke="#63b8ff" d="M103.39,-131.94C125.14,-148.88 157.29,-172.29 188,-188.5 194.09,-191.71 200.7,-194.7 207.29,-197.4"/>
<polygon fill="#63b8ff" stroke="#63b8ff" points="105.33,-129.01 95.31,-125.57 100.99,-134.51 105.33,-129.01"/>
</a>
</g>
</g>
<!-- Node2 -->
<g id="Node000002" class="node">
<title>Node2</title>
<g id="a_Node000002"><a xlink:href="structdg_1_1geo_1_1guenter_1_1_psip_r.html" target="_top" xlink:title=" ">
<polygon fill="white" stroke="#666666" points="317.5,-179 188.5,-179 188.5,-160 317.5,-160 317.5,-179"/>
<text text-anchor="middle" x="253" y="-167" font-family="Helvetica,sans-Serif" font-size="10.00">dg::geo::guenter::PsipR</text>
</a>
</g>
</g>
<!-- Node0&#45;&gt;Node2 -->
<g id="edge74_Node000000_Node000002" class="edge">
<title>Node0&#45;&gt;Node2</title>
<g id="a_edge74_Node000000_Node000002"><a xlink:title=" ">
<path fill="none" stroke="#63b8ff" d="M125.06,-129.2C144.48,-136.51 167.19,-144.74 188,-151.5 197,-154.42 206.8,-157.32 215.97,-159.91"/>
<polygon fill="#63b8ff" stroke="#63b8ff" points="126.11,-125.86 115.52,-125.59 123.63,-132.4 126.11,-125.86"/>
</a>
</g>
</g>
<!-- Node3 -->
<g id="Node000003" class="node">
<title>Node3</title>
<g id="a_Node000003"><a xlink:href="structdg_1_1geo_1_1mod_1_1_psip_r.html" target="_top" xlink:title=" ">
<polygon fill="white" stroke="#666666" points="309.5,-142 196.5,-142 196.5,-123 309.5,-123 309.5,-142"/>
<text text-anchor="middle" x="253" y="-130" font-family="Helvetica,sans-Serif" font-size="10.00">dg::geo::mod::PsipR</text>
</a>
</g>
</g>
<!-- Node0&#45;&gt;Node3 -->
<g id="edge75_Node000000_Node000003" class="edge">
<title>Node0&#45;&gt;Node3</title>
<g id="a_edge75_Node000000_Node000003"><a xlink:title=" ">
<path fill="none" stroke="#63b8ff" d="M162.36,-121.23C173.92,-122.68 185.53,-124.14 196.39,-125.51"/>
<polygon fill="#63b8ff" stroke="#63b8ff" points="162.59,-117.73 152.23,-119.96 161.72,-124.68 162.59,-117.73"/>
</a>
</g>
</g>
<!-- Node4 -->
<g id="Node000004" class="node">
<title>Node4</title>
<g id="a_Node000004"><a xlink:href="structdg_1_1geo_1_1polynomial_1_1_psip_r.html" target="_top" xlink:title=" ">
<polygon fill="white" stroke="#666666" points="309.5,-104.5 196.5,-104.5 196.5,-74.5 309.5,-74.5 309.5,-104.5"/>
<text text-anchor="start" x="204.5" y="-92.5" font-family="Helvetica,sans-Serif" font-size="10.00">dg::geo::polynomial</text>
<text text-anchor="middle" x="253" y="-81.5" font-family="Helvetica,sans-Serif" font-size="10.00">::PsipR</text>
</a>
</g>
</g>
<!-- Node0&#45;&gt;Node4 -->
<g id="edge76_Node000000_Node000004" class="edge">
<title>Node0&#45;&gt;Node4</title>
<g id="a_edge76_Node000000_Node000004"><a xlink:title=" ">
<path fill="none" stroke="#63b8ff" d="M162.36,-100.26C173.92,-98.87 185.53,-97.48 196.39,-96.17"/>
<polygon fill="#63b8ff" stroke="#63b8ff" points="161.74,-96.81 152.23,-101.47 162.58,-103.76 161.74,-96.81"/>
</a>
</g>
</g>
<!-- Node5 -->
<g id="Node000005" class="node">
<title>Node5</title>
<g id="a_Node000005"><a xlink:href="structdg_1_1geo_1_1solovev_1_1_psip_r.html" target="_top" xlink:title=" ">
<polygon fill="white" stroke="#666666" points="318,-56 188,-56 188,-37 318,-37 318,-56"/>
<text text-anchor="middle" x="253" y="-44" font-family="Helvetica,sans-Serif" font-size="10.00">dg::geo::solovev::PsipR</text>
</a>
</g>
</g>
<!-- Node0&#45;&gt;Node5 -->
<g id="edge77_Node000000_Node000005" class="edge">
<title>Node0&#45;&gt;Node5</title>
<g id="a_edge77_Node000000_Node000005"><a xlink:title=" ">
<path fill="none" stroke="#63b8ff" d="M120.94,-91.55C141.19,-83.11 165.64,-73.33 188,-65.5 197.52,-62.17 207.96,-58.9 217.59,-56.05"/>
<polygon fill="#63b8ff" stroke="#63b8ff" points="119.53,-88.34 111.67,-95.44 122.24,-94.8 119.53,-88.34"/>
</a>
</g>
</g>
<!-- Node6 -->
<g id="Node000006" class="node">
<title>Node6</title>
<g id="a_Node000006"><a xlink:href="structdg_1_1geo_1_1taylor_1_1_psip_r.html" target="_top" xlink:title=" ">
<polygon fill="white" stroke="#666666" points="313,-19 193,-19 193,0 313,0 313,-19"/>
<text text-anchor="middle" x="253" y="-7" font-family="Helvetica,sans-Serif" font-size="10.00">dg::geo::taylor::PsipR</text>
</a>
</g>
</g>
<!-- Node0&#45;&gt;Node6 -->
<g id="edge78_Node000000_Node000006" class="edge">
<title>Node0&#45;&gt;Node6</title>
<g id="a_edge78_Node000000_Node000006"><a xlink:title=" ">
<path fill="none" stroke="#63b8ff" d="M101.09,-88.81C122.55,-70.48 155.49,-44.71 188,-28.5 195.47,-24.78 203.8,-21.65 211.91,-19.07"/>
<polygon fill="#63b8ff" stroke="#63b8ff" points="98.72,-86.23 93.46,-95.43 103.31,-91.52 98.72,-86.23"/>
</a>
</g>
</g>
</g>
</svg>
