<?xml version="1.0" encoding="UTF-8" standalone="no"?>
<!DOCTYPE svg PUBLIC "-//W3C//DTD SVG 1.1//EN"
 "http://www.w3.org/Graphics/SVG/1.1/DTD/svg11.dtd">
<!-- Generated by graphviz version 2.43.0 (0)
 -->
<!-- Title: Graphical Class Hierarchy Pages: 1 -->
<svg width="496pt" height="86pt"
 viewBox="0.00 0.00 496.00 86.00" xmlns="http://www.w3.org/2000/svg" xmlns:xlink="http://www.w3.org/1999/xlink">
<g id="graph0" class="graph" transform="scale(1 1) rotate(0) translate(4 82)">
<title>Graphical Class Hierarchy</title>
<!-- Node0 -->
<g id="Node000000" class="node">
<title>Node0</title>
<g id="a_Node000000"><a target="_parent" xlink:href="../../dg/html/structdg_1_1a_real_topology_x2d.html" xlink:title=" ">
<polygon fill="white" stroke="#666666" points="125,-54 0,-54 0,-24 125,-24 125,-54"/>
<text text-anchor="start" x="8" y="-42" font-family="Helvetica,sans-Serif" font-size="10.00">dg::aRealTopologyX2d</text>
<text text-anchor="middle" x="62.5" y="-31" font-family="Helvetica,sans-Serif" font-size="10.00">&lt; real_type &gt;</text>
</a>
</g>
</g>
<!-- Node1 -->
<g id="Node000001" class="node">
<title>Node1</title>
<g id="a_Node000001"><a target="_parent" xlink:href="../../dg/html/structdg_1_1a_real_geometry_x2d.html" xlink:title=" ">
<polygon fill="white" stroke="#666666" points="291,-54 161,-54 161,-24 291,-24 291,-54"/>
<text text-anchor="start" x="169" y="-42" font-family="Helvetica,sans-Serif" font-size="10.00">dg::aRealGeometryX2d</text>
<text text-anchor="middle" x="226" y="-31" font-family="Helvetica,sans-Serif" font-size="10.00">&lt; real_type &gt;</text>
</a>
</g>
</g>
<!-- Node0&#45;&gt;Node1 -->
<g id="edge13_Node000000_Node000001" class="edge">
<title>Node0&#45;&gt;Node1</title>
<g id="a_edge13_Node000000_Node000001"><a xlink:title=" ">
<path fill="none" stroke="#63b8ff" d="M135.06,-39C143.69,-39 152.46,-39 160.97,-39"/>
<polygon fill="#63b8ff" stroke="#63b8ff" points="135.02,-35.5 125.02,-39 135.02,-42.5 135.02,-35.5"/>
</a>
</g>
</g>
<!-- Node2 -->
<g id="Node000002" class="node">
<title>Node2</title>
<g id="a_Node000002"><a xlink:href="structdg_1_1geo_1_1_real_curvilinear_grid_x2d.html" target="_top" xlink:title="A two&#45;dimensional grid based on curvilinear coordinates.">
<polygon fill="white" stroke="#666666" points="474.5,-78 340.5,-78 340.5,-48 474.5,-48 474.5,-78"/>
<text text-anchor="start" x="348.5" y="-66" font-family="Helvetica,sans-Serif" font-size="10.00">dg::geo::RealCurvilinear</text>
<text text-anchor="middle" x="407.5" y="-55" font-family="Helvetica,sans-Serif" font-size="10.00">GridX2d&lt; real_type &gt;</text>
</a>
</g>
</g>
<!-- Node1&#45;&gt;Node2 -->
<g id="edge14_Node000001_Node000002" class="edge">
<title>Node1&#45;&gt;Node2</title>
<g id="a_edge14_Node000001_Node000002"><a xlink:title=" ">
<path fill="none" stroke="#63b8ff" d="M301.31,-48.94C314.26,-50.67 327.65,-52.46 340.36,-54.16"/>
<polygon fill="#63b8ff" stroke="#63b8ff" points="301.42,-45.42 291.04,-47.56 300.49,-52.36 301.42,-45.42"/>
</a>
</g>
</g>
<!-- Node3 -->
<g id="Node000003" class="node">
<title>Node3</title>
<g id="a_Node000003"><a xlink:href="structdg_1_1geo_1_1_real_curvilinear_refined_grid_x2d.html" target="_top" xlink:title="A two&#45;dimensional grid based on curvilinear coordinates.">
<polygon fill="white" stroke="#666666" points="488,-30 327,-30 327,0 488,0 488,-30"/>
<text text-anchor="start" x="335" y="-18" font-family="Helvetica,sans-Serif" font-size="10.00">dg::geo::RealCurvilinear</text>
<text text-anchor="middle" x="407.5" y="-7" font-family="Helvetica,sans-Serif" font-size="10.00">RefinedGridX2d&lt; real_type &gt;</text>
</a>
</g>
</g>
<!-- Node1&#45;&gt;Node3 -->
<g id="edge15_Node000001_Node000003" class="edge">
<title>Node1&#45;&gt;Node3</title>
<g id="a_edge15_Node000001_Node000003"><a xlink:title=" ">
<path fill="none" stroke="#63b8ff" d="M301.22,-29.08C309.66,-27.95 318.28,-26.8 326.79,-25.66"/>
<polygon fill="#63b8ff" stroke="#63b8ff" points="300.49,-25.64 291.04,-30.44 301.42,-32.58 300.49,-25.64"/>
</a>
</g>
</g>
</g>
</svg>
