<?xml version="1.0" encoding="UTF-8" standalone="no"?>
<!DOCTYPE svg PUBLIC "-//W3C//DTD SVG 1.1//EN"
 "http://www.w3.org/Graphics/SVG/1.1/DTD/svg11.dtd">
<!-- Generated by graphviz version 2.43.0 (0)
 -->
<!-- Title: Graphical Class Hierarchy Pages: 1 -->
<svg width="354pt" height="347pt"
 viewBox="0.00 0.00 354.00 347.00" xmlns="http://www.w3.org/2000/svg" xmlns:xlink="http://www.w3.org/1999/xlink">
<g id="graph0" class="graph" transform="scale(1 1) rotate(0) translate(4 343)">
<title>Graphical Class Hierarchy</title>
<!-- Node0 -->
<g id="Node000000" class="node">
<title>Node0</title>
<g id="a_Node000000"><a xlink:href="structdg_1_1geo_1_1a_real_generator2d.html" target="_top" xlink:title="The abstract generator base class.">
<polygon fill="white" stroke="#666666" points="147,-184.5 0,-184.5 0,-154.5 147,-154.5 147,-184.5"/>
<text text-anchor="start" x="8" y="-172.5" font-family="Helvetica,sans-Serif" font-size="10.00">dg::geo::aRealGenerator2d</text>
<text text-anchor="middle" x="73.5" y="-161.5" font-family="Helvetica,sans-Serif" font-size="10.00">&lt; real_type &gt;</text>
</a>
</g>
</g>
<!-- Node1 -->
<g id="Node000001" class="node">
<title>Node1</title>
<g id="a_Node000001"><a xlink:href="structdg_1_1geo_1_1_d_s_p_generator.html" target="_top" xlink:title="A transformed field grid generator.">
<polygon fill="white" stroke="#666666" points="328,-339 201,-339 201,-320 328,-320 328,-339"/>
<text text-anchor="middle" x="264.5" y="-327" font-family="Helvetica,sans-Serif" font-size="10.00">dg::geo::DSPGenerator</text>
</a>
</g>
</g>
<!-- Node0&#45;&gt;Node1 -->
<g id="edge119_Node000000_Node000001" class="edge">
<title>Node0&#45;&gt;Node1</title>
<g id="a_edge119_Node000000_Node000001"><a xlink:title=" ">
<path fill="none" stroke="#63b8ff" d="M86.24,-193.92C103.04,-226.11 137.05,-282.1 183,-311.5 188.43,-314.97 194.44,-317.78 200.65,-320.05"/>
<polygon fill="#63b8ff" stroke="#63b8ff" points="89.24,-192.08 81.59,-184.74 82.99,-195.25 89.24,-192.08"/>
</a>
</g>
</g>
<!-- Node2 -->
<g id="Node000002" class="node">
<title>Node2</title>
<g id="a_Node000002"><a xlink:href="structdg_1_1geo_1_1_flux_generator.html" target="_top" xlink:title="A symmetry flux generator.">
<polygon fill="white" stroke="#666666" points="328.5,-302 200.5,-302 200.5,-283 328.5,-283 328.5,-302"/>
<text text-anchor="middle" x="264.5" y="-290" font-family="Helvetica,sans-Serif" font-size="10.00">dg::geo::FluxGenerator</text>
</a>
</g>
</g>
<!-- Node0&#45;&gt;Node2 -->
<g id="edge120_Node000000_Node000002" class="edge">
<title>Node0&#45;&gt;Node2</title>
<g id="a_edge120_Node000000_Node000002"><a xlink:title=" ">
<path fill="none" stroke="#63b8ff" d="M92.33,-192.75C111.95,-216.66 145.68,-253.21 183,-273.5 190.19,-277.41 198.17,-280.52 206.23,-282.99"/>
<polygon fill="#63b8ff" stroke="#63b8ff" points="94.99,-190.47 86,-184.86 89.53,-194.85 94.99,-190.47"/>
</a>
</g>
</g>
<!-- Node3 -->
<g id="Node000003" class="node">
<title>Node3</title>
<g id="a_Node000003"><a xlink:href="structdg_1_1geo_1_1_hector.html" target="_top" xlink:title="The High PrEcision Conformal grid generaTOR.">
<polygon fill="white" stroke="#666666" points="334.5,-264.5 194.5,-264.5 194.5,-234.5 334.5,-234.5 334.5,-264.5"/>
<text text-anchor="start" x="202.5" y="-252.5" font-family="Helvetica,sans-Serif" font-size="10.00">dg::geo::Hector&lt; IMatrix,</text>
<text text-anchor="middle" x="264.5" y="-241.5" font-family="Helvetica,sans-Serif" font-size="10.00"> Matrix, container &gt;</text>
</a>
</g>
</g>
<!-- Node0&#45;&gt;Node3 -->
<g id="edge121_Node000000_Node000003" class="edge">
<title>Node0&#45;&gt;Node3</title>
<g id="a_edge121_Node000000_Node000003"><a xlink:title=" ">
<path fill="none" stroke="#63b8ff" d="M109.43,-189.65C130.32,-201.16 157.65,-215.28 183,-225.5 190.98,-228.72 199.56,-231.72 208.03,-234.45"/>
<polygon fill="#63b8ff" stroke="#63b8ff" points="111.04,-186.54 100.6,-184.73 107.63,-192.65 111.04,-186.54"/>
</a>
</g>
</g>
<!-- Node4 -->
<g id="Node000004" class="node">
<title>Node4</title>
<g id="a_Node000004"><a xlink:href="structdg_1_1geo_1_1_log_polar_generator.html" target="_top" xlink:title="Log Polar coordinates (conformal)">
<polygon fill="white" stroke="#666666" points="339,-216 190,-216 190,-197 339,-197 339,-216"/>
<text text-anchor="middle" x="264.5" y="-204" font-family="Helvetica,sans-Serif" font-size="10.00">dg::geo::LogPolarGenerator</text>
</a>
</g>
</g>
<!-- Node0&#45;&gt;Node4 -->
<g id="edge122_Node000000_Node000004" class="edge">
<title>Node0&#45;&gt;Node4</title>
<g id="a_edge122_Node000000_Node000004"><a xlink:title=" ">
<path fill="none" stroke="#63b8ff" d="M156.97,-185.64C176.72,-189.51 197.19,-193.52 214.84,-196.97"/>
<polygon fill="#63b8ff" stroke="#63b8ff" points="157.52,-182.19 147.03,-183.7 156.17,-189.06 157.52,-182.19"/>
</a>
</g>
</g>
<!-- Node5 -->
<g id="Node000005" class="node">
<title>Node5</title>
<g id="a_Node000005"><a xlink:href="structdg_1_1geo_1_1_polar_generator.html" target="_top" xlink:title="Polar coordinates.">
<polygon fill="white" stroke="#666666" points="330.5,-179 198.5,-179 198.5,-160 330.5,-160 330.5,-179"/>
<text text-anchor="middle" x="264.5" y="-167" font-family="Helvetica,sans-Serif" font-size="10.00">dg::geo::PolarGenerator</text>
</a>
</g>
</g>
<!-- Node0&#45;&gt;Node5 -->
<g id="edge123_Node000000_Node000005" class="edge">
<title>Node0&#45;&gt;Node5</title>
<g id="a_edge123_Node000000_Node000005"><a xlink:title=" ">
<path fill="none" stroke="#63b8ff" d="M157.41,-169.5C171.09,-169.5 185.11,-169.5 198.27,-169.5"/>
<polygon fill="#63b8ff" stroke="#63b8ff" points="157.03,-166 147.03,-169.5 157.03,-173 157.03,-166"/>
</a>
</g>
</g>
<!-- Node6 -->
<g id="Node000006" class="node">
<title>Node6</title>
<g id="a_Node000006"><a xlink:href="structdg_1_1geo_1_1_ribeiro.html" target="_top" xlink:title="A two&#45;dimensional grid based on &quot;almost&#45;conformal&quot; coordinates by Ribeiro and Scott 2010.">
<polygon fill="white" stroke="#666666" points="311,-142 218,-142 218,-123 311,-123 311,-142"/>
<text text-anchor="middle" x="264.5" y="-130" font-family="Helvetica,sans-Serif" font-size="10.00">dg::geo::Ribeiro</text>
</a>
</g>
</g>
<!-- Node0&#45;&gt;Node6 -->
<g id="edge124_Node000000_Node000006" class="edge">
<title>Node0&#45;&gt;Node6</title>
<g id="a_edge124_Node000000_Node000006"><a xlink:title=" ">
<path fill="none" stroke="#63b8ff" d="M156.9,-153.37C177.84,-149.27 199.59,-145.01 217.94,-141.42"/>
<polygon fill="#63b8ff" stroke="#63b8ff" points="156.17,-149.94 147.03,-155.3 157.52,-156.81 156.17,-149.94"/>
</a>
</g>
</g>
<!-- Node7 -->
<g id="Node000007" class="node">
<title>Node7</title>
<g id="a_Node000007"><a xlink:href="structdg_1_1geo_1_1_ribeiro_flux_generator.html" target="_top" xlink:title="Same as the Ribeiro class but uses &#160;as a flux label directly.">
<polygon fill="white" stroke="#666666" points="346,-105 183,-105 183,-86 346,-86 346,-105"/>
<text text-anchor="middle" x="264.5" y="-93" font-family="Helvetica,sans-Serif" font-size="10.00">dg::geo::RibeiroFluxGenerator</text>
</a>
</g>
</g>
<!-- Node0&#45;&gt;Node7 -->
<g id="edge125_Node000000_Node000007" class="edge">
<title>Node0&#45;&gt;Node7</title>
<g id="a_edge125_Node000000_Node000007"><a xlink:title=" ">
<path fill="none" stroke="#63b8ff" d="M108.84,-149.44C129.73,-137.92 157.26,-123.91 183,-114.5 193.12,-110.8 204.21,-107.64 214.85,-105.02"/>
<polygon fill="#63b8ff" stroke="#63b8ff" points="107.05,-146.43 100.03,-154.37 110.47,-152.54 107.05,-146.43"/>
</a>
</g>
</g>
<!-- Node8 -->
<g id="Node000008" class="node">
<title>Node8</title>
<g id="a_Node000008"><a xlink:href="structdg_1_1geo_1_1_separatrix_orthogonal_adaptor.html" target="_top" xlink:title="An Adaptor to use SeparatrixOrthogonal as aGenerator2d instead of aGeneratorX2d.">
<polygon fill="white" stroke="#666666" points="346,-67.5 183,-67.5 183,-37.5 346,-37.5 346,-67.5"/>
<text text-anchor="start" x="191" y="-55.5" font-family="Helvetica,sans-Serif" font-size="10.00">dg::geo::SeparatrixOrthogonal</text>
<text text-anchor="middle" x="264.5" y="-44.5" font-family="Helvetica,sans-Serif" font-size="10.00">Adaptor</text>
</a>
</g>
</g>
<!-- Node0&#45;&gt;Node8 -->
<g id="edge126_Node000000_Node000008" class="edge">
<title>Node0&#45;&gt;Node8</title>
<g id="a_edge126_Node000000_Node000008"><a xlink:title=" ">
<path fill="none" stroke="#63b8ff" d="M95.75,-146.87C116.3,-126.18 149.22,-96.05 183,-77.5 189.93,-73.7 197.51,-70.38 205.17,-67.53"/>
<polygon fill="#63b8ff" stroke="#63b8ff" points="92.98,-144.69 88.5,-154.29 97.99,-149.58 92.98,-144.69"/>
</a>
</g>
</g>
<!-- Node9 -->
<g id="Node000009" class="node">
<title>Node9</title>
<g id="a_Node000009"><a xlink:href="structdg_1_1geo_1_1_simple_orthogonal.html" target="_top" xlink:title="Generate a simple orthogonal grid.">
<polygon fill="white" stroke="#666666" points="337.5,-19 191.5,-19 191.5,0 337.5,0 337.5,-19"/>
<text text-anchor="middle" x="264.5" y="-7" font-family="Helvetica,sans-Serif" font-size="10.00">dg::geo::SimpleOrthogonal</text>
</a>
</g>
</g>
<!-- Node0&#45;&gt;Node9 -->
<g id="edge127_Node000000_Node000009" class="edge">
<title>Node0&#45;&gt;Node9</title>
<g id="a_edge127_Node000000_Node000009"><a xlink:title=" ">
<path fill="none" stroke="#63b8ff" d="M86.34,-145.33C103.25,-113.46 137.38,-57.96 183,-28.5 189.03,-24.61 195.78,-21.51 202.73,-19.04"/>
<polygon fill="#63b8ff" stroke="#63b8ff" points="83.13,-143.92 81.65,-154.41 89.35,-147.13 83.13,-143.92"/>
</a>
</g>
</g>
</g>
</svg>
