<?xml version="1.0" encoding="UTF-8" standalone="no"?>
<!DOCTYPE svg PUBLIC "-//W3C//DTD SVG 1.1//EN"
 "http://www.w3.org/Graphics/SVG/1.1/DTD/svg11.dtd">
<!-- Generated by graphviz version 2.43.0 (0)
 -->
<!-- Title: Graphical Class Hierarchy Pages: 1 -->
<svg width="693pt" height="92pt"
 viewBox="0.00 0.00 693.00 91.50" xmlns="http://www.w3.org/2000/svg" xmlns:xlink="http://www.w3.org/1999/xlink">
<g id="graph0" class="graph" transform="scale(1 1) rotate(0) translate(4 87.5)">
<title>Graphical Class Hierarchy</title>
<!-- Node0 -->
<g id="Node000000" class="node">
<title>Node0</title>
<g id="a_Node000000"><a target="_parent" xlink:href="../../dg/html/structdg_1_1a_real_m_p_i_topology.html" xlink:title=" ">
<polygon fill="white" stroke="#666666" points="124,-59.5 0,-59.5 0,-29.5 124,-29.5 124,-59.5"/>
<text text-anchor="start" x="8" y="-47.5" font-family="Helvetica,sans-Serif" font-size="10.00">dg::aRealMPITopology</text>
<text text-anchor="middle" x="62" y="-36.5" font-family="Helvetica,sans-Serif" font-size="10.00">&lt; real_type, Nd &gt;</text>
</a>
</g>
</g>
<!-- Node1 -->
<g id="Node000001" class="node">
<title>Node1</title>
<g id="a_Node000001"><a target="_parent" xlink:href="../../dg/html/structdg_1_1a_real_m_p_i_geometry2d.html" xlink:title=" ">
<polygon fill="white" stroke="#666666" points="301,-83.5 160,-83.5 160,-53.5 301,-53.5 301,-83.5"/>
<text text-anchor="start" x="168" y="-71.5" font-family="Helvetica,sans-Serif" font-size="10.00">dg::aRealMPIGeometry2d</text>
<text text-anchor="middle" x="230.5" y="-60.5" font-family="Helvetica,sans-Serif" font-size="10.00">&lt; real_type &gt;</text>
</a>
</g>
</g>
<!-- Node0&#45;&gt;Node1 -->
<g id="edge1_Node000000_Node000001" class="edge">
<title>Node0&#45;&gt;Node1</title>
<g id="a_edge1_Node000000_Node000001"><a xlink:title=" ">
<path fill="none" stroke="#63b8ff" d="M133.97,-54.73C142.5,-55.96 151.21,-57.21 159.72,-58.44"/>
<polygon fill="#63b8ff" stroke="#63b8ff" points="134.45,-51.26 124.05,-53.3 133.45,-58.19 134.45,-51.26"/>
</a>
</g>
</g>
<!-- Node3 -->
<g id="Node000003" class="node">
<title>Node3</title>
<g id="a_Node000003"><a target="_parent" xlink:href="../../dg/html/structdg_1_1a_real_m_p_i_geometry3d.html" xlink:title=" ">
<polygon fill="white" stroke="#666666" points="301,-35.5 160,-35.5 160,-5.5 301,-5.5 301,-35.5"/>
<text text-anchor="start" x="168" y="-23.5" font-family="Helvetica,sans-Serif" font-size="10.00">dg::aRealMPIGeometry3d</text>
<text text-anchor="middle" x="230.5" y="-12.5" font-family="Helvetica,sans-Serif" font-size="10.00">&lt; real_type &gt;</text>
</a>
</g>
</g>
<!-- Node0&#45;&gt;Node3 -->
<g id="edge3_Node000000_Node000003" class="edge">
<title>Node0&#45;&gt;Node3</title>
<g id="a_edge3_Node000000_Node000003"><a xlink:title=" ">
<path fill="none" stroke="#63b8ff" d="M133.97,-34.27C142.5,-33.04 151.21,-31.79 159.72,-30.56"/>
<polygon fill="#63b8ff" stroke="#63b8ff" points="133.45,-30.81 124.05,-35.7 134.45,-37.74 133.45,-30.81"/>
</a>
</g>
</g>
<!-- Node2 -->
<g id="Node000002" class="node">
<title>Node2</title>
<g id="a_Node000002"><a xlink:href="structdg_1_1geo_1_1_real_curvilinear_m_p_i_grid2d.html" target="_top" xlink:title="A two&#45;dimensional MPI grid based on curvilinear coordinates.">
<polygon fill="white" stroke="#666666" points="493.5,-83.5 358.5,-83.5 358.5,-53.5 493.5,-53.5 493.5,-83.5"/>
<text text-anchor="start" x="366.5" y="-71.5" font-family="Helvetica,sans-Serif" font-size="10.00">dg::geo::RealCurvilinear</text>
<text text-anchor="middle" x="426" y="-60.5" font-family="Helvetica,sans-Serif" font-size="10.00">MPIGrid2d&lt; real_type &gt;</text>
</a>
</g>
</g>
<!-- Node1&#45;&gt;Node2 -->
<g id="edge2_Node000001_Node000002" class="edge">
<title>Node1&#45;&gt;Node2</title>
<g id="a_edge2_Node000001_Node000002"><a xlink:title=" ">
<path fill="none" stroke="#63b8ff" d="M311.25,-68.5C326.89,-68.5 343.14,-68.5 358.3,-68.5"/>
<polygon fill="#63b8ff" stroke="#63b8ff" points="311.08,-65 301.08,-68.5 311.08,-72 311.08,-65"/>
</a>
</g>
</g>
<!-- Node4 -->
<g id="Node000004" class="node">
<title>Node4</title>
<g id="a_Node000004"><a target="_parent" xlink:href="../../dg/html/structdg_1_1a_real_product_m_p_i_geometry3d.html" xlink:title=" ">
<polygon fill="white" stroke="#666666" points="515,-35.5 337,-35.5 337,-5.5 515,-5.5 515,-35.5"/>
<text text-anchor="start" x="345" y="-23.5" font-family="Helvetica,sans-Serif" font-size="10.00">dg::aRealProductMPIGeometry3d</text>
<text text-anchor="middle" x="426" y="-12.5" font-family="Helvetica,sans-Serif" font-size="10.00">&lt; real_type &gt;</text>
</a>
</g>
</g>
<!-- Node3&#45;&gt;Node4 -->
<g id="edge4_Node000003_Node000004" class="edge">
<title>Node3&#45;&gt;Node4</title>
<g id="a_edge4_Node000003_Node000004"><a xlink:title=" ">
<path fill="none" stroke="#63b8ff" d="M311.26,-20.5C319.69,-20.5 328.3,-20.5 336.82,-20.5"/>
<polygon fill="#63b8ff" stroke="#63b8ff" points="311.08,-17 301.08,-20.5 311.08,-24 311.08,-17"/>
</a>
</g>
</g>
<!-- Node5 -->
<g id="Node000005" class="node">
<title>Node5</title>
<g id="a_Node000005"><a xlink:href="structdg_1_1geo_1_1_real_curvilinear_product_m_p_i_grid3d.html" target="_top" xlink:title="A 2x1 curvilinear product space MPI grid.">
<polygon fill="white" stroke="#666666" points="685,-41 551,-41 551,0 685,0 685,-41"/>
<text text-anchor="start" x="559" y="-29" font-family="Helvetica,sans-Serif" font-size="10.00">dg::geo::RealCurvilinear</text>
<text text-anchor="start" x="559" y="-18" font-family="Helvetica,sans-Serif" font-size="10.00">ProductMPIGrid3d&lt; real</text>
<text text-anchor="middle" x="618" y="-7" font-family="Helvetica,sans-Serif" font-size="10.00">_type &gt;</text>
</a>
</g>
</g>
<!-- Node4&#45;&gt;Node5 -->
<g id="edge5_Node000004_Node000005" class="edge">
<title>Node4&#45;&gt;Node5</title>
<g id="a_edge5_Node000004_Node000005"><a xlink:title=" ">
<path fill="none" stroke="#63b8ff" d="M525.22,-20.5C533.89,-20.5 542.52,-20.5 550.83,-20.5"/>
<polygon fill="#63b8ff" stroke="#63b8ff" points="525.05,-17 515.05,-20.5 525.05,-24 525.05,-17"/>
</a>
</g>
</g>
</g>
</svg>
