<?xml version="1.0" encoding="UTF-8" standalone="no"?>
<!DOCTYPE svg PUBLIC "-//W3C//DTD SVG 1.1//EN"
 "http://www.w3.org/Graphics/SVG/1.1/DTD/svg11.dtd">
<!-- Generated by graphviz version 2.43.0 (0)
 -->
<!-- Title: Graphical Class Hierarchy Pages: 1 -->
<svg width="317pt" height="101pt"
 viewBox="0.00 0.00 317.00 101.00" xmlns="http://www.w3.org/2000/svg" xmlns:xlink="http://www.w3.org/1999/xlink">
<g id="graph0" class="graph" transform="scale(1 1) rotate(0) translate(4 97)">
<title>Graphical Class Hierarchy</title>
<!-- Node0 -->
<g id="Node000000" class="node">
<title>Node0</title>
<g id="a_Node000000"><a xlink:href="structdg_1_1geo_1_1a_cylindrical_functor.html" target="_top" xlink:title=" ">
<polygon fill="white" stroke="#666666" points="152,-61.5 0,-61.5 0,-31.5 152,-31.5 152,-61.5"/>
<text text-anchor="start" x="8" y="-49.5" font-family="Helvetica,sans-Serif" font-size="10.00">dg::geo::aCylindricalFunctor</text>
<text text-anchor="middle" x="76" y="-38.5" font-family="Helvetica,sans-Serif" font-size="10.00">&lt; Ipol &gt;</text>
</a>
</g>
</g>
<!-- Node1 -->
<g id="Node000001" class="node">
<title>Node1</title>
<g id="a_Node000001"><a xlink:href="structdg_1_1geo_1_1guenter_1_1_ipol.html" target="_top" xlink:title=" ">
<polygon fill="white" stroke="#666666" points="308.5,-93 188.5,-93 188.5,-74 308.5,-74 308.5,-93"/>
<text text-anchor="middle" x="248.5" y="-81" font-family="Helvetica,sans-Serif" font-size="10.00">dg::geo::guenter::Ipol</text>
</a>
</g>
</g>
<!-- Node0&#45;&gt;Node1 -->
<g id="edge49_Node000000_Node000001" class="edge">
<title>Node0&#45;&gt;Node1</title>
<g id="a_edge49_Node000000_Node000001"><a xlink:title=" ">
<path fill="none" stroke="#63b8ff" d="M156.41,-63.73C172.66,-67.26 189.2,-70.85 203.65,-73.98"/>
<polygon fill="#63b8ff" stroke="#63b8ff" points="156.86,-60.25 146.35,-61.55 155.38,-67.09 156.86,-60.25"/>
</a>
</g>
</g>
<!-- Node2 -->
<g id="Node000002" class="node">
<title>Node2</title>
<g id="a_Node000002"><a xlink:href="structdg_1_1geo_1_1solovev_1_1_ipol.html" target="_top" xlink:title=" ">
<polygon fill="white" stroke="#666666" points="309,-56 188,-56 188,-37 309,-37 309,-56"/>
<text text-anchor="middle" x="248.5" y="-44" font-family="Helvetica,sans-Serif" font-size="10.00">dg::geo::solovev::Ipol</text>
</a>
</g>
</g>
<!-- Node0&#45;&gt;Node2 -->
<g id="edge50_Node000000_Node000002" class="edge">
<title>Node0&#45;&gt;Node2</title>
<g id="a_edge50_Node000000_Node000002"><a xlink:title=" ">
<path fill="none" stroke="#63b8ff" d="M162.41,-46.5C171.05,-46.5 179.69,-46.5 187.98,-46.5"/>
<polygon fill="#63b8ff" stroke="#63b8ff" points="162.28,-43 152.28,-46.5 162.28,-50 162.28,-43"/>
</a>
</g>
</g>
<!-- Node3 -->
<g id="Node000003" class="node">
<title>Node3</title>
<g id="a_Node000003"><a xlink:href="structdg_1_1geo_1_1taylor_1_1_ipol.html" target="_top" xlink:title=" ">
<polygon fill="white" stroke="#666666" points="304,-19 193,-19 193,0 304,0 304,-19"/>
<text text-anchor="middle" x="248.5" y="-7" font-family="Helvetica,sans-Serif" font-size="10.00">dg::geo::taylor::Ipol</text>
</a>
</g>
</g>
<!-- Node0&#45;&gt;Node3 -->
<g id="edge51_Node000000_Node000003" class="edge">
<title>Node0&#45;&gt;Node3</title>
<g id="a_edge51_Node000000_Node000003"><a xlink:title=" ">
<path fill="none" stroke="#63b8ff" d="M156.41,-29.27C172.66,-25.74 189.2,-22.15 203.65,-19.02"/>
<polygon fill="#63b8ff" stroke="#63b8ff" points="155.38,-25.91 146.35,-31.45 156.86,-32.75 155.38,-25.91"/>
</a>
</g>
</g>
</g>
</svg>
