<?xml version="1.0" encoding="UTF-8" standalone="no"?>
<!DOCTYPE svg PUBLIC "-//W3C//DTD SVG 1.1//EN"
 "http://www.w3.org/Graphics/SVG/1.1/DTD/svg11.dtd">
<!-- Generated by graphviz version 2.43.0 (0)
 -->
<!-- Title: Graphical Class Hierarchy Pages: 1 -->
<svg width="324pt" height="101pt"
 viewBox="0.00 0.00 324.00 101.00" xmlns="http://www.w3.org/2000/svg" xmlns:xlink="http://www.w3.org/1999/xlink">
<g id="graph0" class="graph" transform="scale(1 1) rotate(0) translate(4 97)">
<title>Graphical Class Hierarchy</title>
<!-- Node0 -->
<g id="Node000000" class="node">
<title>Node0</title>
<g id="a_Node000000"><a xlink:href="structdg_1_1geo_1_1a_cylindrical_functor.html" target="_top" xlink:title=" ">
<polygon fill="white" stroke="#666666" points="152,-61.5 0,-61.5 0,-31.5 152,-31.5 152,-61.5"/>
<text text-anchor="start" x="8" y="-49.5" font-family="Helvetica,sans-Serif" font-size="10.00">dg::geo::aCylindricalFunctor</text>
<text text-anchor="middle" x="76" y="-38.5" font-family="Helvetica,sans-Serif" font-size="10.00">&lt; IpolR &gt;</text>
</a>
</g>
</g>
<!-- Node1 -->
<g id="Node000001" class="node">
<title>Node1</title>
<g id="a_Node000001"><a xlink:href="structdg_1_1geo_1_1guenter_1_1_ipol_r.html" target="_top" xlink:title=" ">
<polygon fill="white" stroke="#666666" points="315.5,-93 188.5,-93 188.5,-74 315.5,-74 315.5,-93"/>
<text text-anchor="middle" x="252" y="-81" font-family="Helvetica,sans-Serif" font-size="10.00">dg::geo::guenter::IpolR</text>
</a>
</g>
</g>
<!-- Node0&#45;&gt;Node1 -->
<g id="edge52_Node000000_Node000001" class="edge">
<title>Node0&#45;&gt;Node1</title>
<g id="a_edge52_Node000000_Node000001"><a xlink:title=" ">
<path fill="none" stroke="#63b8ff" d="M157.57,-63.63C174.31,-67.19 191.37,-70.82 206.25,-73.98"/>
<polygon fill="#63b8ff" stroke="#63b8ff" points="158.28,-60.21 147.77,-61.55 156.83,-67.05 158.28,-60.21"/>
</a>
</g>
</g>
<!-- Node2 -->
<g id="Node000002" class="node">
<title>Node2</title>
<g id="a_Node000002"><a xlink:href="structdg_1_1geo_1_1solovev_1_1_ipol_r.html" target="_top" xlink:title=" ">
<polygon fill="white" stroke="#666666" points="316,-56 188,-56 188,-37 316,-37 316,-56"/>
<text text-anchor="middle" x="252" y="-44" font-family="Helvetica,sans-Serif" font-size="10.00">dg::geo::solovev::IpolR</text>
</a>
</g>
</g>
<!-- Node0&#45;&gt;Node2 -->
<g id="edge53_Node000000_Node000002" class="edge">
<title>Node0&#45;&gt;Node2</title>
<g id="a_edge53_Node000000_Node000002"><a xlink:title=" ">
<path fill="none" stroke="#63b8ff" d="M162.2,-46.5C170.86,-46.5 179.55,-46.5 187.92,-46.5"/>
<polygon fill="#63b8ff" stroke="#63b8ff" points="162.05,-43 152.05,-46.5 162.05,-50 162.05,-43"/>
</a>
</g>
</g>
<!-- Node3 -->
<g id="Node000003" class="node">
<title>Node3</title>
<g id="a_Node000003"><a xlink:href="structdg_1_1geo_1_1taylor_1_1_ipol_r.html" target="_top" xlink:title=" ">
<polygon fill="white" stroke="#666666" points="311,-19 193,-19 193,0 311,0 311,-19"/>
<text text-anchor="middle" x="252" y="-7" font-family="Helvetica,sans-Serif" font-size="10.00">dg::geo::taylor::IpolR</text>
</a>
</g>
</g>
<!-- Node0&#45;&gt;Node3 -->
<g id="edge54_Node000000_Node000003" class="edge">
<title>Node0&#45;&gt;Node3</title>
<g id="a_edge54_Node000000_Node000003"><a xlink:title=" ">
<path fill="none" stroke="#63b8ff" d="M157.57,-29.37C174.31,-25.81 191.37,-22.18 206.25,-19.02"/>
<polygon fill="#63b8ff" stroke="#63b8ff" points="156.83,-25.95 147.77,-31.45 158.28,-32.79 156.83,-25.95"/>
</a>
</g>
</g>
</g>
</svg>
