<?xml version="1.0" encoding="UTF-8" standalone="no"?>
<!DOCTYPE svg PUBLIC "-//W3C//DTD SVG 1.1//EN"
 "http://www.w3.org/Graphics/SVG/1.1/DTD/svg11.dtd">
<!-- Generated by graphviz version 2.43.0 (0)
 -->
<!-- Title: dg::geo::aRealGenerator2d&lt; real_type &gt; Pages: 1 -->
<svg width="354pt" height="412pt"
 viewBox="0.00 0.00 354.00 412.00" xmlns="http://www.w3.org/2000/svg" xmlns:xlink="http://www.w3.org/1999/xlink">
<g id="graph0" class="graph" transform="scale(1 1) rotate(0) translate(4 408)">
<title>dg::geo::aRealGenerator2d&lt; real_type &gt;</title>
<!-- Node1 -->
<g id="Node000001" class="node">
<title>Node1</title>
<g id="a_Node000001"><a xlink:title="The abstract generator base class.">
<polygon fill="#999999" stroke="#666666" points="147,-212 0,-212 0,-182 147,-182 147,-212"/>
<text text-anchor="start" x="8" y="-200" font-family="Helvetica,sans-Serif" font-size="10.00">dg::geo::aRealGenerator2d</text>
<text text-anchor="middle" x="73.5" y="-189" font-family="Helvetica,sans-Serif" font-size="10.00">&lt; real_type &gt;</text>
</a>
</g>
</g>
<!-- Node2 -->
<g id="Node000002" class="node">
<title>Node2</title>
<g id="a_Node000002"><a xlink:href="structdg_1_1geo_1_1_d_s_p_generator.html" target="_top" xlink:title="A transformed field grid generator.">
<polygon fill="white" stroke="#666666" points="328,-404 201,-404 201,-374 328,-374 328,-404"/>
<text text-anchor="start" x="209" y="-392" font-family="Helvetica,sans-Serif" font-size="10.00">dg::geo::DSPGenerator</text>
<text text-anchor="middle" x="264.5" y="-381" font-family="Helvetica,sans-Serif" font-size="10.00">&lt; double &gt;</text>
</a>
</g>
</g>
<!-- Node1&#45;&gt;Node2 -->
<g id="edge1_Node000001_Node000002" class="edge">
<title>Node1&#45;&gt;Node2</title>
<g id="a_edge1_Node000001_Node000002"><a xlink:title=" ">
<path fill="none" stroke="#63b8ff" d="M83.81,-221.55C98.97,-258.24 132.48,-327.1 183,-365 188.37,-369.03 194.4,-372.38 200.7,-375.17"/>
<polygon fill="#63b8ff" stroke="#63b8ff" points="86.99,-220.09 80.02,-212.11 80.5,-222.7 86.99,-220.09"/>
</a>
</g>
</g>
<!-- Node3 -->
<g id="Node000003" class="node">
<title>Node3</title>
<g id="a_Node000003"><a xlink:href="structdg_1_1geo_1_1_flux_generator.html" target="_top" xlink:title="A symmetry flux generator.">
<polygon fill="white" stroke="#666666" points="328.5,-356 200.5,-356 200.5,-326 328.5,-326 328.5,-356"/>
<text text-anchor="start" x="208.5" y="-344" font-family="Helvetica,sans-Serif" font-size="10.00">dg::geo::FluxGenerator</text>
<text text-anchor="middle" x="264.5" y="-333" font-family="Helvetica,sans-Serif" font-size="10.00">&lt; double &gt;</text>
</a>
</g>
</g>
<!-- Node1&#45;&gt;Node3 -->
<g id="edge2_Node000001_Node000003" class="edge">
<title>Node1&#45;&gt;Node3</title>
<g id="a_edge2_Node000001_Node000003"><a xlink:title=" ">
<path fill="none" stroke="#63b8ff" d="M90,-220.86C108.83,-248.01 143.09,-291.83 183,-317 188.43,-320.42 194.37,-323.38 200.48,-325.93"/>
<polygon fill="#63b8ff" stroke="#63b8ff" points="92.73,-218.65 84.22,-212.35 86.94,-222.59 92.73,-218.65"/>
</a>
</g>
</g>
<!-- Node4 -->
<g id="Node000004" class="node">
<title>Node4</title>
<g id="a_Node000004"><a xlink:href="structdg_1_1geo_1_1_hector.html" target="_top" xlink:title="The High PrEcision Conformal grid generaTOR.">
<polygon fill="white" stroke="#666666" points="334.5,-308 194.5,-308 194.5,-278 334.5,-278 334.5,-308"/>
<text text-anchor="start" x="202.5" y="-296" font-family="Helvetica,sans-Serif" font-size="10.00">dg::geo::Hector&lt; IMatrix,</text>
<text text-anchor="middle" x="264.5" y="-285" font-family="Helvetica,sans-Serif" font-size="10.00"> Matrix, container &gt;</text>
</a>
</g>
</g>
<!-- Node1&#45;&gt;Node4 -->
<g id="edge3_Node000001_Node000004" class="edge">
<title>Node1&#45;&gt;Node4</title>
<g id="a_edge3_Node000001_Node000004"><a xlink:title=" ">
<path fill="none" stroke="#63b8ff" d="M101.64,-218.31C122.81,-234.1 153.49,-255.19 183,-269 190.13,-272.34 197.84,-275.34 205.56,-277.99"/>
<polygon fill="#63b8ff" stroke="#63b8ff" points="103.54,-215.37 93.46,-212.12 99.32,-220.95 103.54,-215.37"/>
</a>
</g>
</g>
<!-- Node5 -->
<g id="Node000005" class="node">
<title>Node5</title>
<g id="a_Node000005"><a xlink:href="structdg_1_1geo_1_1_log_polar_generator.html" target="_top" xlink:title="Log Polar coordinates (conformal)">
<polygon fill="white" stroke="#666666" points="339,-260 190,-260 190,-230 339,-230 339,-260"/>
<text text-anchor="start" x="198" y="-248" font-family="Helvetica,sans-Serif" font-size="10.00">dg::geo::LogPolarGenerator</text>
<text text-anchor="middle" x="264.5" y="-237" font-family="Helvetica,sans-Serif" font-size="10.00">&lt; double &gt;</text>
</a>
</g>
</g>
<!-- Node1&#45;&gt;Node5 -->
<g id="edge4_Node000001_Node000005" class="edge">
<title>Node1&#45;&gt;Node5</title>
<g id="a_edge4_Node000001_Node000005"><a xlink:title=" ">
<path fill="none" stroke="#63b8ff" d="M143.72,-214.58C163.64,-219.64 185.18,-225.11 204.43,-230"/>
<polygon fill="#63b8ff" stroke="#63b8ff" points="144.34,-211.13 133.78,-212.06 142.61,-217.91 144.34,-211.13"/>
</a>
</g>
</g>
<!-- Node6 -->
<g id="Node000006" class="node">
<title>Node6</title>
<g id="a_Node000006"><a xlink:href="structdg_1_1geo_1_1_polar_generator.html" target="_top" xlink:title="Polar coordinates.">
<polygon fill="white" stroke="#666666" points="330.5,-212 198.5,-212 198.5,-182 330.5,-182 330.5,-212"/>
<text text-anchor="start" x="206.5" y="-200" font-family="Helvetica,sans-Serif" font-size="10.00">dg::geo::PolarGenerator</text>
<text text-anchor="middle" x="264.5" y="-189" font-family="Helvetica,sans-Serif" font-size="10.00">&lt; double &gt;</text>
</a>
</g>
</g>
<!-- Node1&#45;&gt;Node6 -->
<g id="edge5_Node000001_Node000006" class="edge">
<title>Node1&#45;&gt;Node6</title>
<g id="a_edge5_Node000001_Node000006"><a xlink:title=" ">
<path fill="none" stroke="#63b8ff" d="M157.41,-197C171.09,-197 185.11,-197 198.27,-197"/>
<polygon fill="#63b8ff" stroke="#63b8ff" points="157.03,-193.5 147.03,-197 157.03,-200.5 157.03,-193.5"/>
</a>
</g>
</g>
<!-- Node7 -->
<g id="Node000007" class="node">
<title>Node7</title>
<g id="a_Node000007"><a xlink:href="structdg_1_1geo_1_1_ribeiro.html" target="_top" xlink:title="A two&#45;dimensional grid based on &quot;almost&#45;conformal&quot; coordinates by Ribeiro and Scott 2010.">
<polygon fill="white" stroke="#666666" points="339,-163.5 190,-163.5 190,-144.5 339,-144.5 339,-163.5"/>
<text text-anchor="middle" x="264.5" y="-151.5" font-family="Helvetica,sans-Serif" font-size="10.00">dg::geo::Ribeiro&lt; double &gt;</text>
</a>
</g>
</g>
<!-- Node1&#45;&gt;Node7 -->
<g id="edge6_Node000001_Node000007" class="edge">
<title>Node1&#45;&gt;Node7</title>
<g id="a_edge6_Node000001_Node000007"><a xlink:title=" ">
<path fill="none" stroke="#63b8ff" d="M150.52,-179.7C174.78,-174.18 200.74,-168.28 221.65,-163.52"/>
<polygon fill="#63b8ff" stroke="#63b8ff" points="149.58,-176.33 140.6,-181.96 151.13,-183.15 149.58,-176.33"/>
</a>
</g>
</g>
<!-- Node8 -->
<g id="Node000008" class="node">
<title>Node8</title>
<g id="a_Node000008"><a xlink:href="structdg_1_1geo_1_1_ribeiro_flux_generator.html" target="_top" xlink:title="Same as the Ribeiro class but uses &#160;as a flux label directly.">
<polygon fill="white" stroke="#666666" points="346,-126 183,-126 183,-96 346,-96 346,-126"/>
<text text-anchor="start" x="191" y="-114" font-family="Helvetica,sans-Serif" font-size="10.00">dg::geo::RibeiroFluxGenerator</text>
<text text-anchor="middle" x="264.5" y="-103" font-family="Helvetica,sans-Serif" font-size="10.00">&lt; double &gt;</text>
</a>
</g>
</g>
<!-- Node1&#45;&gt;Node8 -->
<g id="edge7_Node000001_Node000008" class="edge">
<title>Node1&#45;&gt;Node8</title>
<g id="a_edge7_Node000001_Node000008"><a xlink:title=" ">
<path fill="none" stroke="#63b8ff" d="M106.46,-176.66C127.6,-163.81 156.26,-147.52 183,-136 191.33,-132.41 200.35,-129.09 209.23,-126.13"/>
<polygon fill="#63b8ff" stroke="#63b8ff" points="104.58,-173.71 97.89,-181.93 108.24,-179.68 104.58,-173.71"/>
</a>
</g>
</g>
<!-- Node9 -->
<g id="Node000009" class="node">
<title>Node9</title>
<g id="a_Node000009"><a xlink:href="structdg_1_1geo_1_1_separatrix_orthogonal_adaptor.html" target="_top" xlink:title="An Adaptor to use SeparatrixOrthogonal as aGenerator2d instead of aGeneratorX2d.">
<polygon fill="white" stroke="#666666" points="346,-78 183,-78 183,-48 346,-48 346,-78"/>
<text text-anchor="start" x="191" y="-66" font-family="Helvetica,sans-Serif" font-size="10.00">dg::geo::SeparatrixOrthogonal</text>
<text text-anchor="middle" x="264.5" y="-55" font-family="Helvetica,sans-Serif" font-size="10.00">Adaptor&lt; double &gt;</text>
</a>
</g>
</g>
<!-- Node1&#45;&gt;Node9 -->
<g id="edge8_Node000001_Node000009" class="edge">
<title>Node1&#45;&gt;Node9</title>
<g id="a_edge8_Node000001_Node000009"><a xlink:title=" ">
<path fill="none" stroke="#63b8ff" d="M91.64,-173.64C111.12,-148.71 145.15,-109.74 183,-87 188.63,-83.62 194.76,-80.69 201.05,-78.15"/>
<polygon fill="#63b8ff" stroke="#63b8ff" points="88.68,-171.75 85.38,-181.82 94.24,-176.01 88.68,-171.75"/>
</a>
</g>
</g>
<!-- Node10 -->
<g id="Node000010" class="node">
<title>Node10</title>
<g id="a_Node000010"><a xlink:href="structdg_1_1geo_1_1_simple_orthogonal.html" target="_top" xlink:title="Generate a simple orthogonal grid.">
<polygon fill="white" stroke="#666666" points="337.5,-30 191.5,-30 191.5,0 337.5,0 337.5,-30"/>
<text text-anchor="start" x="199.5" y="-18" font-family="Helvetica,sans-Serif" font-size="10.00">dg::geo::SimpleOrthogonal</text>
<text text-anchor="middle" x="264.5" y="-7" font-family="Helvetica,sans-Serif" font-size="10.00">&lt; double &gt;</text>
</a>
</g>
</g>
<!-- Node1&#45;&gt;Node10 -->
<g id="edge9_Node000001_Node000010" class="edge">
<title>Node1&#45;&gt;Node10</title>
<g id="a_edge9_Node000001_Node000010"><a xlink:title=" ">
<path fill="none" stroke="#63b8ff" d="M84.89,-172.41C100.87,-137.55 134.77,-74.12 183,-39 187.72,-35.57 192.92,-32.62 198.35,-30.09"/>
<polygon fill="#63b8ff" stroke="#63b8ff" points="81.56,-171.28 80.69,-181.84 87.96,-174.13 81.56,-171.28"/>
</a>
</g>
</g>
</g>
</svg>
