<?xml version="1.0" encoding="UTF-8" standalone="no"?>
<!DOCTYPE svg PUBLIC "-//W3C//DTD SVG 1.1//EN"
 "http://www.w3.org/Graphics/SVG/1.1/DTD/svg11.dtd">
<!-- Generated by graphviz version 2.43.0 (0)
 -->
<!-- Title: dg::geo::RealCurvilinearRefinedProductGridX3d&lt; real_type &gt; Pages: 1 -->
<svg width="142pt" height="181pt"
 viewBox="0.00 0.00 142.00 181.00" xmlns="http://www.w3.org/2000/svg" xmlns:xlink="http://www.w3.org/1999/xlink">
<g id="graph0" class="graph" transform="scale(1 1) rotate(0) translate(4 177)">
<title>dg::geo::RealCurvilinearRefinedProductGridX3d&lt; real_type &gt;</title>
<!-- Node1 -->
<g id="Node000001" class="node">
<title>Node1</title>
<g id="a_Node000001"><a xlink:title="A three&#45;dimensional grid based on curvilinear coordinates.">
<polygon fill="#999999" stroke="#666666" points="134,-41 0,-41 0,0 134,0 134,-41"/>
<text text-anchor="start" x="8" y="-29" font-family="Helvetica,sans-Serif" font-size="10.00">dg::geo::RealCurvilinear</text>
<text text-anchor="start" x="8" y="-18" font-family="Helvetica,sans-Serif" font-size="10.00">RefinedProductGridX3d</text>
<text text-anchor="middle" x="67" y="-7" font-family="Helvetica,sans-Serif" font-size="10.00">&lt; real_type &gt;</text>
</a>
</g>
</g>
<!-- Node2 -->
<g id="Node000002" class="node">
<title>Node2</title>
<g id="a_Node000002"><a target="_parent" xlink:href="../../dg/html/structdg_1_1a_real_geometry_x3d.html" xlink:title=" ">
<polygon fill="white" stroke="#666666" points="132,-107 2,-107 2,-77 132,-77 132,-107"/>
<text text-anchor="start" x="10" y="-95" font-family="Helvetica,sans-Serif" font-size="10.00">dg::aRealGeometryX3d</text>
<text text-anchor="middle" x="67" y="-84" font-family="Helvetica,sans-Serif" font-size="10.00">&lt; real_type &gt;</text>
</a>
</g>
</g>
<!-- Node2&#45;&gt;Node1 -->
<g id="edge1_Node000001_Node000002" class="edge">
<title>Node2&#45;&gt;Node1</title>
<g id="a_edge1_Node000001_Node000002"><a xlink:title=" ">
<path fill="none" stroke="#63b8ff" d="M67,-66.91C67,-58.47 67,-49.1 67,-41.07"/>
<polygon fill="#63b8ff" stroke="#63b8ff" points="63.5,-66.94 67,-76.94 70.5,-66.94 63.5,-66.94"/>
</a>
</g>
</g>
<!-- Node3 -->
<g id="Node000003" class="node">
<title>Node3</title>
<g id="a_Node000003"><a target="_parent" xlink:href="../../dg/html/structdg_1_1a_real_topology_x3d.html" xlink:title=" ">
<polygon fill="white" stroke="#666666" points="129.5,-173 4.5,-173 4.5,-143 129.5,-143 129.5,-173"/>
<text text-anchor="start" x="12.5" y="-161" font-family="Helvetica,sans-Serif" font-size="10.00">dg::aRealTopologyX3d</text>
<text text-anchor="middle" x="67" y="-150" font-family="Helvetica,sans-Serif" font-size="10.00">&lt; real_type &gt;</text>
</a>
</g>
</g>
<!-- Node3&#45;&gt;Node2 -->
<g id="edge2_Node000002_Node000003" class="edge">
<title>Node3&#45;&gt;Node2</title>
<g id="a_edge2_Node000002_Node000003"><a xlink:title=" ">
<path fill="none" stroke="#63b8ff" d="M67,-132.54C67,-123.96 67,-114.61 67,-107.16"/>
<polygon fill="#63b8ff" stroke="#63b8ff" points="63.5,-132.8 67,-142.8 70.5,-132.8 63.5,-132.8"/>
</a>
</g>
</g>
</g>
</svg>
