<?xml version="1.0" encoding="UTF-8" standalone="no"?>
<!DOCTYPE svg PUBLIC "-//W3C//DTD SVG 1.1//EN"
 "http://www.w3.org/Graphics/SVG/1.1/DTD/svg11.dtd">
<!-- Generated by graphviz version 2.43.0 (0)
 -->
<!-- Title: dg::geo::RealCurvilinearProductMPIGrid3d&lt; real_type &gt; Pages: 1 -->
<svg width="186pt" height="247pt"
 viewBox="0.00 0.00 186.00 247.00" xmlns="http://www.w3.org/2000/svg" xmlns:xlink="http://www.w3.org/1999/xlink">
<g id="graph0" class="graph" transform="scale(1 1) rotate(0) translate(4 243)">
<title>dg::geo::RealCurvilinearProductMPIGrid3d&lt; real_type &gt;</title>
<!-- Node1 -->
<g id="Node000001" class="node">
<title>Node1</title>
<g id="a_Node000001"><a xlink:title="A 2x1 curvilinear product space MPI grid.">
<polygon fill="#999999" stroke="#666666" points="156,-41 22,-41 22,0 156,0 156,-41"/>
<text text-anchor="start" x="30" y="-29" font-family="Helvetica,sans-Serif" font-size="10.00">dg::geo::RealCurvilinear</text>
<text text-anchor="start" x="30" y="-18" font-family="Helvetica,sans-Serif" font-size="10.00">ProductMPIGrid3d&lt; real</text>
<text text-anchor="middle" x="89" y="-7" font-family="Helvetica,sans-Serif" font-size="10.00">_type &gt;</text>
</a>
</g>
</g>
<!-- Node2 -->
<g id="Node000002" class="node">
<title>Node2</title>
<g id="a_Node000002"><a target="_parent" xlink:href="../../dg/html/structdg_1_1a_real_product_m_p_i_geometry3d.html" xlink:title=" ">
<polygon fill="white" stroke="#666666" points="178,-107 0,-107 0,-77 178,-77 178,-107"/>
<text text-anchor="start" x="8" y="-95" font-family="Helvetica,sans-Serif" font-size="10.00">dg::aRealProductMPIGeometry3d</text>
<text text-anchor="middle" x="89" y="-84" font-family="Helvetica,sans-Serif" font-size="10.00">&lt; real_type &gt;</text>
</a>
</g>
</g>
<!-- Node2&#45;&gt;Node1 -->
<g id="edge1_Node000001_Node000002" class="edge">
<title>Node2&#45;&gt;Node1</title>
<g id="a_edge1_Node000001_Node000002"><a xlink:title=" ">
<path fill="none" stroke="#63b8ff" d="M89,-66.91C89,-58.47 89,-49.1 89,-41.07"/>
<polygon fill="#63b8ff" stroke="#63b8ff" points="85.5,-66.94 89,-76.94 92.5,-66.94 85.5,-66.94"/>
</a>
</g>
</g>
<!-- Node3 -->
<g id="Node000003" class="node">
<title>Node3</title>
<g id="a_Node000003"><a target="_parent" xlink:href="../../dg/html/structdg_1_1a_real_m_p_i_geometry3d.html" xlink:title=" ">
<polygon fill="white" stroke="#666666" points="159.5,-173 18.5,-173 18.5,-143 159.5,-143 159.5,-173"/>
<text text-anchor="start" x="26.5" y="-161" font-family="Helvetica,sans-Serif" font-size="10.00">dg::aRealMPIGeometry3d</text>
<text text-anchor="middle" x="89" y="-150" font-family="Helvetica,sans-Serif" font-size="10.00">&lt; real_type &gt;</text>
</a>
</g>
</g>
<!-- Node3&#45;&gt;Node2 -->
<g id="edge2_Node000002_Node000003" class="edge">
<title>Node3&#45;&gt;Node2</title>
<g id="a_edge2_Node000002_Node000003"><a xlink:title=" ">
<path fill="none" stroke="#63b8ff" d="M89,-132.54C89,-123.96 89,-114.61 89,-107.16"/>
<polygon fill="#63b8ff" stroke="#63b8ff" points="85.5,-132.8 89,-142.8 92.5,-132.8 85.5,-132.8"/>
</a>
</g>
</g>
<!-- Node4 -->
<g id="Node000004" class="node">
<title>Node4</title>
<g id="a_Node000004"><a target="_parent" xlink:href="../../dg/html/structdg_1_1a_real_m_p_i_topology.html" xlink:title=" ">
<polygon fill="white" stroke="#666666" points="151,-239 27,-239 27,-209 151,-209 151,-239"/>
<text text-anchor="start" x="35" y="-227" font-family="Helvetica,sans-Serif" font-size="10.00">dg::aRealMPITopology</text>
<text text-anchor="middle" x="89" y="-216" font-family="Helvetica,sans-Serif" font-size="10.00">&lt; real_type, Nd &gt;</text>
</a>
</g>
</g>
<!-- Node4&#45;&gt;Node3 -->
<g id="edge3_Node000003_Node000004" class="edge">
<title>Node4&#45;&gt;Node3</title>
<g id="a_edge3_Node000003_Node000004"><a xlink:title=" ">
<path fill="none" stroke="#63b8ff" d="M89,-198.54C89,-189.96 89,-180.61 89,-173.16"/>
<polygon fill="#63b8ff" stroke="#63b8ff" points="85.5,-198.8 89,-208.8 92.5,-198.8 85.5,-198.8"/>
</a>
</g>
</g>
</g>
</svg>
