<?xml version="1.0" encoding="UTF-8" standalone="no"?>
<!DOCTYPE svg PUBLIC "-//W3C//DTD SVG 1.1//EN"
 "http://www.w3.org/Graphics/SVG/1.1/DTD/svg11.dtd">
<!-- Generated by graphviz version 2.43.0 (0)
 -->
<!-- Title: dg::geo::aRealGeneratorX2d&lt; real_type &gt; Pages: 1 -->
<svg width="298pt" height="104pt"
 viewBox="0.00 0.00 297.50 104.00" xmlns="http://www.w3.org/2000/svg" xmlns:xlink="http://www.w3.org/1999/xlink">
<g id="graph0" class="graph" transform="scale(1 1) rotate(0) translate(4 100)">
<title>dg::geo::aRealGeneratorX2d&lt; real_type &gt;</title>
<!-- Node1 -->
<g id="Node000001" class="node">
<title>Node1</title>
<g id="a_Node000001"><a xlink:title="The abstract generator base class.">
<polygon fill="#999999" stroke="#666666" points="208,-96 54,-96 54,-66 208,-66 208,-96"/>
<text text-anchor="start" x="62" y="-84" font-family="Helvetica,sans-Serif" font-size="10.00">dg::geo::aRealGeneratorX2d</text>
<text text-anchor="middle" x="131" y="-73" font-family="Helvetica,sans-Serif" font-size="10.00">&lt; real_type &gt;</text>
</a>
</g>
</g>
<!-- Node2 -->
<g id="Node000002" class="node">
<title>Node2</title>
<g id="a_Node000002"><a xlink:href="structdg_1_1geo_1_1_ribeiro_x.html" target="_top" xlink:title="A two&#45;dimensional grid based on &quot;almost&#45;conformal&quot; coordinates by Ribeiro and Scott 2010.">
<polygon fill="white" stroke="#666666" points="108,-30 0,-30 0,0 108,0 108,-30"/>
<text text-anchor="start" x="8" y="-18" font-family="Helvetica,sans-Serif" font-size="10.00">dg::geo::RibeiroX&lt;</text>
<text text-anchor="middle" x="54" y="-7" font-family="Helvetica,sans-Serif" font-size="10.00"> double &gt;</text>
</a>
</g>
</g>
<!-- Node1&#45;&gt;Node2 -->
<g id="edge1_Node000001_Node000002" class="edge">
<title>Node1&#45;&gt;Node2</title>
<g id="a_edge1_Node000001_Node000002"><a xlink:title=" ">
<path fill="none" stroke="#63b8ff" d="M105.98,-59.2C94.55,-49.7 81.3,-38.69 71.04,-30.16"/>
<polygon fill="#63b8ff" stroke="#63b8ff" points="103.98,-62.1 113.91,-65.8 108.46,-56.71 103.98,-62.1"/>
</a>
</g>
</g>
<!-- Node3 -->
<g id="Node000003" class="node">
<title>Node3</title>
<g id="a_Node000003"><a xlink:href="structdg_1_1geo_1_1_separatrix_orthogonal.html" target="_top" xlink:title="Choose points on separatrix and construct grid from there.">
<polygon fill="white" stroke="#666666" points="289.5,-30 126.5,-30 126.5,0 289.5,0 289.5,-30"/>
<text text-anchor="start" x="134.5" y="-18" font-family="Helvetica,sans-Serif" font-size="10.00">dg::geo::SeparatrixOrthogonal</text>
<text text-anchor="middle" x="208" y="-7" font-family="Helvetica,sans-Serif" font-size="10.00">&lt; double &gt;</text>
</a>
</g>
</g>
<!-- Node1&#45;&gt;Node3 -->
<g id="edge2_Node000001_Node000003" class="edge">
<title>Node1&#45;&gt;Node3</title>
<g id="a_edge2_Node000001_Node000003"><a xlink:title=" ">
<path fill="none" stroke="#63b8ff" d="M156.02,-59.2C167.45,-49.7 180.7,-38.69 190.96,-30.16"/>
<polygon fill="#63b8ff" stroke="#63b8ff" points="153.54,-56.71 148.09,-65.8 158.02,-62.1 153.54,-56.71"/>
</a>
</g>
</g>
</g>
</svg>
